<?xml version="1.0" encoding="utf-8"?>
<!-- Uploaded to: SVG Repo, www.svgrepo.com, Generator: SVG Repo Mixer Tools -->
<svg width="800px" height="800px" viewBox="0 0 1024 1024" class="icon"  version="1.1" xmlns="http://www.w3.org/2000/svg"><path d="M512.5 136.6l-389.4 283 148.7 457.8h481.4l148.7-457.8z" fill="#FFFFFF" /><path d="M712.2 746.7c0-20.9-17-37.8-37.8-37.8-10.7 0-20.4 4.5-27.3 11.6l43.5 60.3c12.7-6.1 21.6-19.1 21.6-34.1zM636.5 746.7c0 18.8 13.8 34.4 31.7 37.3L637 740.7c-0.3 2-0.5 4-0.5 6z" fill="#E6E6E6" /><path d="M690.6 780.8l-43.5-60.3c-5.2 5.4-8.8 12.4-10.1 20.2l31.2 43.3c2 0.3 4 0.5 6.1 0.5 5.9 0 11.4-1.3 16.3-3.7z" fill="#E6E6E6" /><path d="M536.9 723c-2.3-5-8.3-7.2-13.3-4.9s-7.2 8.3-4.9 13.3c1.5 3.3 3.2 6.5 4.9 9.6 1.8 3.3 5.2 5.1 8.7 5.1 1.7 0 3.3-0.4 4.9-1.3 4.8-2.7 6.5-8.8 3.8-13.6-1.4-2.6-2.9-5.4-4.1-8.2zM526.7 687.7c-0.3-3-0.5-5.8-0.5-8.4v-0.3c0-5.5-4.4-10-9.9-10.1h-0.1c-5.5 0-10 4.4-10 9.9v0.5c0 3.4 0.2 7 0.6 10.7 0.6 5.1 4.9 8.9 9.9 8.9 0.4 0 0.8 0 1.1-0.1 5.6-0.6 9.5-5.6 8.9-11.1zM571.1 764.4c-2.5-1.6-4.9-3.4-7.2-5.3-4.3-3.5-10.6-2.9-14.1 1.4s-2.9 10.6 1.4 14.1c2.9 2.4 5.9 4.6 8.9 6.6 1.7 1.1 3.6 1.6 5.5 1.6 3.3 0 6.5-1.6 8.4-4.5 3-4.7 1.7-10.9-2.9-13.9zM613.1 777.1c-3-0.1-6.1-0.3-9-0.7-5.5-0.7-10.5 3.2-11.2 8.6-0.7 5.5 3.2 10.5 8.6 11.2 3.6 0.5 7.2 0.7 10.9 0.8h0.3c5.4 0 9.8-4.3 10-9.7 0.2-5.5-4.1-10.1-9.6-10.2zM542.7 626c-4.7-2.9-10.9-1.3-13.7 3.4-1.8 3-3.5 5.8-5.2 8.4-2.9 4.7-1.5 10.9 3.2 13.8 1.6 1 3.5 1.5 5.3 1.5 3.3 0 6.6-1.7 8.5-4.7 1.8-2.9 3.6-5.8 5.3-8.7 2.9-4.7 1.3-10.8-3.4-13.7zM573.1 541.6c-1.2 3-2.4 6.1-3.6 9.1-2.1 5.1 0.3 11 5.4 13.1 1.3 0.5 2.6 0.8 3.8 0.8 3.9 0 7.6-2.3 9.2-6.2 1.3-3.2 2.6-6.4 3.8-9.5 2-5.1-0.6-10.9-5.7-12.9-1.5-0.6-3-0.8-4.5-0.6l-4.2 1.4c-1.8 0.9-3.4 2.6-4.2 4.8z" fill="#005BFF" /><path d="M512.5 136.6l-389.4 283 148.7 457.8h481.3l148.7-457.8-389.3-283z m10 56.8L845 427.7l-43.2 14.2L522.5 239v-45.6z m0 70.3l255.8 185.9-173.1 56.8c0.6-2.3 1.1-4.7 1.6-7 1.1-5.4-2.3-10.7-7.7-11.8s-10.7 2.3-11.8 7.7c-0.6 3-1.4 6.2-2.2 9.4-0.7 2.8-0.1 5.7 1.3 7.9L536.6 529c-3.5-4.9-8.4-8.6-14.1-10.7V263.7zM173.9 446.5l72.8 23.4c1.3-6.7 3.4-13 6.4-19l-72.9-23.4 322.3-234.2v165.2c-0.6-0.1-1.1-0.2-1.7-0.2-3.6-0.2-7.2-0.2-10.8-0.1-5.5 0.2-9.9 4.8-9.7 10.3 0.2 5.5 4.7 9.9 10.3 9.7 3.1-0.1 6.2-0.1 9.2 0.1h0.5c0.8 0 1.5-0.1 2.2-0.3v140.2c-5 1.8-9.3 4.8-12.6 8.8l-98.7-31.7c-1.1 6.7-3.1 13.1-5.9 19.1l97.6 31.4v0.2c0 7.2 2.6 13.8 6.9 18.9l-192.6 261-123.3-379.4z m139.7 390.9l193.6-262.2c1.7 0.3 3.5 0.5 5.3 0.5 1.7 0 3.4-0.2 5.1-0.4l105.1 145.6c-3.9 7.8-6.1 16.6-6.1 25.9 0 31.9 25.9 57.8 57.8 57.8 2.8 0 5.6-0.2 8.3-0.6l24.1 33.5H313.6z m322.9-90.7c0-2 0.2-4 0.5-6 1.2-7.8 4.9-14.8 10.1-20.2 6.9-7.2 16.6-11.6 27.3-11.6 20.9 0 37.8 17 37.8 37.8 0 15-8.8 28-21.6 34.1-4.9 2.4-10.4 3.7-16.3 3.7-2.1 0-4.1-0.2-6.1-0.5-17.9-2.9-31.7-18.5-31.7-37.3z m89.9 83.7l-23.9-33.2c17.7-9.9 29.7-28.8 29.7-50.5 0-31.9-25.9-57.8-57.8-57.8-15.1 0-28.8 5.8-39.1 15.3l-70.5-97.7c0.5-0.6 1-1.3 1.4-2 1.6-3 3.2-6.1 4.7-9 2.5-4.9 0.5-10.9-4.4-13.4s-10.9-0.5-13.4 4.4c-0.4 0.7-0.8 1.5-1.1 2.2l-17-23.5c4-4.7 6.5-10.6 7-17l35.3-11.6c1.3-0.8 2.7-1.3 4.2-1.4L851 446.7 726.4 830.4z" fill="#005BFF" /><path d="M360.6 422l-0.8 0.8c5.6 3.8 10.6 8.3 14.9 13.4l0.3-0.3c3.8-4 3.7-10.3-0.3-14.1-3.9-3.9-10.2-3.8-14.1 0.2zM590.5 448.8c0.3 2.9 0.5 6 0.6 9.1 0.1 5.4 4.6 9.7 10 9.7h0.3c5.5-0.1 9.9-4.7 9.7-10.3-0.1-3.7-0.3-7.3-0.7-10.8-0.6-5.5-5.6-9.4-11-8.8-5.6 0.6-9.5 5.6-8.9 11.1zM398 412.7c2 0 4.1-0.6 5.9-1.9 2.6-1.9 5.2-3.7 7.9-5.5 4.6-3 5.9-9.2 2.8-13.9-3-4.6-9.3-5.9-13.9-2.8-2.9 1.9-5.8 3.9-8.6 6-4.5 3.3-5.5 9.5-2.2 14 2 2.7 5.1 4.1 8.1 4.1zM544.6 389.1c1.3 0.6 2.7 0.9 4 0.9 3.8 0 7.5-2.2 9.2-6 2.2-5.1 0-11-5.1-13.2-3.3-1.4-6.6-2.8-9.9-4-5.2-1.9-10.9 0.8-12.8 6-1.9 5.2 0.8 10.9 6 12.8 2.8 1.1 5.7 2.3 8.6 3.5zM579.2 415.8c1.9 2.9 5.1 4.5 8.3 4.5 1.9 0 3.8-0.5 5.5-1.7 4.6-3.1 5.8-9.3 2.8-13.9-2.1-3.1-4.4-6.2-7-9-3.7-4.1-10-4.5-14.1-0.8s-4.5 10-0.8 14.1c1.9 2.1 3.7 4.4 5.3 6.8zM441.6 388.5c1.2 0 2.4-0.2 3.6-0.7 2.9-1.1 5.9-2.2 8.8-3.2 5.3-1.7 8.1-7.3 6.5-12.6-1.7-5.3-7.3-8.2-12.6-6.5-3.3 1.1-6.7 2.3-10 3.6-5.1 2-7.7 7.8-5.7 13 1.7 4 5.4 6.4 9.4 6.4zM577.3 536.6l4.2-1.4c-1.5 0.2-2.9 0.6-4.2 1.4z" fill="#005BFF" /><path d="M372.2 483.6c0-29.4-24-53.4-53.4-53.4-19.8 0-37.1 10.9-46.4 27l99.5 32c0.2-1.9 0.3-3.7 0.3-5.6zM265.4 483.6c0 29.4 24 53.4 53.4 53.4 20.5 0 38.4-11.7 47.3-28.7l-100.2-32.2c-0.3 2.4-0.5 4.9-0.5 7.5z" fill="#FFFFFF" /><path d="M366.1 508.3c3.1-5.8 5.1-12.3 5.8-19.1l-99.5-32c-3.3 5.7-5.5 12.1-6.5 18.9l100.2 32.2z" fill="#FFFFFF" /><path d="M374.7 436.2c-4.3-5.1-9.3-9.6-14.9-13.4-11.7-8-25.9-12.6-41.1-12.6-28.7 0-53.7 16.6-65.7 40.7-3 5.9-5.1 12.3-6.4 19-0.8 4.4-1.3 9-1.3 13.7 0 40.5 32.9 73.4 73.4 73.4 29.4 0 54.9-17.4 66.6-42.5 2.8-6 4.8-12.4 5.9-19.1 0.6-3.8 1-7.8 1-11.8 0-18.1-6.6-34.6-17.5-47.4z m-2.8 52.9c-0.7 6.8-2.7 13.3-5.8 19.1-8.9 17-26.8 28.7-47.3 28.7-29.4 0-53.4-24-53.4-53.4 0-2.6 0.2-5.1 0.5-7.5 1-6.8 3.2-13.2 6.5-18.9 9.2-16.1 26.5-27 46.4-27 29.4 0 53.4 24 53.4 53.4 0 2-0.1 3.8-0.3 5.6z" fill="#06F3FF" /></svg>