<svg xmlns="http://www.w3.org/2000/svg" fill="none" viewBox="0 0 1101 1101" height="1101" width="1101">
<path fill="#FAB5A3" d="M465.548 856.077C465.548 856.077 485.455 932.563 470.436 961.222C459.037 974.541 438.917 980.893 422.98 982.871C469.27 1003.75 640.055 1006.5 677.564 982.871C636.084 983.373 625.428 954.757 625.428 954.757C625.428 954.757 625.324 905.69 634.327 860.906C595.901 831.791 465.548 856.077 465.548 856.077Z" clip-rule="evenodd" fill-rule="evenodd"></path>
<g opacity="0.348749" style="mix-blend-mode:multiply">
<path fill="#E89A85" d="M472.16 888.184C472.18 888.307 472.2 888.43 472.22 888.553C477.138 894.183 547.116 972.244 652.514 978.914C631.538 971.165 625.428 954.757 625.428 954.757C625.428 954.757 625.324 905.69 634.327 860.906C630.94 858.34 626.84 856.189 622.178 854.4L472.16 888.184Z"></path>
</g>
<path fill="white" d="M404.162 978.285L453.961 967.786C453.961 967.786 546.705 1008.31 642.563 967.786C641.501 966.967 688.12 978.285 688.12 978.285C688.12 978.285 636.056 1028.36 532.799 1025.27C429.542 1022.17 404.162 978.285 404.162 978.285Z" clip-rule="evenodd" fill-rule="evenodd"></path>
<path fill="#D26161" d="M416.265 970.598C416.265 970.598 539.827 1036.56 668.068 970.598C748.014 984.622 863.668 1019.18 907.196 1044.22C950.724 1069.25 951.506 1100.12 951.506 1100.12H150.5C150.5 1100.12 153.684 1073.26 188.8 1046.61C223.916 1019.95 416.265 970.598 416.265 970.598Z" clip-rule="evenodd" fill-rule="evenodd"></path>
<path fill="white" d="M689.427 974.655C653.918 1004.71 603.953 1030.38 544.584 1028.4C483.837 1028.4 434.569 1006.01 396.939 975.687C399.288 975.059 401.458 974.482 403.427 973.96C439.596 1002.58 486.612 1023.31 544.702 1023.31C600.92 1025.18 648.263 1001.17 682.44 973.264C684.747 973.713 687.077 974.177 689.427 974.655Z"></path>
<path fill="#FD8787" d="M712.709 1100.12H384.478L394.176 1067.19H702.453L712.709 1100.12Z"></path>
<path fill="#FAB5A3" d="M770.448 592.057C770.448 592.057 847.98 521.693 893.654 557.98C939.329 594.266 875.816 723.2 783.512 717.476C691.209 711.753 770.448 592.057 770.448 592.057Z" clip-rule="evenodd" fill-rule="evenodd"></path>
<path fill="#C26B6B" d="M857.842 595.683C857.086 593.632 854.801 592.58 852.739 593.332C822.934 604.205 802.967 628.008 792.961 664.324C792.38 666.43 793.627 668.606 795.745 669.183C797.863 669.76 800.051 668.52 800.631 666.414C805.205 649.813 811.9 636.132 820.73 625.321C821.121 625.539 821.557 625.694 822.025 625.77C835.145 627.918 842.877 633.453 845.884 642.438C846.578 644.51 848.829 645.631 850.913 644.941C852.997 644.251 854.124 642.012 853.43 639.94C849.707 628.817 840.666 621.7 826.83 618.639C834.912 610.729 844.459 604.777 855.478 600.757C857.54 600.005 858.599 597.733 857.842 595.683Z"></path>
<path fill="#FAB5A3" d="M323.435 596.547C323.435 596.547 245.904 526.183 200.229 562.469C154.555 598.756 218.068 727.689 310.372 721.966C402.675 716.243 323.435 596.547 323.435 596.547Z" clip-rule="evenodd" fill-rule="evenodd"></path>
<path fill="#C26B6B" d="M232.645 595.16C233.402 593.109 235.686 592.057 237.748 592.809C267.554 603.682 287.521 627.485 297.527 663.8C298.107 665.907 296.86 668.082 294.742 668.66C292.624 669.237 290.436 667.997 289.856 665.891C285.282 649.29 278.587 635.608 269.757 624.797C269.365 625.015 268.93 625.17 268.461 625.247C255.341 627.394 247.609 632.93 244.602 641.914C243.908 643.987 241.657 645.107 239.573 644.418C237.489 643.728 236.362 641.489 237.056 639.417C240.779 628.293 249.821 621.177 263.657 618.116C255.575 610.205 246.029 604.254 235.009 600.234C232.947 599.482 231.889 597.21 232.645 595.16Z"></path>
<path fill="#FFD4C6" d="M263.435 476.752C248.126 319.934 364.803 180.899 521.837 167.989C693.866 153.846 838.894 296 827.276 468.218L813.492 672.552C804.185 810.503 689.185 917.419 550.923 916.664C412.456 917.425 296.216 812.56 282.763 674.747L263.435 476.752Z" clip-rule="evenodd" fill-rule="evenodd"></path>
<path fill="#FAB5A3" d="M768.143 275.871C774.643 284.172 780.689 292.843 786.242 301.847C781.314 352.891 763.366 471.672 702.037 496.418C639.504 318.423 410.347 383.003 410.347 383.003C410.347 383.003 389.869 353.527 411.737 322.467C433.606 291.407 511.155 242.451 511.155 242.451L768.143 275.871Z" opacity="0.509789"></path>
<path fill="#AA7758" d="M262.838 428.512C261.677 444.318 261.842 460.439 263.434 476.752L275.156 596.836C277.868 587.746 281.339 579.548 285.757 574.222C301.84 554.827 341.058 551.653 341.058 551.653V441.357L262.838 428.512Z"></path>
<path fill="#AA7758" d="M825.312 410.52L733.856 425.538V535.834C733.856 535.834 773.074 539.009 789.157 558.403C801.187 572.909 811.78 611.533 816.356 630.085L827.276 468.218C828.604 448.53 827.885 429.234 825.312 410.52Z"></path>
<ellipse fill="#FFA2A2" ry="31.6367" rx="47.7204" cy="719.636" cx="717.944" opacity="0.624907"></ellipse>
<ellipse fill="#FFA2A2" ry="31.6367" rx="47.7204" cy="738.766" cx="378.61" opacity="0.624907"></ellipse>
<path stroke-linecap="round" stroke-width="14.5823" stroke="#DA7B7B" d="M511.157 787.117C511.157 787.117 530.841 790.819 550.607 790.819C570.373 790.819 590.691 782.909 590.691 782.909"></path>
<rect fill="#83573D" rx="27.8369" height="70.2928" width="55.6738" y="585.18" x="646.365"></rect>
<rect fill="#83573D" rx="27.8369" height="70.2928" width="55.6738" y="593.089" x="383.908"></rect>
<path fill="#65422D" d="M622.507 568.265C622.507 568.265 691.185 549.538 716.87 550.073C672.726 485.77 622.507 568.265 622.507 568.265Z" clip-rule="evenodd" fill-rule="evenodd"></path>
<path fill="#65422D" d="M462.359 568.265C462.359 568.265 393.682 549.538 367.996 550.073C412.14 485.77 462.359 568.265 462.359 568.265Z" clip-rule="evenodd" fill-rule="evenodd"></path>
<path fill="#F28080" d="M539.767 593.96C543.675 594.551 546.362 598.18 545.769 602.067L544.444 610.834C539.523 643.806 536.378 669.463 535.011 687.758L534.842 690.103C534.171 699.875 534.051 707.314 534.461 712.317C534.569 713.639 534.712 714.748 534.875 715.626L534.989 716.211L535.314 716.286C540.274 717.206 550.622 715.947 565.547 712.108L570.438 710.803C574.247 709.75 578.192 711.967 579.251 715.755C580.309 719.543 578.079 723.467 574.27 724.519C550.903 730.976 535.779 732.593 527.291 728.579C515.826 723.157 518.308 687.054 531.615 599.929C532.163 596.341 535.315 593.788 538.87 593.881L539.767 593.96Z"></path>
<path fill="#65422D" d="M381.359 211.454C381.359 211.454 251.376 226.516 240.923 358.704C238.838 434.669 260.347 495.061 260.347 495.061L291.606 494.832C291.606 494.832 303.572 509.734 318.403 513.967C333.235 518.2 360.661 526.396 360.661 526.396C360.661 526.396 352.747 381.829 410.347 383.004C426.541 319.908 633.883 301.116 683.186 378.122C718.479 438.086 699.59 504.418 699.59 504.418C699.59 504.418 730.937 500.873 741.825 489.783C752.713 478.693 752.249 472.577 756.954 471.838C764.845 471.082 773.146 487.5 784.141 482.313C789.117 479.965 792.591 467.294 800.494 463.007C799.265 458.035 820.017 470.149 823.56 466.282C844.879 412.624 868.711 286.027 756.786 201.247C715.567 170.025 652.203 97.7943 486.883 124.256C418.735 138.228 381.359 211.454 381.359 211.454Z" clip-rule="evenodd" fill-rule="evenodd"></path>
<path fill="#533524" d="M775.784 482.555C777.664 471.814 779.831 444.962 774.16 383.67C774.16 415.8 757.008 471.674 756.958 471.838C760.233 471.526 763.579 474.172 767.158 477.002C769.875 479.15 772.726 481.405 775.784 482.555Z"></path>
<path fill="#533524" d="M700.238 501.852C715.435 473.734 726.358 427.805 726.358 427.805C746.257 304.645 585.694 261.326 585.694 261.326C439.765 236.753 398.412 309.403 397.461 367.023C326.913 374.144 316.297 422.042 353.769 524.343C357.949 525.585 360.661 526.396 360.661 526.396C360.661 526.396 352.747 381.829 410.347 383.004C426.541 319.908 633.883 301.116 683.186 378.122C714.384 431.128 703.244 489.11 700.238 501.852Z"></path>
<path fill="#533524" d="M717.77 215.419C717.77 215.419 776.125 270.732 765.794 314.344C789.43 261.284 717.77 215.419 717.77 215.419Z"></path>
<path fill="#533524" d="M566.83 221.463C566.83 221.463 712.795 246.062 742.104 322.946C723.296 218.114 566.83 221.463 566.83 221.463Z"></path>
<path fill="#533524" d="M354.885 274.961C354.885 249.205 377.584 222.898 377.584 222.898C377.584 222.898 372.521 243.146 372.088 249.018C383.35 241.271 409.551 234.402 409.477 236.583C396.654 242.758 371.97 259.027 372.088 264.254C372.574 285.734 378.392 311.077 383.902 332.086C375.083 323.327 360.042 298.534 360.042 298.534C360.042 298.534 329.154 306.46 306.51 346.269C306.51 304.456 334.092 282.6 354.885 274.961Z"></path>
</svg>



