<?xml version="1.0" encoding="utf-8"?><!-- Uploaded to: SVG Repo, www.svgrepo.com, Generator: SVG Repo Mixer Tools -->
<svg width="800px" height="800px" viewBox="0 0 500 500" fill="none" xmlns="http://www.w3.org/2000/svg">
<path fill-rule="evenodd" clip-rule="evenodd" d="M341.634 143.016C341.585 132.944 349.409 124.199 366.923 123.852C384.437 123.505 396.123 134.475 394.035 142.97C391.305 154.053 372.276 157.17 372.585 168.857C372.632 170.636 361.047 170.475 361.047 168.696C360.78 157.05 383.891 151.423 384.24 142.753C384.546 135.153 378.34 131.032 367.018 131.032C359.154 131.032 352.544 135.083 351.965 142.925C351.865 144.583 341.642 144.676 341.634 143.016Z" fill="#E1B100"/>
<path fill-rule="evenodd" clip-rule="evenodd" d="M366.752 174.383C371.166 174.383 374.752 176.755 374.752 179.683C374.752 182.611 371.169 184.983 366.752 184.983C362.335 184.983 358.752 182.61 358.752 179.683C358.752 176.756 362.335 174.383 366.752 174.383Z" fill="#E1B100"/>
<path d="M240.275 185.736C242.408 202.985 240.217 219.647 236.742 228.863C233.781 226.454 230.66 224.249 227.4 222.263C229.113 253.915 265.071 279.599 272.7 278.642C281.437 277.56 297.1 249.156 289.6 222.112C284.287 225.007 277.907 228.86 277.907 228.86L280.013 211.645C280.013 211.645 303.441 212.928 311.913 196.187C320.385 179.446 318.82 128.203 318.82 128.203L274.512 127.803L268.612 109.603L264.4 127.945C256.13 127.855 247.887 128.898 239.9 131.045L239.782 164.573C222.386 157.066 217.884 186.328 240.275 185.736Z" fill="#FFBF9B"/>
<path d="M280.01 211.648C271.544 211.609 263.282 209.042 256.284 204.276C257.551 207.176 260.134 208.347 263.584 211.943C267.593 216.099 272.584 219.179 278.096 220.899L280.01 211.648Z" fill="#F08855"/>
<path d="M14.27 300.805C19.734 305.005 34.163 318.633 34.163 318.633C36.908 327.37 43.228 329.057 49.926 326.665C54.484 333.64 57.858 334.723 68.887 332.23C71 335.479 74.024 338.2 80.9 336.939C85.71 336.058 105.855 322.385 105.855 322.385C105.855 322.385 107.693 326.338 110.79 332.029C133.226 332.407 142.996 307.78 138.061 288.642C136.55 286.653 135.089 284.714 133.881 283.128C124.413 270.588 116.859 268.095 108.146 269.228C98.905 258.022 85.584 261.472 82.26 261.095C76.645 260.415 67.404 255.001 58.666 247.446C49.928 239.891 42.147 252.533 48.866 262.127C52.82 267.793 63.522 274.239 63.043 278.142C62.59 282.042 45.618 295.089 45.618 295.089C42.37 288.214 32.927 284.815 28.948 290.682C17.065 282.775 2.68699 291.916 14.27 300.805Z" fill="#FFBF9B"/>
<path d="M34.2229 319.6C34.0883 319.599 33.9574 319.556 33.8495 319.475C33.7415 319.395 33.6621 319.282 33.6229 319.153C33.3589 318.285 33.0789 317.376 32.7889 316.437C29.9269 307.163 26.3659 295.621 28.2379 290.67C28.2999 290.518 28.419 290.396 28.5696 290.33C28.7203 290.265 28.8907 290.26 29.0444 290.319C29.1981 290.377 29.3229 290.493 29.3924 290.642C29.4618 290.791 29.4702 290.961 29.4159 291.116C27.6959 295.662 31.3349 307.455 33.9919 316.066C34.2819 317.007 34.5629 317.917 34.8269 318.787C34.8511 318.866 34.8594 318.949 34.8515 319.031C34.8435 319.114 34.8193 319.194 34.7804 319.267C34.7415 319.339 34.6885 319.404 34.6246 319.456C34.5607 319.509 34.487 319.548 34.4079 319.572C34.3479 319.59 34.2856 319.6 34.2229 319.6Z" fill="#29263B"/>
<path d="M110.788 332.029C118.921 346.961 135.843 373.929 151.631 373.099C173.413 371.94 190.989 331.099 190.989 331.099L194.917 414.322C234.174 429.506 276.15 429.682 321.023 414.145C320.242 384.382 321.803 355.55 326.663 328.077C326.663 328.077 339.002 365.977 361.363 366.327C378.058 366.579 409.383 328.48 424.643 308.487C419.808 294.008 411.649 282.248 399.386 274.316C387.501 283.633 367.306 298.742 367.306 298.742C367.306 298.742 340.689 217.935 323.49 213.7C312.69 211.031 298.59 217.175 289.597 222.111C297.097 249.155 281.438 277.559 272.697 278.641C265.067 279.598 229.109 253.914 227.397 222.262C221.178 218.409 212.49 214.002 203.325 212.391C198.484 211.454 193.5 211.54 188.694 212.643C167.971 217.729 146.265 299.491 146.265 299.491C146.265 299.491 142.06 293.901 138.056 288.638C142.994 307.78 133.224 332.407 110.788 332.029Z" fill="#FF6B55"/>
<path d="M68.8501 332.837C68.733 332.837 68.6183 332.804 68.5187 332.743C68.4191 332.682 68.3386 332.594 68.2861 332.489C67.8941 331.704 66.4341 329.447 64.5861 326.589C61.1651 321.3 56.0001 313.307 52.4511 306.7C51.2751 304.509 52.1181 301.991 54.5981 300.286C58.4761 297.62 65.0151 297.586 69.4981 302.78C72.7411 306.826 75.7263 311.073 78.4361 315.494C81.7691 314.275 84.0071 308.978 86.3701 303.383C87.7845 299.674 89.5642 296.115 91.6831 292.758C91.7291 292.687 91.7888 292.627 91.8588 292.579C91.9287 292.532 92.0074 292.5 92.0902 292.483C92.173 292.467 92.2582 292.468 92.3407 292.485C92.4233 292.503 92.5015 292.536 92.5707 292.584C92.64 292.633 92.6989 292.694 92.7439 292.766C92.7889 292.837 92.8191 292.917 92.8328 293C92.8464 293.083 92.8432 293.168 92.8233 293.25C92.8035 293.332 92.7673 293.409 92.7171 293.477C90.6502 296.765 88.9128 300.248 87.5301 303.877C84.9421 310 82.5001 315.8 78.3121 316.848C78.1823 316.881 78.0452 316.872 77.9211 316.821C77.797 316.771 77.6925 316.682 77.6231 316.567C74.8632 312.065 71.8323 307.734 68.5471 303.6C64.5411 298.961 58.7371 298.963 55.3121 301.319C53.7871 302.367 52.5261 304.174 53.5601 306.101C57.0811 312.662 62.2331 320.63 65.6431 325.901C67.5851 328.901 68.9881 331.074 69.4121 331.921C69.4605 332.017 69.4835 332.123 69.4789 332.231C69.4743 332.338 69.4423 332.442 69.3859 332.534C69.3296 332.625 69.2507 332.7 69.1569 332.753C69.0631 332.805 68.9574 332.832 68.8501 332.832V332.837Z" fill="#29263B"/>
<path d="M49.9641 327.322C49.8527 327.322 49.7433 327.293 49.6472 327.237C49.551 327.181 49.4716 327.1 49.4171 327.003L48.5481 325.471C45.7691 320.564 41.9621 313.845 38.0481 307.677C36.1691 304.718 36.6481 301.717 39.3221 299.647C43.2061 296.647 50.5791 296.535 54.6341 300.882C54.6904 300.942 54.7343 301.013 54.7632 301.091C54.7921 301.168 54.8055 301.251 54.8025 301.333C54.7996 301.416 54.7804 301.497 54.7461 301.572C54.7118 301.647 54.663 301.715 54.6026 301.771C54.5421 301.828 54.4711 301.872 54.3937 301.901C54.3162 301.929 54.2339 301.943 54.1513 301.94C54.0687 301.937 53.9875 301.918 53.9123 301.884C53.8371 301.849 53.7694 301.8 53.7131 301.74C50.1061 297.873 43.5461 297.971 40.0921 300.64C38.8351 301.611 37.0361 303.73 39.1101 306.998C43.0441 313.192 46.8591 319.928 49.6451 324.847L50.5131 326.378C50.554 326.45 50.5804 326.529 50.5906 326.611C50.6009 326.693 50.5948 326.776 50.5728 326.856C50.5508 326.936 50.5133 327.011 50.4623 327.076C50.4114 327.141 50.3481 327.195 50.2761 327.236C50.1815 327.292 50.0739 327.322 49.9641 327.322Z" fill="#29263B"/>
<path d="M99.8931 273.481C99.7644 273.481 99.6388 273.442 99.5331 273.369C99.4274 273.295 99.3468 273.191 99.3021 273.07C99.2574 272.95 99.2508 272.818 99.2832 272.694C99.3155 272.569 99.3853 272.458 99.4831 272.374C101.959 270.462 104.859 269.175 107.938 268.621C108.099 268.589 108.267 268.621 108.404 268.711C108.542 268.801 108.639 268.941 108.675 269.101C108.712 269.261 108.683 269.429 108.597 269.569C108.511 269.709 108.374 269.81 108.214 269.85C105.336 270.36 102.623 271.554 100.302 273.33C100.188 273.428 100.043 273.481 99.8931 273.481Z" fill="#29263B"/>
<path d="M326.616 328.816C326.572 328.816 326.527 328.812 326.484 328.802C326.403 328.785 326.326 328.752 326.258 328.705C326.19 328.658 326.132 328.598 326.087 328.529C326.042 328.46 326.011 328.382 325.996 328.301C325.981 328.219 325.983 328.136 326 328.055C326.057 327.788 331.677 301.262 330.7 293.407C329.715 285.514 320.884 260.622 320.795 260.371C320.743 260.214 320.754 260.044 320.826 259.895C320.898 259.747 321.026 259.633 321.181 259.577C321.337 259.522 321.508 259.53 321.658 259.6C321.807 259.669 321.924 259.795 321.982 259.949C322.347 260.978 330.947 285.222 331.949 293.249C332.956 301.315 327.468 327.218 327.234 328.317C327.204 328.458 327.126 328.585 327.014 328.676C326.901 328.767 326.761 328.816 326.616 328.816Z" fill="#29263B"/>
<path d="M190.88 331.916C190.787 331.916 190.694 331.895 190.61 331.854C190.535 331.819 190.468 331.769 190.413 331.708C190.357 331.646 190.314 331.575 190.286 331.497C190.258 331.419 190.246 331.336 190.25 331.253C190.254 331.171 190.275 331.09 190.31 331.015L208.03 293.841C208.064 293.764 208.114 293.695 208.175 293.637C208.236 293.58 208.309 293.535 208.387 293.506C208.466 293.477 208.55 293.464 208.634 293.468C208.718 293.472 208.801 293.492 208.877 293.529C208.953 293.565 209.021 293.616 209.076 293.679C209.132 293.742 209.175 293.815 209.202 293.895C209.229 293.974 209.24 294.058 209.234 294.142C209.228 294.226 209.205 294.308 209.167 294.383L191.447 331.557C191.396 331.664 191.316 331.755 191.215 331.818C191.115 331.882 190.999 331.916 190.88 331.916Z" fill="#29263B"/>
<path d="M105.858 323.021C105.722 323.021 105.59 322.977 105.481 322.895C105.373 322.814 105.293 322.699 105.255 322.569C105.217 322.438 105.221 322.299 105.269 322.172C105.316 322.044 105.403 321.936 105.517 321.862L116 315.129C116.141 315.039 116.311 315.008 116.474 315.044C116.637 315.079 116.779 315.178 116.87 315.319C116.96 315.459 116.99 315.629 116.955 315.793C116.919 315.956 116.821 316.098 116.68 316.188L106.2 322.922C106.098 322.987 105.979 323.021 105.858 323.021Z" fill="#000000"/>
<path d="M238.024 179.078C237.889 179.078 237.759 179.032 237.654 178.948C237.549 178.864 237.476 178.746 237.446 178.615C236.598 174.842 234.601 172.539 231.163 171.367C231.014 171.316 230.892 171.208 230.823 171.067C230.754 170.926 230.743 170.764 230.794 170.615C230.845 170.466 230.953 170.344 231.094 170.275C231.235 170.206 231.397 170.195 231.546 170.246C233.356 170.815 234.974 171.873 236.219 173.304C237.465 174.736 238.29 176.484 238.603 178.355C238.637 178.508 238.609 178.669 238.525 178.802C238.441 178.935 238.307 179.029 238.154 179.063C238.111 179.073 238.068 179.078 238.024 179.078Z" fill="#29263B"/>
<path d="M203.328 212.4C212.493 214.011 221.181 218.418 227.4 222.271C230.66 224.257 233.781 226.462 236.742 228.871C240.217 219.655 242.408 202.993 240.275 185.744C217.884 186.336 222.386 157.074 239.775 164.585L239.893 131.057C247.88 128.91 256.123 127.866 264.393 127.957L268.61 109.618L274.51 127.818L318.818 128.218L330.286 128.052C330.286 128.052 330.476 103.623 318.131 90.971C298.631 70.971 243.471 68.059 225.795 86.943C210.252 97.416 207.219 114.025 206.484 122.152C205.421 133.7 203.328 212.4 203.328 212.4Z" fill="#2E5DE6"/>
<path d="M294.222 185.352C294.08 185.352 293.943 185.302 293.835 185.209C293.727 185.117 293.656 184.989 293.635 184.848C293.614 184.708 293.644 184.565 293.719 184.445C293.795 184.325 293.911 184.236 294.047 184.194C296.479 183.439 300.431 181.653 300.682 180.074C300.951 178.374 297.672 171.174 295.542 167.042C295.503 166.973 295.479 166.896 295.471 166.817C295.462 166.739 295.47 166.659 295.493 166.583C295.516 166.507 295.554 166.436 295.604 166.376C295.655 166.315 295.718 166.264 295.788 166.228C295.859 166.192 295.936 166.17 296.015 166.164C296.094 166.158 296.173 166.168 296.249 166.193C296.324 166.219 296.393 166.259 296.452 166.312C296.512 166.364 296.56 166.428 296.594 166.5C297.177 167.629 302.271 177.612 301.852 180.26C301.404 183.076 295.113 185.104 294.397 185.326C294.34 185.343 294.281 185.352 294.222 185.352Z" fill="#29263B"/>
<path d="M269.986 198.258C269.863 198.258 269.743 198.22 269.642 198.149C269.542 198.078 269.466 197.977 269.426 197.861C269.385 197.745 269.382 197.619 269.416 197.501C269.45 197.383 269.521 197.278 269.617 197.202C271.353 195.753 273.427 194.766 275.646 194.334C277.866 193.902 280.159 194.039 282.311 194.732C282.457 194.779 282.58 194.88 282.653 195.015C282.726 195.15 282.744 195.308 282.703 195.456C282.662 195.604 282.565 195.73 282.433 195.808C282.3 195.886 282.143 195.91 281.994 195.874C280.021 195.236 277.919 195.109 275.883 195.503C273.848 195.898 271.946 196.802 270.354 198.13C270.249 198.213 270.12 198.258 269.986 198.258Z" fill="#29263B"/>
<path d="M258.476 143.532C258.225 143.532 257.979 143.465 257.763 143.339C257.546 143.213 257.366 143.031 257.242 142.814C257.118 142.596 257.054 142.349 257.056 142.098C257.058 141.848 257.126 141.602 257.253 141.386C260.277 136.272 264.712 134.386 270.435 135.793C270.618 135.835 270.792 135.914 270.945 136.024C271.097 136.134 271.227 136.273 271.326 136.433C271.424 136.594 271.49 136.772 271.519 136.958C271.548 137.144 271.54 137.334 271.496 137.517C271.451 137.7 271.37 137.872 271.258 138.023C271.146 138.175 271.005 138.303 270.844 138.399C270.682 138.496 270.503 138.559 270.317 138.586C270.13 138.613 269.94 138.602 269.758 138.555C265.273 137.455 262.077 138.815 259.701 142.833C259.575 143.046 259.396 143.223 259.181 143.345C258.966 143.468 258.723 143.532 258.476 143.532Z" fill="#29263B"/>
<path d="M313.666 140.861C313.418 140.861 313.175 140.796 312.96 140.674C312.746 140.551 312.567 140.374 312.441 140.161C310.854 137.479 308.765 136.752 305.676 137.806C305.499 137.866 305.312 137.891 305.126 137.879C304.94 137.867 304.758 137.818 304.59 137.736C304.423 137.654 304.273 137.539 304.15 137.399C304.027 137.259 303.932 137.096 303.872 136.919C303.812 136.742 303.787 136.555 303.799 136.369C303.811 136.183 303.859 136.001 303.942 135.833C304.024 135.666 304.139 135.516 304.279 135.393C304.419 135.27 304.582 135.175 304.759 135.115C309.116 133.634 312.616 134.876 314.888 138.715C315.016 138.931 315.084 139.177 315.087 139.427C315.089 139.678 315.025 139.925 314.901 140.143C314.776 140.361 314.597 140.542 314.38 140.668C314.163 140.795 313.917 140.861 313.666 140.861Z" fill="#29263B"/>
<path fill-rule="evenodd" clip-rule="evenodd" d="M270.274 148.071C268.248 148.071 266.602 151.083 266.602 154.791C266.602 158.499 268.248 161.512 270.274 161.512C272.3 161.512 273.946 158.501 273.946 154.791C273.946 151.081 272.303 148.071 270.274 148.071Z" fill="#29263B"/>
<path fill-rule="evenodd" clip-rule="evenodd" d="M306.058 146.979C304.19 146.979 302.674 149.753 302.674 153.172C302.674 156.591 304.19 159.366 306.058 159.366C307.926 159.366 309.441 156.589 309.441 153.172C309.441 149.755 307.925 146.979 306.058 146.979Z" fill="#29263B"/>
<path d="M457.855 287.207C459.721 289.451 461.842 291.471 464.175 293.225C467.499 295.768 475.054 286.854 481.752 286.425C482.982 286.355 484.212 286.561 485.352 287.03C488.152 283.958 488.373 277.285 481.625 276.479V276.454C481.325 276.429 481.025 276.403 480.693 276.403C472.258 276.1 462.74 285.5 457.855 287.207Z" fill="#FFBF9B"/>
<path d="M472.611 268.976C473.291 259.382 449.067 267.742 446.096 268.576C448.55 271.373 450.586 274.511 452.139 277.893C455.69 276.508 461.204 273.335 469.186 270.011C470.284 269.542 471.434 269.203 472.611 269V268.976Z" fill="#FFBF9B"/>
<path d="M407.77 267.314C405.103 269.797 402.304 272.134 399.385 274.314C411.648 282.246 419.807 294.006 424.642 308.485C430.081 301.385 433.48 296.574 433.48 296.574C433.48 296.574 458.736 314.654 461.456 314.704C464.201 314.755 477.622 305.614 485.906 299.873C492.606 295.214 490.112 289.02 485.352 287.031C484.212 286.562 482.982 286.355 481.752 286.426C475.052 286.854 467.499 295.768 464.175 293.226C461.842 291.472 459.721 289.453 457.855 287.208C455.587 284.34 453.668 281.213 452.139 277.891C450.586 274.509 448.55 271.371 446.096 268.574C443.87 266.251 441.296 264.288 438.466 262.757C435.218 256.21 433.228 251.779 430.433 249.109C427.915 246.692 431.491 240.775 428.117 231.886C424.717 222.997 412.731 222.947 414.343 231.986C415.954 241.051 409.785 264.67 407.77 267.314Z" fill="#FFBF9B"/>
<path d="M481.626 276.455C482.507 271.368 478.68 267.868 472.611 269.001C471.434 269.202 470.285 269.54 469.186 270.008C461.204 273.332 455.686 276.508 452.139 277.89C453.668 281.211 455.587 284.339 457.855 287.207C462.74 285.495 472.255 276.102 480.694 276.407C481.021 276.4 481.324 276.43 481.626 276.455Z" fill="#FFBF9B"/>
<path d="M428.134 263.593C427.982 263.593 427.835 263.538 427.72 263.439C427.605 263.339 427.53 263.201 427.509 263.05C427.488 262.9 427.522 262.747 427.605 262.619C427.688 262.492 427.815 262.399 427.961 262.357C432.417 261.084 435.301 261.043 438.603 262.211C438.76 262.267 438.889 262.383 438.961 262.533C439.033 262.684 439.042 262.857 438.986 263.014C438.93 263.171 438.814 263.3 438.664 263.372C438.513 263.444 438.34 263.453 438.183 263.397C435.622 262.497 433.077 262.205 428.307 263.568C428.251 263.584 428.192 263.593 428.134 263.593Z" fill="#29263B"/>
<path d="M452.139 278.52C451.992 278.519 451.851 278.468 451.738 278.374C451.626 278.281 451.549 278.151 451.522 278.007C451.495 277.863 451.519 277.714 451.59 277.586C451.66 277.457 451.774 277.358 451.91 277.304C453.436 276.704 455.31 275.789 457.678 274.625C460.686 273.146 464.43 271.307 468.944 269.425C470.087 268.937 471.284 268.586 472.51 268.378C472.671 268.359 472.834 268.403 472.964 268.5C473.094 268.598 473.181 268.743 473.207 268.903C473.233 269.064 473.196 269.229 473.103 269.362C473.01 269.496 472.869 269.589 472.71 269.621C471.581 269.813 470.479 270.137 469.427 270.587C464.948 272.453 461.227 274.282 458.227 275.752C455.827 276.93 453.937 277.86 452.362 278.475C452.291 278.503 452.215 278.519 452.139 278.52Z" fill="#29263B"/>
<path d="M457.855 287.837C457.706 287.837 457.563 287.784 457.45 287.688C457.336 287.592 457.261 287.459 457.236 287.313C457.211 287.166 457.238 287.016 457.314 286.888C457.389 286.76 457.507 286.662 457.647 286.613C459.83 285.623 461.903 284.406 463.831 282.982C468.776 279.682 474.953 275.541 480.716 275.775C481.032 275.762 481.349 275.779 481.662 275.826C481.829 275.84 481.984 275.919 482.094 276.046C482.203 276.173 482.258 276.339 482.246 276.506C482.24 276.588 482.218 276.668 482.181 276.742C482.144 276.815 482.093 276.881 482.03 276.934C481.968 276.988 481.895 277.029 481.817 277.054C481.739 277.079 481.656 277.089 481.574 277.082C481.274 277.058 480.998 277.034 480.694 277.034C475.302 276.86 469.325 280.827 464.531 284.034C462.518 285.522 460.349 286.787 458.063 287.806C457.996 287.828 457.925 287.838 457.855 287.837Z" fill="#29263B"/>
<path d="M465.6 294.316C464.95 294.328 464.316 294.12 463.8 293.725C461.427 291.943 459.271 289.889 457.375 287.606C455.077 284.702 453.133 281.535 451.583 278.172C450.056 274.844 448.055 271.755 445.642 269.002C445.528 268.88 445.468 268.718 445.474 268.551C445.479 268.384 445.551 268.226 445.673 268.112C445.796 267.999 445.958 267.938 446.125 267.944C446.292 267.95 446.449 268.022 446.563 268.144C449.041 270.956 451.096 274.115 452.663 277.52C454.184 280.829 456.092 283.946 458.346 286.806C460.181 289.014 462.268 291.001 464.564 292.725C465.964 293.795 468.826 292.002 471.855 290.103C474.914 288.185 478.381 286.011 481.717 285.798C483.043 285.722 484.368 285.944 485.597 286.448C485.751 286.511 485.875 286.633 485.939 286.787C486.004 286.941 486.004 287.114 485.941 287.269C485.878 287.423 485.756 287.546 485.602 287.611C485.448 287.676 485.274 287.676 485.12 287.613C484.067 287.181 482.931 286.99 481.795 287.055C478.779 287.248 475.456 289.331 472.524 291.169C469.875 292.827 467.5 294.316 465.6 294.316Z" fill="#29263B"/>
<path d="M155.9 313.033C155.803 313.032 155.707 313.009 155.62 312.965C155.533 312.921 155.458 312.858 155.4 312.78L145.772 299.872C145.68 299.738 145.643 299.573 145.67 299.413C145.696 299.252 145.784 299.108 145.915 299.011C146.045 298.913 146.208 298.87 146.37 298.89C146.531 298.911 146.678 298.993 146.781 299.119L156.408 312.027C156.477 312.12 156.52 312.231 156.53 312.347C156.54 312.463 156.518 312.579 156.467 312.683C156.415 312.788 156.335 312.875 156.237 312.937C156.138 312.999 156.024 313.032 155.908 313.033H155.9Z" fill="#29263B"/>
<path d="M365.677 306.871C365.583 306.871 365.49 306.849 365.406 306.809C365.321 306.768 365.246 306.709 365.187 306.636C365.128 306.563 365.086 306.477 365.064 306.386C365.043 306.294 365.041 306.199 365.061 306.107L366.689 298.607C366.727 298.446 366.826 298.306 366.966 298.218C367.106 298.13 367.275 298.1 367.436 298.135C367.598 298.171 367.739 298.268 367.83 298.406C367.92 298.545 367.953 298.713 367.92 298.875L366.292 306.375C366.261 306.515 366.184 306.641 366.072 306.731C365.96 306.821 365.821 306.871 365.677 306.871Z" fill="#29263B"/>
</svg>