<?xml version="1.0" encoding="utf-8"?><!-- Uploaded to: SVG Repo, www.svgrepo.com, Generator: SVG Repo Mixer Tools -->
<svg width="800px" height="800px" viewBox="0 0 500 500" fill="none" xmlns="http://www.w3.org/2000/svg">
<path fill-rule="evenodd" clip-rule="evenodd" d="M223.58 203.681C250.039 202.242 310.537 212.41 351.092 271.813C340.5 296.155 327.367 324.537 317 346.974C326.365 396.655 331 457.536 328.216 473.112C266.216 485.731 208.783 487.983 151.047 481.536C123.179 478.424 79.1891 434.824 64.7041 391.513C64.7041 391.513 64.7041 293.638 90.7441 261.844C112.235 235.604 131.683 218.755 160.55 211.867C167.887 210.118 201.196 204.898 223.576 203.681H223.58Z" fill="#A957E1"/>
<path fill-rule="evenodd" clip-rule="evenodd" d="M316.162 341.191C312.424 321.221 293.839 317.251 301.576 317.861C310.406 318.561 313.695 319.061 308.97 312.118C303.912 304.681 295.514 300.286 299.248 297.799C303.922 294.692 302.557 290.008 297.094 280.799C305.209 285.21 310.045 292.907 312.367 304.541C313.907 312.258 331.431 299.118 324.479 309.636C321.631 313.936 330.727 319.642 327.529 326.379C324.331 333.116 319.818 337.54 316.162 341.196V341.191Z" fill="#A046DE"/>
<path fill-rule="evenodd" clip-rule="evenodd" d="M164.821 322.083C158.873 301.466 132.516 294.594 124.374 297.55C117.897 299.902 147.152 302.315 152.84 320.203C154.751 326.212 139.718 317.278 138.514 322.289C137.166 327.92 158.283 332.517 159.125 337.656C159.967 342.795 142.808 344.756 141.015 351.008C137.267 364.054 107.985 354.908 113.897 361.115C120.087 367.615 148.884 365.115 157.535 355.608C142.009 384.173 123.959 380.745 119.723 384.075C107.51 393.666 145.079 380.927 145.323 385.362C145.647 391.408 134.654 399.183 118.06 405.64C147.981 411.477 149.7 482.56 150.01 482C171.497 453.943 210.582 456.145 201.777 452.876C183.632 446.146 156.571 468.243 157.323 460.724C160.012 433.838 188.499 432.376 182.743 427.206C173.984 419.347 166.143 423.054 168.535 414.922C172.943 399.909 199.546 400.047 196.122 396.411C192.698 392.775 164.366 405.511 162.556 397.264C160.2 386.516 175.767 381.93 169.896 373.505C164.416 365.636 158.023 369.265 160.096 364.224C166.566 348.442 183.949 350.504 177.458 346.032C172.13 342.363 160.487 359.358 161.124 354.899C162.768 343.363 164.976 330.776 174.998 309.399C170.105 314.491 167.341 317.608 164.824 322.093L164.821 322.083Z" fill="#A046DE"/>
<path fill-rule="evenodd" clip-rule="evenodd" d="M294.685 352.107C276.011 338.64 200.297 354.058 211.405 341.323C225.178 325.534 260.179 324.234 261.945 319.964C263.188 316.951 241.179 307.33 217.737 318.137C208.581 322.36 217.494 309.416 238.409 303.009C251.228 299.086 250.16 287.332 236.98 281.832C271.795 292.65 239.221 303.491 248.95 307.99C258.679 312.489 269.639 315.074 280 323.7C290.361 332.326 218.608 329.726 230.487 336.3C242.366 342.874 276.187 333.6 294.687 352.1L294.685 352.107Z" fill="#A046DE"/>
<path fill-rule="evenodd" clip-rule="evenodd" d="M304.353 92.09C315.997 112.61 331.253 168.343 306.122 194.922C291.978 209.885 267.485 211.864 267.576 212.059C280.318 239.228 268.176 269.942 234.876 270.259C205.159 270.539 170.863 239.817 160.47 211.833C173.127 209.123 188.498 207.6 189.421 201.504C190.806 192.351 189.101 189.372 188.764 189.25C149.938 190.885 159.721 146.06 184.124 157.75C182.924 135.96 177.252 91.799 192.131 79.269C223.846 52.562 292.584 71.36 304.349 92.089L304.353 92.09Z" fill="#FFBF9B"/>
<path fill-rule="evenodd" clip-rule="evenodd" d="M156.19 397.036C122.09 412.009 76.29 405.222 64.708 391.513C64.877 414.48 65.932 441.556 66.529 468.186C71.951 490.934 113.111 496.759 151.051 481.536C150.603 460.926 153.751 419.615 156.19 397.036Z" fill="#FFBF9B"/>
<path fill-rule="evenodd" clip-rule="evenodd" d="M364.815 215.978C370.857 225.957 380.915 253.942 385.581 276.167C390.247 298.392 397.9 382.457 350.33 384.618C311.076 386.4 315.885 340 315.885 340C323.229 325.408 328.415 313.761 332.547 289.9C323.276 289.647 318.073 282.553 314.81 272.2C297.3 279.26 279.334 248.276 300.484 236.1C299.659 229.522 303.875 222.971 313.874 222.145C312.93 216.561 315.862 210.862 327.583 210.155C317.335 193.855 298.683 195.889 302.658 184.903C306.574 174.082 340.601 176.003 364.815 215.981V215.978Z" fill="#FFBF9B"/>
<path d="M345.8 221.323C345.668 221.323 345.538 221.292 345.42 221.233C345.302 221.174 345.2 221.087 345.122 220.981C340.697 215.427 334.263 211.838 327.212 210.991C327.102 210.982 326.994 210.951 326.896 210.901C326.798 210.85 326.71 210.78 326.639 210.696C326.567 210.612 326.513 210.514 326.479 210.409C326.446 210.303 326.433 210.192 326.442 210.082C326.461 209.859 326.567 209.653 326.737 209.509C326.822 209.437 326.919 209.383 327.025 209.349C327.13 209.316 327.241 209.303 327.351 209.312C334.88 210.217 341.751 214.049 346.477 219.979C346.543 220.068 346.591 220.169 346.617 220.277C346.644 220.384 346.649 220.496 346.633 220.605C346.616 220.715 346.579 220.82 346.521 220.915C346.464 221.01 346.389 221.092 346.3 221.158C346.156 221.266 345.98 221.324 345.8 221.323Z" fill="#29263B"/>
<path d="M332.789 229.95C332.588 229.951 332.394 229.88 332.242 229.75C326.457 224.798 320.192 222.502 313.636 222.95C313.524 222.959 313.412 222.947 313.305 222.912C313.199 222.878 313.1 222.822 313.015 222.749C312.93 222.676 312.861 222.587 312.811 222.487C312.761 222.387 312.731 222.278 312.724 222.166C312.716 222.054 312.731 221.942 312.767 221.836C312.804 221.73 312.861 221.633 312.935 221.549C313.01 221.466 313.1 221.398 313.201 221.349C313.302 221.301 313.412 221.273 313.524 221.268C320.542 220.801 327.206 223.223 333.337 228.468C333.468 228.58 333.561 228.729 333.605 228.896C333.648 229.063 333.639 229.239 333.579 229.4C333.52 229.562 333.412 229.701 333.271 229.799C333.129 229.898 332.961 229.95 332.789 229.95Z" fill="#29263B"/>
<path d="M318.308 239.748C318.131 239.748 317.959 239.692 317.815 239.588C314.979 237.54 307.663 233.165 300.982 236.733C300.785 236.838 300.554 236.861 300.34 236.796C300.127 236.731 299.947 236.584 299.842 236.387C299.737 236.19 299.714 235.959 299.779 235.745C299.844 235.532 299.991 235.352 300.188 235.247C305.488 232.418 312.267 233.503 318.802 238.222C318.946 238.326 319.054 238.474 319.109 238.643C319.165 238.813 319.165 238.995 319.11 239.165C319.055 239.334 318.948 239.482 318.804 239.587C318.66 239.692 318.486 239.748 318.308 239.748Z" fill="#29263B"/>
<path d="M314.715 272.773C314.529 272.773 314.348 272.711 314.201 272.597C314.053 272.483 313.948 272.324 313.901 272.144C311.601 263.344 308.201 259.207 302.861 258.72C302.638 258.7 302.433 258.592 302.29 258.42C302.147 258.248 302.078 258.027 302.098 257.805C302.119 257.582 302.227 257.377 302.398 257.234C302.57 257.091 302.791 257.022 303.014 257.042C310.987 257.77 313.976 265.767 315.531 271.718C315.587 271.934 315.556 272.163 315.443 272.356C315.331 272.549 315.147 272.689 314.931 272.746C314.86 272.764 314.788 272.774 314.715 272.773Z" fill="#29263B"/>
<path d="M272.519 232.344C243.896 231.227 225.892 219.251 213.319 201.723C229.377 210.007 247.798 213.191 267.576 212.059C271.246 220.379 272.171 225.262 272.519 232.344Z" fill="#EA9465"/>
<path d="M290.519 160.738C290.395 160.738 290.272 160.71 290.159 160.657C289.958 160.561 289.802 160.389 289.727 160.179C289.652 159.968 289.664 159.737 289.759 159.535C291.934 154.935 292.381 151.175 291.127 148.026C289.811 144.718 286.609 142.114 281.339 140.062C281.236 140.022 281.142 139.962 281.062 139.885C280.982 139.809 280.918 139.717 280.874 139.616C280.829 139.515 280.805 139.406 280.802 139.295C280.8 139.185 280.819 139.075 280.86 138.971C280.9 138.868 280.96 138.774 281.036 138.694C281.113 138.614 281.204 138.55 281.306 138.506C281.407 138.461 281.516 138.437 281.626 138.435C281.737 138.432 281.847 138.452 281.95 138.492C287.68 140.722 291.194 143.637 292.693 147.403C294.109 150.96 293.634 155.284 291.283 160.255C291.215 160.4 291.107 160.522 290.971 160.608C290.836 160.693 290.679 160.738 290.519 160.738Z" fill="#29263B"/>
<path d="M253.934 180.1C253.774 180.1 253.617 180.055 253.482 179.969C253.347 179.883 253.24 179.761 253.172 179.616C253.104 179.471 253.078 179.31 253.099 179.151C253.119 178.993 253.184 178.843 253.286 178.72C257.35 173.82 261.361 171.238 265.21 171.036C268.231 170.875 271.173 172.169 273.951 174.877C274.103 175.035 274.187 175.245 274.187 175.464C274.186 175.683 274.1 175.894 273.947 176.05C273.794 176.207 273.586 176.298 273.367 176.304C273.148 176.31 272.936 176.231 272.774 176.083C270.347 173.717 267.835 172.583 265.299 172.718C261.939 172.895 258.333 175.276 254.583 179.796C254.504 179.891 254.405 179.968 254.293 180.021C254.18 180.073 254.058 180.1 253.934 180.1Z" fill="#29263B"/>
<path d="M230.238 121.666C229.733 121.666 229.236 121.55 228.783 121.327C228.33 121.103 227.935 120.779 227.628 120.378C227.321 119.977 227.111 119.511 227.013 119.016C226.915 118.521 226.933 118.01 227.064 117.523C228.778 111.172 231.783 106.857 235.995 104.698C240.225 102.53 245.522 102.615 251.74 104.951C252.144 105.103 252.514 105.333 252.829 105.627C253.144 105.922 253.398 106.276 253.576 106.669C253.755 107.062 253.854 107.486 253.868 107.917C253.883 108.348 253.812 108.778 253.66 109.182C253.508 109.586 253.279 109.956 252.984 110.271C252.689 110.586 252.335 110.84 251.942 111.018C251.549 111.197 251.125 111.296 250.694 111.31C250.263 111.324 249.833 111.254 249.429 111.102C245.017 109.443 241.505 109.256 238.993 110.545C236.499 111.824 234.62 114.745 233.409 119.236C233.221 119.933 232.808 120.549 232.235 120.988C231.662 121.427 230.96 121.665 230.238 121.666Z" fill="#B18B00"/>
<path d="M300.431 117.514C299.751 117.514 299.088 117.303 298.532 116.91C297.977 116.517 297.558 115.962 297.331 115.321C295.565 110.321 292.588 108.755 287.046 109.933C286.622 110.028 286.183 110.039 285.755 109.963C285.327 109.888 284.918 109.728 284.552 109.493C284.186 109.259 283.87 108.954 283.622 108.596C283.375 108.239 283.201 107.835 283.111 107.41C283.02 106.985 283.015 106.546 283.096 106.119C283.176 105.691 283.341 105.284 283.58 104.921C283.819 104.558 284.128 104.246 284.488 104.003C284.849 103.759 285.254 103.59 285.68 103.505C294.48 101.638 300.645 104.966 303.528 113.134C303.703 113.63 303.756 114.16 303.683 114.681C303.611 115.201 303.414 115.697 303.111 116.126C302.807 116.554 302.405 116.904 301.938 117.146C301.471 117.388 300.954 117.514 300.428 117.514H300.431Z" fill="#B18B00"/>
<path fill-rule="evenodd" clip-rule="evenodd" d="M244.171 119.7C241.471 119.7 239.288 123.774 239.288 128.792C239.288 133.81 241.475 137.884 244.171 137.884C246.867 137.884 249.055 133.81 249.055 128.792C249.055 123.774 246.864 119.7 244.171 119.7Z" fill="#0014FF"/>
<path fill-rule="evenodd" clip-rule="evenodd" d="M295.1 116.635C292.407 116.635 290.217 120.709 290.217 125.727C290.217 130.745 292.407 134.819 295.1 134.819C297.793 134.819 299.983 130.745 299.983 125.727C299.983 120.709 297.796 116.635 295.1 116.635Z" fill="#0014FF"/>
<path d="M183.844 182.012C183.637 182.012 183.437 181.935 183.283 181.797C183.128 181.659 183.03 181.469 183.007 181.263C182.382 175.638 180.26 168.971 169.307 167.329C169.086 167.296 168.887 167.176 168.755 166.997C168.622 166.817 168.566 166.592 168.599 166.371C168.632 166.15 168.752 165.951 168.931 165.819C169.111 165.686 169.336 165.63 169.557 165.663C181.779 167.495 184.041 175.337 184.679 181.076C184.704 181.298 184.639 181.521 184.5 181.696C184.36 181.87 184.157 181.982 183.935 182.007C183.906 182.01 183.875 182.012 183.844 182.012Z" fill="#29263B"/>
<path fill-rule="evenodd" clip-rule="evenodd" d="M184.1 157.788C201.712 130.774 206.238 105.94 197.085 83.665C258.49 105.627 315.659 113.671 337.642 90.472C346.754 80.857 350.667 55.737 338.316 40.154C335.145 46.045 324.148 47.116 313.583 44.031C281.5 34.663 206.437 -7.51801 164.885 64.587C138.329 90.02 144.148 126.814 162.741 169.678C163.682 159.061 172.931 152.228 184.097 157.788H184.1Z" fill="#E1B100"/>
<path d="M299.168 99.512C298.832 99.5125 298.508 99.3831 298.265 99.1507C298.021 98.9184 297.877 98.6011 297.862 98.2651C297.847 97.929 297.963 97.6002 298.184 97.3471C298.406 97.0941 298.717 96.9364 299.052 96.907C320.917 94.918 331.386 84.761 331.052 65.856C331.048 65.6845 331.078 65.514 331.141 65.3543C331.203 65.1946 331.297 65.0488 331.416 64.9253C331.535 64.8019 331.677 64.7032 331.835 64.635C331.992 64.5668 332.161 64.5305 332.333 64.528H332.357C332.699 64.528 333.027 64.6625 333.27 64.9024C333.513 65.1423 333.652 65.4683 333.657 65.81C334.011 86.062 322.445 97.399 299.28 99.51C299.245 99.5113 299.208 99.512 299.168 99.512ZM282.968 96.019C282.649 96.028 282.338 95.9195 282.094 95.7143C281.85 95.509 281.69 95.2213 281.645 94.9058C281.599 94.5902 281.671 94.2689 281.847 94.0029C282.022 93.7369 282.29 93.5448 282.598 93.463C299.855 88.343 308.598 79.289 309.311 65.782C309.318 65.6102 309.36 65.4416 309.433 65.286C309.506 65.1304 309.61 64.9911 309.738 64.8761C309.866 64.7612 310.015 64.6729 310.178 64.6166C310.34 64.5602 310.512 64.5369 310.684 64.548C310.855 64.5564 311.023 64.5987 311.178 64.6723C311.333 64.746 311.472 64.8495 311.587 64.9771C311.701 65.1046 311.79 65.2536 311.847 65.4154C311.903 65.5773 311.928 65.7487 311.918 65.92C311.145 80.461 301.53 90.569 283.34 95.965C283.22 96.0006 283.096 96.0188 282.971 96.019H282.968ZM266.368 92.751C266.034 92.7677 265.707 92.6552 265.454 92.4368C265.201 92.2184 265.041 91.911 265.009 91.5783C264.977 91.2456 265.074 90.9132 265.28 90.6502C265.486 90.3872 265.786 90.2138 266.117 90.166C272.864 88.834 278.209 84.224 279.735 78.419C280.54 75.0625 280.214 71.5339 278.807 68.382C278.669 68.0637 278.663 67.7037 278.791 67.3812C278.918 67.0586 279.169 66.7999 279.487 66.662C279.805 66.5241 280.165 66.5183 280.488 66.6458C280.81 66.7733 281.069 67.0237 281.207 67.342C282.846 71.0317 283.217 75.16 282.264 79.083C280.486 85.848 274.349 91.203 266.627 92.727C266.541 92.7438 266.454 92.7518 266.367 92.751H266.368Z" fill="#B18B00"/>
<path fill-rule="evenodd" clip-rule="evenodd" d="M369.966 33.792C369.906 21.292 379.615 10.441 401.348 10.01C423.081 9.579 437.589 23.192 434.992 33.735C431.603 47.487 407.992 51.35 408.374 65.858C408.433 68.065 394.056 67.866 394.056 65.658C393.725 51.206 422.404 44.224 422.837 33.465C423.216 24.033 415.512 18.919 401.466 18.919C391.707 18.919 383.505 23.947 382.786 33.679C382.663 35.736 369.977 35.851 369.966 33.792Z" fill="#E1B100"/>
<path fill-rule="evenodd" clip-rule="evenodd" d="M401.135 72.714C406.612 72.714 411.059 75.659 411.059 79.288C411.059 82.917 406.612 85.86 401.135 85.86C395.658 85.86 391.213 82.915 391.213 79.288C391.213 75.661 395.66 72.714 401.135 72.714Z" fill="#E1B100"/>
</svg>