<svg xmlns="http://www.w3.org/2000/svg" width="24" height="24" viewBox="0 0 24 24" fill="none">
  <path fill-rule="evenodd" clip-rule="evenodd" d="M16.375 21H7.375H6.25C5.00617 21 4 19.9938 4 18.75V10.3125C4 7.8252 6.0127 5.8125 8.5 5.8125V4.96875C8.5 3.88313 9.38242 3 10.4688 3H13.2812C14.3676 3 15.25 3.88313 15.25 4.96875V5.8125C17.7391 5.8125 19.75 7.82695 19.75 10.3125V18.75C19.75 19.9938 18.7438 21 17.5 21H16.375ZM16.375 16.5V14.25C16.375 13.6305 15.8695 13.125 15.25 13.125H8.5C7.88055 13.125 7.375 13.6305 7.375 14.25V16.5H16.375ZM13.5625 5.8125V4.96875C13.5625 4.81494 13.4351 4.6875 13.2812 4.6875H10.4688C10.3149 4.6875 10.1875 4.81494 10.1875 4.96875V5.8125H13.5625ZM14.9688 10.3125C15.1226 10.3125 15.25 10.1851 15.25 10.0312V9.46875C15.25 9.31406 15.1234 9.1875 14.9688 9.1875H8.78125C8.62656 9.1875 8.5 9.31406 8.5 9.46875V10.0312C8.5 10.1859 8.62656 10.3125 8.78125 10.3125H14.9688Z" fill="#CCCCCC"/>
</svg>
