<?xml version="1.0" encoding="utf-8"?>
<!-- Uploaded to: SVG Repo, www.svgrepo.com, Generator: SVG Repo Mixer Tools -->
<svg width="800px" height="800px" viewBox="0 0 1024 1024" class="icon"  version="1.1" xmlns="http://www.w3.org/2000/svg"><path d="M903.168 413.696c15.36 0 15.36 23.552 0 23.552h-42.496c0.512 28.672 0.512 57.344 0.512 86.016 12.8 0.512 25.6 1.024 38.4 0.512 15.36-0.512 15.36 23.04 0 23.552-12.8 0.512-25.6 0.512-38.4-0.512 0 22.016 0 44.032 0.512 66.048 0 40.448 10.24 108.544-46.08 112.64-65.536 5.12-133.12 1.024-199.168 1.024 0 29.184 0 57.856-0.512 87.04h34.816c15.36 0 15.36 23.552 0 23.552h-34.816c-0.512 41.472-1.536 82.432-2.56 123.904 0 6.656-5.12 11.776-11.776 11.776-57.344 1.024-114.688 0.512-172.032-1.536-14.336-0.512-32.256 2.048-38.4-13.824-7.168-18.432-1.024-48.128-1.024-67.584v-138.24c-13.824-1.024-27.648-2.048-41.984-2.048-15.36 0-15.36-23.552 0-23.552 13.824 0 27.648 0.512 41.984 2.048V654.848c-13.312-1.024-26.112-1.536-39.424-1.024-15.36 0.512-15.36-23.552 0-23.552 13.312-0.512 26.112 0 39.424 1.024V558.08h-114.688c-29.184 0-61.952-0.512-85.504-19.968-19.968-16.896-27.136-41.984-28.672-67.584-2.048-23.552-1.024-47.104-0.512-71.168-11.264-1.024-22.528-1.024-33.792-1.024-15.36 0.512-15.36-23.04 0-23.552 11.776-0.512 23.04 0 34.816 1.024 0-5.12 0-9.728 0.512-14.848 0-17.408 0.512-34.816 0.512-52.224H122.368c-15.36 0-15.36-23.552 0-23.552H162.816c0-15.36 0.512-30.72 0.512-46.592 0.512-27.136 5.632-52.736 27.136-71.68 21.504-18.432 49.664-24.576 77.312-22.528 24.576 2.048 55.296 6.656 68.608 29.696 15.36 26.112 9.216 65.536 9.216 94.208l1.536 103.424c13.824 0 27.136 0 40.96-0.512 4.096 0 20.992 2.048 25.088 0.512-1.024-1.024 0-12.288 0-13.824v-96.256-101.376c0-27.136-3.072-56.32 12.288-80.384 30.72-46.592 76.288-55.808 128-46.592 46.592 8.704 81.408 57.344 89.6 102.4v3.584c0.512 1.024 0.512 2.56 0.512 4.096 0.512 80.896 0.512 161.792 0 242.176V506.88c0 9.216-6.144 46.592 2.048 53.76 6.144 5.632 35.84 2.048 44.032 0.512 20.992-3.584 16.384-29.184 17.408-47.104 1.024-17.92 1.536-36.352 1.536-54.272 0-33.28-1.536-66.56-2.56-99.84-1.024-32.256-0.512-64.512 0.512-96.768 0.512-24.064-1.536-48.64 1.536-72.192 5.632-41.472 46.592-69.632 87.04-61.44 21.504 4.096 44.032 15.872 53.76 36.864 7.168 15.36 6.656 35.328 7.68 52.224 0 4.096 0.512 8.192 0.512 12.288h44.032c15.36 0 15.36 23.552 0 23.552h-43.52c1.024 20.992 1.536 41.984 2.048 62.976h30.72c15.36 0 15.36 23.552 0 23.552H860.16l1.536 71.168c12.8 1.536 27.136 1.536 41.472 1.536z m-70.144 276.48c6.656-12.8 4.608-30.72 4.608-44.544V590.848c0-35.328-0.512-70.656-1.024-105.472-0.512-62.464-2.048-125.44-3.584-187.904-0.512-27.648-1.024-54.784-2.56-82.432-1.536-25.6-3.584-46.592-30.72-56.832-28.16-10.752-61.44 1.536-69.632 32.768-6.144 23.04-1.536 50.688-2.048 74.752-1.536 62.464 2.048 124.928 2.56 187.392 0.512 33.28-0.512 66.56-5.12 99.328-2.048 17.408-5.12 30.72-24.576 34.304-16.384 2.56-47.616 5.632-63.488 0-19.456-6.656-19.456-23.552-19.456-40.96-0.512-133.632 0.512-267.264-0.512-400.896v-1.024c-4.608-26.112-20.48-52.736-39.424-71.168-18.432-18.432-60.416-22.528-84.992-16.896-27.648 6.656-54.784 34.816-57.856 62.976-3.072 27.648-0.512 56.832-0.512 84.48v87.552c0 27.648 4.096 58.368 0 85.504-2.048 12.8-7.68 18.944-20.48 20.48-26.112 3.072-54.784 0.512-80.896 0-7.68 0-11.264-6.144-11.264-11.776 0-1.024-0.512-2.048-0.512-3.072l-1.536-112.128c0-16.896 0-33.792-0.512-51.2-0.512-22.016-5.632-38.4-28.16-45.056-32.768-9.216-79.872-7.68-98.816 26.112-9.216 16.896-7.168 38.4-7.68 56.832 0 18.432-0.512 36.352-0.512 54.784l-1.536 114.176c-0.512 29.184-5.12 69.12 17.408 91.648 22.528 22.528 61.952 17.408 91.136 17.92h104.96c1.024 0 2.56 0 3.584 0.512 6.144 0 12.288 3.584 12.288 11.264v380.416c0 5.632-1.024 12.8 0 18.432v2.048c0.512 0 1.024 0 2.048 0.512 10.752 2.56 25.088 1.024 36.352 1.024 46.08 1.536 91.648 1.536 137.728 1.024 2.048-78.336 3.072-156.672 2.56-235.008 0-6.656 5.632-11.776 11.776-11.776 38.4 0 77.312-0.512 115.712-0.512h55.808c18.432-0.512 49.152 5.12 58.88-12.8z" fill="#056137" /><path d="M837.632 645.632c0 13.824 2.048 31.744-4.608 44.544-9.728 17.92-40.448 12.288-57.856 12.288h-55.808c-38.4 0-77.312 0-115.712 0.512-6.144 0-11.776 5.632-11.776 11.776 0.512 78.336-0.512 156.672-2.56 235.008-46.08 0.512-91.648 0.512-137.728-1.024-11.264-0.512-25.088 1.536-36.352-1.024-1.024 0-1.536-0.512-2.048-0.512v-2.048c-1.024-5.632 0-12.288 0-18.432V848.896 546.304c0-7.68-6.144-11.776-12.288-11.264-1.024-0.512-2.048-0.512-3.584-0.512h-104.96c-29.184 0-68.608 5.12-91.136-17.92S183.296 454.144 183.808 424.96l1.536-114.176c0-18.432 0.512-36.352 0.512-54.784 0-18.432-1.536-39.936 7.68-56.832 18.432-34.304 65.536-35.328 98.816-26.112 22.528 6.144 27.648 23.04 28.16 45.056 0.512 16.896 0.512 33.792 0.512 51.2l1.536 112.128c0 1.024 0 2.048 0.512 3.072 0 5.632 4.096 11.776 11.264 11.776 26.112 0.512 54.784 3.072 80.896 0 12.8-1.536 18.432-7.68 20.48-20.48 4.096-27.136 0-57.856 0-85.504v-87.552c0-27.648-2.56-56.832 0.512-84.48 3.072-28.16 30.208-56.32 57.856-62.976 24.064-5.632 66.56-1.536 84.992 16.896 18.944 18.432 34.816 45.056 39.424 71.168v1.024c1.024 133.632-0.512 267.264 0.512 400.896 0 17.408 0 33.792 19.456 40.96 15.872 5.632 47.104 2.56 63.488 0 19.456-3.584 22.016-16.896 24.576-34.304 4.096-32.768 5.12-66.048 5.12-99.328-0.512-62.464-4.096-124.928-2.56-187.392 0.512-23.552-4.096-51.2 2.048-74.752 8.192-31.232 40.96-43.52 69.632-32.768 27.136 10.24 29.184 31.232 30.72 56.832 1.536 27.648 2.048 54.784 2.56 82.432 1.536 62.464 2.56 125.44 3.584 187.904 0.512 35.328 0.512 70.656 1.024 105.472-1.024 18.432-1.024 36.864-1.024 55.296zM764.928 448.512c0.512 15.36 24.064 15.36 23.552 0-2.56-77.312-3.072-155.136-1.536-232.448 0.512-15.36-23.552-15.36-23.552 0-1.536 77.312-1.024 154.624 1.536 232.448z m-246.272-325.12c0-15.36-23.552-15.36-23.552 0l-3.072 246.784c0 15.36 23.552 15.36 23.552 0l3.072-246.784z m-288.768 251.392c0.512 15.36 24.064 15.36 23.552 0-1.536-43.52-2.048-87.04-1.024-130.56 0.512-15.36-23.552-15.36-23.552 0-0.512 43.52-0.512 87.04 1.024 130.56z" fill="#3B9548" /><path d="M788.48 448.512c0.512 15.36-23.04 15.36-23.552 0-2.56-77.312-3.072-155.136-1.536-232.448 0.512-15.36 24.064-15.36 23.552 0-1.536 77.312-1.024 154.624 1.536 232.448zM495.104 123.392c0-15.36 24.064-15.36 23.552 0l-3.072 246.784c0 15.36-24.064 15.36-23.552 0l3.072-246.784zM253.952 374.784c0.512 15.36-23.04 15.36-23.552 0-1.536-43.52-2.048-87.04-1.024-130.56 0.512-15.36 24.064-15.36 23.552 0-1.024 43.52-0.512 87.04 1.024 130.56z" fill="#056137" /></svg>