<?xml version="1.0" standalone="no"?><!DOCTYPE svg PUBLIC "-//W3C//DTD SVG 1.1//EN" "http://www.w3.org/Graphics/SVG/1.1/DTD/svg11.dtd"><svg t="1698246161353" class="icon" viewBox="0 0 1024 1024" version="1.1" xmlns="http://www.w3.org/2000/svg" p-id="4800" xmlns:xlink="http://www.w3.org/1999/xlink" width="200" height="200"><path d="M631.616 216.544l2.496 2.624 166.976 193.568a32 32 0 0 1-45.632 44.672l-2.816-2.88-110.72-128.384v451.328a32 32 0 0 1-28.288 31.808l-3.744 0.192a32 32 0 0 1-31.776-28.256l-0.224-3.744V240.064c0-28.416 33.856-42.176 53.728-23.52z m-240.64-8.544a32 32 0 0 1 31.776 28.256l0.224 3.744v537.408c0 28.416-33.856 42.208-53.728 23.52l-2.496-2.624L199.776 604.8a32 32 0 0 1 45.632-44.704l2.816 2.88 110.752 128.384V240a32 32 0 0 1 28.256-31.776l3.744-0.224z" p-id="4801"></path></svg>