<svg t="1643041348356" class="icon" viewBox="0 0 1024 1024" version="1.1" xmlns="http://www.w3.org/2000/svg" p-id="5919" width="200" height="200"><path d="M566.15 759.858l28.124-4.974c88.974-15.736 168.055-56.935 224.522-115.51C874.514 581.577 905 510.333 905 435.5 905 257.462 731.186 109 512.5 109S120 257.462 120 435.5c0 74.676 30.357 145.778 85.859 203.516 56.238 58.504 135.023 99.744 223.725 115.664l28.018 5.029 54.316 97.736 54.233-97.587z m-147.165 53.879C213.946 776.937 60 621.574 60 435.5 60 222.042 262.591 49 512.5 49S965 222.042 965 435.5c0 186.465-154.593 342.09-360.277 378.467l-49.1 88.352a50 50 0 0 1-19.417 19.417c-24.137 13.414-54.579 4.72-67.993-19.417l-49.228-88.582z" fill="#2F54EB" p-id="5920"></path><path d="M457.5 435.5c0-30.376 24.624-55 55-55s55 24.624 55 55-24.624 55-55 55-55-24.624-55-55z m-183 0c0-30.376 24.624-55 55-55s55 24.624 55 55-24.624 55-55 55-55-24.624-55-55z m365 0c0-30.376 24.624-55 55-55s55 24.624 55 55-24.624 55-55 55-55-24.624-55-55z" fill="#85A5FF" p-id="5921"></path></svg>