<?xml version="1.0" encoding="utf-8"?>
<!-- Uploaded to: SVG Repo, www.svgrepo.com, Generator: SVG Repo Mixer Tools -->
<svg width="800px" height="800px" viewBox="0 0 246 246" fill="none" xmlns="http://www.w3.org/2000/svg">
<g filter="url(#filter0_ii_397_3294)">
<path fill-rule="evenodd" clip-rule="evenodd" d="M153.811 24C153.811 33.9411 161.87 42 171.811 42C172.154 42 172.495 41.9904 172.834 41.9714C175.538 54.7129 186.853 64.2724 200.4 64.2724C201.981 64.2724 203.532 64.1423 205.042 63.892C206.425 72.4582 213.854 79 222.811 79C232.752 79 240.811 70.9411 240.811 61C240.811 52.703 235.197 45.7171 227.561 43.6334C228.226 41.2329 228.581 38.7037 228.581 36.0915C228.581 20.5277 215.964 7.91064 200.4 7.91064C194.895 7.91064 189.759 9.48908 185.419 12.2181C182.119 8.40922 177.246 6 171.811 6C161.87 6 153.811 14.0589 153.811 24Z" fill="url(#paint0_radial_397_3294)"/>
<path fill-rule="evenodd" clip-rule="evenodd" d="M92.8105 24C92.8105 33.9411 84.7517 42 74.8105 42C74.4672 42 74.1261 41.9904 73.7875 41.9714C71.0831 54.7129 59.7684 64.2724 46.2209 64.2724C44.64 64.2724 43.0894 64.1423 41.5794 63.892C40.196 72.4582 32.7672 79 23.8105 79C13.8694 79 5.81055 70.9411 5.81055 61C5.81055 52.703 11.4242 45.7171 19.0606 43.6334C18.3954 41.2329 18.04 38.7037 18.04 36.0915C18.04 20.5277 30.6571 7.91064 46.2209 7.91064C51.7259 7.91064 56.8622 9.48908 61.2019 12.2181C64.5023 8.40922 69.3751 6 74.8105 6C84.7517 6 92.8105 14.0589 92.8105 24Z" fill="url(#paint1_radial_397_3294)"/>
</g>
<g filter="url(#filter1_iii_397_3294)">
<path d="M11 125.655C11 65.6116 59.6749 16 119.718 16H123.5C185.632 16 236 67.3055 236 129.438C236 190.543 186.465 241 125.36 241C62.2005 241 11 188.814 11 125.655Z" fill="url(#paint2_radial_397_3294)"/>
</g>
<mask id="mask0_397_3294" style="mask-type:alpha" maskUnits="userSpaceOnUse" x="52" y="143" width="144" height="74">
<path d="M73.2 143C67.5926 143 64.7889 143 61.6473 144.42C57.382 146.347 52.8392 152.61 52.3311 157.263C51.9568 160.69 52.515 162.399 53.6313 165.817C57.1881 176.708 63.2754 186.72 71.5277 194.972C85.3116 208.756 104.007 216.5 123.5 216.5C142.993 216.5 161.688 208.756 175.472 194.972C184.073 186.372 190.322 175.86 193.805 164.434C194.846 161.022 195.366 159.317 194.97 156.144C194.427 151.789 190.209 146.093 186.202 144.304C183.283 143 180.605 143 175.25 143L123.5 143L73.2 143Z" fill="url(#paint3_linear_397_3294)"/>
</mask>
<g mask="url(#mask0_397_3294)">
<g filter="url(#filter2_i_397_3294)">
<path d="M73.2 143C67.5926 143 64.7889 143 61.6473 144.42C57.382 146.347 52.8392 152.61 52.3311 157.263C51.9568 160.69 52.515 162.399 53.6313 165.817C57.1881 176.708 63.2754 186.72 71.5277 194.972C85.3116 208.756 104.007 216.5 123.5 216.5C142.993 216.5 161.688 208.756 175.472 194.972C184.073 186.372 190.322 175.86 193.805 164.434C194.846 161.022 195.366 159.317 194.97 156.144C194.427 151.789 190.209 146.093 186.202 144.304C183.283 143 180.605 143 175.25 143L123.5 143L73.2 143Z" fill="url(#paint4_linear_397_3294)"/>
</g>
<g filter="url(#filter3_i_397_3294)">
<path d="M52.4587 147.18C49.6775 140.802 54.1592 133.5 61.1171 133.5H184.771C186.28 133.5 182.509 133.5 183.528 133.677C188.262 134.499 194.391 144.989 192.783 149.516C192.437 150.491 197.575 141.373 195.52 145.02C192.911 149.649 192.518 157.5 187.204 157.5H56.862C53.0072 157.5 53.9996 150.713 52.4587 147.18Z" fill="white"/>
</g>
<g filter="url(#filter4_iii_397_3294)">
<ellipse cx="123" cy="202.5" rx="29" ry="23" fill="url(#paint5_radial_397_3294)"/>
</g>
</g>
<g filter="url(#filter5_d_397_3294)">
<g filter="url(#filter6_i_397_3294)">
<circle cx="73.0679" cy="105.717" r="33.9126" fill="#FAFAFA"/>
</g>
<circle cx="73.0679" cy="105.717" r="39.4126" stroke="url(#paint6_linear_397_3294)" stroke-width="11"/>
<g filter="url(#filter7_i_397_3294)">
<rect x="64.1895" y="88" width="36.0593" height="36.0593" rx="18.0296" fill="#2C2F36"/>
</g>
</g>
<g filter="url(#filter8_d_397_3294)">
<g filter="url(#filter9_i_397_3294)">
<circle cx="173.373" cy="105.717" r="33.9126" fill="#FAFAFA"/>
</g>
<circle cx="173.373" cy="105.717" r="39.4126" stroke="url(#paint7_linear_397_3294)" stroke-width="11"/>
<g filter="url(#filter10_i_397_3294)">
<rect x="150.189" y="88" width="36.0593" height="36.0593" rx="18.0296" fill="#2C2F36"/>
</g>
</g>
<g filter="url(#filter11_ii_397_3294)">
<ellipse cx="123" cy="143.5" rx="19" ry="19.5" fill="url(#paint8_radial_397_3294)"/>
</g>
<defs>
<filter id="filter0_ii_397_3294" x="-4.69758" y="6" width="245.698" height="76" filterUnits="userSpaceOnUse" color-interpolation-filters="sRGB">
<feFlood flood-opacity="0" result="BackgroundImageFix"/>
<feBlend mode="normal" in="SourceGraphic" in2="BackgroundImageFix" result="shape"/>
<feColorMatrix in="SourceAlpha" type="matrix" values="0 0 0 0 0 0 0 0 0 0 0 0 0 0 0 0 0 0 127 0" result="hardAlpha"/>
<feOffset dx="-10.5081"/>
<feGaussianBlur stdDeviation="14.8069"/>
<feComposite in2="hardAlpha" operator="arithmetic" k2="-1" k3="1"/>
<feColorMatrix type="matrix" values="0 0 0 0 1 0 0 0 0 1 0 0 0 0 1 0 0 0 0.59 0"/>
<feBlend mode="normal" in2="shape" result="effect1_innerShadow_397_3294"/>
<feColorMatrix in="SourceAlpha" type="matrix" values="0 0 0 0 0 0 0 0 0 0 0 0 0 0 0 0 0 0 127 0" result="hardAlpha"/>
<feOffset dy="3"/>
<feGaussianBlur stdDeviation="8"/>
<feComposite in2="hardAlpha" operator="arithmetic" k2="-1" k3="1"/>
<feColorMatrix type="matrix" values="0 0 0 0 1 0 0 0 0 0 0 0 0 0 0.96 0 0 0 0.48 0"/>
<feBlend mode="normal" in2="effect1_innerShadow_397_3294" result="effect2_innerShadow_397_3294"/>
</filter>
<filter id="filter1_iii_397_3294" x="0.49187" y="-1.19512" width="255.569" height="257.48" filterUnits="userSpaceOnUse" color-interpolation-filters="sRGB">
<feFlood flood-opacity="0" result="BackgroundImageFix"/>
<feBlend mode="normal" in="SourceGraphic" in2="BackgroundImageFix" result="shape"/>
<feColorMatrix in="SourceAlpha" type="matrix" values="0 0 0 0 0 0 0 0 0 0 0 0 0 0 0 0 0 0 127 0" result="hardAlpha"/>
<feMorphology radius="7.64228" operator="erode" in="SourceAlpha" result="effect1_innerShadow_397_3294"/>
<feOffset dx="20.061" dy="12.4187"/>
<feGaussianBlur stdDeviation="22.9268"/>
<feComposite in2="hardAlpha" operator="arithmetic" k2="-1" k3="1"/>
<feColorMatrix type="matrix" values="0 0 0 0 0.682806 0 0 0 0 0.0652778 0 0 0 0 0.783333 0 0 0 0.14 0"/>
<feBlend mode="normal" in2="shape" result="effect1_innerShadow_397_3294"/>
<feColorMatrix in="SourceAlpha" type="matrix" values="0 0 0 0 0 0 0 0 0 0 0 0 0 0 0 0 0 0 127 0" result="hardAlpha"/>
<feOffset dy="-17.1951"/>
<feGaussianBlur stdDeviation="14.8069"/>
<feComposite in2="hardAlpha" operator="arithmetic" k2="-1" k3="1"/>
<feColorMatrix type="matrix" values="0 0 0 0 0.943639 0 0 0 0 0.223611 0 0 0 0 0.958333 0 0 0 0.44 0"/>
<feBlend mode="normal" in2="effect1_innerShadow_397_3294" result="effect2_innerShadow_397_3294"/>
<feColorMatrix in="SourceAlpha" type="matrix" values="0 0 0 0 0 0 0 0 0 0 0 0 0 0 0 0 0 0 127 0" result="hardAlpha"/>
<feOffset dx="-10.5081" dy="15.2846"/>
<feGaussianBlur stdDeviation="14.8069"/>
<feComposite in2="hardAlpha" operator="arithmetic" k2="-1" k3="1"/>
<feColorMatrix type="matrix" values="0 0 0 0 1 0 0 0 0 1 0 0 0 0 1 0 0 0 0.59 0"/>
<feBlend mode="normal" in2="effect2_innerShadow_397_3294" result="effect3_innerShadow_397_3294"/>
</filter>
<filter id="filter2_i_397_3294" x="52.2152" y="143" width="142.887" height="77.5" filterUnits="userSpaceOnUse" color-interpolation-filters="sRGB">
<feFlood flood-opacity="0" result="BackgroundImageFix"/>
<feBlend mode="normal" in="SourceGraphic" in2="BackgroundImageFix" result="shape"/>
<feColorMatrix in="SourceAlpha" type="matrix" values="0 0 0 0 0 0 0 0 0 0 0 0 0 0 0 0 0 0 127 0" result="hardAlpha"/>
<feOffset dy="4"/>
<feGaussianBlur stdDeviation="8"/>
<feComposite in2="hardAlpha" operator="arithmetic" k2="-1" k3="1"/>
<feColorMatrix type="matrix" values="0 0 0 0 0 0 0 0 0 0 0 0 0 0 0 0 0 0 0.25 0"/>
<feBlend mode="normal" in2="shape" result="effect1_innerShadow_397_3294"/>
</filter>
<filter id="filter3_i_397_3294" x="51.6227" y="130.5" width="144.384" height="27" filterUnits="userSpaceOnUse" color-interpolation-filters="sRGB">
<feFlood flood-opacity="0" result="BackgroundImageFix"/>
<feBlend mode="normal" in="SourceGraphic" in2="BackgroundImageFix" result="shape"/>
<feColorMatrix in="SourceAlpha" type="matrix" values="0 0 0 0 0 0 0 0 0 0 0 0 0 0 0 0 0 0 127 0" result="hardAlpha"/>
<feOffset dy="-3"/>
<feGaussianBlur stdDeviation="8"/>
<feComposite in2="hardAlpha" operator="arithmetic" k2="-1" k3="1"/>
<feColorMatrix type="matrix" values="0 0 0 0 0 0 0 0 0 0 0 0 0 0 0 0 0 0 0.47 0"/>
<feBlend mode="normal" in2="shape" result="effect1_innerShadow_397_3294"/>
</filter>
<filter id="filter4_iii_397_3294" x="91" y="169.5" width="61" height="60" filterUnits="userSpaceOnUse" color-interpolation-filters="sRGB">
<feFlood flood-opacity="0" result="BackgroundImageFix"/>
<feBlend mode="normal" in="SourceGraphic" in2="BackgroundImageFix" result="shape"/>
<feColorMatrix in="SourceAlpha" type="matrix" values="0 0 0 0 0 0 0 0 0 0 0 0 0 0 0 0 0 0 127 0" result="hardAlpha"/>
<feOffset dy="4"/>
<feGaussianBlur stdDeviation="5"/>
<feComposite in2="hardAlpha" operator="arithmetic" k2="-1" k3="1"/>
<feColorMatrix type="matrix" values="0 0 0 0 0 0 0 0 0 0 0 0 0 0 0 0 0 0 0.25 0"/>
<feBlend mode="normal" in2="shape" result="effect1_innerShadow_397_3294"/>
<feColorMatrix in="SourceAlpha" type="matrix" values="0 0 0 0 0 0 0 0 0 0 0 0 0 0 0 0 0 0 127 0" result="hardAlpha"/>
<feOffset dx="-3" dy="4"/>
<feGaussianBlur stdDeviation="2"/>
<feComposite in2="hardAlpha" operator="arithmetic" k2="-1" k3="1"/>
<feColorMatrix type="matrix" values="0 0 0 0 1 0 0 0 0 1 0 0 0 0 1 0 0 0 0.29 0"/>
<feBlend mode="normal" in2="effect1_innerShadow_397_3294" result="effect2_innerShadow_397_3294"/>
<feColorMatrix in="SourceAlpha" type="matrix" values="0 0 0 0 0 0 0 0 0 0 0 0 0 0 0 0 0 0 127 0" result="hardAlpha"/>
<feOffset dy="-10"/>
<feGaussianBlur stdDeviation="5"/>
<feComposite in2="hardAlpha" operator="arithmetic" k2="-1" k3="1"/>
<feColorMatrix type="matrix" values="0 0 0 0 0.828932 0 0 0 0 0.0596354 0 0 0 0 0.954167 0 0 0 0.6 0"/>
<feBlend mode="normal" in2="effect2_innerShadow_397_3294" result="effect3_innerShadow_397_3294"/>
</filter>
<filter id="filter5_d_397_3294" x="14.4459" y="49.9815" width="117.244" height="117.244" filterUnits="userSpaceOnUse" color-interpolation-filters="sRGB">
<feFlood flood-opacity="0" result="BackgroundImageFix"/>
<feColorMatrix in="SourceAlpha" type="matrix" values="0 0 0 0 0 0 0 0 0 0 0 0 0 0 0 0 0 0 127 0" result="hardAlpha"/>
<feOffset dy="2.88618"/>
<feGaussianBlur stdDeviation="6.85467"/>
<feColorMatrix type="matrix" values="0 0 0 0 0 0 0 0 0 0 0 0 0 0 0 0 0 0 0.25 0"/>
<feBlend mode="normal" in2="BackgroundImageFix" result="effect1_dropShadow_397_3294"/>
<feBlend mode="normal" in="SourceGraphic" in2="effect1_dropShadow_397_3294" result="shape"/>
</filter>
<filter id="filter6_i_397_3294" x="28.1553" y="57.4134" width="89.8252" height="93.2165" filterUnits="userSpaceOnUse" color-interpolation-filters="sRGB">
<feFlood flood-opacity="0" result="BackgroundImageFix"/>
<feBlend mode="normal" in="SourceGraphic" in2="BackgroundImageFix" result="shape"/>
<feColorMatrix in="SourceAlpha" type="matrix" values="0 0 0 0 0 0 0 0 0 0 0 0 0 0 0 0 0 0 127 0" result="hardAlpha"/>
<feOffset dy="-3.39126"/>
<feGaussianBlur stdDeviation="8.47815"/>
<feComposite in2="hardAlpha" operator="arithmetic" k2="-1" k3="1"/>
<feColorMatrix type="matrix" values="0 0 0 0 0 0 0 0 0 0 0 0 0 0 0 0 0 0 0.25 0"/>
<feBlend mode="normal" in2="shape" result="effect1_innerShadow_397_3294"/>
</filter>
<filter id="filter7_i_397_3294" x="64.1895" y="88" width="36.0593" height="36.0593" filterUnits="userSpaceOnUse" color-interpolation-filters="sRGB">
<feFlood flood-opacity="0" result="BackgroundImageFix"/>
<feBlend mode="normal" in="SourceGraphic" in2="BackgroundImageFix" result="shape"/>
<feColorMatrix in="SourceAlpha" type="matrix" values="0 0 0 0 0 0 0 0 0 0 0 0 0 0 0 0 0 0 127 0" result="hardAlpha"/>
<feMorphology radius="29.8052" operator="dilate" in="SourceAlpha" result="effect1_innerShadow_397_3294"/>
<feOffset dx="10.367" dy="-31.1011"/>
<feGaussianBlur stdDeviation="11.6629"/>
<feComposite in2="hardAlpha" operator="arithmetic" k2="-1" k3="1"/>
<feColorMatrix type="matrix" values="0 0 0 0 0.462111 0 0 0 0 0.203767 0 0 0 0 0.504167 0 0 0 0.35 0"/>
<feBlend mode="normal" in2="shape" result="effect1_innerShadow_397_3294"/>
</filter>
<filter id="filter8_d_397_3294" x="114.751" y="49.9815" width="117.244" height="117.244" filterUnits="userSpaceOnUse" color-interpolation-filters="sRGB">
<feFlood flood-opacity="0" result="BackgroundImageFix"/>
<feColorMatrix in="SourceAlpha" type="matrix" values="0 0 0 0 0 0 0 0 0 0 0 0 0 0 0 0 0 0 127 0" result="hardAlpha"/>
<feOffset dy="2.88618"/>
<feGaussianBlur stdDeviation="6.85467"/>
<feColorMatrix type="matrix" values="0 0 0 0 0 0 0 0 0 0 0 0 0 0 0 0 0 0 0.25 0"/>
<feBlend mode="normal" in2="BackgroundImageFix" result="effect1_dropShadow_397_3294"/>
<feBlend mode="normal" in="SourceGraphic" in2="effect1_dropShadow_397_3294" result="shape"/>
</filter>
<filter id="filter9_i_397_3294" x="128.46" y="57.4134" width="89.8252" height="93.2165" filterUnits="userSpaceOnUse" color-interpolation-filters="sRGB">
<feFlood flood-opacity="0" result="BackgroundImageFix"/>
<feBlend mode="normal" in="SourceGraphic" in2="BackgroundImageFix" result="shape"/>
<feColorMatrix in="SourceAlpha" type="matrix" values="0 0 0 0 0 0 0 0 0 0 0 0 0 0 0 0 0 0 127 0" result="hardAlpha"/>
<feOffset dy="-3.39126"/>
<feGaussianBlur stdDeviation="8.47815"/>
<feComposite in2="hardAlpha" operator="arithmetic" k2="-1" k3="1"/>
<feColorMatrix type="matrix" values="0 0 0 0 0 0 0 0 0 0 0 0 0 0 0 0 0 0 0.25 0"/>
<feBlend mode="normal" in2="shape" result="effect1_innerShadow_397_3294"/>
</filter>
<filter id="filter10_i_397_3294" x="150.189" y="88" width="36.0593" height="36.0593" filterUnits="userSpaceOnUse" color-interpolation-filters="sRGB">
<feFlood flood-opacity="0" result="BackgroundImageFix"/>
<feBlend mode="normal" in="SourceGraphic" in2="BackgroundImageFix" result="shape"/>
<feColorMatrix in="SourceAlpha" type="matrix" values="0 0 0 0 0 0 0 0 0 0 0 0 0 0 0 0 0 0 127 0" result="hardAlpha"/>
<feMorphology radius="29.8052" operator="dilate" in="SourceAlpha" result="effect1_innerShadow_397_3294"/>
<feOffset dx="10.367" dy="-31.1011"/>
<feGaussianBlur stdDeviation="11.6629"/>
<feComposite in2="hardAlpha" operator="arithmetic" k2="-1" k3="1"/>
<feColorMatrix type="matrix" values="0 0 0 0 0.462111 0 0 0 0 0.203767 0 0 0 0 0.504167 0 0 0 0.35 0"/>
<feBlend mode="normal" in2="shape" result="effect1_innerShadow_397_3294"/>
</filter>
<filter id="filter11_ii_397_3294" x="104" y="113" width="38" height="50" filterUnits="userSpaceOnUse" color-interpolation-filters="sRGB">
<feFlood flood-opacity="0" result="BackgroundImageFix"/>
<feBlend mode="normal" in="SourceGraphic" in2="BackgroundImageFix" result="shape"/>
<feColorMatrix in="SourceAlpha" type="matrix" values="0 0 0 0 0 0 0 0 0 0 0 0 0 0 0 0 0 0 127 0" result="hardAlpha"/>
<feMorphology radius="1" operator="erode" in="SourceAlpha" result="effect1_innerShadow_397_3294"/>
<feOffset dy="-5"/>
<feGaussianBlur stdDeviation="4"/>
<feComposite in2="hardAlpha" operator="arithmetic" k2="-1" k3="1"/>
<feColorMatrix type="matrix" values="0 0 0 0 0 0 0 0 0 0 0 0 0 0 0 0 0 0 0.31 0"/>
<feBlend mode="normal" in2="shape" result="effect1_innerShadow_397_3294"/>
<feColorMatrix in="SourceAlpha" type="matrix" values="0 0 0 0 0 0 0 0 0 0 0 0 0 0 0 0 0 0 127 0" result="hardAlpha"/>
<feOffset dy="-11"/>
<feGaussianBlur stdDeviation="14.8069"/>
<feComposite in2="hardAlpha" operator="arithmetic" k2="-1" k3="1"/>
<feColorMatrix type="matrix" values="0 0 0 0 0.943639 0 0 0 0 0.223611 0 0 0 0 0.958333 0 0 0 0.44 0"/>
<feBlend mode="normal" in2="effect1_innerShadow_397_3294" result="effect2_innerShadow_397_3294"/>
</filter>
<radialGradient id="paint0_radial_397_3294" cx="0" cy="0" r="1" gradientUnits="userSpaceOnUse" gradientTransform="translate(165.633 -12.273) rotate(93.4385) scale(56.0819 60.6229)">
<stop stop-color="#FF4141"/>
<stop offset="1" stop-color="#E30000"/>
</radialGradient>
<radialGradient id="paint1_radial_397_3294" cx="0" cy="0" r="1" gradientUnits="userSpaceOnUse" gradientTransform="translate(80.9879 -12.273) rotate(86.5615) scale(56.0819 60.6229)">
<stop stop-color="#FF4141"/>
<stop offset="1" stop-color="#E30000"/>
</radialGradient>
<radialGradient id="paint2_radial_397_3294" cx="0" cy="0" r="1" gradientUnits="userSpaceOnUse" gradientTransform="translate(110.695 30.6341) rotate(86.5167) scale(210.755)">
<stop stop-color="#F5F5F5"/>
<stop offset="1" stop-color="white"/>
</radialGradient>
<linearGradient id="paint3_linear_397_3294" x1="123.5" y1="216.5" x2="108.5" y2="130.5" gradientUnits="userSpaceOnUse">
<stop stop-color="#FB39A2"/>
<stop offset="1" stop-color="#C520FF"/>
</linearGradient>
<linearGradient id="paint4_linear_397_3294" x1="123.5" y1="216.5" x2="78.5" y2="121.5" gradientUnits="userSpaceOnUse">
<stop stop-color="#3A2EC0"/>
<stop offset="1" stop-color="#FF20C1"/>
</linearGradient>
<radialGradient id="paint5_radial_397_3294" cx="0" cy="0" r="1" gradientUnits="userSpaceOnUse" gradientTransform="translate(122.293 185.671) rotate(88.9826) scale(39.8355 50.2216)">
<stop stop-color="#FC4141"/>
<stop offset="1" stop-color="#FF0F0F"/>
</radialGradient>
<linearGradient id="paint6_linear_397_3294" x1="73.0679" y1="71.8047" x2="73.0679" y2="139.63" gradientUnits="userSpaceOnUse">
<stop stop-color="#3A2EC0"/>
<stop offset="1" stop-color="#2E72C0"/>
</linearGradient>
<linearGradient id="paint7_linear_397_3294" x1="173.373" y1="71.8047" x2="173.373" y2="139.63" gradientUnits="userSpaceOnUse">
<stop stop-color="#3A2EC0"/>
<stop offset="1" stop-color="#2E72C0"/>
</linearGradient>
<radialGradient id="paint8_radial_397_3294" cx="0" cy="0" r="1" gradientUnits="userSpaceOnUse" gradientTransform="translate(119.833 104.5) rotate(86.9015) scale(58.5856 57.0923)">
<stop stop-color="#F71A1A"/>
<stop offset="1" stop-color="#F7411A"/>
</radialGradient>
</defs>
</svg>