<?xml version="1.0" encoding="utf-8"?>
<!-- Uploaded to: SVG Repo, www.svgrepo.com, Generator: SVG Repo Mixer Tools -->
<svg width="800px" height="800px" viewBox="0 0 246 246" fill="none" xmlns="http://www.w3.org/2000/svg">
<g clip-path="url(#clip0_397_3241)">
<g filter="url(#filter0_iii_397_3241)">
<path d="M0 115C0 51.4872 51.4873 0 115 0H127C192.722 0 246 53.2781 246 119V127C246 192.722 192.722 246 127 246H123C55.069 246 0 190.931 0 123V115Z" fill="url(#paint0_radial_397_3241)"/>
</g>
<g filter="url(#filter1_dii_397_3241)">
<path d="M24 73.3444C24 77.0202 26.9928 80.0455 30.6361 79.5577C34.921 78.9839 39.1228 77.8555 43.1342 76.194C49.2004 73.6812 54.7124 69.9983 59.3553 65.3553C63.9983 60.7124 67.6812 55.2005 70.194 49.1342C71.8555 45.1228 72.9839 40.921 73.5577 36.6361C74.0455 32.9928 71.0202 30 67.3444 30C63.6685 30 60.7498 33.0038 60.0867 36.6192C59.6211 39.1571 58.8881 41.6449 57.8959 44.0402C56.0522 48.4914 53.3497 52.536 49.9428 55.9428C46.536 59.3497 42.4914 62.0522 38.0402 63.8959C35.6449 64.8881 33.1571 65.6211 30.6192 66.0867C27.0038 66.7498 24 69.6685 24 73.3444Z" fill="url(#paint1_linear_397_3241)"/>
</g>
<g filter="url(#filter2_dii_397_3241)">
<path d="M220 73.3444C220 77.0202 217.007 80.0455 213.364 79.5577C209.079 78.9839 204.877 77.8555 200.866 76.194C194.8 73.6812 189.288 69.9983 184.645 65.3553C180.002 60.7124 176.319 55.2005 173.806 49.1342C172.144 45.1228 171.016 40.921 170.442 36.6361C169.954 32.9928 172.98 30 176.656 30C180.331 30 183.25 33.0038 183.913 36.6192C184.379 39.1571 185.112 41.6449 186.104 44.0402C187.948 48.4914 190.65 52.536 194.057 55.9428C197.464 59.3497 201.509 62.0522 205.96 63.8959C208.355 64.8881 210.843 65.6211 213.381 66.0867C216.996 66.7498 220 69.6685 220 73.3444Z" fill="url(#paint2_linear_397_3241)"/>
</g>
<mask id="mask0_397_3241" style="mask-type:alpha" maskUnits="userSpaceOnUse" x="96" y="147" width="52" height="71">
<rect x="96" y="147" width="52" height="71" rx="24.4177" fill="url(#paint3_linear_397_3241)"/>
</mask>
<g mask="url(#mask0_397_3241)">
<g filter="url(#filter3_i_397_3241)">
<rect x="96" y="147" width="52" height="71" rx="24.4177" fill="url(#paint4_linear_397_3241)"/>
</g>
<g filter="url(#filter4_i_397_3241)">
<path d="M54.4587 160.68C51.6775 154.302 56.1592 147 63.1171 147H186.771C188.28 147 184.509 147 185.528 147.177C190.262 147.999 196.391 158.489 194.783 163.016C194.437 163.991 199.575 154.873 197.52 158.52C194.911 163.149 194.518 171 189.204 171H58.862C55.0072 171 55.9996 164.213 54.4587 160.68Z" fill="white"/>
</g>
</g>
<g filter="url(#filter5_i_397_3241)">
<path d="M58 103H93C93 103 83 176.5 93 216C95.2547 224.906 103.455 234.545 109.18 240.428C111.118 242.42 109.715 246 106.935 246H44.616C41.8925 246 40.4741 242.566 42.3131 240.557C47.731 234.638 55.6632 224.839 58 216C69.5 172.5 58 103 58 103Z" fill="url(#paint5_linear_397_3241)"/>
<path d="M58 103H93C93 103 83 176.5 93 216C95.2547 224.906 103.455 234.545 109.18 240.428C111.118 242.42 109.715 246 106.935 246H44.616C41.8925 246 40.4741 242.566 42.3131 240.557C47.731 234.638 55.6632 224.839 58 216C69.5 172.5 58 103 58 103Z" fill="url(#paint6_linear_397_3241)"/>
</g>
<g filter="url(#filter6_i_397_3241)">
<path d="M155 103H190C190 103 180 176.5 190 216C192.255 224.906 200.455 234.545 206.18 240.428C208.118 242.42 206.715 246 203.935 246H141.616C138.893 246 137.474 242.566 139.313 240.557C144.731 234.638 152.663 224.839 155 216C166.5 172.5 155 103 155 103Z" fill="url(#paint7_linear_397_3241)"/>
<path d="M155 103H190C190 103 180 176.5 190 216C192.255 224.906 200.455 234.545 206.18 240.428C208.118 242.42 206.715 246 203.935 246H141.616C138.893 246 137.474 242.566 139.313 240.557C144.731 234.638 152.663 224.839 155 216C166.5 172.5 155 103 155 103Z" fill="url(#paint8_linear_397_3241)"/>
</g>
<g filter="url(#filter7_i_397_3241)">
<path d="M103.54 123.5C107.66 123.5 111.081 120.122 110.197 116.098C108.794 109.711 105.591 103.801 100.895 99.1048C94.4252 92.6348 85.65 89 76.5 89C67.35 89 58.5748 92.6348 52.1048 99.1048C47.6509 103.559 44.5406 109.105 43.0346 115.114C41.8974 119.652 45.7924 123.5 50.4706 123.5C54.8564 123.5 58.2631 119.781 60.1273 115.811C61.0089 113.934 62.215 112.204 63.7097 110.71C67.1019 107.318 71.7027 105.412 76.5 105.412C81.2973 105.412 85.8981 107.318 89.2903 110.71C90.5423 111.962 91.5918 113.378 92.4178 114.909C94.7658 119.26 98.5961 123.5 103.54 123.5Z" fill="#C4C4C4"/>
<path d="M103.54 123.5C107.66 123.5 111.081 120.122 110.197 116.098C108.794 109.711 105.591 103.801 100.895 99.1048C94.4252 92.6348 85.65 89 76.5 89C67.35 89 58.5748 92.6348 52.1048 99.1048C47.6509 103.559 44.5406 109.105 43.0346 115.114C41.8974 119.652 45.7924 123.5 50.4706 123.5C54.8564 123.5 58.2631 119.781 60.1273 115.811C61.0089 113.934 62.215 112.204 63.7097 110.71C67.1019 107.318 71.7027 105.412 76.5 105.412C81.2973 105.412 85.8981 107.318 89.2903 110.71C90.5423 111.962 91.5918 113.378 92.4178 114.909C94.7658 119.26 98.5961 123.5 103.54 123.5Z" fill="#221725"/>
</g>
<g filter="url(#filter8_i_397_3241)">
<path d="M200.54 123.5C204.66 123.5 208.081 120.122 207.197 116.098C205.794 109.711 202.591 103.801 197.895 99.1048C191.425 92.6348 182.65 89 173.5 89C164.35 89 155.575 92.6348 149.105 99.1048C144.651 103.559 141.541 109.105 140.035 115.114C138.897 119.652 142.792 123.5 147.471 123.5C151.856 123.5 155.263 119.781 157.127 115.811C158.009 113.934 159.215 112.204 160.71 110.71C164.102 107.318 168.703 105.412 173.5 105.412C178.297 105.412 182.898 107.318 186.29 110.71C187.542 111.962 188.592 113.378 189.418 114.909C191.766 119.26 195.596 123.5 200.54 123.5Z" fill="#C4C4C4"/>
<path d="M200.54 123.5C204.66 123.5 208.081 120.122 207.197 116.098C205.794 109.711 202.591 103.801 197.895 99.1048C191.425 92.6348 182.65 89 173.5 89C164.35 89 155.575 92.6348 149.105 99.1048C144.651 103.559 141.541 109.105 140.035 115.114C138.897 119.652 142.792 123.5 147.471 123.5C151.856 123.5 155.263 119.781 157.127 115.811C158.009 113.934 159.215 112.204 160.71 110.71C164.102 107.318 168.703 105.412 173.5 105.412C178.297 105.412 182.898 107.318 186.29 110.71C187.542 111.962 188.592 113.378 189.418 114.909C191.766 119.26 195.596 123.5 200.54 123.5Z" fill="#221725"/>
</g>
</g>
<defs>
<filter id="filter0_iii_397_3241" x="-11" y="-24" width="278" height="326" filterUnits="userSpaceOnUse" color-interpolation-filters="sRGB">
<feFlood flood-opacity="0" result="BackgroundImageFix"/>
<feBlend mode="normal" in="SourceGraphic" in2="BackgroundImageFix" result="shape"/>
<feColorMatrix in="SourceAlpha" type="matrix" values="0 0 0 0 0 0 0 0 0 0 0 0 0 0 0 0 0 0 127 0" result="hardAlpha"/>
<feMorphology radius="8" operator="erode" in="SourceAlpha" result="effect1_innerShadow_397_3241"/>
<feOffset dx="21" dy="73"/>
<feGaussianBlur stdDeviation="24"/>
<feComposite in2="hardAlpha" operator="arithmetic" k2="-1" k3="1"/>
<feColorMatrix type="matrix" values="0 0 0 0 0.682806 0 0 0 0 0.0652778 0 0 0 0 0.783333 0 0 0 0.14 0"/>
<feBlend mode="normal" in2="shape" result="effect1_innerShadow_397_3241"/>
<feColorMatrix in="SourceAlpha" type="matrix" values="0 0 0 0 0 0 0 0 0 0 0 0 0 0 0 0 0 0 127 0" result="hardAlpha"/>
<feOffset dy="-24"/>
<feGaussianBlur stdDeviation="15.5"/>
<feComposite in2="hardAlpha" operator="arithmetic" k2="-1" k3="1"/>
<feColorMatrix type="matrix" values="0 0 0 0 0.943639 0 0 0 0 0.223611 0 0 0 0 0.958333 0 0 0 0.44 0"/>
<feBlend mode="normal" in2="effect1_innerShadow_397_3241" result="effect2_innerShadow_397_3241"/>
<feColorMatrix in="SourceAlpha" type="matrix" values="0 0 0 0 0 0 0 0 0 0 0 0 0 0 0 0 0 0 127 0" result="hardAlpha"/>
<feOffset dx="-11" dy="30"/>
<feGaussianBlur stdDeviation="15.5"/>
<feComposite in2="hardAlpha" operator="arithmetic" k2="-1" k3="1"/>
<feColorMatrix type="matrix" values="0 0 0 0 1 0 0 0 0 0.766722 0 0 0 0 0.693056 0 0 0 0.68 0"/>
<feBlend mode="normal" in2="effect2_innerShadow_397_3241" result="effect3_innerShadow_397_3241"/>
</filter>
<filter id="filter1_dii_397_3241" x="3" y="18" width="103.609" height="103.609" filterUnits="userSpaceOnUse" color-interpolation-filters="sRGB">
<feFlood flood-opacity="0" result="BackgroundImageFix"/>
<feColorMatrix in="SourceAlpha" type="matrix" values="0 0 0 0 0 0 0 0 0 0 0 0 0 0 0 0 0 0 127 0" result="hardAlpha"/>
<feOffset dx="6" dy="15"/>
<feGaussianBlur stdDeviation="13.5"/>
<feColorMatrix type="matrix" values="0 0 0 0 0.0313726 0 0 0 0 0.02 0 0 0 0 0.0352941 0 0 0 0.25 0"/>
<feBlend mode="normal" in2="BackgroundImageFix" result="effect1_dropShadow_397_3241"/>
<feBlend mode="normal" in="SourceGraphic" in2="effect1_dropShadow_397_3241" result="shape"/>
<feColorMatrix in="SourceAlpha" type="matrix" values="0 0 0 0 0 0 0 0 0 0 0 0 0 0 0 0 0 0 127 0" result="hardAlpha"/>
<feOffset dy="4.44444"/>
<feGaussianBlur stdDeviation="2.22222"/>
<feComposite in2="hardAlpha" operator="arithmetic" k2="-1" k3="1"/>
<feColorMatrix type="matrix" values="0 0 0 0 0.181961 0 0 0 0 0.116 0 0 0 0 0.204706 0 0 0 1 0"/>
<feBlend mode="normal" in2="shape" result="effect2_innerShadow_397_3241"/>
<feColorMatrix in="SourceAlpha" type="matrix" values="0 0 0 0 0 0 0 0 0 0 0 0 0 0 0 0 0 0 127 0" result="hardAlpha"/>
<feOffset dy="-4.44444"/>
<feGaussianBlur stdDeviation="2.22222"/>
<feComposite in2="hardAlpha" operator="arithmetic" k2="-1" k3="1"/>
<feColorMatrix type="matrix" values="0 0 0 0 0.12549 0 0 0 0 0.08 0 0 0 0 0.141176 0 0 0 1 0"/>
<feBlend mode="normal" in2="effect2_innerShadow_397_3241" result="effect3_innerShadow_397_3241"/>
</filter>
<filter id="filter2_dii_397_3241" x="149.391" y="18" width="103.609" height="103.609" filterUnits="userSpaceOnUse" color-interpolation-filters="sRGB">
<feFlood flood-opacity="0" result="BackgroundImageFix"/>
<feColorMatrix in="SourceAlpha" type="matrix" values="0 0 0 0 0 0 0 0 0 0 0 0 0 0 0 0 0 0 127 0" result="hardAlpha"/>
<feOffset dx="6" dy="15"/>
<feGaussianBlur stdDeviation="13.5"/>
<feColorMatrix type="matrix" values="0 0 0 0 0.0313726 0 0 0 0 0.02 0 0 0 0 0.0352941 0 0 0 0.25 0"/>
<feBlend mode="normal" in2="BackgroundImageFix" result="effect1_dropShadow_397_3241"/>
<feBlend mode="normal" in="SourceGraphic" in2="effect1_dropShadow_397_3241" result="shape"/>
<feColorMatrix in="SourceAlpha" type="matrix" values="0 0 0 0 0 0 0 0 0 0 0 0 0 0 0 0 0 0 127 0" result="hardAlpha"/>
<feOffset dy="4.44444"/>
<feGaussianBlur stdDeviation="2.22222"/>
<feComposite in2="hardAlpha" operator="arithmetic" k2="-1" k3="1"/>
<feColorMatrix type="matrix" values="0 0 0 0 0.181961 0 0 0 0 0.116 0 0 0 0 0.204706 0 0 0 1 0"/>
<feBlend mode="normal" in2="shape" result="effect2_innerShadow_397_3241"/>
<feColorMatrix in="SourceAlpha" type="matrix" values="0 0 0 0 0 0 0 0 0 0 0 0 0 0 0 0 0 0 127 0" result="hardAlpha"/>
<feOffset dy="-4.44444"/>
<feGaussianBlur stdDeviation="2.22222"/>
<feComposite in2="hardAlpha" operator="arithmetic" k2="-1" k3="1"/>
<feColorMatrix type="matrix" values="0 0 0 0 0.12549 0 0 0 0 0.08 0 0 0 0 0.141176 0 0 0 1 0"/>
<feBlend mode="normal" in2="effect2_innerShadow_397_3241" result="effect3_innerShadow_397_3241"/>
</filter>
<filter id="filter3_i_397_3241" x="96" y="147" width="52" height="71" filterUnits="userSpaceOnUse" color-interpolation-filters="sRGB">
<feFlood flood-opacity="0" result="BackgroundImageFix"/>
<feBlend mode="normal" in="SourceGraphic" in2="BackgroundImageFix" result="shape"/>
<feColorMatrix in="SourceAlpha" type="matrix" values="0 0 0 0 0 0 0 0 0 0 0 0 0 0 0 0 0 0 127 0" result="hardAlpha"/>
<feMorphology radius="31.2004" operator="dilate" in="SourceAlpha" result="effect1_innerShadow_397_3241"/>
<feOffset dx="10.8523" dy="-32.5569"/>
<feGaussianBlur stdDeviation="12.2088"/>
<feComposite in2="hardAlpha" operator="arithmetic" k2="-1" k3="1"/>
<feColorMatrix type="matrix" values="0 0 0 0 0.462111 0 0 0 0 0.203767 0 0 0 0 0.504167 0 0 0 0.35 0"/>
<feBlend mode="normal" in2="shape" result="effect1_innerShadow_397_3241"/>
</filter>
<filter id="filter4_i_397_3241" x="53.6226" y="144" width="144.384" height="27" filterUnits="userSpaceOnUse" color-interpolation-filters="sRGB">
<feFlood flood-opacity="0" result="BackgroundImageFix"/>
<feBlend mode="normal" in="SourceGraphic" in2="BackgroundImageFix" result="shape"/>
<feColorMatrix in="SourceAlpha" type="matrix" values="0 0 0 0 0 0 0 0 0 0 0 0 0 0 0 0 0 0 127 0" result="hardAlpha"/>
<feOffset dy="-3"/>
<feGaussianBlur stdDeviation="8"/>
<feComposite in2="hardAlpha" operator="arithmetic" k2="-1" k3="1"/>
<feColorMatrix type="matrix" values="0 0 0 0 0 0 0 0 0 0 0 0 0 0 0 0 0 0 0.47 0"/>
<feBlend mode="normal" in2="shape" result="effect1_innerShadow_397_3241"/>
</filter>
<filter id="filter5_i_397_3241" x="41.4836" y="98" width="75.595" height="148" filterUnits="userSpaceOnUse" color-interpolation-filters="sRGB">
<feFlood flood-opacity="0" result="BackgroundImageFix"/>
<feBlend mode="normal" in="SourceGraphic" in2="BackgroundImageFix" result="shape"/>
<feColorMatrix in="SourceAlpha" type="matrix" values="0 0 0 0 0 0 0 0 0 0 0 0 0 0 0 0 0 0 127 0" result="hardAlpha"/>
<feOffset dx="7" dy="-5"/>
<feGaussianBlur stdDeviation="6"/>
<feComposite in2="hardAlpha" operator="arithmetic" k2="-1" k3="1"/>
<feColorMatrix type="matrix" values="0 0 0 0 1 0 0 0 0 1 0 0 0 0 1 0 0 0 0.5 0"/>
<feBlend mode="normal" in2="shape" result="effect1_innerShadow_397_3241"/>
</filter>
<filter id="filter6_i_397_3241" x="138.484" y="98" width="75.595" height="148" filterUnits="userSpaceOnUse" color-interpolation-filters="sRGB">
<feFlood flood-opacity="0" result="BackgroundImageFix"/>
<feBlend mode="normal" in="SourceGraphic" in2="BackgroundImageFix" result="shape"/>
<feColorMatrix in="SourceAlpha" type="matrix" values="0 0 0 0 0 0 0 0 0 0 0 0 0 0 0 0 0 0 127 0" result="hardAlpha"/>
<feOffset dx="7" dy="-5"/>
<feGaussianBlur stdDeviation="6"/>
<feComposite in2="hardAlpha" operator="arithmetic" k2="-1" k3="1"/>
<feColorMatrix type="matrix" values="0 0 0 0 1 0 0 0 0 1 0 0 0 0 1 0 0 0 0.5 0"/>
<feBlend mode="normal" in2="shape" result="effect1_innerShadow_397_3241"/>
</filter>
<filter id="filter7_i_397_3241" x="42.8352" y="89" width="67.5017" height="34.5" filterUnits="userSpaceOnUse" color-interpolation-filters="sRGB">
<feFlood flood-opacity="0" result="BackgroundImageFix"/>
<feBlend mode="normal" in="SourceGraphic" in2="BackgroundImageFix" result="shape"/>
<feColorMatrix in="SourceAlpha" type="matrix" values="0 0 0 0 0 0 0 0 0 0 0 0 0 0 0 0 0 0 127 0" result="hardAlpha"/>
<feMorphology radius="26.45" operator="dilate" in="SourceAlpha" result="effect1_innerShadow_397_3241"/>
<feOffset dx="9.2" dy="-7"/>
<feGaussianBlur stdDeviation="10.35"/>
<feComposite in2="hardAlpha" operator="arithmetic" k2="-1" k3="1"/>
<feColorMatrix type="matrix" values="0 0 0 0 0.462111 0 0 0 0 0.203767 0 0 0 0 0.504167 0 0 0 0.35 0"/>
<feBlend mode="normal" in2="shape" result="effect1_innerShadow_397_3241"/>
</filter>
<filter id="filter8_i_397_3241" x="139.835" y="89" width="67.5017" height="34.5" filterUnits="userSpaceOnUse" color-interpolation-filters="sRGB">
<feFlood flood-opacity="0" result="BackgroundImageFix"/>
<feBlend mode="normal" in="SourceGraphic" in2="BackgroundImageFix" result="shape"/>
<feColorMatrix in="SourceAlpha" type="matrix" values="0 0 0 0 0 0 0 0 0 0 0 0 0 0 0 0 0 0 127 0" result="hardAlpha"/>
<feMorphology radius="26.45" operator="dilate" in="SourceAlpha" result="effect1_innerShadow_397_3241"/>
<feOffset dx="9.2" dy="-9"/>
<feGaussianBlur stdDeviation="10.35"/>
<feComposite in2="hardAlpha" operator="arithmetic" k2="-1" k3="1"/>
<feColorMatrix type="matrix" values="0 0 0 0 0.462111 0 0 0 0 0.203767 0 0 0 0 0.504167 0 0 0 0.35 0"/>
<feBlend mode="normal" in2="shape" result="effect1_innerShadow_397_3241"/>
</filter>
<radialGradient id="paint0_radial_397_3241" cx="0" cy="0" r="1" gradientUnits="userSpaceOnUse" gradientTransform="translate(109 16) rotate(86.5167) scale(230.426)">
<stop offset="0.576389" stop-color="#FFBB0C"/>
<stop offset="1" stop-color="#FFC907"/>
</radialGradient>
<linearGradient id="paint1_linear_397_3241" x1="24" y1="-20" x2="24" y2="80" gradientUnits="userSpaceOnUse">
<stop stop-color="#2D1D32"/>
<stop offset="1" stop-color="#221526"/>
</linearGradient>
<linearGradient id="paint2_linear_397_3241" x1="220" y1="-20" x2="220" y2="80" gradientUnits="userSpaceOnUse">
<stop stop-color="#2D1D32"/>
<stop offset="1" stop-color="#221526"/>
</linearGradient>
<linearGradient id="paint3_linear_397_3241" x1="122" y1="147" x2="176.369" y2="189.032" gradientUnits="userSpaceOnUse">
<stop stop-color="#FF20C1"/>
<stop offset="1" stop-color="#3A2EC0"/>
</linearGradient>
<linearGradient id="paint4_linear_397_3241" x1="122" y1="147" x2="176.369" y2="189.032" gradientUnits="userSpaceOnUse">
<stop stop-color="#FF20C1"/>
<stop offset="1" stop-color="#3A2EC0"/>
</linearGradient>
<linearGradient id="paint5_linear_397_3241" x1="76" y1="103" x2="76.3723" y2="245.894" gradientUnits="userSpaceOnUse">
<stop stop-color="#3FEEC4"/>
<stop offset="1" stop-color="#43BBFF"/>
</linearGradient>
<linearGradient id="paint6_linear_397_3241" x1="76" y1="103" x2="76.3723" y2="245.894" gradientUnits="userSpaceOnUse">
<stop stop-color="#3F46EE"/>
<stop offset="1" stop-color="#43BBFF"/>
</linearGradient>
<linearGradient id="paint7_linear_397_3241" x1="173" y1="103" x2="173.372" y2="245.894" gradientUnits="userSpaceOnUse">
<stop stop-color="#3FEEC4"/>
<stop offset="1" stop-color="#43BBFF"/>
</linearGradient>
<linearGradient id="paint8_linear_397_3241" x1="173" y1="103" x2="173.372" y2="245.894" gradientUnits="userSpaceOnUse">
<stop stop-color="#3F46EE"/>
<stop offset="1" stop-color="#43BBFF"/>
</linearGradient>
<clipPath id="clip0_397_3241">
<rect width="246" height="246" fill="white"/>
</clipPath>
</defs>
</svg>