<svg t="1643041534672" class="icon" viewBox="0 0 1024 1024" version="1.1" xmlns="http://www.w3.org/2000/svg" p-id="9003" width="200" height="200"><path d="M371.284141 698.915064c-118.6544 4.700045-175.754886 178.559768-216.615503 264.314875l266.279622 0L395.695111 700.036607C387.224182 698.756451 379.193275 698.598862 371.284141 698.915064z" p-id="9004"></path><path d="M420.667875 412.151921c-24.00881 0-43.211151 16.081257-43.211151 35.914978 0 19.834744 19.202341 35.914978 43.211151 35.914978 24.007787 0 43.490513-16.081257 43.490513-35.914978C464.159412 428.233178 444.675662 412.151921 420.667875 412.151921z" p-id="9005"></path><path d="M583.4104 258.108522c62.85249 84.265172 135.24424 118.969579 135.24424 118.969579-8.488325-145.871275-75.022671-196.552561-212.967416-197.253526-165.021427-0.842181-247.146866 125.84415-211.003691 257.300111C294.682509 437.124685 581.112054 318.260507 583.4104 258.108522z" p-id="9006"></path><path d="M493.901807 654.581346c-13.065574 1.192152-24.165376 10.398838-23.569812 19.35993l1.964748 29.462009c0.596588 8.943696 13.028735 15.783475 26.094308 14.5903l42.088584-3.928472c13.065574-1.192152 24.446785-10.417257 23.850198-19.360953l-1.964748-28.900214c-0.596588-8.962116-13.029758-16.063861-26.094308-14.871709L493.901807 654.581346z" p-id="9007"></path><path d="M765.512854 540.101012c51.383274-13.204743 89.508593-12.380982 89.508593-117.567649 0-50.662867-30.286794-94.067422-73.233931-112.236224C750.149958 190.486402 651.64548 68.676126 503.722476 65.343217c-4.717442-0.105401-9.400091-0.122797-14.029528 0-143.293567 3.681856-241.482867 114.480334-252.53048 242.990197-45.543266 16.85283-79.828117 61.641919-78.284971 114.199948 3.454682 118.024044 51.681056 119.899764 115.88431 121.214712L274.761807 315.348178c1.349741-97.644901 97.012498-205.952652 228.960669-205.952652 131.158179 0 203.707518 102.08298 235.695047 192.765305L739.417523 537.013697c-6.453992 15.117302-23.727401 32.110325-55.276954 62.572104-41.159422 39.720653-100.450806 60.325947-100.450806 60.325947-6.891967 1.455141-11.749602 10.662851-9.82067 18.518772 1.928932 7.856945 10.328229 12.574387 16.835434 9.540284 0 0 62.553685-20.412912 109.430318-65.658396C746.536664 577.506946 765.354242 540.538987 765.512854 540.101012z" p-id="9008"></path><path d="M660.57178 692.741457c-10.592242 0.385786-21.464871 2.928702-32.828686 7.856945l-24.692379 262.631536 266.278599 0C829.731458 880.438327 762.968915 688.883593 660.57178 692.741457z" p-id="9009"></path><path d="M556.753273 750.823294l-89.227184 0c-6.137791 0-11.539824 2.89391-11.223622 6.453992l14.5903 205.952652 82.213443 0 14.309914-205.952652C567.713906 753.717204 562.891064 750.823294 556.753273 750.823294z" p-id="9010"></path><path d="M646.823662 448.067922c0-19.834744-19.48375-35.914978-43.491537-35.914978-24.007787 0-43.490513 16.081257-43.490513 35.914978 0 19.834744 19.482727 35.914978 43.490513 35.914978C627.338888 483.9829 646.823662 467.901643 646.823662 448.067922z" p-id="9011"></path></svg>