<?xml version="1.0" encoding="utf-8"?>
<!-- Uploaded to: SVG Repo, www.svgrepo.com, Generator: SVG Repo Mixer Tools -->
<svg width="800px" height="800px" viewBox="0 0 1024 1024" class="icon"  version="1.1" xmlns="http://www.w3.org/2000/svg"><path d="M512.4 507.9m-232.1 0a232.1 232.1 0 1 0 464.2 0 232.1 232.1 0 1 0-464.2 0Z" fill="#FFFFFF" /><path d="M513.8 874.9c-5.5 0-10-4.4-10-9.9s4.4-10 9.9-10.1c3.2 0 6.5-0.1 9.7-0.2 5.5-0.2 10.1 4.1 10.3 9.7 0.2 5.5-4.1 10.1-9.7 10.3-3.2 0.1-6.7 0.2-10.2 0.2 0.1 0 0.1 0 0 0z m-39.9-1.9c-0.3 0-0.7 0-1.1-0.1l-10.2-1.2c-5.5-0.7-9.3-5.8-8.6-11.2 0.7-5.5 5.8-9.3 11.2-8.6 3.2 0.4 6.4 0.8 9.6 1.1 5.5 0.6 9.5 5.5 8.9 11-0.4 5.2-4.7 9-9.8 9z m89.7-1.8c-4.9 0-9.2-3.6-9.9-8.6-0.8-5.5 3-10.5 8.5-11.3l9.6-1.5c5.4-0.9 10.6 2.7 11.6 8.1s-2.7 10.6-8.1 11.6c-3.4 0.6-6.8 1.1-10.2 1.6-0.5 0.1-1 0.1-1.5 0.1z m-138.8-6.9c-0.8 0-1.6-0.1-2.4-0.3-3.3-0.8-6.6-1.7-9.9-2.6-5.3-1.5-8.4-7-6.9-12.3 1.5-5.3 7-8.4 12.3-6.9 3.1 0.9 6.3 1.7 9.4 2.5 5.4 1.3 8.6 6.8 7.3 12.1-1.3 4.5-5.4 7.5-9.8 7.5z m187.6-3.8c-4.3 0-8.3-2.8-9.6-7.2-1.6-5.3 1.5-10.9 6.8-12.4 3.1-0.9 6.2-1.9 9.3-2.9 5.3-1.7 10.9 1.2 12.6 6.4 1.7 5.3-1.2 10.9-6.4 12.6-3.2 1.1-6.6 2.1-9.8 3-1 0.4-1.9 0.5-2.9 0.5z m-235.2-11.7c-1.3 0-2.5-0.2-3.8-0.7-3.2-1.3-6.4-2.6-9.5-4-5.1-2.2-7.4-8.1-5.1-13.2 2.2-5.1 8.1-7.4 13.2-5.1 3 1.3 6 2.6 9 3.8 5.1 2.1 7.6 7.9 5.5 13-1.6 3.9-5.3 6.2-9.3 6.2z m282.1-5.6c-3.8 0-7.4-2.2-9.1-5.9-2.3-5-0.1-11 5-13.2 2.9-1.3 5.9-2.7 8.8-4.1 5-2.4 11-0.4 13.4 4.6 2.4 5 0.4 11-4.6 13.4-3.1 1.5-6.2 3-9.3 4.4-1.5 0.5-2.9 0.8-4.2 0.8z m-327-16.4c-1.7 0-3.4-0.4-5-1.4-2.9-1.7-5.9-3.5-8.8-5.3-4.7-2.9-6.2-9.1-3.2-13.8 2.9-4.7 9.1-6.2 13.8-3.2 2.8 1.7 5.6 3.4 8.3 5 4.8 2.8 6.4 8.9 3.6 13.7-1.9 3.3-5.2 5-8.7 5z m370.9-7.4c-3.3 0-6.5-1.6-8.5-4.6-3-4.7-1.6-10.8 3.1-13.8 2.7-1.7 5.4-3.5 8.1-5.3a9.99 9.99 0 0 1 13.9 2.7 9.99 9.99 0 0 1-2.7 13.9c-2.8 1.9-5.7 3.8-8.6 5.6-1.7 1-3.5 1.5-5.3 1.5zM291 798.8c-2.2 0-4.3-0.7-6.2-2.1-2.7-2.1-5.4-4.3-8-6.5-4.2-3.5-4.8-9.8-1.3-14.1 3.5-4.2 9.8-4.8 14.1-1.3 2.5 2.1 5 4.1 7.6 6.1 4.3 3.4 5.1 9.7 1.7 14-2 2.6-5 3.9-7.9 3.9z m452.3-9c-2.8 0-5.6-1.2-7.6-3.5-3.6-4.2-3.1-10.5 1.1-14.1 2.5-2.1 4.9-4.2 7.3-6.4 4.1-3.7 10.4-3.4 14.1 0.7 3.7 4.1 3.4 10.4-0.7 14.1-2.5 2.3-5.1 4.6-7.7 6.8-1.9 1.6-4.2 2.4-6.5 2.4z m-489.4-24.5c-2.6 0-5.2-1-7.2-3.1-2.4-2.4-4.7-5-7-7.5-3.7-4.1-3.4-10.4 0.7-14.1 4.1-3.7 10.4-3.4 14.1 0.7 2.2 2.4 4.4 4.8 6.6 7.1 3.8 4 3.7 10.3-0.3 14.1-1.9 1.9-4.4 2.8-6.9 2.8zM779 754.9c-2.4 0-4.7-0.8-6.6-2.5-4.1-3.7-4.5-10-0.8-14.1 2.1-2.4 4.3-4.9 6.4-7.4 3.6-4.2 9.9-4.8 14.1-1.2s4.8 9.9 1.2 14.1c-2.2 2.6-4.5 5.2-6.7 7.8-2.1 2.1-4.8 3.3-7.6 3.3zM221.9 727c-3.1 0-6.1-1.4-8.1-4.1-2-2.8-4-5.6-5.9-8.4-3.1-4.6-2-10.8 2.6-13.9 4.6-3.1 10.8-2 13.9 2.6 1.8 2.7 3.7 5.3 5.6 7.9 3.2 4.5 2.2 10.7-2.2 14-1.8 1.3-3.9 1.9-5.9 1.9z m587.7-11.7c-1.9 0-3.8-0.5-5.5-1.7-4.6-3.1-5.8-9.3-2.8-13.9 1.8-2.7 3.6-5.4 5.3-8.2 2.9-4.7 9.1-6.1 13.8-3.2 4.7 2.9 6.1 9.1 3.2 13.8-1.8 2.9-3.7 5.8-5.6 8.6-2 3.1-5.2 4.6-8.4 4.6z m-614.2-30.6c-3.6 0-7-1.9-8.8-5.3-1.6-3-3.2-6.1-4.7-9.1-2.5-4.9-0.4-10.9 4.5-13.4 5-2.5 10.9-0.4 13.4 4.5 1.4 2.9 2.9 5.8 4.4 8.6 2.6 4.9 0.7 10.9-4.1 13.5-1.5 0.8-3.1 1.2-4.7 1.2z m638.9-12.8c-1.5 0-2.9-0.3-4.3-1-5-2.4-7.1-8.4-4.7-13.3 1.4-2.9 2.8-5.9 4.1-8.8 2.3-5 8.2-7.3 13.2-5.1 5 2.3 7.3 8.2 5.1 13.2-1.4 3.1-2.8 6.3-4.3 9.3-1.8 3.6-5.4 5.7-9.1 5.7zM175.2 639c-4.1 0-7.9-2.5-9.4-6.6-1.2-3.2-2.3-6.5-3.4-9.7-1.7-5.2 1.1-10.9 6.4-12.6 5.2-1.7 10.9 1.1 12.6 6.4 1 3.1 2.1 6.2 3.2 9.2 1.9 5.2-0.8 10.9-6 12.8-1.1 0.4-2.3 0.5-3.4 0.5z m677.5-13.6c-1 0-2-0.2-3-0.5-5.3-1.7-8.2-7.3-6.5-12.6 1-3.1 1.9-6.2 2.8-9.3 1.5-5.3 7.1-8.4 12.4-6.9 5.3 1.5 8.4 7.1 6.9 12.4-0.9 3.3-1.9 6.6-3 9.8-1.4 4.4-5.3 7.1-9.6 7.1zM161.5 591c-4.6 0-8.8-3.2-9.8-7.9-0.7-3.3-1.4-6.7-2-10.1-1-5.4 2.6-10.6 8.1-11.6 5.4-1 10.6 2.6 11.6 8.1 0.6 3.2 1.2 6.4 1.9 9.5 1.1 5.4-2.3 10.7-7.7 11.8-0.7 0.1-1.4 0.2-2.1 0.2z m702.9-14.1c-0.5 0-1.1 0-1.7-0.1-5.4-0.9-9.1-6.1-8.2-11.5l1.5-9.6c0.8-5.5 5.8-9.3 11.3-8.5 5.5 0.8 9.3 5.8 8.5 11.3-0.5 3.4-1 6.8-1.6 10.2-0.7 4.7-5 8.2-9.8 8.2z m-709.7-35.4c-5.2 0-9.6-4-10-9.3-0.2-3.4-0.4-6.9-0.5-10.3-0.2-5.5 4.1-10.2 9.6-10.4 5.5-0.2 10.2 4.1 10.4 9.6 0.1 3.2 0.3 6.5 0.5 9.7 0.4 5.5-3.8 10.3-9.3 10.6-0.3 0.1-0.5 0.1-0.7 0.1z m714.6-14.3h-0.3c-5.5-0.2-9.9-4.7-9.7-10.3 0.1-3.2 0.1-6.5 0.1-9.7 0-5.5 4.5-10 10-10s10 4.5 10 10c0 3.4 0 6.9-0.1 10.3-0.2 5.4-4.6 9.7-10 9.7z m-714.5-35.6h-0.7c-5.5-0.4-9.7-5.2-9.3-10.7 0.2-3.4 0.5-6.8 0.9-10.2 0.5-5.5 5.4-9.5 10.9-9s9.5 5.4 9 10.9c-0.3 3.2-0.6 6.5-0.8 9.7-0.4 5.3-4.8 9.3-10 9.3z m712.5-13c-5 0-9.4-3.8-9.9-8.9-0.3-3.2-0.7-6.4-1.2-9.6-0.7-5.5 3.1-10.5 8.6-11.3 5.5-0.7 10.5 3.1 11.3 8.6 0.5 3.4 0.9 6.8 1.2 10.2 0.6 5.5-3.4 10.4-8.9 11h-1.1z m-705.5-36.5c-0.7 0-1.4-0.1-2.1-0.2-5.4-1.2-8.8-6.5-7.7-11.9 0.7-3.4 1.5-6.7 2.3-10 1.3-5.4 6.7-8.7 12.1-7.4 5.4 1.3 8.7 6.7 7.4 12.1-0.8 3.1-1.5 6.3-2.2 9.5-1.1 4.7-5.2 7.9-9.8 7.9z m696.7-12.7c-4.5 0-8.5-3-9.7-7.6-0.8-3.1-1.6-6.3-2.5-9.4-1.5-5.3 1.6-10.8 6.9-12.3 5.3-1.5 10.8 1.6 12.3 6.9l2.7 9.9c1.4 5.4-1.9 10.8-7.3 12.1-0.7 0.3-1.5 0.4-2.4 0.4z m-682.9-35.3c-1.1 0-2.3-0.2-3.4-0.6-5.2-1.9-7.8-7.6-5.9-12.8 1.2-3.2 2.4-6.4 3.7-9.6 2-5.1 7.9-7.6 13-5.6s7.6 7.9 5.6 13c-1.2 3-2.4 6.1-3.5 9.1-1.6 4-5.4 6.5-9.5 6.5zM843 382c-3.9 0-7.7-2.3-9.3-6.2-1.2-3-2.5-6-3.8-8.9-2.2-5.1 0.1-11 5.1-13.2 5.1-2.2 11 0.1 13.2 5.1 1.4 3.1 2.7 6.3 4 9.4 2.1 5.1-0.4 11-5.5 13-1.2 0.5-2.5 0.8-3.7 0.8z m-646.9-33.5c-1.6 0-3.2-0.4-4.7-1.2-4.9-2.6-6.7-8.7-4.1-13.5 1.6-3 3.3-6.1 5-9 2.7-4.8 8.9-6.5 13.6-3.7 4.8 2.7 6.5 8.9 3.7 13.6-1.6 2.8-3.2 5.7-4.7 8.5-1.8 3.4-5.3 5.3-8.8 5.3z m624.8-11.3c-3.4 0-6.8-1.8-8.6-5-1.6-2.8-3.3-5.6-5-8.3-2.9-4.7-1.5-10.9 3.2-13.8 4.7-2.9 10.9-1.5 13.8 3.2 1.8 2.9 3.6 5.8 5.3 8.8 2.8 4.8 1.2 10.9-3.6 13.7-1.6 1-3.4 1.4-5.1 1.4z m-598.2-31c-2 0-4.1-0.6-5.9-1.9-4.5-3.3-5.4-9.5-2.2-14 2-2.8 4.1-5.5 6.2-8.2 3.4-4.4 9.7-5.2 14-1.8 4.4 3.4 5.2 9.7 1.8 14-2 2.5-3.9 5.1-5.8 7.8-2 2.7-5 4.1-8.1 4.1z m570.1-10.3c-3 0-5.9-1.3-7.9-3.8s-4-5.1-6.1-7.5c-3.5-4.2-3-10.5 1.3-14.1 4.2-3.5 10.5-3 14.1 1.3 2.2 2.6 4.4 5.3 6.5 8 3.4 4.3 2.7 10.6-1.7 14-1.8 1.4-4 2.1-6.2 2.1zM254.9 268c-2.5 0-5-0.9-7-2.8-4-3.8-4.1-10.2-0.2-14.1 2.4-2.4 4.8-4.9 7.3-7.3 4-3.9 10.3-3.8 14.1 0.2 3.9 4 3.8 10.3-0.2 14.1L262 265c-1.9 2-4.5 3-7.1 3z m504.3-9c-2.5 0-5-0.9-6.9-2.8-2.3-2.2-4.7-4.5-7.1-6.6-4.1-3.7-4.4-10-0.7-14.1s10-4.4 14.1-0.7c2.5 2.3 5.1 4.7 7.5 7 4 3.8 4.1 10.2 0.3 14.1-1.9 2-4.5 3.1-7.2 3.1z m-467.1-24.3c-3 0-5.9-1.3-7.9-3.9-3.4-4.4-2.6-10.6 1.7-14 2.7-2.1 5.4-4.2 8.2-6.2 4.5-3.3 10.7-2.3 14 2.1 3.3 4.5 2.3 10.7-2.1 14-2.6 1.9-5.2 3.9-7.7 5.9-1.9 1.4-4.1 2.1-6.2 2.1z m428.8-7.7c-2 0-4.1-0.6-5.8-1.9-2.6-1.9-5.3-3.8-8-5.6-4.6-3.1-5.7-9.3-2.6-13.9s9.3-5.7 13.9-2.6c2.8 1.9 5.7 3.9 8.4 5.9 4.5 3.2 5.5 9.5 2.3 14-2.1 2.6-5.1 4.1-8.2 4.1z m-387.4-20.2c-3.5 0-6.8-1.8-8.7-5-2.8-4.8-1.1-10.9 3.7-13.7 3-1.7 6-3.4 9-5 4.9-2.6 10.9-0.8 13.5 4.1 2.6 4.9 0.8 10.9-4.1 13.5-2.8 1.5-5.7 3.1-8.5 4.7-1.5 1-3.2 1.4-4.9 1.4z m344.9-6.2c-1.6 0-3.2-0.4-4.7-1.2-2.9-1.5-5.8-3-8.7-4.4-5-2.4-7-8.4-4.6-13.4 2.4-5 8.4-7 13.4-4.6 3.1 1.5 6.1 3.1 9.2 4.7 4.9 2.6 6.8 8.6 4.2 13.5-1.7 3.5-5.2 5.4-8.8 5.4z m-300-15.5c-4 0-7.7-2.4-9.3-6.3-2.1-5.1 0.4-10.9 5.6-13 3.2-1.3 6.4-2.5 9.6-3.7 5.2-1.9 10.9 0.7 12.8 5.9 1.9 5.2-0.7 10.9-5.9 12.8-3 1.1-6.1 2.3-9.1 3.5-1.2 0.5-2.4 0.8-3.7 0.8z m254.3-4.7c-1.1 0-2.3-0.2-3.4-0.6-3.1-1.1-6.2-2.2-9.2-3.2-5.2-1.7-8.1-7.4-6.4-12.6 1.7-5.2 7.4-8.1 12.6-6.4 3.2 1.1 6.5 2.2 9.8 3.4 5.2 1.9 7.9 7.6 6 12.8-1.5 4.1-5.3 6.6-9.4 6.6zM426 169.7c-4.5 0-8.6-3.1-9.7-7.6-1.3-5.4 2-10.8 7.3-12.1 3.3-0.8 6.7-1.6 10-2.3 5.4-1.2 10.7 2.3 11.9 7.7 1.2 5.4-2.3 10.7-7.7 11.9-3.1 0.7-6.3 1.4-9.5 2.2-0.7 0.2-1.6 0.2-2.3 0.2z m158.6-2.8c-0.7 0-1.4-0.1-2-0.2-3.1-0.7-6.4-1.3-9.5-1.8-5.4-1-9.1-6.2-8.1-11.6 1-5.4 6.2-9.1 11.6-8.1 3.4 0.6 6.8 1.3 10.1 1.9 5.4 1.1 8.9 6.4 7.8 11.8-1.1 4.7-5.3 8-9.9 8z m-109.4-5.6c-5.1 0-9.4-3.8-9.9-9-0.6-5.5 3.4-10.4 8.9-11l10.2-0.9c5.5-0.4 10.3 3.7 10.7 9.2s-3.7 10.3-9.2 10.7c-3.2 0.2-6.5 0.5-9.7 0.8-0.4 0.1-0.7 0.2-1 0.2z m59.9-1.1h-0.7c-3.2-0.2-6.5-0.4-9.7-0.5-5.5-0.2-9.8-4.8-9.6-10.4 0.2-5.5 4.8-9.8 10.4-9.6 3.4 0.1 6.9 0.3 10.3 0.5 5.5 0.4 9.7 5.1 9.3 10.6-0.4 5.3-4.8 9.4-10 9.4z" fill="#005BFF" /><path d="M776.3 244.9c-14.9 0-27 12.1-27 27s12.1 27 27 27 27-12.1 27-27-12.1-27-27-27z" fill="#E6E6E6" /><path d="M776.3 224.9c-25.9 0-47 21.1-47 47s21.1 47 47 47 47-21.1 47-47-21.1-47-47-47z m-27.1 47c0-14.9 12.1-27 27-27s27 12.1 27 27-12.1 27-27 27-27-12.1-27-27z" fill="#005BFF" /><path d="M722.2 408H301c-3.1 6.5-5.9 13.2-8.3 20h437.9c-2.5-6.8-5.3-13.5-8.4-20z" fill="#06F3FF" /><path d="M704.5 314.3c-51.5-51.5-120-79.9-192.9-79.9s-141.4 28.4-192.9 79.9-79.9 120-79.9 192.9 28.4 141.4 79.9 192.9c51.5 51.5 120 79.9 192.9 79.9s141.4-28.4 192.9-79.9c51.5-51.5 79.9-120 79.9-192.9s-28.3-141.4-79.9-192.9zM303.6 611.5h87.1c1.1 3.2 2.3 6.4 3.5 9.6 11 28.4 26.3 55.6 45.4 80.8 10.2 13.4 20.3 24.8 29.5 34.1-72.5-13.4-133.3-60.5-165.5-124.5z m198 127.7c-12-10.4-29.4-27.2-46.6-50-14.7-19.5-30.9-45.6-43-77.8h89.6v127.8z m20 0V611.5h89.6c-12.1 32.1-28.3 58.3-43 77.8-17.2 22.8-34.6 39.5-46.6 49.9z m32.6-3.1c9.2-9.4 19.3-20.7 29.5-34.1 19.2-25.3 34.5-52.4 45.4-80.8 1.2-3.2 2.4-6.4 3.5-9.6h87.1c-32.2 63.9-93 111-165.5 124.5z m174.4-144.6h-89.8c7.3-26.5 11-53.9 11-81.8 0-27.7-3.7-55.1-10.9-81.8H618c7.2 24.6 11.7 51.9 11.7 81.8 0 30-4.6 57.4-11.8 81.8h-96.3V428h-20v163.5h-96.3c-7.2-24.4-11.8-51.7-11.8-81.8 0-29.8 4.6-57.2 11.7-81.8h-20.9c-7.2 26.7-10.9 54.1-10.9 81.8 0 27.9 3.7 55.2 11 81.8h-89.8c-10.2-26.2-15.8-54.6-15.8-84.3 0-27.8 4.9-54.5 13.9-79.2 2.5-6.8 5.3-13.5 8.3-20 31.7-67 94.5-116.6 169.7-130-9.6 10.1-20.4 22.4-31.2 37.1-19.1 26-34.4 53.8-45.4 82.5-1.3 3.4-2.5 6.9-3.7 10.4h21.3c12.2-33 28.6-60.2 43.4-80.5 17.2-23.4 34.5-40.8 46.5-51.7V408h20V275.8c12 10.9 29.3 28.4 46.5 51.7 14.9 20.3 31.3 47.4 43.4 80.5h21.3c-1.2-3.5-2.4-6.9-3.7-10.4-11-28.8-26.2-56.5-45.4-82.5-10.7-14.7-21.5-27.1-31.1-37.1 75.2 13.4 138 63 169.7 130 3.1 6.5 5.9 13.2 8.3 20 9 24.7 13.9 51.4 13.9 79.2-0.1 29.7-5.7 58.2-15.9 84.3z" fill="#005BFF" /></svg>