<?xml version="1.0" encoding="utf-8"?>
<!-- Uploaded to: SVG Repo, www.svgrepo.com, Generator: SVG Repo Mixer Tools -->
<svg width="800px" height="800px" viewBox="0 0 1024 1024" class="icon"  version="1.1" xmlns="http://www.w3.org/2000/svg"><path d="M792.8 360c-1 0-2.1-0.2-3.1-0.5-5.3-1.7-8.1-7.3-6.4-12.6 11.4-35.1 4.8-78.8-17.7-116.9-22.6-38.5-58-65.5-94.5-72.3-5.4-1-9-6.2-8-11.7 1-5.4 6.2-9 11.7-8 42.1 7.9 82.5 38.4 108 81.8 25.3 43 32.6 92.7 19.4 133.2-1.3 4.3-5.2 7-9.4 7z" fill="#06F3FF" /><path d="M349.2 886.1c-1.3 0-2.6-0.1-3.9-0.4-44.5-8.7-87-41-113.7-86.4-27-45.8-34.5-99-20-142.4 3.5-10.5 14.8-16.1 25.3-12.6 10.5 3.5 16.1 14.8 12.6 25.3-10.8 32.5-4.7 73.4 16.5 109.4 21 35.7 53.5 60.9 86.9 67.4 10.8 2.1 17.9 12.6 15.8 23.5-1.8 9.6-10.1 16.2-19.5 16.2z" fill="#005BFF" /><path d="M352.4 329.4c-0.6 0-1.1 0-1.7 0.1h-0.1c-0.5 0-1.1 0.1-1.6 0.2-2.7 0.4-5.3 1.3-7.7 2.8L192.6 420l22.4 38 148.7-87.5c3.1-1.8 5.7-4.3 7.5-7.3 0.2-0.3 0.3-0.6 0.5-0.8 0.2-0.3 0.3-0.6 0.5-0.9 0.1-0.2 0.2-0.5 0.3-0.7 0 0 0-0.1 0.1-0.1 0.2-0.4 0.3-0.7 0.5-1.1 0.1-0.2 0.2-0.5 0.3-0.7 0.2-0.6 0.4-1.2 0.6-1.9 1.5-5.7 0.6-11.6-2.3-16.7-4.4-7-11.7-10.9-19.3-10.9z" fill="#E6E6E6" /><path d="M350.7 329.5s-0.1 0 0 0c-0.1 0 0 0 0 0zM372.9 359.5c0.1-0.2 0.2-0.5 0.3-0.7-0.1 0.3-0.2 0.5-0.3 0.7zM371.1 363.1c0.2-0.3 0.3-0.6 0.5-0.8-0.1 0.3-0.3 0.5-0.5 0.8zM372.5 360.6s0 0.1-0.1 0.1l0.1-0.1z" fill="#005BFF" /><path d="M650.2 656.8c-1.5 5.7-0.6 11.6 2.3 16.7 6.2 10.5 19.7 14 30.1 7.8l148.7-87.5-22.3-38-148.7 87.5c-5 3.1-8.6 7.8-10.1 13.5z" fill="#E6E6E6" /><path d="M912.2 520.7c-8.4-14.3-21.9-24.4-37.9-28.6-16-4.2-32.7-1.8-47 6.6L640.1 608.9c-14.3 8.4-24.4 21.9-28.6 37.9-2.4 9.3-2.6 18.9-0.7 28.1l-167.6 98.7c-20.1 11.8-43.7 15.2-66.3 9.3-22.6-5.9-41.6-20.2-53.4-40.3-24.5-41.5-10.6-95.2 31-119.7l323.1-190.3c1.3-0.8 2.6-1.7 3.6-2.8l7.4-4.4c29.3-17.3 50.2-44.9 58.7-77.9 8.5-33 3.7-67.3-13.6-96.6-35.7-60.5-113.9-80.8-174.5-45.2l-166.8 98.2c-7-6-15.4-10.3-24.5-12.7-16-4.1-32.7-1.8-47 6.6L133.8 408.2c-14.3 8.4-24.4 21.9-28.6 37.9s-1.8 32.7 6.6 47c8.4 14.3 21.9 24.4 37.9 28.6 5.2 1.3 10.4 2 15.6 2 10.9 0 21.7-2.9 31.4-8.6l187.2-110.2c14.3-8.4 24.4-21.9 28.6-37.9 2.5-9.5 2.6-19.3 0.6-28.6l166.5-98.1c41.5-24.5 95.2-10.6 119.7 31 11.8 20.1 15.2 43.7 9.3 66.3-5.9 22.6-20.2 41.6-40.3 53.4l-323 190.3c-1.3 0.8-2.6 1.7-3.6 2.8l-7.4 4.4c-60.5 35.7-80.8 113.9-45.2 174.5 23.7 40.3 66.3 62.7 110 62.7 22 0 44.2-5.7 64.4-17.6l167.6-98.7c11.3 9.7 25.8 15 40.5 15 10.7 0 21.5-2.8 31.4-8.6l187.2-110.2c14.3-8.4 24.4-21.9 28.6-37.9 4.1-16.1 1.8-32.8-6.6-47z m-735.8-40.1c-10.5 6.2-24 2.7-30.1-7.8-3-5.1-3.8-11-2.3-16.7 1.5-5.7 5.1-10.5 10.1-13.5l21.3-12.5 22.3 37.9-21.3 12.6zM373.8 357c-0.2 0.6-0.4 1.3-0.6 1.9-0.1 0.2-0.2 0.5-0.3 0.7-0.1 0.4-0.3 0.7-0.5 1.1 0 0 0 0.1-0.1 0.1-0.2 0.5-0.5 1.1-0.8 1.6-0.2 0.3-0.3 0.6-0.5 0.8-1.9 3-4.4 5.5-7.5 7.3L215 458l-22.4-38 148.7-87.5c2.5-1.4 5.1-2.4 7.7-2.8 0.5-0.1 1.1-0.1 1.6-0.2 0.6-0.1 1.2-0.1 1.8-0.1 7.5 0 14.9 3.9 19 10.8 3 5.1 3.9 11.1 2.4 16.8z m308.9 324.3c-2.8 1.7-5.9 2.6-8.9 2.9-8.3 0.8-16.7-3.1-21.2-10.7-3-5.1-3.8-11-2.3-16.7 0.7-2.6 1.8-4.9 3.3-7.1 1.8-2.6 4.1-4.8 6.9-6.4L809 555.8l22.3 37.9-148.6 87.6z m187.2-110.2l-21.3 12.5-22.3-37.9 21.3-12.5c3.4-2 7.3-3.1 11.1-3.1 1.9 0 3.7 0.2 5.6 0.7 5.7 1.5 10.5 5.1 13.5 10.1 6.1 10.5 2.6 24-7.9 30.2z" fill="#005BFF" /></svg>