<?xml version="1.0" encoding="utf-8"?>
<!-- Uploaded to: SVG Repo, www.svgrepo.com, Generator: SVG Repo Mixer Tools -->
<svg width="800px" height="800px" viewBox="0 0 1024 1024" class="icon"  version="1.1" xmlns="http://www.w3.org/2000/svg"><path d="M46.709019 525.864535s-58.209881-467.23131 458.623304-513.37587c130.037346-7.055743 458.623303 59.903259 467.23131 513.37587H46.709019z" fill="#F4C323" /><path d="M457.776614 18.13326C-7.761317 87.914559 46.709019 525.864535 46.709019 525.864535H157.343072C148.523393 224.019844 346.436988 76.837043 457.776614 18.13326z" fill="#F5B01C" /><path d="M374.94219 92.85358m-20.673328 0a20.673327 20.673327 0 1 0 41.346655 0 20.673327 20.673327 0 1 0-41.346655 0Z" fill="#7D4822" /><path d="M605.94722 88.549576m-20.673328 0a20.673327 20.673327 0 1 0 41.346655 0 20.673327 20.673327 0 1 0-41.346655 0Z" fill="#7D4822" /><path d="M534.895886 113.456349m-20.673327 0a20.673327 20.673327 0 1 0 41.346655 0 20.673327 20.673327 0 1 0-41.346655 0Z" fill="#7D4822" /><path d="M642.707641 211.037277m-20.673327 0a20.673327 20.673327 0 1 0 41.346655 0 20.673327 20.673327 0 1 0-41.346655 0Z" fill="#7D4822" /><path d="M825.028044 248.291601m-20.673328 0a20.673327 20.673327 0 1 0 41.346655 0 20.673327 20.673327 0 1 0-41.346655 0Z" fill="#7D4822" /><path d="M973.339764 602.066561H44.027837c-0.493902 0-0.846689-0.352787-0.846689-0.846689v-39.371047c0-0.493902 0.352787-0.846689 0.846689-0.846689h929.311927c0.493902 0 0.846689 0.352787 0.84669 0.846689v39.371047c0 0.423345-0.423345 0.846689-0.84669 0.846689z" fill="#7D4822" /><path d="M47.696824 770.416592V857.978364c0 84.739475 69.287398 154.026872 154.026872 154.026873h625.068284c84.739475 0 154.026872-69.287398 154.026872-154.026873v-87.632329H47.696824z" fill="#F4C323" /><path d="M47.696824 857.978364c0 84.739475 69.287398 154.026872 154.026872 154.026873H316.802866c-116.137532-62.654999-135.046923-199.042514-138.15145-241.588645H47.696824V857.978364z" fill="#F5B01C" /><path d="M832.154344 745.368704c-23.777854 0-40.499966-17.004341-41.205539-17.709915l-0.211673-0.28223-44.310067-49.390202c-12.62978-14.111486-25.682905-21.308344-38.806587-21.520016-17.780473-0.28223-30.551368 12.62978-30.621925 12.770895l-0.352787 0.352787-0.423345 0.352787c-0.141115 0.070557-11.994763 10.089713-51.295252 47.555709-22.155033 23.918969-46.074003 24.342314-62.302212 20.532212-17.074898-4.021774-28.999104-13.688142-29.493006-14.111486l-0.141115-0.141115c-0.493902-0.423345-13.476469-11.430304-57.927651-51.506925l-0.28223-0.28223-0.28223-0.282229c-10.019155-10.865844-20.179425-16.298767-30.128023-16.016537-14.746503 0.352787-25.400675 12.91201-25.471233 13.053125l-0.635016 0.776131-0.705575 0.56446c-0.28223 0.211672-25.965135 20.814442-65.053951 56.093158-14.182044 12.841452-28.999104 18.556604-44.098395 17.004341-20.955557-2.18728-34.855371-18.062702-37.959898-22.013919-3.951216-3.527872-25.54179-23.07228-56.234273-53.694205l-0.493902-0.56446c-6.067939-7.196858-12.841452-10.936402-20.673327-11.571418-16.510439-1.199476-32.315304 12.34755-32.526976 12.488665l-0.211672 0.211672-76.343141 62.866672-11.571419-14.040929 76.272584-62.796114c2.046166-1.763936 22.225591-18.556604 45.721215-16.863226 12.62978 0.917247 23.707297 6.844071 32.950321 17.639358 33.23255 33.23255 55.599256 53.059188 55.810928 53.27086l0.705574 0.635017 0.564459 0.776132c0.070557 0.141115 10.583615 13.970371 25.965135 15.522635 9.666368 0.987804 19.756081-3.245642 29.916351-12.418108 36.054847-32.597533 60.961621-52.847516 65.195067-56.30483 3.316199-3.668986 17.5688-18.274375 38.17157-18.909392 15.38152-0.493902 30.128023 6.773513 43.886722 21.520017 42.122786 37.889341 55.952043 49.742989 57.151519 50.80135 0.705574 0.564459 10.019155 7.69076 22.719493 10.583615 16.580996 3.739544 31.539172-1.481706 44.380625-15.522635l0.423344-0.423345c36.901537-35.137601 49.884104-46.356232 52.071384-48.261283 2.892855-2.822297 19.614966-18.344932 43.67505-17.992145 18.41549 0.28223 35.913733 9.525253 52.071385 27.587956l44.098394 49.249087c1.058361 0.987804 13.264797 12.559223 28.928547 12.065321 10.795287-0.28223 21.378902-6.209054 31.468614-17.639358l0.352787-0.352787 0.352788-0.352787c34.855371-31.680287 67.664577-61.878867 67.946806-62.231655l12.34755 13.335355c-0.352787 0.28223-32.95032 30.339695-67.735134 61.949424-13.476469 15.169848-28.434645 23.07228-44.451181 23.425068-0.493902 0.211672-0.846689 0.211672-1.199477 0.211672z" fill="#7A4721" /></svg>