<?xml version="1.0" encoding="utf-8"?>
<!-- Uploaded to: SVG Repo, www.svgrepo.com, Generator: SVG Repo Mixer Tools -->
<svg width="800px" height="800px" viewBox="0 0 1024 1024" class="icon"  version="1.1" xmlns="http://www.w3.org/2000/svg"><path d="M824 215l-65-18 65-17 18-65 18 65 64 17-64 18-18 65-18-65zM124 784l-41-10 41-10 9-41 10 41 41 10-41 10-10 41-9-41z" fill="#FDCD60" /><path d="M901 283l-26-6 26-6 5-26 6 26 26 6-26 6-6 25-5-25zM113 446l-24-5 24-6 5-24 6 24 24 6-24 5-6 24-5-24z" fill="#FDCD60" /><path d="M114 255m-9 0a9 9 0 1 0 18 0 9 9 0 1 0-18 0Z" fill="#5546CB" /><path d="M912 769a25 25 0 1 1 25-25 25 25 0 0 1-25 25z m0-36a10 10 0 1 0 10 10 10 10 0 0 0-10-10z" fill="#5546CB" /><path d="M913 542c-19-15-45-28-78-40-2 7-6 14-13 21v6a54 54 0 0 1 19 10c7 6 10 13 9 19s-7 11-16 14h-25c3 8 5 16 5 22s-4 16-10 19l-7 2c-5 0-10-2-15-6a55 55 0 0 1-13-15l-8 2c-7 12-17 19-26 19h-7a15 15 0 0 1-7-7 1000 1000 0 0 1-140 24c-31 3-62 5-92 5-91 0-177-14-255-42-18-6-30-24-30-45v-55c-43 13-77 29-99 47s-31 34-31 53 10 37 31 53 56 34 99 47c81 25 189 39 304 39s223-14 304-39c44-13 77-29 99-47s31-34 31-53-9-37-29-53z" fill="#AFBCF3" /><path d="M925 526c-23-19-57-35-101-49 4-100-14-175-53-227-49-65-131-95-256-94-111-1-194 28-246 86-39 44-61 103-64 177a514 514 0 0 0 1 55h-5c-46 14-81 31-106 50s-39 44-39 69 13 48 39 69 60 36 106 50c83 26 193 40 310 40s227-14 310-40c46-14 81-31 106-50s39-44 39-69-15-46-41-67z m-115 32l-13-5a35 35 0 0 0 5-14h12c7 2 13 5 18 8s4 5 4 6-2 3-7 4-12 3-19 1z m-8 37c0 5-1 7-3 8s-4 0-8-3-9-9-12-16a52 52 0 0 1-5-14 35 35 0 0 0 14-7h1a54 54 0 0 1 7 11c4 8 5 15 5 21z m-66 8c-3-1-4-12 3-26a49 49 0 0 1 8-12 35 35 0 0 0 13 5 48 48 0 0 1-5 15c-8 14-17 20-20 18z m-5-64h1a35 35 0 0 0 5 14l-13 5c-7 2-14 2-19 1s-6-3-7-4 1-4 4-6 11-6 18-8z m-19-45h8c5 1 12 4 17 9l7 7a36 36 0 0 0-9 14l-9-6c-14-10-18-21-16-23z m56-27c3 0 9 9 9 24a53 53 0 0 1-1 9h-18a53 53 0 0 1-1-9c0-13 6-23 9-23z m0 45a22 22 0 1 1-22 22 23 23 0 0 1 20-21z m42 4l-9 6a36 36 0 0 0-9-14l7-7c6-5 12-8 17-9s7 0 8 1-4 15-16 24zM284 256c48-54 126-81 231-79h5c116 0 191 27 235 86 27 35 42 82 48 141-70 27-140 46-210 54a746 746 0 0 1-174 1c-100-11-167-40-191-52h-3c6-63 25-114 59-151z m-59 171c29 14 96 40 192 51a766 766 0 0 0 179-1c68-8 137-26 205-52v60l-11 7h-1c0-21-9-37-22-37s-22 16-22 37h-1c-7-6-15-10-23-12s-16 0-20 5-1 27 15 41c-9 2-17 6-23 11s-10 13-9 19 7 11 16 14h11l14-2a62 62 0 0 0-5 17 980 980 0 0 1-139 24c-30 3-61 5-90 5-88 0-172-14-248-41-10-3-16-14-17-27z m688 221c-22 18-56 34-99 47-81 25-189 39-304 39s-223-14-304-39c-44-13-77-29-99-47s-31-34-31-53 10-37 31-53 55-33 99-47v54c0 21 12 39 30 45 79 28 164 42 255 42 30 0 61-2 92-5a1000 1000 0 0 0 140-24 15 15 0 0 0 7 7h7c9 0 18-7 26-19l8-2a55 55 0 0 0 13 15c5 4 10 6 15 6l7-2c6-3 10-10 10-19s-2-15-5-22h23c9-2 15-7 16-14s-2-13-9-19a54 54 0 0 0-19-10v-6c7-7 11-14 13-21 33 12 60 25 78 40s31 34 31 53-11 38-31 54z" fill="#5546CB" /><path d="M419 459a746 746 0 0 0 174-1c70-8 140-27 210-54-5-59-21-106-48-141-45-59-119-86-235-86h-5c-105-1-183 26-231 79-33 37-53 88-58 150h3c23 13 90 41 190 53z" fill="#FDCD60" /><path d="M226 549c0 12 7 23 17 27 76 27 160 41 248 41 29 0 60-2 90-5a980 980 0 0 0 139-24 62 62 0 0 1 5-17l-14 2h-11c-9-2-15-7-16-14s2-13 9-19 14-9 23-11c-17-13-23-31-15-41s12-7 20-5 15 6 23 12h1c0-21 9-37 22-37s22 16 22 37h1l11-7v-62c-68 26-137 43-205 52a766 766 0 0 1-179 1c-96-11-162-38-192-51z" fill="#F97744" /><path d="M733 523a36 36 0 0 1 9-14l-7-7c-6-5-12-8-17-9h-8c-2 2 2 13 13 22zM697 555c0 1 2 3 7 4s12 1 19 0l13-5a35 35 0 0 1-5-14h-13c-7 2-13 5-18 8s-4 6-3 7zM758 570a35 35 0 0 1-13-5 49 49 0 0 0-8 12c-7 14-5 25-3 26s12-4 19-18a48 48 0 0 0 5-15zM789 564h-1a35 35 0 0 1-14 7 52 52 0 0 0 5 14c3 7 8 13 12 16s7 3 8 3 3-3 3-8-2-13-5-20a54 54 0 0 0-8-12zM829 559c4-1 6-3 7-4s-1-4-4-6-11-6-18-8h-13a35 35 0 0 1-5 14l13 5c8 0 15 0 20-1zM822 495c-1-1-3-1-8-1s-12 4-17 9l-7 7a36 36 0 0 1 9 14l9-6c12-10 16-21 14-23zM757 493a53 53 0 0 0 1 9h17a53 53 0 0 0 1-9c0-15-6-24-9-24s-10 9-10 24z" fill="#FFFFFF" /><path d="M766 558a22 22 0 1 0-22-22 23 23 0 0 0 22 22z" fill="#FDCD60" /></svg>