<?xml version="1.0" encoding="utf-8"?>
<!-- Uploaded to: SVG Repo, www.svgrepo.com, Generator: SVG Repo Mixer Tools -->
<svg width="800px" height="800px" viewBox="0 0 1024 1024" class="icon"  version="1.1" xmlns="http://www.w3.org/2000/svg"><path d="M585.216 572.928c45.568-3.072 91.648-13.312 129.024-40.96 44.032-32.768 69.12-79.872 87.552-130.56 44.544-122.368 35.328-247.808 31.232-375.296 0-4.608-2.56-7.68-5.632-9.728-3.584-3.072-9.216-3.584-13.312 0.512-1.024 1.024-2.56 2.048-3.072 3.584-46.08 58.368-95.744 114.688-153.088 161.792-25.088-33.28-52.736-66.048-84.48-92.672-11.776-9.728-20.992-13.312-33.28-2.048-17.408 15.36-31.744 36.352-48.64 52.736-16.384 15.872-35.84 37.376-55.808 47.616-8.704 4.096-2.048 5.12-8.704 2.048-4.608-2.048-9.216-9.216-12.8-12.288-9.216-9.216-18.944-18.432-28.16-27.648-37.376-36.352-74.24-72.704-111.616-109.568-0.512-0.512-1.024-1.024-1.536-1.024-5.632-8.192-20.992-5.632-20.992 6.144 0 67.072 0 134.144 0.512 201.216 0 60.416-2.56 122.88 13.312 182.272 14.336 53.248 46.08 88.064 94.72 112.64 44.032 22.528 92.672 33.28 141.824 31.744 3.072 133.632-14.336 268.8-112.128 368.64-3.584 3.584-4.096 7.168-2.56 10.752 0.512 5.12 4.096 10.752 10.752 11.264 37.888 3.072 76.288 4.096 114.176 3.072 6.144 0 9.728-4.096 10.752-8.704 61.44-115.712 65.024-256.512 61.952-385.536z m-80.896 371.712c-28.16 0.512-56.32 0-83.968-1.536 92.672-104.96 108.544-244.224 104.448-380.416 0-4.096-2.048-7.168-4.608-8.704-2.048-2.048-4.608-3.072-8.192-3.072-51.2 3.072-101.888-7.168-146.944-31.744-23.04-12.8-45.568-28.16-59.392-50.688-13.824-23.04-20.48-51.2-25.088-77.824-8.704-54.272-5.632-111.104-5.632-165.888 0-50.176 0-100.352-0.512-151.04 29.696 29.184 59.392 57.856 89.088 87.04 16.384 16.384 32.768 36.864 51.712 50.688 0.512 0.512 1.536 1.024 2.048 1.536-2.048 41.984-1.536 83.456 1.536 125.44 2.56 34.816 2.048 77.312 20.48 108.032 7.68 12.8 27.136 1.024 19.968-11.776-18.432-31.232-16.384-78.848-18.432-114.176-2.048-35.84-2.048-71.68-0.512-107.52 3.072-2.048 6.656-4.096 10.24-6.656 35.328-26.112 67.584-56.32 96.256-89.6 4.096-5.12 5.12-8.704 11.264-7.68 4.608 0.512 9.216 6.656 12.288 9.728l26.112 26.112c17.92 19.456 34.816 39.936 50.688 60.928 1.024 1.536 2.56 2.56 3.584 3.584 2.56 70.656 3.072 142.848-25.6 208.896-5.632 13.312 13.824 25.088 19.968 11.776 31.232-72.704 30.72-151.04 28.16-228.864 51.712-41.984 96.768-91.136 138.752-142.848 3.584 103.424 8.704 205.824-21.504 307.2-15.36 51.712-36.864 100.352-76.8 137.728-37.888 35.84-89.6 45.568-140.288 48.128-2.048 0-3.584 0.512-5.12 1.536-3.584 1.536-6.656 4.608-6.656 10.24 3.584 125.952 3.072 266.24-57.344 381.44z" fill="#397CBF" /><path d="M426.496 809.472c13.312-67.072-41.472-123.392-92.672-158.72-60.928-41.984-136.704-40.96-207.872-43.52-4.096 0-7.168 1.536-8.704 4.096-2.048 2.56-3.584 6.144-2.048 10.24 18.944 60.416 54.272 117.76 107.008 154.624 56.832 39.936 128.512 53.248 196.096 43.008 6.144-0.512 8.192-5.12 8.192-9.728z m-193.024-52.224c-43.008-30.208-73.216-76.8-91.136-125.952 54.272 1.536 111.616 2.048 160.256 27.648 47.104 25.088 110.592 80.896 102.912 140.288-60.416 6.656-122.88-7.168-172.032-41.984zM938.496 623.616c-1.536-0.512-3.584-1.024-5.12-0.512-69.12-5.12-141.312-12.8-204.8 19.968-54.272 28.16-118.272 80.384-111.616 147.968v1.024c-0.512 4.608 2.048 9.728 8.192 11.264 65.536 16.896 136.704 10.752 196.608-20.992 55.808-29.696 98.304-83.456 123.392-140.8 4.096-5.632 1.536-15.36-6.656-17.92z m-122.368 135.68c-53.248 30.72-117.76 37.376-176.64 24.064-0.512-60.416 67.584-109.568 118.784-129.024 50.688-18.944 107.008-13.824 160.256-9.728-22.528 46.592-56.832 88.576-102.4 114.688z" fill="#397CBF" /></svg>