<?xml version="1.0" encoding="utf-8"?>
<!-- Uploaded to: SVG Repo, www.svgrepo.com, Generator: SVG Repo Mixer Tools -->
<svg width="800px" height="800px" viewBox="0 0 1024 1024" class="icon"  version="1.1" xmlns="http://www.w3.org/2000/svg"><path d="M938.496 623.616c8.192 2.048 10.752 12.288 6.656 17.92-25.088 57.344-67.584 110.592-123.392 140.8-59.904 31.744-131.072 37.888-196.608 20.992-6.144-1.536-8.192-6.656-8.192-11.264v-1.024c-6.656-67.584 57.344-120.32 111.616-147.968 63.488-32.768 136.192-25.088 204.8-19.968 1.536 0 3.584 0 5.12 0.512z m-122.368 135.68c45.056-26.112 79.36-68.096 102.4-114.688-53.248-4.096-109.568-9.728-160.256 9.728-51.2 19.456-119.296 68.096-118.784 129.024 59.392 13.312 123.904 6.656 176.64-24.064z" fill="#397CBF" /><path d="M919.04 644.608c-23.04 46.592-57.344 88.576-102.4 114.688-53.248 30.72-117.76 37.376-176.64 24.064-0.512-60.416 67.584-109.568 118.784-129.024 50.176-19.456 106.496-13.824 160.256-9.728z" fill="#8CD0E3" /><path d="M833.536 26.112c4.096 127.488 13.312 252.928-31.232 375.296-18.432 50.688-44.032 97.792-88.064 130.56-37.376 28.16-83.456 37.888-129.024 40.96 2.56 129.024-1.024 269.824-62.464 386.048-1.024 4.608-4.608 8.704-10.752 8.704-38.4 1.024-76.288 0-114.176-3.072-6.656-0.512-10.24-5.632-10.752-11.264-1.024-3.584-0.512-7.68 2.56-10.752 98.304-99.328 115.2-235.008 112.128-368.64-49.152 1.024-97.792-9.216-141.824-31.744-48.64-25.088-79.872-59.392-94.72-112.64-15.872-58.88-13.312-121.344-13.312-182.272 0-67.072 0-134.144-0.512-200.704 0-12.288 15.36-14.336 20.992-6.144 0.512 0.512 1.024 0.512 1.536 1.024 37.376 36.352 74.24 72.704 111.616 109.568 9.216 9.216 18.944 18.432 28.16 27.648 3.584 3.584 8.192 10.24 12.8 12.288 6.656 3.072 0 2.56 8.704-2.048 20.48-10.24 39.936-31.744 56.32-47.616 16.896-16.384 31.232-37.376 48.64-52.736 12.288-10.752 22.016-7.68 33.28 2.048 31.744 26.624 59.392 59.392 84.48 92.672 57.344-47.104 107.52-103.424 153.088-161.792 0.512-1.536 1.536-2.56 3.072-3.584 4.096-4.608 9.216-4.096 13.312-0.512 3.584 1.024 6.144 4.096 6.144 8.704z m-43.008 338.432c30.208-101.376 25.088-203.776 21.504-307.2-41.984 51.712-87.04 100.864-138.752 142.848 2.56 77.824 3.072 155.648-28.16 228.864-5.632 13.312-25.6 2.048-19.968-11.776 28.672-66.048 27.648-138.24 25.6-208.896-1.536-1.024-2.56-2.048-3.584-3.584-15.872-21.504-32.768-41.472-50.688-60.928-8.704-9.216-16.896-17.92-26.112-26.112-3.072-3.072-7.68-9.216-12.288-9.728-6.144-0.512-6.656 3.072-11.264 8.192-28.672 33.28-60.928 63.488-96.256 89.6-3.584 2.56-6.656 5.12-10.24 6.656-1.536 35.84-1.536 71.68 0.512 107.52 2.048 35.328 0 82.944 18.432 114.176 7.68 12.8-12.288 24.064-19.456 11.776-18.432-30.72-17.92-73.216-20.48-108.032-3.072-41.984-3.584-83.456-1.536-125.44-0.512-0.512-1.536-1.024-2.048-1.536-18.944-13.824-35.328-34.304-51.712-50.688-29.696-29.184-59.392-58.368-89.088-87.04v151.04c0 54.784-3.072 111.616 5.632 165.888 4.096 26.624 10.752 54.272 25.088 77.312 13.824 23.04 36.352 38.4 59.392 50.688C410.112 542.72 460.8 552.96 512 550.4c3.584 0 6.144 1.024 8.192 3.072 2.56 1.536 4.608 4.608 4.608 8.704 4.096 136.704-11.776 275.456-104.448 380.416 28.16 1.536 55.808 2.048 83.968 1.536 59.904-114.688 60.928-255.488 57.856-382.464 0-5.12 2.56-8.704 6.656-10.24 1.536-0.512 3.072-1.024 5.12-1.536 50.176-2.56 102.4-12.288 140.288-48.128 39.424-36.864 60.928-84.992 76.288-137.216z" fill="#397CBF" /><path d="M812.032 57.344c3.584 103.936 8.704 205.824-21.504 307.2-15.36 51.712-36.864 100.352-76.8 137.728-37.888 35.84-89.6 45.568-140.288 48.128-2.048 0-3.584 0.512-5.12 1.536-3.584 1.536-6.656 4.608-6.656 10.24 3.072 126.976 2.048 267.264-57.856 382.464-28.16 0.512-56.32 0-83.968-1.536 92.672-104.96 108.544-244.224 104.448-380.416 0-4.096-2.048-7.168-4.608-8.704-2.048-2.048-4.608-3.072-8.192-3.072-51.2 3.072-101.888-7.168-146.944-32.256-23.04-12.8-45.568-28.16-59.392-50.688-13.824-23.04-20.48-51.2-25.088-77.312-8.704-54.272-5.632-111.104-5.632-165.888v-151.04c29.696 29.184 59.392 58.368 89.088 87.04 16.384 16.384 32.768 36.864 51.712 50.688 0.512 0.512 1.536 1.024 2.048 1.536-2.048 41.984-1.536 83.456 1.536 125.44 2.56 34.816 2.048 77.312 20.48 108.032 7.68 12.8 27.136 1.024 19.456-11.776-18.432-31.232-16.384-78.848-18.432-114.176-2.048-35.84-2.048-71.68-0.512-107.52 3.072-2.048 6.656-4.096 10.24-6.656 35.328-26.624 67.584-56.32 96.256-89.6 4.096-5.12 5.12-8.704 11.264-8.192 4.608 0.512 9.216 6.656 12.288 9.728 9.216 8.704 17.408 17.408 26.112 26.112 17.92 19.456 34.816 39.936 50.688 60.928 1.024 1.536 2.56 2.56 3.584 3.584 2.56 70.656 3.072 142.848-25.6 208.896-5.632 13.312 13.824 25.088 19.968 11.776 31.232-72.704 30.72-151.04 28.16-228.864 51.712-42.496 97.28-91.648 139.264-143.36z" fill="#8CD0E3" /><path d="M333.824 650.752c50.688 34.816 105.984 91.648 92.672 158.72 0.512 4.608-2.048 9.216-8.192 10.24-68.096 9.728-139.264-3.072-196.096-43.008-52.224-36.864-88.064-94.208-107.008-154.624-1.536-4.096 0-7.68 2.048-10.24s4.608-4.608 9.216-4.096c70.144 2.048 146.432 1.536 207.36 43.008zM404.992 798.72c8.192-59.392-55.808-115.2-102.912-140.288-48.64-25.6-105.984-26.112-160.256-27.648 17.92 49.152 48.64 95.744 91.136 125.952 49.664 35.328 112.128 49.152 172.032 41.984z" fill="#397CBF" /><path d="M302.08 658.432c47.104 25.088 110.592 80.896 102.912 140.288-59.904 7.168-122.368-6.656-171.52-41.472-43.008-30.208-73.216-76.8-91.136-125.952 53.76 1.024 111.104 1.536 159.744 27.136z" fill="#8CD0E3" /></svg>