<?xml version="1.0" encoding="utf-8"?>
<!-- Uploaded to: SVG Repo, www.svgrepo.com, Generator: SVG Repo Mixer Tools -->
<svg width="800px" height="800px" viewBox="0 0 1024 1024" class="icon"  version="1.1" xmlns="http://www.w3.org/2000/svg"><path d="M437.76 457.728c-11.264 77.824 2.56 156.672-9.216 233.984-5.12 34.816-17.408 91.648-49.152 112.128-34.304 21.504-94.72 26.624-126.976-2.048-14.848-13.312-24.064-31.744-29.696-50.688-4.608-15.36-3.584-35.84-9.728-50.688 21.504-26.624 47.616-47.616 78.336-62.976 12.288-6.144 1.536-25.088-10.752-18.944-32.768 16.384-61.44 39.936-84.48 68.608-2.56-0.512-5.12-0.512-8.192-0.512-21.504-0.512-43.52 2.048-65.024-1.536-50.688-8.704-57.856-73.216-52.736-115.712 5.12-40.96 49.152-71.168 83.968-87.04 43.008-20.48 91.136-26.112 138.24-28.16 48.128-3.072 97.28-2.56 145.408 3.584zM584.704 179.712c0 45.568-11.264 100.864-35.84 139.776-28.16 43.52-67.584 79.36-103.424 116.224-52.224-10.752-96.768-39.424-137.216-73.728-39.424-33.792-80.384-71.168-105.472-117.248-24.576-45.568-37.888-120.32 17.92-148.48 39.936-19.968 106.496-16.384 132.608 24.064 2.048 29.184 7.68 57.856 17.408 85.504 4.608 13.312 25.6 7.68 20.992-5.632-9.216-25.6-14.848-51.712-16.384-78.848 0.512-1.024 0.512-2.56 0.512-4.096v-0.512c6.656-60.416 76.8-82.432 128-66.56 23.04 7.168 44.544 22.016 60.416 40.448 18.944 23.04 20.48 60.928 20.48 89.088zM843.776 416.256c8.704 23.04 4.096 47.616-6.144 69.12-9.728 20.992-25.6 50.688-52.224 50.176-1.536 0-2.56 0.512-3.584 0.512-37.888-1.536-74.24-9.216-109.568-23.552-12.8-5.12-18.432 15.872-5.632 20.992 36.352 14.336 74.24 22.528 113.152 24.064 22.016 39.936 25.6 90.624 2.048 131.584-12.8 22.016-33.792 40.448-60.416 40.96-24.064 0.512-52.224-8.192-74.24-17.92-47.104-20.48-71.168-78.848-96.256-120.832-26.624-44.032-52.224-88.576-77.824-133.12 32.768-24.576 66.048-48.64 102.912-67.584 48.128-24.576 99.328-35.84 153.6-35.84 47.104 0.512 96.256 11.776 114.176 61.44z" fill="#3B9548" /><path d="M796.672 342.016c44.032 16.384 77.312 59.904 73.216 108.032-3.072 37.376-28.16 92.672-67.584 104.96 20.992 42.496 23.552 93.696 2.56 137.216-10.24 20.992-26.112 39.936-47.104 50.688-23.552 12.288-48.64 9.728-73.728 4.096-25.6-6.144-51.712-13.824-72.704-30.208-24.576-18.944-39.424-48.64-55.296-74.24-25.6-41.472-50.176-82.944-74.24-124.928 44.032 151.04 43.52 307.712 40.448 465.408-0.512 13.824-22.016 13.824-21.504 0 3.072-162.816 3.584-324.608-46.08-480.256-5.632 94.72 13.312 192.512-32.256 279.552C404.48 818.688 373.76 839.68 332.8 841.216c-42.496 2.048-81.408-3.072-108.544-38.912-14.336-18.432-22.016-40.96-27.136-63.488-1.024-5.12-1.536-30.208-5.632-32.768-2.048-1.536-30.208 1.536-34.304 1.536-42.496 0-79.36-7.168-98.304-49.664-15.36-34.816-20.48-92.16 0.512-125.952 20.992-34.304 58.88-59.904 95.744-74.752 44.544-18.432 92.672-24.064 140.288-25.6 24.576-1.024 49.152-1.024 73.728-0.512-35.84-18.944-68.096-45.056-98.304-72.704-47.616-43.52-95.744-94.208-108.032-160.256-11.264-58.88 11.264-114.176 72.704-130.048 40.96-10.752 92.672-4.608 123.904 25.6 16.384-45.568 64-72.192 113.664-70.144 55.808 2.048 108.032 37.376 124.928 90.624 18.944 59.904 5.12 127.488-16.896 184.832-17.408 45.568-51.2 81.92-85.504 116.736 36.352-25.6 74.752-48.64 116.736-63.488 31.232-10.752 64-16.384 96.768-17.92 28.672-1.536 60.416-2.56 87.552 7.68z m41.472 143.36c10.24-22.016 14.336-46.08 6.144-69.12-17.92-49.664-67.072-60.928-114.176-60.928-53.76 0-105.472 11.264-153.6 35.84-36.352 18.944-69.632 43.008-102.912 67.584 25.088 45.056 51.2 89.088 77.824 133.12 25.088 41.984 49.152 99.84 96.256 120.832 22.016 9.728 50.176 18.432 74.24 17.92 26.624-0.512 47.616-18.944 60.416-40.96 23.552-40.448 19.968-91.136-2.048-131.584-38.912-2.048-76.8-9.728-113.152-24.064-12.8-5.12-7.168-26.112 5.632-20.992 35.328 13.824 71.68 22.016 109.568 23.552 1.024-0.512 2.048-0.512 3.584-0.512 26.112 0 41.984-29.184 52.224-50.688z m-289.28-165.888c24.576-38.912 35.84-94.208 35.84-139.776 0-28.16-1.536-65.536-20.48-88.576-15.36-18.432-37.376-33.28-60.416-40.448-51.2-16.384-121.344 6.144-128 66.56v0.512c0 1.536 0 2.56-0.512 4.096 2.048 27.136 7.168 53.248 16.384 78.848 4.608 13.312-16.384 18.944-20.992 5.632-9.728-27.648-15.36-56.32-17.408-85.504-26.112-40.448-92.672-44.032-132.608-24.064-55.808 28.16-42.496 102.912-17.92 148.48 25.088 46.08 65.536 83.456 105.472 117.248C348.672 396.288 393.216 424.96 445.44 435.712c35.84-36.864 75.264-72.704 103.424-116.224z m-119.808 372.224c11.776-77.312-2.56-156.16 9.216-233.984-48.128-6.144-97.28-6.656-145.92-4.608-47.104 2.048-95.232 7.68-138.24 28.16-34.304 16.384-78.848 46.592-83.968 87.04-5.12 42.496 2.048 107.008 52.736 115.712 20.992 3.584 43.52 1.024 65.024 1.536 3.072 0 5.632 0 8.192 0.512 23.04-28.672 51.2-51.712 84.48-68.608 12.288-6.144 23.552 12.288 10.752 18.944-30.72 15.36-56.832 36.352-78.336 62.976 5.632 15.36 4.608 35.328 9.728 50.688 5.632 18.944 14.848 37.376 29.696 50.688 32.256 28.672 92.672 24.064 126.976 2.048 32.256-19.456 44.032-76.288 49.664-111.104z" fill="#056137" /></svg>