<?xml version="1.0" standalone="no"?><!DOCTYPE svg PUBLIC "-//W3C//DTD SVG 1.1//EN" "http://www.w3.org/Graphics/SVG/1.1/DTD/svg11.dtd"><svg t="1642834882521" width="200" height="200" viewBox="0 0 1024 1024" version="1.1" data-xmlns="https://www.youtube.com/watch?v=LBkmQgvRlCk" xmlns="http://www.w3.org/2000/svg" p-id="1103" xmlns:xlink="http://www.w3.org/1999/xlink"><defs><style type="text/css"></style></defs><path data-ys="3333" stroke-width="500" style="width:300px;height:300px" width="300" height="300" d="M500.31274667 151.00586667l-132.05504 74.38336c-7.75509333 4.36906667-12.56106667 12.56106667-12.56106667 21.51765333v147.34677333c0 8.95658667 4.80597333 17.14858667 12.56106667 21.51765334L500.31274667 490.15466667c7.53664 4.25984 16.71168 4.25984 24.24832 0l131.94581333-74.38336c7.75509333-4.36906667 12.56106667-12.56106667 12.56106667-21.51765334V246.90688c0-8.95658667-4.80597333-17.14858667-12.56106667-21.51765333l-131.94581333-74.38336c-7.53664-4.25984-16.71168-4.25984-24.24832 0z m-19.33312-51.44576c19.55157333-11.03189333 43.47221333-11.03189333 63.02378666 0l147.12832 83.01226666c20.20693333 11.35957333 32.65877333 32.768 32.65877334 55.92405334V402.77333333c0 23.15605333-12.45184 44.56448-32.65877334 55.92405334l-147.12832 83.01226666a64.14445227 64.14445227 0 0 1-63.02378666 0l-147.12832-83.01226666c-20.20693333-11.35957333-32.65877333-32.768-32.65877334-55.92405334V238.3872c0-23.15605333 12.45184-44.56448 32.65877334-55.92405333l147.12832-82.90304z m118.72938666 511.29002666c-7.64586667 4.25984-12.34261333 12.34261333-12.34261333 21.08074667v144.61610667c0 8.73813333 4.69674667 16.82090667 12.34261333 21.08074666l129.54282667 73.07264c7.42741333 4.15061333 16.384 4.15061333 23.81141333 0l129.54282667-73.07264c7.64586667-4.25984 12.34261333-12.34261333 12.34261333-21.08074666V631.93088c0-8.73813333-4.69674667-16.82090667-12.34261333-21.08074667l-129.54282667-73.07264c-7.42741333-4.15061333-16.384-4.15061333-23.81141333 0l-129.54282667 73.07264z m173.01504-127.68597333l147.12832 83.01226667c20.20693333 11.35957333 32.65877333 32.768 32.65877334 55.92405333v164.27690667c0 23.15605333-12.45184 44.56448-32.65877334 55.92405333l-147.12832 83.01226667a64.14445227 64.14445227 0 0 1-63.02378666 0l-147.23754667-83.01226667c-20.20693333-11.35957333-32.65877333-32.768-32.65877333-55.92405333V622.10048c0-23.15605333 12.45184-44.56448 32.65877333-55.92405333l147.23754667-83.01226667c19.55157333-11.03189333 43.47221333-11.03189333 63.02378666 0zM270.60906667 536.576l-130.52586667 73.61877333c-7.64586667 4.36906667-12.45184 12.45184-12.45184 21.2992v145.70837334c0 8.84736 4.69674667 16.93013333 12.45184 21.2992L270.60906667 872.01109333c7.42741333 4.15061333 16.49322667 4.15061333 24.02986666 0l130.52586667-73.61877333c7.64586667-4.36906667 12.45184-12.45184 12.45184-21.2992V631.38474667c0-8.84736-4.80597333-16.93013333-12.45184-21.2992L294.63893333 536.46677333c-7.53664-4.15061333-16.60245333-4.15061333-24.02986666 0.10922667z m-19.55157334-53.41184c19.55157333-11.03189333 43.47221333-11.03189333 63.02378667 0l147.12832 83.01226667c20.20693333 11.35957333 32.65877333 32.768 32.65877333 55.92405333v164.27690667c0 23.15605333-12.45184 44.56448-32.65877333 55.92405333l-147.12832 83.01226667a64.14445227 64.14445227 0 0 1-63.02378667 0l-147.23754666-83.01226667c-20.20693333-11.35957333-32.65877333-32.768-32.65877334-55.92405333V622.10048c0-23.15605333 12.45184-44.56448 32.65877334-55.92405333l147.23754666-83.01226667z" fill="#222a47" p-id="1104"></path><path width="300" d="M621.11744 286.88384c8.95658667-4.25984 19.6608-0.65536 24.24832 8.192 4.47829333 8.84736 1.20149333 19.6608-7.53664 24.46677333l-98.95936 50.57194667c-13.1072 6.77205333-28.61738667 6.77205333-41.83381333 0l-98.85013334-50.57194667c-9.06581333-4.58752-12.56106667-15.72864-7.97354666-24.68522666 4.58752-9.06581333 15.72864-12.56106667 24.68522666-7.97354667l98.85013334 50.68117333c2.62144 1.31072 5.78901333 1.31072 8.41045333 0l98.95936-50.68117333zM849.83808 672.12629333c5.89824-3.16757333 12.99797333-2.83989333 18.56853333 0.65536 5.57056 3.60448 8.84736 9.93962667 8.41045334 16.49322667-0.32768 6.66282667-4.25984 12.56106667-10.26730667 15.40096L767.5904 755.35701333c-13.1072 6.77205333-28.61738667 6.77205333-41.83381333 0l-98.85013334-50.68117333c-9.06581333-4.58752-12.56106667-15.61941333-7.97354666-24.68522667s15.72864-12.56106667 24.68522666-7.97354666l98.85013334 50.68117333c2.62144 1.31072 5.67978667 1.31072 8.30122666 0l99.06858667-50.57194667zM390.7584 671.58016c8.95658667-4.25984 19.6608-0.65536 24.24832 8.192 4.47829333 8.84736 1.20149333 19.6608-7.53664 24.46677333l-98.95936 50.57194667c-13.1072 6.77205333-28.61738667 6.77205333-41.83381333 0L167.82677333 704.23893333c-9.06581333-4.58752-12.56106667-15.72864-7.97354666-24.68522666 4.58752-9.06581333 15.61941333-12.56106667 24.68522666-7.97354667l98.85013334 50.68117333c2.62144 1.31072 5.78901333 1.31072 8.41045333 0l98.95936-50.68117333z" fill="#222a47" p-id="1105"></path></svg>