<svg xmlns="http://www.w3.org/2000/svg" width="32" height="32" viewBox="0 0 32 32" fill="none">
  <path d="M3.51828 10.3346C4.81215 8.0935 5.45909 6.97297 6.23621 6.19585C8.34508 4.08698 11.4188 3.26337 14.2996 4.03527C15.3612 4.31972 16.4817 4.96666 18.7227 6.26053C20.9638 7.5544 22.0843 8.20134 22.8614 8.97846C24.9703 11.0873 25.7939 14.1611 25.022 17.0418C24.7376 18.1034 24.0906 19.2239 22.7968 21.465C21.5029 23.706 20.8559 24.8266 20.0788 25.6037C17.97 27.7126 14.8962 28.5362 12.0154 27.7643C10.9539 27.4798 9.83336 26.8329 7.5923 25.539C5.35125 24.2451 4.23072 23.5982 3.4536 22.8211C1.34473 20.7122 0.521123 17.6385 1.29302 14.7577C1.57747 13.6961 2.2244 12.5756 3.51828 10.3346Z" fill="url(#paint0_linear_5925_39487)"/>
  <g filter="url(#filter0_b_5925_39487)">
    <path d="M8.34814 17.3907C8.34814 13.4947 8.34814 11.5467 9.10636 10.0586C9.77331 8.74963 10.8375 7.68541 12.1465 7.01847C13.6346 6.26025 15.5826 6.26025 19.4786 6.26025C23.3746 6.26025 25.3226 6.26025 26.8107 7.01847C28.1196 7.68541 29.1839 8.74963 29.8508 10.0586C30.609 11.5467 30.609 13.4947 30.609 17.3907C30.609 21.2867 30.609 23.2347 29.8508 24.7228C29.1839 26.0318 28.1196 27.096 26.8107 27.7629C25.3226 28.5211 23.3746 28.5211 19.4786 28.5211C15.5826 28.5211 13.6346 28.5211 12.1465 27.7629C10.8375 27.096 9.77331 26.0318 9.10636 24.7228C8.34814 23.2347 8.34814 21.2867 8.34814 17.3907Z" fill="url(#paint1_linear_5925_39487)" fill-opacity="0.2"/>
  </g>
  <g filter="url(#filter1_b_5925_39487)">
    <path fill-rule="evenodd" clip-rule="evenodd" d="M14.9379 28.0797C16.0804 28.173 17.5248 28.1733 19.4786 28.1733C21.4323 28.1733 22.8767 28.173 24.0193 28.0797C25.1578 27.9867 25.9659 27.803 26.6528 27.453C27.8963 26.8194 28.9073 25.8084 29.5409 24.5649C29.8908 23.8781 30.0745 23.0699 30.1676 21.9314C30.2609 20.7888 30.2612 19.3444 30.2612 17.3907C30.2612 15.4369 30.2609 13.9925 30.1676 12.85C30.0745 11.7115 29.8908 10.9033 29.5409 10.2165C28.9073 8.97298 27.8963 7.96198 26.6528 7.32838C25.9659 6.97843 25.1578 6.79472 24.0193 6.7017C22.8767 6.60835 21.4323 6.60808 19.4786 6.60808C17.5248 6.60808 16.0804 6.60835 14.9379 6.7017C13.7994 6.79472 12.9912 6.97843 12.3044 7.32838C11.0609 7.96198 10.0499 8.97298 9.41628 10.2165C9.06632 10.9033 8.88261 11.7115 8.78959 12.85C8.69624 13.9925 8.69597 15.4369 8.69597 17.3907C8.69597 19.3444 8.69624 20.7888 8.78959 21.9314C8.88261 23.0699 9.06632 23.8781 9.41628 24.5649C10.0499 25.8084 11.0609 26.8194 12.3044 27.453C12.9912 27.803 13.7994 27.9867 14.9379 28.0797ZM9.10636 10.0586C8.34814 11.5467 8.34814 13.4947 8.34814 17.3907C8.34814 21.2867 8.34814 23.2347 9.10636 24.7228C9.77331 26.0317 10.8375 27.096 12.1465 27.7629C13.6346 28.5211 15.5826 28.5211 19.4786 28.5211C23.3746 28.5211 25.3226 28.5211 26.8107 27.7629C28.1196 27.096 29.1839 26.0317 29.8508 24.7228C30.609 23.2347 30.609 21.2867 30.609 17.3907C30.609 13.4947 30.609 11.5467 29.8508 10.0586C29.1839 8.74963 28.1196 7.68541 26.8107 7.01847C25.3226 6.26025 23.3746 6.26025 19.4786 6.26025C15.5826 6.26025 13.6346 6.26025 12.1465 7.01847C10.8375 7.68541 9.77331 8.74963 9.10636 10.0586Z" fill="url(#paint2_linear_5925_39487)"/>
  </g>
  <path d="M13.9131 17.3912H15.6973C15.7328 17.3912 15.7655 17.3724 15.7835 17.3419L16.8832 15.4724C16.9245 15.4021 17.028 15.4082 17.0609 15.4827L18.7448 19.2996C18.7777 19.3742 18.8812 19.3802 18.9225 19.3099L20.6047 16.4502C20.6362 16.3967 20.7083 16.3845 20.7556 16.4247L21.8646 17.3673C21.8827 17.3827 21.9057 17.3912 21.9294 17.3912H24.3479" stroke="white" stroke-width="1.5" stroke-linecap="round"/>
  <defs>
    <filter id="filter0_b_5925_39487" x="-3.65186" y="-5.73975" width="46.2607" height="46.2607" filterUnits="userSpaceOnUse" color-interpolation-filters="sRGB">
      <feFlood flood-opacity="0" result="BackgroundImageFix"/>
      <feGaussianBlur in="BackgroundImageFix" stdDeviation="6"/>
      <feComposite in2="SourceAlpha" operator="in" result="effect1_backgroundBlur_5925_39487"/>
      <feBlend mode="normal" in="SourceGraphic" in2="effect1_backgroundBlur_5925_39487" result="shape"/>
    </filter>
    <filter id="filter1_b_5925_39487" x="-3.65186" y="-5.73975" width="46.2607" height="46.2607" filterUnits="userSpaceOnUse" color-interpolation-filters="sRGB">
      <feFlood flood-opacity="0" result="BackgroundImageFix"/>
      <feGaussianBlur in="BackgroundImageFix" stdDeviation="6"/>
      <feComposite in2="SourceAlpha" operator="in" result="effect1_backgroundBlur_5925_39487"/>
      <feBlend mode="normal" in="SourceGraphic" in2="effect1_backgroundBlur_5925_39487" result="shape"/>
    </filter>
    <linearGradient id="paint0_linear_5925_39487" x1="18.7227" y1="6.26053" x2="7.5923" y2="25.539" gradientUnits="userSpaceOnUse">
      <stop stop-color="#F19DFF"/>
      <stop offset="1" stop-color="#7633FE"/>
    </linearGradient>
    <linearGradient id="paint1_linear_5925_39487" x1="19.4786" y1="6.26025" x2="19.4786" y2="28.5211" gradientUnits="userSpaceOnUse">
      <stop stop-color="white"/>
      <stop offset="1" stop-color="#E66BFF"/>
    </linearGradient>
    <linearGradient id="paint2_linear_5925_39487" x1="19.4786" y1="6.26025" x2="19.4786" y2="28.5211" gradientUnits="userSpaceOnUse">
      <stop stop-color="white" stop-opacity="0.6"/>
      <stop offset="1" stop-color="white" stop-opacity="0"/>
    </linearGradient>
  </defs>
</svg>
