<svg width="16" height="16" viewBox="0 0 16 16" fill="none" xmlns="http://www.w3.org/2000/svg">
<g clip-path="url(#clip0_5925_39510)">
<path d="M0 8C0 10.1217 0.842855 12.1566 2.34315 13.6569C3.84344 15.1571 5.87827 16 8 16C10.1217 16 12.1566 15.1571 13.6569 13.6569C15.1571 12.1566 16 10.1217 16 8C16 5.87827 15.1571 3.84344 13.6569 2.34315C12.1566 0.842854 10.1217 0 8 0C5.87827 0 3.84344 0.842854 2.34315 2.34315C0.842855 3.84344 0 5.87827 0 8Z" fill="#292929"/>
<path d="M11.4801 5.10728H10.4409C10.3133 5.10728 10.1986 5.02973 10.1518 4.91125L9.91955 4.32673C9.88123 4.23028 9.81466 4.14755 9.72849 4.08928C9.64232 4.03101 9.54054 3.9999 9.43638 4H6.57777C6.35855 4 6.16312 4.13715 6.08884 4.34253L5.88692 4.90263C5.86516 4.96257 5.82537 5.01438 5.77298 5.051C5.72059 5.08762 5.65814 5.10727 5.59413 5.10728H4.51963C4.03142 5.10728 3.63623 5.50079 3.63623 5.98693V10.3931C3.63623 10.8792 4.03142 11.2727 4.51963 11.2727H11.4801C11.9683 11.2727 12.3635 10.8792 12.3635 10.3931V5.98693C12.3635 5.50151 11.9683 5.10728 11.4801 5.10728ZM7.99987 9.91699C6.89219 9.91699 5.99148 9.02011 5.99148 7.91713C5.99148 6.81416 6.89219 5.91728 7.99987 5.91728C9.10754 5.91728 10.0082 6.81416 10.0082 7.91713C10.0082 9.02011 9.10754 9.91699 7.99987 9.91699ZM10.826 6.70358C10.6981 6.70358 10.5754 6.65296 10.4849 6.56287C10.3944 6.47278 10.3436 6.35059 10.3436 6.22318C10.3436 6.09577 10.3944 5.97358 10.4849 5.88349C10.5754 5.7934 10.6981 5.74278 10.826 5.74278C10.954 5.74278 11.0767 5.7934 11.1672 5.88349C11.2576 5.97358 11.3085 6.09577 11.3085 6.22318C11.3085 6.35059 11.2576 6.47278 11.1672 6.56287C11.0767 6.65296 10.954 6.70358 10.826 6.70358Z" fill="url(#paint0_linear_5925_39510)"/>
<path d="M6.76953 7.91743C6.76953 8.24233 6.89915 8.55393 7.12987 8.78367C7.36059 9.01341 7.67351 9.14248 7.9998 9.14248C8.32609 9.14248 8.63901 9.01341 8.86973 8.78367C9.10045 8.55393 9.23007 8.24233 9.23007 7.91743C9.23007 7.75655 9.19825 7.59725 9.13642 7.44862C9.0746 7.29999 8.98398 7.16495 8.86973 7.05119C8.75549 6.93743 8.61987 6.8472 8.47061 6.78563C8.32134 6.72407 8.16136 6.69238 7.9998 6.69238C7.83824 6.69238 7.67826 6.72407 7.529 6.78563C7.37973 6.8472 7.24411 6.93743 7.12987 7.05119C7.01563 7.16495 6.92501 7.29999 6.86318 7.44862C6.80135 7.59725 6.76953 7.75655 6.76953 7.91743Z" fill="url(#paint1_linear_5925_39510)"/>
</g>
<defs>
<linearGradient id="paint0_linear_5925_39510" x1="3.71044" y1="3.80357" x2="12.2012" y2="11.3466" gradientUnits="userSpaceOnUse">
<stop stop-color="#8D92F8"/>
<stop offset="1" stop-color="#6C6CEA"/>
</linearGradient>
<linearGradient id="paint1_linear_5925_39510" x1="6.79045" y1="6.62621" x2="9.54887" y2="8.67703" gradientUnits="userSpaceOnUse">
<stop stop-color="#8D92F8"/>
<stop offset="1" stop-color="#6C6CEA"/>
</linearGradient>
<clipPath id="clip0_5925_39510">
<rect width="16" height="16" fill="white"/>
</clipPath>
</defs>
</svg>
