<?xml version="1.0" encoding="utf-8"?>
<!-- Uploaded to: SVG Repo, www.svgrepo.com, Generator: SVG Repo Mixer Tools -->
<svg width="800px" height="800px" viewBox="0 0 1024 1024" class="icon"  version="1.1" xmlns="http://www.w3.org/2000/svg"><path d="M510 508.4m-210.8 0a210.8 210.8 0 1 0 421.6 0 210.8 210.8 0 1 0-421.6 0Z" fill="#E6E6E6" /><path d="M510 363.4c-80 0-145 65.1-145 145s65.1 145 145 145 145-65.1 145-145-65-145-145-145z" fill="#FFFFFF" /><path d="M510 343.4c-91 0-165 74-165 165s74 165 165 165 165-74 165-165-74-165-165-165z m0 310.1c-80 0-145-65.1-145-145s65.1-145 145-145 145 65.1 145 145-65 145-145 145z" fill="#06F3FF" /><path d="M795.4 488.4H760c-4.7-59.5-30-114.7-72.7-157.4s-98.1-68.1-157.7-72.7v-36.6c0-11-9-20-20-20s-20 9-20 20v36.7c-59.3 4.7-114.5 30.1-157 72.6-42.6 42.6-68 97.9-72.7 157.4H226c-11 0-20 9-20 20s9 20 20 20h34c4.7 59.5 30 114.7 72.7 157.4 42.5 42.5 97.7 67.9 157 72.6v35.5c0 11 9 20 20 20s20-9 20-20v-35.4c59.6-4.6 115-30 157.7-72.7 42.6-42.6 68-97.9 72.7-157.4h35.4c11 0 20-9 20-20s-9-20-20.1-20zM529.7 718.3v-51.9c0-11-9-20-20-20s-20 9-20 20v51.8c-100.1-9.6-180-89.6-189.5-189.8h52.6c11 0 20-9 20-20s-9-20-20-20h-52.6c9.5-100.2 89.4-180.2 189.5-189.8v50.3c0 11 9 20 20 20s20-9 20-20v-50.3c100.5 9.3 180.7 89.5 190.2 189.9h-49.5c-11 0-20 9-20 20s9 20 20 20h49.5c-9.5 100.4-89.8 180.5-190.2 189.8z" fill="#005BFF" /><path d="M880.4 158c0-11-9-20-20-20H510c-50 0-98.5 9.8-144.2 29.1-44.1 18.7-83.7 45.4-117.7 79.4-34 34-60.7 73.6-79.4 117.7-19.3 45.7-29.1 94.2-29.1 144.2 0 11 9 20 20 20s20-9 20-20C179.6 326.2 327.8 178 510 178h281.3v54.5c0 8.9 10.7 13.3 17 7l67.1-67.1c1.6-1.6 2.5-3.4 2.8-5.3 1.4-2.7 2.2-5.8 2.2-9.1zM860.4 488.4c-11 0-20 9-20 20 0 182.2-148.2 330.4-330.4 330.4H230.3V783c0-8.9-10.7-13.3-17-7l-67.1 67.1c-1 1-1.8 2.2-2.3 3.4-2.7 3.4-4.3 7.7-4.3 12.4 0 11 9 20 20 20H510c50 0 98.5-9.8 144.2-29.1 44.1-18.7 83.7-45.4 117.7-79.4 34-34 60.7-73.6 79.4-117.7 19.3-45.7 29.1-94.2 29.1-144.2 0-11.1-8.9-20.1-20-20.1z" fill="#005BFF" /></svg>