<?xml version="1.0" encoding="utf-8"?>
<!-- Uploaded to: SVG Repo, www.svgrepo.com, Generator: SVG Repo Mixer Tools -->
<svg width="800px" height="800px" viewBox="0 0 1024 1024" class="icon"  version="1.1" xmlns="http://www.w3.org/2000/svg"><path d="M687 860.6l-620-250v-222l620 232z" fill="#37BBEF" /><path d="M687 860.6l270-200v-220l-270 180z" fill="#2481BA" /><path d="M67 388.6l620 232 270-180-606.5-170.8z" fill="#3ED6FF" /><path d="M190.8 429.2c-4.9 2.4-4.8 5.9 0.4 7.8l357.6 129.8c5.2 1.9 13.2 0.9 17.7-2.1l126.6-83.6c4.6-3 4.1-6.9-1.2-8.5L343.5 362.4c-5.2-1.7-13.6-1-18.5 1.4l-134.2 65.4z" fill="#FFFFFF" /><path d="M548.9 729.4c5.1 2 9.3-0.9 9.3-6.4V580.2c0-5.5-4.2-11.5-9.4-13.4L191.3 437c-5.2-1.9-9.4 1.1-9.4 6.6v135.1c0 5.5 4.2 11.6 9.3 13.6l357.7 137.1z" fill="#CFDFE2" /><path d="M418 288.6l-14.3 7.1 400.3 114 15-8 47-144-403-94.3z" fill="#2481BA" /><path d="M176.5 655.9v-20l373.5 145v22z" fill="#113B42" /><path d="M550 802.9L471.7 854l-363-152 67.8-46.1z" fill="#2481BA" /><path d="M819.2 401.6l-15.2 8.1-400.3-114 14.3-7.1z" fill="#113B42" /><path d="M270.5 428L546 524l-28.5 18-279-97.5z" fill="#4E6A6D" /><path d="M497.7 604.7l-24.7-9v-34.4l24.7 9z" fill="#FFFFFF" /></svg>