<svg t="1643041666460" class="icon" viewBox="0 0 1024 1024" version="1.1" xmlns="http://www.w3.org/2000/svg" p-id="9306" width="200" height="200"><path d="M873.438 667.676c-86.949-56.876-93.59-108.873-93.59-299.531 0-162.784-107.549-221.527-216.648-234.945 0.889-3.93 1.461-8.523 1.461-12.77 0-30.463-24.711-55.431-55.16-55.431-30.463 0-55.145 24.576-55.145 55.024 0 4.262 0.558 8.237 1.476 12.213-109.1 13.387-211.679 71.046-211.679 233.86 0 190.642-6.656 244.732-93.619 301.609-86.934 56.861-86.919 178.053-20.089 178.053 54.332 0 708.84 0 763.081 0C960.401 845.759 960.401 724.567 873.438 667.676zM908.479 801.291c-4.051 13.628-11.144 13.628-14.953 13.628L130.445 814.919c-3.794 0-10.872 0-14.923-13.613-7.424-24.922 3.931-76.422 51.893-107.789 102.368-66.951 107.578-136.416 107.578-327.419 0-121.523 60.385-188.007 184.589-203.247l34.018-4.171-7.726-33.385c-0.467-2.048-0.678-3.674-0.678-5.271 0-13.342 10.902-24.184 24.305-24.184 13.417 0 24.32 11.038 24.32 24.591 0 1.762-0.271 4.051-0.708 5.963l-7.515 33.25 33.837 4.171c125.785 15.465 189.573 84.208 189.573 204.331 0 189.467 5.21 258.391 107.549 325.341C904.549 724.884 915.903 776.369 908.479 801.291z" p-id="9307"></path><path d="M512.001 959c-44.573 0-81.663-33.792-86.858-77.101l173.717 0C593.664 925.208 556.574 959 512.001 959z" p-id="9308"></path></svg>