<?xml version="1.0" encoding="utf-8"?>
<!-- Uploaded to: SVG Repo, www.svgrepo.com, Generator: SVG Repo Mixer Tools -->
<svg width="800px" height="800px" viewBox="0 0 1024 1024" class="icon"  version="1.1" xmlns="http://www.w3.org/2000/svg"><path d="M763.290291 71.756908L575.819197 421.651209c-2.963412 5.50348-1.058361 12.559223 4.304003 15.66375 5.291807 3.104527 12.065321 1.058361 15.028733-4.445118l187.541652-349.894302c2.963412-5.50348 1.058361-12.559223-4.304003-15.66375-5.362365-3.104527-12.135878-1.058361-15.099291 4.445119zM897.843313 124.533866l-187.541652 349.894302c-2.963412 5.50348-1.058361 12.559223 4.304003 15.66375 5.291807 3.104527 12.065321 1.058361 15.028733-4.445119l187.541652-349.894301c2.963412-5.50348 1.058361-12.559223-4.304003-15.66375-5.291807-3.104527-12.065321-1.128919-15.028733 4.445118z" fill="#6C4820" /><path d="M94.4764 538.423758s-29.845793-63.148901 35.560946-82.693309c13.758699-25.25956 60.820506-140.056501 172.23069-60.820506C313.768897 366.193068 415.936057 241.024185 555.992558 373.107697c40.217736-24.130641 143.513815-49.107972 159.60091 52.98863 29.845793-24.271756 78.107076-23.142837 75.778681 43.463378 20.673327 8.043547 64.27782 14.958175 71.192448 68.864053-187.118308 99.909323-617.659753 124.039964-617.659753 124.039964l-112.539103-68.864053-37.889341-55.175911z" fill="#F5ECDA" /><path d="M50.589678 538.423758c5.574037 252.101702 193.468477 454.672087 424.544064 454.672087s418.970027-202.570385 424.544064-454.672087H50.589678z" fill="#DB9145" /><path d="M475.133742 931.42865c-148.452835 0-281.735823-70.769104-373.742713-183.096534 71.756908 145.771653 212.166196 244.834287 373.742713 244.834287s301.915248-99.062634 373.742714-244.834287c-92.00689 112.327431-225.289878 183.096534-373.742714 183.096534z" fill="#5B2B20" /><path d="M349.823744 393.146007s0.070557-0.141115 0.211673-0.493902c0.141115-0.352787 0.352787-0.776132 0.635016-1.411149 0.28223-0.564459 0.635017-1.340591 1.128919-2.116723 0.423345-0.846689 0.987804-1.763936 1.622821-2.751739 1.270034-2.046166 2.963412-4.304003 5.009578-6.844071 0.493902-0.635017 1.058361-1.270034 1.622821-1.905051 0.564459-0.635017 1.199476-1.270034 1.763936-1.975608 1.270034-1.340591 2.610625-2.610625 4.092331-3.951216 1.481706-1.340591 3.03397-2.681182 4.727347-4.021774 0.846689-0.705574 1.693378-1.270034 2.610625-1.975608l2.75174-1.90505c1.905051-1.270034 3.880659-2.540068 5.926824-3.668987 1.058361-0.564459 2.116723-1.199476 3.175085-1.693378 1.058361-0.564459 2.18728-1.128919 3.316199-1.622821 1.128919-0.564459 2.257838-1.058361 3.457314-1.481706 1.199476-0.493902 2.328395-0.987804 3.527872-1.411149 2.398953-0.846689 4.868463-1.763936 7.40853-2.398952 1.270034-0.352787 2.540068-0.705574 3.810101-0.987804 1.270034-0.28223 2.610625-0.564459 3.951217-0.84669 2.610625-0.564459 5.291807-0.846689 7.972989-1.199476 2.681182-0.28223 5.362365-0.423345 8.114105-0.564459h4.021773l2.046166 0.070557h0.987804l0.987804 0.070557c5.362365 0.352787 10.583615 1.128919 15.522635 2.398953 4.93902 1.199476 9.595811 2.822297 13.899814 4.727348 1.058361 0.493902 2.116723 0.987804 3.104527 1.481706l2.963412 1.481706c1.905051 1.128919 3.668986 2.18728 5.362365 3.316199 0.846689 0.564459 1.622821 1.128919 2.398952 1.693379 0.776132 0.564459 1.552263 1.128919 2.257838 1.693378 0.705574 0.564459 1.411149 1.128919 2.046166 1.693378 0.352787 0.28223 0.635017 0.564459 0.987804 0.84669 0.28223 0.28223 0.635017 0.564459 0.917246 0.846689 1.199476 1.199476 2.257838 2.18728 3.245642 3.245642 0.493902 0.493902 0.917247 0.987804 1.411149 1.481706 0.423345 0.423345 0.846689 0.987804 1.199476 1.481706 0.776132 0.917247 1.411149 1.763936 1.905051 2.540067 0.564459 0.776132 0.987804 1.411149 1.340591 1.975608 0.352787 0.493902 0.635017 0.987804 0.776132 1.270034 0.141115 0.28223 0.28223 0.423345 0.282229 0.423345l-0.987804 1.834493s-0.564459-0.211672-1.552263-0.705574c-0.987804-0.493902-2.46951-1.128919-4.304003-1.975608-0.917247-0.493902-1.975608-0.846689-3.104527-1.340592-1.128919-0.423345-2.398953-0.987804-3.739544-1.481706-1.340591-0.564459-2.75174-0.987804-4.304004-1.481706-0.776132-0.28223-1.552263-0.493902-2.328395-0.776132-0.776132-0.28223-1.622821-0.564459-2.46951-0.776131-1.693378-0.493902-3.457314-0.987804-5.291807-1.481706-1.834493-0.423345-3.739544-0.846689-5.715152-1.270034-3.951216-0.776132-8.114105-1.411149-12.418108-1.905051-4.374561-0.493902-8.819679-0.635017-13.405912-0.705574-1.128919-0.070557-2.328395 0.070557-3.457314 0.070557-1.128919 0.070557-2.328395 0.070557-3.457314 0.141115-1.128919 0.070557-2.328395 0.211672-3.457314 0.28223-1.128919 0.070557-2.328395 0.141115-3.457314 0.352787-2.328395 0.28223-4.65679 0.493902-6.914629 0.917247-1.128919 0.211672-2.257838 0.352787-3.457314 0.564459-1.128919 0.211672-2.257838 0.423345-3.386757 0.705574-2.257838 0.423345-4.445118 0.987804-6.632398 1.552264-1.128919 0.28223-2.18728 0.564459-3.245642 0.917247-1.058361 0.28223-2.116723 0.564459-3.175084 0.917246-2.116723 0.635017-4.162888 1.270034-6.138497 1.975608-1.975608 0.635017-3.951216 1.411149-5.856267 2.116723-1.905051 0.705574-3.668986 1.481706-5.432922 2.187281-1.763936 0.776132-3.457314 1.481706-5.009578 2.257837-3.175084 1.481706-6.067939 2.963412-8.608006 4.233446-2.540068 1.340591-4.727348 2.540068-6.491284 3.598429-1.763936 1.058361-3.104527 1.905051-4.021773 2.46951-0.423345 0.28223-0.776132 0.493902-1.058362 0.705575-0.211672 0.141115-0.352787 0.211672-0.352787 0.211672l-1.270034-1.622821zM161.364845 481.695583v-0.493902c0-0.352787 0.070557-0.846689 0.141115-1.481706 0.070557-0.635017 0.211672-1.411149 0.352787-2.398952 0.141115-0.917247 0.423345-1.975608 0.705575-3.104527 0.564459-2.328395 1.411149-5.009578 2.610625-8.043548 0.28223-0.776132 0.635017-1.552263 0.987804-2.328395 0.352787-0.776132 0.705574-1.622821 1.058361-2.398953 0.776132-1.622821 1.693378-3.316199 2.610625-5.080135 0.917247-1.763936 2.046166-3.457314 3.245642-5.291807 0.564459-0.917247 1.199476-1.763936 1.834493-2.681182 0.635017-0.917247 1.270034-1.834493 1.975608-2.681183 1.411149-1.763936 2.892855-3.598429 4.515676-5.291807 0.776132-0.846689 1.622821-1.763936 2.46951-2.610625l2.610625-2.610625c0.917247-0.846689 1.834493-1.693378 2.822297-2.540067 0.987804-0.776132 1.905051-1.693378 2.963412-2.469511 2.046166-1.552263 4.092331-3.175084 6.279612-4.586233 1.058361-0.776132 2.18728-1.411149 3.316199-2.18728 1.128919-0.705574 2.328395-1.340591 3.457314-1.975608 2.328395-1.340591 4.797905-2.46951 7.196858-3.668986 2.46951-1.128919 5.009578-2.116723 7.479088-3.03397 1.270034-0.423345 2.540068-0.846689 3.880658-1.270034l1.905051-0.564459 0.987804-0.28223 0.987804-0.211672c5.150692-1.340591 10.371942-2.257838 15.452078-2.610625 5.080135-0.423345 10.019155-0.28223 14.675945 0.141115 1.128919 0.141115 2.328395 0.28223 3.386757 0.423344 1.128919 0.141115 2.18728 0.28223 3.316199 0.493902 2.116723 0.423345 4.162888 0.917247 6.138497 1.481706 0.987804 0.211672 1.905051 0.564459 2.822297 0.84669 0.917247 0.28223 1.834493 0.564459 2.681182 0.917246 0.846689 0.352787 1.693378 0.635017 2.469511 0.917247 0.423345 0.141115 0.776132 0.28223 1.199476 0.493902 0.352787 0.211672 0.776132 0.352787 1.128919 0.564459 1.481706 0.705574 2.892855 1.340591 4.092331 2.046166 0.635017 0.352787 1.199476 0.635017 1.763936 0.987804 0.564459 0.28223 1.058361 0.705574 1.62282 0.987804 0.987804 0.635017 1.905051 1.270034 2.610625 1.834493 0.776132 0.564459 1.411149 1.058361 1.905051 1.411149 0.493902 0.352787 0.917247 0.705574 1.128919 0.917246 0.28223 0.211672 0.352787 0.352787 0.352787 0.352787l-0.352787 2.116723-1.693378-0.211672c-1.128919-0.141115-2.681182-0.28223-4.727348-0.564459-0.987804-0.141115-2.116723-0.211672-3.386757-0.28223-1.199476-0.070557-2.540068-0.141115-4.021774-0.211672-1.411149-0.141115-2.963412-0.070557-4.515675-0.070558h-5.009578c-1.763936 0.070557-3.598429 0.141115-5.432922 0.28223-1.905051 0.141115-3.810101 0.352787-5.785709 0.564459-3.951216 0.493902-8.114105 1.199476-12.418108 2.116723-4.304003 0.917247-8.608007 2.116723-12.982568 3.598429-1.128919 0.352787-2.18728 0.776132-3.245641 1.128919-1.058361 0.423345-2.18728 0.776132-3.245642 1.199476-1.058361 0.423345-2.116723 0.917247-3.175085 1.340592-1.058361 0.493902-2.18728 0.917247-3.175084 1.411148-2.116723 0.987804-4.233446 1.905051-6.279611 3.03397-1.058361 0.564459-2.046166 1.058361-3.104527 1.622821-0.987804 0.564459-1.975608 1.128919-3.03397 1.693378-2.046166 1.128919-3.951216 2.398953-5.856267 3.527872-0.987804 0.564459-1.905051 1.270034-2.822297 1.834493-0.917247 0.635017-1.834493 1.199476-2.75174 1.905051-1.763936 1.270034-3.527872 2.540068-5.22125 3.810101-1.693378 1.270034-3.316199 2.540068-4.868463 3.810101-1.552263 1.270034-3.03397 2.540068-4.515675 3.810101-1.411149 1.270034-2.822297 2.46951-4.021774 3.668987-2.540068 2.398953-4.868463 4.65679-6.844071 6.702956-1.975608 2.046166-3.668986 3.880659-5.009577 5.432922-1.340591 1.552263-2.398953 2.75174-3.03397 3.668986-0.352787 0.423345-0.564459 0.776132-0.776131 0.987804-0.141115 0.211672-0.28223 0.352787-0.28223 0.352788l-1.552264-1.199477zM591.482946 392.934335s0.141115-0.070557 0.352787-0.28223c0.211672-0.141115 0.564459-0.423345 1.058362-0.705574 0.423345-0.28223 0.987804-0.705574 1.693378-1.058362 0.635017-0.423345 1.411149-0.846689 2.328396-1.270034 1.763936-0.917247 3.880659-1.763936 6.420726-2.610624 0.635017-0.211672 1.270034-0.423345 1.975608-0.56446 0.635017-0.211672 1.340591-0.352787 2.046165-0.564459 1.411149-0.352787 2.892855-0.635017 4.515676-0.917247 3.175084-0.564459 6.561841-0.846689 10.16027-0.776132 1.834493 0 3.668986 0.070557 5.574037 0.28223 0.917247 0.070557 1.905051 0.141115 2.892855 0.352787 0.987804 0.141115 1.905051 0.28223 2.892854 0.423345 1.975608 0.352787 3.880659 0.846689 5.926825 1.340591 0.987804 0.28223 1.975608 0.564459 2.963412 0.917247 0.987804 0.28223 1.975608 0.705574 2.963412 1.058361 0.987804 0.352787 1.975608 0.776132 2.963412 1.128919 0.987804 0.423345 1.905051 0.846689 2.892855 1.340591 1.975608 0.846689 3.810101 1.975608 5.644594 3.03397 1.834493 1.128919 3.668986 2.328395 5.362365 3.598429 0.846689 0.635017 1.693378 1.340591 2.540068 1.975608 0.846689 0.705574 1.693378 1.340591 2.46951 2.046165 3.175084 2.822297 6.067939 5.926824 8.537449 9.243024 2.46951 3.245642 4.515676 6.632399 6.209054 10.019155 0.423345 0.846689 0.776132 1.693378 1.128919 2.540067 0.352787 0.846689 0.705574 1.622821 0.987804 2.469511 0.564459 1.693378 1.128919 3.316199 1.552263 4.868462 0.211672 0.776132 0.423345 1.552263 0.56446 2.328396 0.141115 0.776132 0.352787 1.481706 0.423344 2.257837 0.141115 0.705574 0.211672 1.481706 0.352787 2.116723 0.070557 0.352787 0.141115 0.705574 0.141115 0.987804 0 0.352787 0.070557 0.705574 0.070558 1.058362 0.070557 1.340591 0.211672 2.540068 0.141115 3.739544 0 1.128919 0 2.18728-0.070558 3.175084s-0.141115 1.834493-0.28223 2.610625c-0.070557 0.776132-0.211672 1.411149-0.282229 1.975608-0.070557 0.493902-0.211672 0.917247-0.28223 1.199476-0.070557 0.28223-0.070557 0.423345-0.070557 0.423345l-1.905051 0.917247s-0.211672-0.423345-0.635017-1.128919c-0.423345-0.776132-0.987804-1.834493-1.763936-3.245642-0.352787-0.705574-0.846689-1.411149-1.340591-2.257838-0.493902-0.776132-1.058361-1.693378-1.622821-2.610625-0.564459-0.917247-1.270034-1.905051-1.975608-2.892855-0.705574-0.987804-1.340591-2.116723-2.18728-3.175084-0.846689-1.058361-1.693378-2.18728-2.540068-3.316199-0.917247-1.128919-1.905051-2.257838-2.892855-3.386757-2.046166-2.257838-4.304003-4.586233-6.773513-6.844071-2.46951-2.257838-5.080135-4.515676-7.902432-6.632398-1.411149-1.058361-2.892855-2.046166-4.304004-3.03397-1.481706-0.917247-2.963412-1.905051-4.515675-2.822297-1.552263-0.917247-3.03397-1.834493-4.656791-2.681182l-2.328395-1.270034c-0.776132-0.352787-1.622821-0.776132-2.398953-1.128919-1.552263-0.776132-3.175084-1.411149-4.797905-2.116723-1.622821-0.635017-3.175084-1.270034-4.727348-1.905051-1.552263-0.564459-3.104527-1.128919-4.65679-1.622821-1.552263-0.564459-3.03397-0.987804-4.515676-1.411148-2.963412-0.846689-5.785709-1.622821-8.396334-2.187281-2.610625-0.564459-5.080135-1.058361-7.196858-1.411148-2.18728-0.352787-4.092331-0.635017-5.644595-0.846689-1.552263-0.211672-2.822297-0.352787-3.598429-0.352788-0.423345 0-0.705574-0.070557-0.917246-0.070557h-0.352787l-0.211673-2.328395zM712.418384 452.555364s0.070557-0.070557 0.211672-0.28223c0.141115-0.141115 0.352787-0.423345 0.635017-0.776131 0.28223-0.352787 0.635017-0.705574 1.058361-1.128919 0.423345-0.423345 0.917247-0.846689 1.481706-1.340591 1.128919-0.987804 2.540068-1.975608 4.162889-2.892855 1.622821-0.917247 3.527872-1.905051 5.644594-2.610625 4.162888-1.481706 9.172466-2.328395 14.464274-1.834493 1.340591 0.070557 2.681182 0.28223 4.021773 0.564459 0.635017 0.141115 1.340591 0.28223 2.046166 0.493902 0.635017 0.141115 1.340591 0.352787 1.975608 0.56446 1.340591 0.423345 2.681182 0.917247 3.951216 1.481706 1.340591 0.564459 2.610625 1.270034 3.810101 1.975608 1.270034 0.705574 2.46951 1.552263 3.598429 2.398952 0.564459 0.423345 1.128919 0.917247 1.693379 1.340592 0.564459 0.493902 1.128919 0.917247 1.62282 1.411148 1.058361 0.987804 2.046166 2.046166 2.963413 3.104527 0.917247 1.128919 1.763936 2.18728 2.540067 3.386757 1.552263 2.328395 2.75174 4.797905 3.598429 7.196858 0.423345 1.199476 0.776132 2.398953 1.058362 3.598429 0.28223 1.199476 0.423345 2.398953 0.564459 3.527871 0.070557 0.564459 0.141115 1.128919 0.141115 1.693379 0 0.564459 0.070557 1.058361 0 1.622821v2.257838c0 0.28223-0.070557 0.493902-0.070558 0.776131-0.141115 0.987804-0.211672 1.834493-0.423344 2.681183-0.141115 0.846689-0.352787 1.552263-0.56446 2.328395-0.211672 0.705574-0.423345 1.340591-0.635016 1.905051-0.211672 0.564459-0.423345 0.987804-0.56446 1.411148-0.141115 0.352787-0.352787 0.705574-0.423345 0.846689-0.070557 0.211672-0.141115 0.28223-0.141114 0.28223l-1.905051 0.917247s-0.141115-0.211672-0.423345-0.705575c-0.28223-0.423345-0.635017-1.058361-1.128919-1.90505-0.493902-0.846689-1.128919-1.763936-1.834493-2.892855-0.352787-0.564459-0.776132-1.128919-1.199476-1.693378-0.423345-0.564459-0.846689-1.270034-1.411149-1.905051-0.493902-0.635017-1.058361-1.270034-1.552263-1.975608-0.564459-0.635017-1.199476-1.340591-1.834493-1.975608-1.270034-1.340591-2.681182-2.681182-4.162889-4.021774-1.481706-1.340591-3.104527-2.681182-4.797905-3.880658-0.846689-0.635017-1.763936-1.199476-2.610625-1.763936-0.917247-0.564459-1.834493-1.128919-2.75174-1.622821-0.917247-0.564459-1.834493-1.058361-2.822297-1.552264-0.917247-0.493902-1.905051-0.987804-2.892855-1.411148-0.917247-0.493902-1.905051-0.846689-2.892855-1.270034-0.987804-0.352787-1.905051-0.776132-2.892854-1.128919-0.987804-0.352787-1.905051-0.635017-2.822297-0.987804-0.917247-0.352787-1.834493-0.635017-2.75174-0.846689-1.763936-0.493902-3.527872-0.987804-5.080135-1.340591-1.622821-0.352787-3.03397-0.635017-4.374561-0.917247-1.340591-0.211672-2.46951-0.423345-3.386757-0.564459-0.917247-0.141115-1.693378-0.211672-2.18728-0.28223-0.493902-0.070557-0.776132-0.070557-0.776132-0.070557l0.070558-2.187281z" fill="#FFFFFF" /><path d="M285.193137 487.481293m-15.240405 0a15.240405 15.240405 0 1 0 30.48081 0 15.240405 15.240405 0 1 0-30.48081 0Z" fill="#774621" /><path d="M325.128643 453.966513m-15.240405 0a15.240405 15.240405 0 1 0 30.48081 0 15.240405 15.240405 0 1 0-30.48081 0Z" fill="#774621" /><path d="M502.227796 457.07104m-15.240405 0a15.240405 15.240405 0 1 0 30.48081 0 15.240405 15.240405 0 1 0-30.48081 0Z" fill="#774621" /><path d="M354.409977 930.581961h261.485841v73.873631H354.409977z" fill="#5B2B20" /><path d="M297.47013 101.249914c2.046166 0 4.021774 0.423345 5.997382 0.917246 0.987804 0.28223 1.975608 0.564459 2.963412 0.917247 0.987804 0.352787 1.905051 0.705574 2.892855 1.128919 0.987804 0.423345 1.905051 0.846689 2.822297 1.340591 0.917247 0.493902 1.834493 0.987804 2.75174 1.552264 0.917247 0.564459 1.763936 1.128919 2.610625 1.763935 0.846689 0.635017 1.693378 1.270034 2.540067 1.975609 1.622821 1.340591 3.245642 2.822297 4.727348 4.37456 0.705574 0.776132 1.481706 1.552263 2.116723 2.398953 0.635017 0.846689 1.340591 1.693378 1.975608 2.540067l1.834493 2.681183c0.564459 0.917247 1.128919 1.834493 1.693379 2.822297 0.564459 0.917247 0.987804 1.905051 1.552263 2.892855l0.705575 1.481706 0.635016 1.481706c0.423345 0.987804 0.917247 1.975608 1.199477 3.033969l1.058361 3.104527c0.352787 1.058361 0.564459 2.046166 0.917247 3.104527 0.28223 1.058361 0.564459 2.116723 0.776132 3.104527l0.635016 3.175085c0.211672 1.058361 0.28223 2.116723 0.423345 3.175084 0.352787 2.116723 0.423345 4.233446 0.564459 6.350169 0.070557 1.058361 0.070557 2.116723 0.070558 3.175084v3.175085c-0.070557 2.116723-0.211672 4.162888-0.28223 6.279611-0.211672 2.046166-0.423345 4.092331-0.705574 6.138497-0.352787 2.046166-0.635017 4.021774-1.058362 6.067939l-0.141114 0.705574-0.141115 0.493902-2.963412 8.890236-1.411149 4.374561-1.340591 4.304004c-0.423345 1.411149-0.846689 2.892855-1.270034 4.304003-0.423345 1.411149-0.846689 2.892855-1.199476 4.304003-0.776132 2.892855-1.411149 5.715152-1.975608 8.608007-0.28223 1.411149-0.564459 2.892855-0.776132 4.37456-0.211672 1.481706-0.423345 2.892855-0.56446 4.374561-0.070557 0.705574-0.141115 1.481706-0.211672 2.187281-0.070557 0.776132-0.070557 1.481706-0.141115 2.18728-0.070557 0.776132-0.070557 1.481706-0.070557 2.257838V236.155722l0.070557 1.128919 0.070558 1.128919 0.070557 1.128919 0.211672 2.328395c0.070557 0.776132 0.141115 1.552263 0.28223 2.328396 0.211672 1.552263 0.493902 3.104527 0.846689 4.727348l0.56446 2.398952c0.211672 0.776132 0.423345 1.622821 0.635017 2.46951-0.635017-0.564459-1.270034-1.058361-1.905051-1.622821-0.635017-0.564459-1.199476-1.199476-1.834493-1.834493-0.635017-0.635017-1.128919-1.270034-1.693379-1.905051-0.564459-0.635017-1.058361-1.340591-1.552263-2.046165-0.987804-1.411149-1.975608-2.892855-2.822297-4.445118-0.423345-0.776132-0.846689-1.552263-1.199477-2.328395l-0.564459-1.199477-0.493902-1.199476c-0.352787-0.846689-0.705574-1.622821-0.987804-2.46951l-0.846689-2.540068c-0.28223-0.846689-0.493902-1.693378-0.705575-2.540067-0.211672-0.846689-0.423345-1.693378-0.635017-2.610625-0.352787-1.763936-0.635017-3.457314-0.917246-5.22125-0.211672-1.763936-0.423345-3.527872-0.493902-5.291807-0.211672-3.527872-0.141115-7.055743 0.070557-10.513058 0.141115-1.763936 0.28223-3.457314 0.493902-5.150692 0.211672-1.693378 0.423345-3.386757 0.705575-5.080135 0.28223-1.693378 0.564459-3.386757 0.917246-5.009578s0.705574-3.316199 1.128919-4.93902c0.352787-1.622821 0.846689-3.245642 1.270034-4.797905 0.423345-1.622821 0.917247-3.175084 1.340591-4.727348l-0.28223 1.270034c0.211672-1.763936 0.493902-3.457314 0.776132-5.22125l0.635017-5.150693 0.423345-5.150692c0.070557-1.693378 0.211672-3.386757 0.211672-5.080135 0-1.693378 0.070557-3.386757 0-5.080135l-0.070558-2.540068-0.141114-2.46951c0-0.423345-0.070557-0.846689-0.070558-1.270034l-0.141115-1.270034c-0.070557-0.846689-0.141115-1.693378-0.282229-2.46951l-0.352788-2.46951c-0.141115-0.846689-0.28223-1.622821-0.493902-2.46951l-0.211672-1.199476-0.28223-1.199477c-0.211672-0.776132-0.352787-1.622821-0.635017-2.398952-0.211672-0.776132-0.423345-1.622821-0.705574-2.398953l-0.846689-2.398953-0.917247-2.328395-1.058361-2.328395c-0.352787-0.776132-0.776132-1.552263-1.128919-2.328395-0.423345-0.776132-0.846689-1.481706-1.270034-2.257838-0.423345-0.776132-0.917247-1.481706-1.340591-2.257838-0.493902-0.705574-0.987804-1.481706-1.481706-2.18728-0.987804-1.481706-2.116723-2.892855-3.316199-4.304004-0.564459-0.705574-1.199476-1.411149-1.834494-2.116722-0.635017-0.705574-1.270034-1.411149-1.975608-2.046166-1.481706-1.411149-2.892855-2.681182-4.445118-3.951216zM490.30359 19.614966c-1.411149 1.199476-2.681182 2.398953-3.951216 3.598429-0.635017 0.635017-1.270034 1.199476-1.834493 1.834493-0.564459 0.635017-1.199476 1.199476-1.763936 1.905051l-0.846689 0.917246c-0.28223 0.352787-0.564459 0.635017-0.84669 0.987804-0.564459 0.635017-1.058361 1.270034-1.622821 1.905051-0.493902 0.635017-0.987804 1.340591-1.552263 1.975608l-1.411149 1.975608-1.340591 1.975608-1.270034 2.046166-1.128919 2.046165c-0.352787 0.705574-0.705574 1.411149-1.058361 2.046166-0.635017 1.340591-1.270034 2.75174-1.763936 4.162888l-0.423344 1.058362-0.352787 1.058361c-0.211672 0.705574-0.493902 1.411149-0.635017 2.116723-0.141115 0.705574-0.423345 1.411149-0.56446 2.116723l-0.423344 2.116723c-0.141115 0.705574-0.211672 1.411149-0.28223 2.116723-0.141115 0.705574-0.141115 1.411149-0.211672 2.116723-0.141115 1.411149-0.141115 2.822297-0.211673 4.233446 0 0.705574 0.070557 1.411149 0.070558 2.116723v1.058361c0 0.352787 0.070557 0.705574 0.141115 1.058362l0.211672 2.116723 0.352787 2.18728c0.141115 1.411149 0.564459 2.892855 0.776132 4.304003 0.141115 0.705574 0.352787 1.411149 0.493902 2.187281 0.211672 0.705574 0.352787 1.411149 0.564459 2.18728 0.423345 1.481706 0.917247 2.892855 1.340591 4.304003l-0.352787-0.917246c0.705574 1.693378 1.481706 3.386757 2.257838 5.150692 0.705574 1.763936 1.481706 3.527872 2.18728 5.291807 1.481706 3.598429 2.822297 7.337973 4.021774 11.148075 0.635017 1.905051 1.128919 3.880659 1.693378 5.785709 0.493902 1.975608 0.987804 3.951216 1.340592 5.997382 0.211672 0.987804 0.352787 2.046166 0.564459 3.033969 0.141115 1.058361 0.28223 2.046166 0.423345 3.104527 0.28223 2.046166 0.423345 4.162888 0.493902 6.209054 0.070557 2.116723 0.070557 4.162888 0 6.279612s-0.28223 4.162888-0.56446 6.279611c-0.28223 2.046166-0.705574 4.092331-1.199476 6.138496-0.493902 2.046166-1.058361 4.021774-1.763936 5.926825-0.352787 0.987804-0.705574 1.905051-1.128919 2.892854l-1.270034 2.822298c-0.917247 1.834493-1.834493 3.598429-2.892854 5.291807-0.493902 0.846689-1.058361 1.693378-1.622821 2.540067l-0.846689 1.199477-0.776132 1.128919c-1.199476 1.552263-2.540068 3.104527-3.880659 4.515675 0.211672-1.975608 0.635017-3.880659 0.846689-5.785709l0.211673-1.411149 0.141114-1.411148c0.070557-0.917247 0.28223-1.834493 0.28223-2.822298 0.070557-0.917247 0.211672-1.834493 0.211673-2.751739l0.141114-2.75174 0.070558-2.681183v-2.681182c-0.070557-1.763936-0.141115-3.527872-0.28223-5.291807 0-0.846689-0.141115-1.763936-0.211672-2.610625-0.070557-0.846689-0.211672-1.693378-0.352787-2.540068-0.211672-1.693378-0.564459-3.386757-0.84669-5.080135-0.352787-1.693378-0.705574-3.316199-1.128918-4.93902-0.423345-1.622821-0.917247-3.316199-1.411149-4.93902s-1.058361-3.245642-1.622821-4.868463l-0.846689-2.46951-0.917247-2.46951-0.987804-2.46951-0.987804-2.46951-2.116723-4.939021-2.18728-5.009577-2.257838-5.080135c-0.776132-1.693378-1.481706-3.457314-2.257838-5.22125l-0.211672-0.56446-0.070557-0.352787c-0.564459-1.905051-1.058361-3.739544-1.552264-5.644594-0.211672-0.987804-0.423345-1.905051-0.564459-2.892855-0.211672-0.987804-0.423345-1.905051-0.493902-2.892855-0.28223-1.975608-0.564459-3.951216-0.635017-5.997381-0.070557-0.987804-0.141115-2.046166-0.141115-3.03397l0.070557-3.033969c0-0.493902 0-0.987804 0.070558-1.552264l0.141115-1.552263c0.141115-0.987804 0.211672-2.046166 0.352787-3.03397 0.352787-2.046166 0.705574-4.092331 1.270033-6.067939 0.493902-1.975608 1.199476-3.951216 1.905051-5.856267 0.423345-0.917247 0.846689-1.905051 1.270034-2.822297 0.423345-0.917247 0.917247-1.834493 1.411148-2.75174 0.493902-0.917247 0.987804-1.763936 1.552264-2.610625l0.846689-1.270034c0.28223-0.423345 0.564459-0.846689 0.917247-1.199476 1.128919-1.622821 2.46951-3.175084 3.810101-4.65679 0.705574-0.705574 1.340591-1.411149 2.046166-2.116723 0.705574-0.635017 1.411149-1.340591 2.18728-1.975608 0.776132-0.635017 1.481706-1.199476 2.257838-1.834494l2.328395-1.693378c1.622821-1.058361 3.245642-2.046166 4.868463-2.892855 1.693378-0.846689 3.386757-1.622821 5.080135-2.257837 1.693378-0.705574 3.457314-1.199476 5.291807-1.693379 1.693378-0.211672 3.527872-0.564459 5.362365-0.705574z" fill="#774621" /></svg>