<?xml version="1.0" encoding="utf-8"?>
<!-- Uploaded to: SVG Repo, www.svgrepo.com, Generator: SVG Repo Mixer Tools -->
<svg width="800px" height="800px" viewBox="0 0 1024 1024" class="icon"  version="1.1" xmlns="http://www.w3.org/2000/svg"><path d="M803.59 850.55q-171.78 6.55-271.24-38.67C437.64 758.61 294.1 664.59 121.91 549q-41.55-36.78-11.27-109.8l65.27 38.52-65.27-41.35q81.06-152.29 169-247.78c41.22-44 101.13-100.05 146.48 0 25.9 73.88 90.16 73.88 146.48 78.84 72-5 90.44-28.46 101.41 45.05 8.86 70.65 68.31 243.43 214.09 349.15 80.09 68.5 82.49 122 45.07 168.94q-36.77 38.94-129.58 19.98z" fill="#FFFFFF" /><path d="M724 462.76c34.09 68.38 87 143 164.11 198.91 80.09 68.5 82.49 122 45.07 168.94q-42 44.4-157 13.42-38.44-16.53-84.81-39.74L167.59 472.48q49.3-82.41 120.3-160.94c22.85-25.28 80.61-80.77 114.94-17.8 31.83 58.37 99 36.21 145.49 40.3 59.47-4.1 123.27-10.85 132.33 49.82 2.14 17.14 18.41 45.4 43.35 78.9z" fill="#D7E4F6" /><path d="M543.2 265c9.89 1 19.77 1.66 29.43 2.51 72-5 90.44-28.46 101.41 45.05 8.86 70.65 68.31 243.43 214.09 349.15 80.09 68.5 82.49 122 45.07 168.94q-49.48 52.31-200.26 0L187.4 485q428.72 190.21 532.72 190.21 121 0-166-257.44A960.15 960.15 0 0 1 543.2 265z" fill="#44BBFF" /><path d="M858.39 877.24c-35.51 0-80-9.18-132.17-27.29l-2.24-0.78-2-1.27L83.64 443.55l8.92-16.76c54.61-102.59 112.49-187.39 172-252l0.12-0.13c22.66-24.16 64.84-69.14 110.93-61.52 27.79 4.59 51.05 27.16 69.15 67.08l0.37 0.82 0.3 0.85c19.74 56.31 64.93 60 117.25 64.24q5.06 0.41 10.07 0.83c14.1-1 26-2.8 36.55-4.37 22.8-3.39 40.82-6.06 56.63 4 12.56 8 22.19 21.78 28.33 62.92l0.06 0.47c4.17 33.26 20.42 91.31 53.52 154.46 27.08 51.68 75.49 125 152.27 180.66l0.66 0.48 0.62 0.53c42.11 36 66.09 70 73.32 103.84 6.86 32.13-1.74 63.56-25.55 93.43l-0.54 0.68-0.6 0.63c-20.38 21.6-50.56 32.55-89.63 32.55zM741.88 812c62.42 21.42 142.53 39.18 175.87 5.1 15.81-20.1 21.19-38.75 16.95-58.63-5.17-24.25-25.11-51.41-59.28-80.74C809.84 630 753.21 562.85 711.59 483.45c-35.59-67.84-53.18-131.28-57.84-168.13-4.5-30-9.29-33.87-9.82-34.21-2.9-1.85-17.74 0.35-28.58 2-11.1 1.65-24.92 3.7-41.32 4.83l-1.6 0.11-1.6-0.14c-3.78-0.33-7.59-0.64-11.43-1-28.36-2.31-57.68-4.69-84.81-16.33-32.53-14-54.61-38.26-67.46-74.28-8.34-18.2-21.63-40.06-38.17-42.8-24.46-4-58.09 31.77-74.3 49.06C240.74 261.13 188 337.35 137.73 429.33z" fill="" /><path d="M577.88 391.25h112.64A20.48 20.48 0 0 1 711 411.73a20.48 20.48 0 0 1-20.48 20.48H577.88a20.48 20.48 0 0 1-20.48-20.48 20.48 20.48 0 0 1 20.48-20.48z" fill="" /><path d="M618.84 483.41h112.64A20.48 20.48 0 0 1 752 503.89a20.48 20.48 0 0 1-20.48 20.48H618.84a20.48 20.48 0 0 1-20.48-20.48 20.48 20.48 0 0 1 20.48-20.48zM670 565.34h112.68a20.48 20.48 0 0 1 20.48 20.48 20.48 20.48 0 0 1-20.48 20.48H670a20.48 20.48 0 0 1-20.48-20.48A20.48 20.48 0 0 1 670 565.34z" fill="" /><path d="M762 871.85c-97.76 0-177.69-13.85-238.1-41.32l-0.8-0.36-0.77-0.43C419.8 772.07 263.8 668.92 110.5 566l-1.14-0.76-1-0.91c-18.65-16.51-30.68-36.84-34.78-58.79-4.82-25.82 1.73-53 19-78.53l34 22.89c-11.84 17.57-26.4 51.55 8 82.89C391.37 705.18 484.65 761.52 541.61 793.6c63.72 28.74 152.85 41 264.92 36.34l1.69 40.93q-23.73 0.98-46.22 0.98z" fill="" /></svg>