<?xml version="1.0" standalone="no"?><!DOCTYPE svg PUBLIC "-//W3C//DTD SVG 1.1//EN" "http://www.w3.org/Graphics/SVG/1.1/DTD/svg11.dtd"><svg t="1698246200595" class="icon" viewBox="0 0 1024 1024" version="1.1" xmlns="http://www.w3.org/2000/svg" p-id="5746" xmlns:xlink="http://www.w3.org/1999/xlink" width="200" height="200"><path d="M714.707478 300.254609l273.229913 55.162434a44.521739 44.521739 0 0 1 24.486957 73.238261l-192.690087 216.331131a44.521739 44.521739 0 0 0-10.99687 34.860522l34.726957 291.750956a44.521739 44.521739 0 0 1-63.933218 45.189565l-247.852521-122.256695a44.521739 44.521739 0 0 0-39.357218 0L244.424348 1016.787478a44.521739 44.521739 0 0 1-63.888696-45.189565l34.726957-291.750956a44.521739 44.521739 0 0 0-10.99687-34.860522L11.620174 428.655304a44.521739 44.521739 0 0 1 24.397913-73.238261l273.274435-55.206956a44.521739 44.521739 0 0 0 30.630956-22.928696l132.674783-253.017043a44.521739 44.521739 0 0 1 78.803478 0l132.674783 253.017043a44.521739 44.521739 0 0 0 30.630956 22.973218z" fill="#FF8971" p-id="5747"></path></svg>