<?xml version="1.0" standalone="no"?><!DOCTYPE svg PUBLIC "-//W3C//DTD SVG 1.1//EN" "http://www.w3.org/Graphics/SVG/1.1/DTD/svg11.dtd"><svg t="1698246183670" class="icon" viewBox="0 0 1024 1024" version="1.1" xmlns="http://www.w3.org/2000/svg" p-id="5342" xmlns:xlink="http://www.w3.org/1999/xlink" width="200" height="200"><path d="M166.4 793.6V512c0-190.8736 154.7264-345.6 345.6-345.6S857.6 321.1264 857.6 512v281.6h76.8V512c0-233.2928-189.1072-422.4-422.4-422.4S89.6 278.7072 89.6 512v281.6h76.8z" fill="#1C2134" p-id="5343"></path><path d="M89.6 588.8A38.4 38.4 0 0 1 128 550.4h128a140.8 140.8 0 0 1 140.8 140.8v102.4a140.8 140.8 0 0 1-140.8 140.8H230.4A140.8 140.8 0 0 1 89.6 793.6v-204.8z m76.8 204.8A64 64 0 0 0 230.4 857.6h25.6a64 64 0 0 0 64-64v-102.4a64 64 0 0 0-64-64H166.4V793.6zM934.4 588.8a38.4 38.4 0 0 0-38.4-38.4h-128a140.8 140.8 0 0 0-140.8 140.8v102.4a140.8 140.8 0 0 0 140.8 140.8h25.6a140.8 140.8 0 0 0 140.8-140.8v-204.8z m-76.8 38.4V793.6a64 64 0 0 1-64 64h-25.6a64 64 0 0 1-64-64v-102.4a64 64 0 0 1 64-64h89.6z" fill="#1C2134" p-id="5344"></path></svg>