<svg t="1643041644644" class="icon" viewBox="0 0 1024 1024" version="1.1" xmlns="http://www.w3.org/2000/svg" p-id="9155" width="200" height="200"><path d="M609.09313379 579.65382793l14.71176035 15.81551983-77.36425224 71.96502568-14.71176036-15.81551982 77.36425225-71.9650257Z" p-id="9156"></path><path d="M704.71456982 595.58381035l-158.35339775 143.97125361-14.53031983-15.98183964 158.35339776-143.97125362 14.53031982 15.98183966Z" p-id="9157"></path><path d="M625.49696621 739.56228242l-14.53031983-15.98183965 79.24328966-72.04616982 14.53031982 15.98183965-79.24328965 72.04616982Z" p-id="9158"></path><path d="M325.88 714.32l-1.98-52.38c9.72-4.5 16.56-14.22 16.56-25.74 0-15.66-12.6-28.26-28.26-28.26s-28.26 12.6-28.26 28.26c0 12.06 7.56 22.32 18.18 26.28l1.98 52.38c-9.9 4.32-16.74 14.22-16.74 25.74 0 15.66 12.6 28.26 28.26 28.26s28.26-12.6 28.26-28.26C344.06 728.54 336.5 718.28 325.88 714.32z" p-id="9159"></path><path d="M926 872l-66.6 0L859.4 530.54c52.92-8.28 93.6-56.52 93.6-114.84 0-1.8 0-3.6-0.18-5.4L65.78 410.3c0 1.8-0.18 3.6-0.18 5.4 0 54.9 36.18 100.98 84.6 113.04L150.2 872 92.6 872c-9.9 0-18 8.1-18 18 0 9.9 8.1 18 18 18l833.4 0c9.9 0 18-8.1 18-18C944 880.1 935.9 872 926 872zM517.22 435.68c9 54.54 54 96.12 108.18 96.12 54 0 100.26-41.22 109.8-95.4 8.1 47.52 43.38 84.96 88.2 93.6l0 342L400.4 872 400.4 531.8C454.58 531.8 506.78 490.22 517.22 435.68zM186.2 531.26c49.32-5.04 88.92-44.64 97.38-95.58 9 47.34 49.5 84.78 95.22 93.96L378.8 872 186.2 872 186.2 531.26z" p-id="9160"></path><path d="M197 144.8l621 0c9.9 0 18-8.1 18-18 0-9.9-8.1-18-18-18L197 108.8c-9.9 0-18 8.1-18 18C179 136.7 187.1 144.8 197 144.8z" p-id="9161"></path><path d="M845 181.34L175.76 181.34 67.76 380.6 953 380.6 845 181.34zM297.98 230.3l-70.2 114.66c-3.6 5.94-11.34 7.74-17.28 4.14s-7.74-11.34-4.14-17.28l70.2-114.66c3.6-5.94 11.34-7.74 17.28-4.14S301.58 224.36 297.98 230.3zM413.18 230.3l-70.2 114.66c-3.6 5.94-11.34 7.74-17.28 4.14s-7.74-11.34-4.14-17.28l70.2-114.66c3.6-5.94 11.34-7.74 17.28-4.14S416.78 224.36 413.18 230.3zM522.26 332c0 6.84-5.76 12.6-12.6 12.6-7.02 0-12.6-5.76-12.6-12.6L497.06 233.54c0-6.84 5.58-12.6 12.6-12.6 6.84 0 12.6 5.76 12.6 12.6L522.26 332zM689.84 349.1c-5.94 3.6-13.68 1.8-17.28-4.14l-70.2-114.66c-3.6-5.94-1.8-13.68 4.14-17.28s13.68-1.8 17.28 4.14l70.2 114.66C697.58 337.58 695.78 345.5 689.84 349.1zM805.04 349.1c-5.94 3.6-13.68 1.8-17.28-4.14l-70.2-114.66c-3.6-5.94-1.8-13.68 4.14-17.28s13.68-1.8 17.28 4.14l70.2 114.66C812.78 337.58 810.98 345.5 805.04 349.1z" p-id="9162"></path></svg>