<?xml version="1.0" standalone="no"?><!DOCTYPE svg PUBLIC "-//W3C//DTD SVG 1.1//EN" "http://www.w3.org/Graphics/SVG/1.1/DTD/svg11.dtd"><svg t="1698246177857" class="icon" viewBox="0 0 1024 1024" version="1.1" xmlns="http://www.w3.org/2000/svg" p-id="5207" xmlns:xlink="http://www.w3.org/1999/xlink" width="200" height="200"><path d="M624.813559 0l399.186441 399.186441v624.813559L0 0z" fill="#1ED68B" p-id="5208"></path><path d="M463.264542 54.306712l77.372746 77.372746-14.839322 14.839322-59.982102-59.982102-33.184542 33.184542 56.632407 56.632407-14.821966 14.839322-56.649763-56.649763-51.043797 51.061153-17.390644-17.390644 113.906983-113.906983z m100.195797 158.581152c4.148068 4.148068 7.185356 8.452339 8.608542 12.756611l-16.904678 16.922033a56.927458 56.927458 0 0 0-10.205288-13.711186c-5.12-5.12-11.802034-7.671322-19.959322-7.515119-8.764746 0.173559-16.748475 3.991864-23.916474 11.177221l-43.73695 43.702237-16.887322-16.904678 82.47539-82.492746 16.904678 16.922034-12.444203 12.444204c6.543186-2.395119 12.617763-3.037288 18.050169-2.082712 7.011797 0.642169 12.912814 3.679458 18.015458 8.782101z m55.990237 55.990238c13.416136 13.416136 19.317153 28.255458 17.078238 44.517966-1.909153 14.683119-10.066441 29.505085-24.576 44.361763l-62.533424-62.55078c-7.341559 8.625898-11.489627 16.922034-11.975593 25.04461-0.312407 7.983729 2.724881 15.481492 9.424271 22.180881 5.901017 5.901017 12.114441 9.250712 18.501424 10.205289 5.102644 0.642169 11.17722-0.624814 18.189016-3.176136l16.922034 16.904678c-9.580475 5.727458-19.785763 8.608542-30.63322 7.983729-13.416136-0.971932-25.68678-6.872949-36.707797-17.87661-12.114441-12.131797-18.015458-25.68678-17.529491-40.196339 0.312407-15.637695 7.168-30.16461 20.722983-43.73695 12.288-12.270644 26.016542-18.970034 41.654237-19.92461 15.464136-1.440542 29.331525 4.148068 41.480678 16.262509z m-13.398779 14.370712c-6.369627-6.386983-13.086373-9.580475-20.740339-9.580475-7.168 0.173559-14.839322 3.037288-22.805695 9.094508l44.50061 44.517967c12.773966-15.967458 12.444203-30.63322-0.954576-44.032z m103.389288 75.619796c13.39878 13.39878 19.299797 28.238102 17.060881 44.517966-1.909153 14.665763-10.049085 29.505085-24.558644 44.344407l-62.55078-62.533424c-7.324203 8.608542-11.472271 16.904678-11.958237 25.04461-0.312407 7.983729 2.707525 15.481492 9.406915 22.180882 5.901017 5.901017 12.131797 9.250712 18.51878 10.205288 5.102644 0.642169 11.159864-0.642169 18.189017-3.193492l16.904678 16.922034c-9.580475 5.727458-19.785763 8.608542-30.63322 7.983729-13.39878-0.971932-25.68678-6.872949-36.690441-17.87661-12.131797-12.131797-18.032814-25.68678-17.546848-40.213695 0.312407-15.620339 7.168-30.147254 20.740339-43.719593 12.270644-12.270644 25.999186-18.98739 41.636882-19.941966 15.481492-1.423186 29.348881 4.165424 41.480678 16.279864z m-13.39878 14.353356c-6.386983-6.369627-13.086373-9.563119-20.740339-9.563119-7.185356 0.156203-14.839322 3.019932-22.823051 9.094509l44.517966 44.50061c12.75661-15.950102 12.444203-30.63322-0.954576-44.032z m99.866034 9.250712l16.922034 16.922034-45.958509 45.941152c16.436068-3.019932 29.505085 0.485966 39.745085 10.691255 11.802034 11.802034 16.731119 25.374373 14.97817 40.838508-1.752949 14.214508-8.608542 27.439729-20.740339 39.571526-12.600407 12.600407-26.15539 19.785763-40.526102 21.382508-15.620339 1.596746-29.348881-3.505898-41.480678-15.637695-11.316068-11.333424-15.620339-23.933831-13.39878-37.662373l-9.892881 9.892882-15.793898-15.793899 116.145898-116.145898z m-6.855593 83.447322c-6.386983-6.386983-13.884746-9.094508-22.823051-7.810169-9.892881 0.954576-19.143593 6.05722-28.064542 14.995525l-1.440543 1.423186c-8.296136 8.296136-13.242576 16.765831-14.995525 25.530577-1.752949 9.736678 0.954576 18.51878 8.296135 25.860339 8.296136 8.27878 17.390644 11.316068 27.283526 9.406915 8.296136-1.909153 17.060881-7.185356 26.15539-16.279865 9.094508-9.094508 14.353356-17.87661 15.637695-26.155389 1.752949-9.736678-1.752949-18.674983-10.066441-26.971119z m113.594576 24.576c3.349695 3.349695 5.258847 7.168 5.258847 11.628475a14.978169 14.978169 0 0 1-4.790237 11.506983 16.002169 16.002169 0 0 1-11.802034 4.772881 16.93939 16.93939 0 0 1-11.489627-5.102644 16.557559 16.557559 0 0 1-5.102644-11.489627c0-4.460475 1.752949-8.452339 4.946441-11.628475a14.978169 14.978169 0 0 1 11.489627-4.790237c4.460475 0 8.139932 1.735593 11.489627 5.102644z m-41.480678 24.558644l16.904678 16.922034-82.47539 82.47539-16.922034-16.904678 82.492746-82.492746z m76.88678 72.443661c13.416136 13.39878 19.317153 28.238102 17.078237 44.50061-1.909153 14.683119-10.049085 29.505085-24.558644 44.361763l-62.55078-62.55078c-7.341559 8.625898-11.489627 16.922034-11.975593 25.061966-0.312407 7.983729 2.724881 15.464136 9.424271 22.163526 5.901017 5.901017 12.131797 9.268068 18.501424 10.222644 5.12 0.624814 11.17722-0.642169 18.189017-3.193492l16.922034 16.904678c-9.580475 5.744814-19.785763 8.625898-30.633221 7.983729-13.39878-0.954576-25.68678-6.855593-36.69044-17.87661-12.149153-12.114441-18.050169-25.68678-17.564204-40.196339 0.329763-15.637695 7.185356-30.16461 20.740339-43.719593 12.288-12.288 26.016542-18.98739 41.654238-19.941966 15.464136-1.440542 29.348881 4.148068 41.480678 16.279864z m-13.39878 14.353356c-6.369627-6.386983-13.069017-9.580475-20.740339-9.580475-7.168 0.173559-14.821966 3.037288-22.805695 9.094509l44.517966 44.517966c12.75661-15.967458 12.444203-30.63322-0.971932-44.032z" fill="#FFFFFF" p-id="5209"></path></svg>