<?xml version="1.0" standalone="no"?><!DOCTYPE svg PUBLIC "-//W3C//DTD SVG 1.1//EN" "http://www.w3.org/Graphics/SVG/1.1/DTD/svg11.dtd"><svg t="1698246221710" class="icon" viewBox="0 0 1024 1024" version="1.1" xmlns="http://www.w3.org/2000/svg" p-id="6149" xmlns:xlink="http://www.w3.org/1999/xlink" width="200" height="200"><path d="M341.333333 85.333333h341.333334A187.733333 187.733333 0 0 1 870.4 273.066667v577.194666a119.466667 119.466667 0 0 1-190.464 96.119467l-160.017067-118.101333a17.066667 17.066667 0 0 0-20.343466 0.068266L344.746667 944.5376a119.466667 119.466667 0 0 1-191.146667-95.573333V273.066667A187.733333 187.733333 0 0 1 341.333333 85.333333z m0 102.4c-47.104 0-85.333333 38.229333-85.333333 85.333334v575.8976a17.066667 17.066667 0 0 0 27.306667 13.653333l154.8288-116.189867a119.466667 119.466667 0 0 1 142.677333-0.546133l160.017067 118.101333a17.066667 17.066667 0 0 0 27.170133-13.653333V273.066667c0-47.104-38.229333-85.333333-85.333333-85.333334H341.333333z" fill="#1C2134" p-id="6150"></path></svg>