<?xml version="1.0" standalone="no"?><!DOCTYPE svg PUBLIC "-//W3C//DTD SVG 1.1//EN" "http://www.w3.org/Graphics/SVG/1.1/DTD/svg11.dtd"><svg t="1698246172377" class="icon" viewBox="0 0 1024 1024" version="1.1" xmlns="http://www.w3.org/2000/svg" p-id="5072" xmlns:xlink="http://www.w3.org/1999/xlink" width="200" height="200"><path d="M624.813559 0l399.186441 399.186441v624.813559L0 0z" fill="#1ED68B" p-id="5073"></path><path d="M668.394305 198.621288c-3.939797 8.417627-9.094508 17.703051-15.27322 27.995119l17.008813 17.008813a172.986576 172.986576 0 0 0 28.342238-16.314576l13.398779 17.87661a144.088949 144.088949 0 0 1-26.467796 13.745899l18.917966 18.883254-63.071458 63.071457-84.696949-84.696949 63.054102-63.071457 18.570847 18.570847c4.460475-9.285424 8.226712-17.87661 11.316068-26.467797l18.917966 13.39878z m-27.474441 114.77478l35.909424-35.92678-22.337085-22.319729-35.926779 35.909424 22.35444 22.337085z m-35.579661-35.579661l35.92678-35.909424-21.486644-21.469288-35.92678 35.909424 21.486644 21.469288z m20.965966-39.172339a268.478915 268.478915 0 0 1-16.661694 29.383593l-11.854102-6.69939c6.178712-9.615186 11.333424-19.247729 15.793898-29.210034l12.721898 6.525831z m32.802712 31.10183l7.410983 12.895458c-11.003661 7.202712-21.486644 12.878102-31.448949 17.008813l-6.352271-13.572338c8.920949-3.436475 19.056814-9.111864 30.407593-16.314577z m-31.761356 73.016407l-65.987254 65.987254-15.117017-15.117017 6.178712-6.196067-41.741017-41.741017-6.196068 6.178711-15.27322-15.27322 65.952542-65.987254 72.165966 72.14861z m-103.441356-10.292068l41.758373 41.741017 10.465627-10.482983-41.741016-41.741017-10.482984 10.482983z m22.510645-22.510644l41.741017 41.741017 10.830101-10.812746-41.758373-41.758372-10.812745 10.830101z m81.086915-138.15322l-107.034034 107.05139-14.093017-14.093017L599.335051 171.823729l-28.862915-28.862915-93.982373 93.982372-14.266577-14.24922 108.07539-108.07539 57.205153 57.205153z m-130.395119 97.765966c0.694237 16.488136 0.173559 31.796068-1.735593 45.715525l-22.493288-0.173559c3.089356-12.721898 4.634034-28.012475 4.807593-45.715525l19.421288 0.173559z m72.495729-109.272949l12.721898 12.721898-55.157152 55.157153c-20.618847 19.577492-39.345898 32.802712-56.354712 39.84922-16.314576 6.022508-33.149831 6.352271-50.679322 0.867797l4.634034-21.486644c16.835254 5.154712 31.952271 5.154712 45.194847-0.17356 13.572339-6.005153 28.515797-16.488136 44.483254-31.778712l55.157153-55.157152z m189.873898 132.47783c2.568678 20.445288 3.419119 39.172339 2.395119 56.007594l-23.534644-0.17356c1.874441-15.290576 1.371119-34.017627-1.041356-56.354712l22.163525 0.520678zM704.130169 545.32339c-9.458983-9.441627-19.594847-19.92461-30.424949-31.101831-10.986305-11.333424-19.074169-21.469288-24.558644-30.407593-4.807593-8.938305-6.69939-19.074169-6.022508-30.060474 0.520678-5.328271-0.173559-8.764746-2.22156-10.830102-3.610034-3.610034-17.529492-2.065356-41.758372 4.634034l-0.867797-23.187526c22.510644-5.328271 39.016136-6.369627 49.325559-2.933152l48.613966-48.613966-23.013966-23.031322 15.099661-15.099661 38.321899 38.304542-64.945899 64.945898c0.173559 1.544678 0.173559 3.262915 0 5.154712-0.694237 8.591186 0 16.141017 2.082712 22.684204 2.742237 7.549831 8.74739 16.661695 18.536136 27.144678a2719.848136 2719.848136 0 0 0 34.364746 35.058983c8.417627 8.400271 17.182373 16.835254 25.947118 25.235525 8.764746 8.417627 15.793898 14.787254 20.792407 19.091525l-20.09817 12.183865-39.172339-39.172339z m27.995119-150.684204l40.387254 40.387255c7.376271-5.328271 15.099661-12.027661 23.361085-19.941966l-36.256542-36.256543 15.117017-15.099661 20.271729 20.254373c3.783593-12.704542 6.369627-24.905763 7.740745-36.586305l21.642848 7.54983a308.900881 308.900881 0 0 1-9.615187 39.172339l-14.440135-4.807593 26.120678 26.120678a353.956881 353.956881 0 0 0 43.632813-17.87661l10.153221 20.792407a261.03322 261.03322 0 0 1-37.297899 13.572339l19.594848 19.594847-15.117017 15.117017-35.579661-35.579661c-8.244068 7.914305-15.967458 14.613695-23.013966 20.289085l42.782373 42.782373-15.464136 15.446779-45.871729-45.854372c-25.079322 14.769898-56.87539 16.661695-95.023729 5.328271l2.759594-23.378441c29.210034 9.962305 54.289356 10.309424 75.081762 0.867797l-36.430101-36.430102 15.464135-15.44678z m38.669017 85.738306c4.460475 23.013966 6.69939 45.52461 7.029153 67.514576l-23.708204 1.041356c0.867797-23.534644-0.347119-46.045288-3.783593-67.341017l20.462644-1.214915z" fill="#FFFFFF" p-id="5074"></path></svg>