<?xml version="1.0" standalone="no"?><!DOCTYPE svg PUBLIC "-//W3C//DTD SVG 1.1//EN" "http://www.w3.org/Graphics/SVG/1.1/DTD/svg11.dtd"><svg t="1698246165960" class="icon" viewBox="0 0 1024 1024" version="1.1" xmlns="http://www.w3.org/2000/svg" p-id="4938" xmlns:xlink="http://www.w3.org/1999/xlink" width="200" height="200"><path d="M512 1024A512 512 0 1 1 512 0a512 512 0 0 1 0 1024z m0-78.762667A433.237333 433.237333 0 1 0 512 78.762667a433.237333 433.237333 0 0 0 0 866.474666z m-39.424-630.186666c0-21.76 19.114667-39.338667 42.666667-39.338667 23.637333 0 42.666667 17.578667 42.666666 39.338667v236.373333c0 21.674667-19.029333 39.338667-42.666666 39.338667-23.552 0-42.666667-17.664-42.666667-39.338667v-236.373333z m0 396.202666c0-23.04 19.114667-41.728 42.666667-41.728 23.637333 0 42.666667 18.773333 42.666666 41.813334v1.706666c0 23.125333-19.029333 41.813333-42.666666 41.813334-23.552 0-42.666667-18.688-42.666667-41.813334v-1.706666z" p-id="4939"></path></svg>