<?xml version="1.0" encoding="utf-8"?>
<!-- Uploaded to: SVG Repo, www.svgrepo.com, Generator: SVG Repo Mixer Tools -->
<svg width="800px" height="800px" viewBox="0 0 1024 1024" class="icon"  version="1.1" xmlns="http://www.w3.org/2000/svg"><path d="M70.557431 434.774891a277.220147 191.422311 0 1 0 554.440295 0 277.220147 191.422311 0 1 0-554.440295 0Z" fill="#EABD2C" /><path d="M104.777785 509.071867l-77.613174-258.381314 67.594019-16.792668 105.060015 324.705298-91.72466-26.106249z" fill="#EABD2C" /><path d="M215.976297 574.196376l-117.407566-33.444223-4.233445-29.422449L13.829257 243.070351l87.985116-21.802247 114.161924 352.928272z m-98.357059-50.025219l66.041756 18.768277-95.958107-296.411769-47.273479 11.712533 74.649762 248.503273 2.540068 17.427686z" fill="#543819" /><path d="M145.630538 527.769586V259.369117h54.893682l-4.727348 305.937022z" fill="#EABD2C" /><path d="M206.098257 586.120582l-71.051334-53.059189v-284.346448h76.202026l-5.150692 337.405637z m-49.884104-63.642803l29.351891 21.943361 4.233446-274.468408h-33.585337v252.525047z" fill="#543819" /><path d="M194.032936 552.888031V107.741198h70.980776l-6.702956 471.253083-64.27782-26.10625" fill="#EABD2C" /><path d="M268.682698 594.658031L183.449321 560.014332v-462.856749h92.28912l-7.055743 497.500448zM204.616551 545.761731l43.322262 17.5688 6.350169-445.005719H204.616551v427.436919z" fill="#543819" /><path d="M409.868118 553.240819V343.403018h96.381451v221.903121z" fill="#EABD2C" /><path d="M516.833184 577.230345l-117.54868-14.675945V332.819403h117.54868v244.410942z m-96.381451-33.373665l75.214222 9.384139V353.986633H420.451733v189.870047z" fill="#543819" /><path d="M236.22628 537.224282v-251.89003h96.381451v266.354303z" fill="#EABD2C" /><path d="M343.191346 563.965548l-117.548681-17.639358V274.750637h117.548681v289.214911z m-96.381451-35.913732l75.214221 11.289189v-243.423138H246.809895v232.133949z" fill="#543819" /><path d="M501.592779 566.364501l-4.656791-425.037966h50.166334L553.170261 588.448977l-48.190725-21.378902" fill="#EABD2C" /><path d="M563.965548 604.888858l-63.290016-28.152415 4.586233-10.371942-14.252601 0.141115-4.797905-435.762696h71.333563l6.420726 474.145938z m-51.859712-46.215117l30.269138 13.405912-5.644594-420.169503h-29.069662l4.445118 406.763591z" fill="#543819" /><path d="M509.283539 565.588369l34.149797-254.35954 95.04086 8.749122-64.630607 259.01633z" fill="#EABD2C" /><path d="M581.675463 591.412389L497.42989 573.984703l36.83098-274.186178 117.478123 10.72473-70.06353 280.889134z m-60.608833-34.149797l45.015641 9.313581 59.127127-237.214084-72.674154-6.632398-31.468614 234.532901z" fill="#543819" /><path d="M379.105078 544.280025V162.775994h50.236891v404.294081z" fill="#EABD2C" /><path d="M439.925584 583.509957l-71.40412-32.385861V152.192379h71.40412V583.509957z m-50.236891-46.003446l29.069662 13.19424V173.359609h-29.069662v364.146902z" fill="#543819" /><path d="M396.885551 233.262868H315.88562v325.975332h75.637566l5.362365-325.975332z" fill="#EABD2C" /><path d="M401.895129 569.821815h-96.663681v-347.142562h102.308275l-5.644594 347.142562z m-75.425895-21.167229h54.611452l5.009578-304.808104h-59.62103v304.808104z" fill="#543819" /><path d="M257.393509 217.175773h51.577483s25.471233 339.381244 66.959002 390.253153c-66.253428-5.997382-82.340522-10.019155-82.340522-10.019155s-46.920692-318.63736-36.195963-380.233998z" fill="#EABD2C" /><path d="M399.990078 620.270378l-25.047888-2.257838c-66.323985-5.997382-83.257769-10.16027-83.963343-10.301384l-6.844071-1.693379-1.058362-6.985186c-1.905051-13.053125-46.991249-321.036312-36.125405-383.550196l1.552264-8.749121h70.275201l0.705575 9.807483c0.070557 0.846689 6.491284 85.656722 17.85103 175.617446 19.756081 156.002481 37.748226 197.77248 46.709019 208.779439l15.94598 19.332736z m-97.016468-31.891959c8.114105 1.340591 24.412871 3.668986 53.976435 6.632399-6.632399-15.66375-13.053125-38.101013-19.332736-67.805692-7.337973-34.784814-14.464273-79.37711-21.237787-132.64797-9.172466-72.533039-15.169848-141.820437-17.216013-166.797768h-32.315304c-5.009578 69.428512 29.493006 314.545029 36.125405 360.619031z" fill="#543819" /><path d="M348.55371 502.157238c-107.106181 0-203.840419-25.330118-273.127816-66.112313v392.79322c0 29.422449 24.130641 53.55309 53.55309 53.55309h437.808861c29.422449 0 53.55309-24.130641 53.553091-53.55309V436.821057c-69.21684 40.288293-165.386619 65.336181-271.787226 65.336181z" fill="#EABD2C" /><path d="M566.787845 882.673465H128.978984c-29.704679 0-53.905877-24.201199-53.905877-53.905877V435.409908l0.564459 0.28223c72.391924 42.616688 169.337835 66.041756 272.916144 66.041756 102.872735 0 199.324743-23.142837 271.575553-65.265624l0.56446-0.28223v392.581548c0 29.775236-24.201199 53.905877-53.905878 53.905877zM75.778681 436.609385v392.158203c0 29.351891 23.848412 53.200303 53.200303 53.200303h437.808861c29.351891 0 53.200303-23.848412 53.200304-53.200303V437.456074c-35.067043 20.32054-75.919796 36.26652-121.499897 47.485151-47.414594 11.641976-97.863157 17.5688-149.934542 17.5688-52.353614 0-103.084407-5.997382-150.78123-17.780472-45.86233-11.359746-86.856198-27.517398-121.993799-48.120168z" fill="#EABD2C" /><path d="M644.824364 808.235375s166.021636 20.108868 313.910012 143.231586c5.997382-24.765658 16.722111-65.618411 16.722111-65.618411s-147.958933-116.490319-309.253221-134.553022c-10.72473 30.198581-21.378902 56.939847-21.378902 56.939847z" fill="#EABD2C" /><path d="M965.013987 970.517467l-13.053124-10.865844c-75.143664-62.584442-155.226349-97.580927-209.061669-115.92586-58.280438-19.826638-98.921519-24.906773-99.344863-24.977331l-13.688142-1.62282 5.080135-12.770896c0.141115-0.28223 10.795287-26.952939 21.308344-56.516502l2.822297-7.902432 8.325777 0.917246c37.677668 4.233446 77.613174 14.040929 118.889272 29.210777 32.809206 12.065321 66.535658 27.587956 100.191552 46.074002 57.222077 31.468614 94.053056 60.256046 95.60532 61.455523l5.432922 4.304003-1.763936 6.702956c-0.141115 0.423345-10.72473 40.993868-16.722111 65.406739l-4.021774 16.510439z m-305.584234-170.678426c17.074898 3.03397 49.319644 9.87804 90.242954 23.848412 35.349273 12.065321 69.851857 26.882381 102.519948 44.098394 35.772618 18.909392 69.428512 40.711638 100.26211 64.983394 4.021774-15.945979 8.537449-33.373665 11.006959-42.757803-12.206436-9.101909-44.168952-31.821402-87.561772-55.599256-49.460759-27.164611-124.110522-61.102735-202.570385-71.615793-5.291807 14.675946-10.371942 27.940743-13.899814 37.042652z" fill="#543819" /><path d="M539.693792 905.957417s234.956246-99.062634 457.212154-85.021704c-3.316199-37.465996-5.997382-69.640185-5.997381-69.640185s-337.335079 10.72473-455.871564 85.021705c0.635017 28.152415 4.65679 69.640185 4.656791 69.640184z" fill="#EABD2C" /><path d="M530.591883 921.338938l-1.411148-14.323159c-0.141115-1.693378-4.092331-42.193344-4.727348-70.416316l-0.141115-5.997382 5.080135-3.175085c50.448563-31.680287 143.584373-55.810928 276.726245-71.898022 98.498174-11.853648 183.590436-14.675946 184.437126-14.746503l10.019155-0.352787 0.846689 10.019155c0 0.352787 2.681182 32.526976 5.997382 69.569627l1.128919 12.276993-12.276993-0.776132c-113.244677-7.126301-230.087783 16.087094-308.19486 36.83098-84.88059 22.578378-143.65493 47.132364-144.21939 47.414593l-13.264797 5.574038z m15.169848-79.094881c0.635017 16.369324 2.116723 35.843175 3.175084 48.684628 22.296148-8.608007 70.839661-26.317922 133.282988-42.898919 50.660236-13.476469 100.473782-23.636739 148.029491-30.128023 54.893682-7.549645 106.965066-10.230828 155.014676-8.114104-1.763936-19.756081-3.245642-37.042651-4.092331-47.414594-25.189003 1.128919-94.688073 4.797905-172.724592 14.182044-123.546062 14.887618-214.141804 37.536553-262.685316 65.688968z" fill="#543819" /><path d="M549.783504 818.042858c-8.114105 0-14.746503-6.632399-14.746503-14.746503V653.99683c0-8.114105 6.632399-14.746503 14.746503-14.746503 8.114105 0 14.746503 6.632399 14.746504 14.746503v149.299525c-0.070557 8.184662-6.702956 14.746503-14.746504 14.746503zM549.924619 551.688555c-11.853648 0-21.590574 9.736926-21.590574 21.590574s9.736926 21.590574 21.590574 21.590574 21.590574-9.736926 21.590574-21.590574c0-11.924206-9.736926-21.590574-21.590574-21.590574z" fill="#774B21" /><path d="M147.465031 728.71715c-8.466892 0-15.38152-6.914628-15.38152-15.38152v-66.606215c0-8.466892 6.914628-15.38152 15.38152-15.38152s15.38152 6.914628 15.38152 15.38152v66.606215c0 8.396334-6.914628 15.38152-15.38152 15.38152z" fill="#FFFFFF" /></svg>