<?xml version="1.0" encoding="utf-8"?>
<!-- Uploaded to: SVG Repo, www.svgrepo.com, Generator: SVG Repo Mixer Tools -->
<svg fill="#000000" width="800px" height="800px" viewBox="-6.5 0 32 32" version="1.1" xmlns="http://www.w3.org/2000/svg">
<title>apple</title>
<path d="M13.313 7.219c0.25-0.688 0.406-1.281 0.406-1.844 0-0.094-0.031-0.156-0.031-0.25s-0.031-0.219-0.063-0.344c-1.563 0.344-2.656 1.031-3.344 2.031-0.688 0.969-1.031 2.125-1.063 3.469 0.563-0.063 1.031-0.156 1.375-0.25 0.469-0.156 0.969-0.469 1.469-0.938 0.563-0.563 1-1.25 1.25-1.875zM11.531 10.344c-0.938 0.313-1.594 0.438-1.938 0.438-0.281 0-0.875-0.125-1.844-0.375-0.938-0.281-1.719-0.438-2.406-0.438-1.531 0-2.813 0.656-3.844 1.969-1 1.313-1.5 2.969-1.5 5.031 0 2.219 0.656 4.469 1.969 6.781 1.344 2.313 2.719 3.438 4.063 3.438 0.438 0 1-0.156 1.781-0.438 0.719-0.281 1.344-0.438 1.906-0.438s1.25 0.125 2.031 0.406c0.813 0.281 1.438 0.406 1.906 0.406 1.156 0 2.313-0.875 3.469-2.594 0.375-0.563 0.719-1.156 1-1.719 0.25-0.531 0.469-1.094 0.656-1.625-0.844-0.25-1.563-0.844-2.156-1.719-0.594-0.906-0.906-1.906-0.906-3 0-1.031 0.281-1.938 0.844-2.781 0.344-0.438 0.875-1 1.563-1.594-0.219-0.281-0.469-0.563-0.688-0.781-0.25-0.219-0.469-0.406-0.688-0.563-0.875-0.563-1.844-0.875-2.906-0.875-0.625 0-1.406 0.188-2.313 0.469z"></path>
</svg>