<svg xmlns="http://www.w3.org/2000/svg" width="111" height="20" viewBox="0 0 111 20" fill="none">
  <path d="M0 10.4506C10.12 10.4506 2.70769 10.4506 15.6144 10.4506C28.521 10.4506 28.7015 14.2989 33.8349 14.2989C38.5282 14.2989 41.36 6.89948 48.1067 6.89948C53.3147 6.89948 55.1467 10.7547 58.6667 10.7547C63.0667 10.7547 61.8933 7.23472 65.4133 7.23472C68.4933 7.23472 68.3467 10.4195 74.2133 10.7547C78.76 11.0146 79.64 6.229 84.48 6.229C91.08 6.229 92.4 13.7719 99.2933 13.7719C105.747 13.7719 105.16 10.9224 110 10.513" stroke="white" stroke-opacity="0.1" stroke-width="1.6"/>
  <path d="M0 10.4504C10.12 10.4504 4.4 10.4504 17.3067 10.4504C30.2133 10.4504 30.9467 10.2677 36.08 10.2677C40.7733 10.2677 42.68 12.4306 49.4267 12.4306C56.0267 12.4306 55.7333 7.56966 59.2533 7.56966C63.6533 7.56966 62.7733 14.2745 66.2933 14.2745C69.3733 14.2745 69.52 5.22298 75.3867 5.55822C79.9333 5.81803 79.9333 18.8002 84.7733 18.8002C91.3733 18.8002 90.9333 1.2002 97.8267 1.2002C104.28 1.2002 105.16 10.9222 110 10.5128" stroke="url(#paint0_linear_5925_41884)" stroke-width="1.6"/>
  <defs>
    <linearGradient id="paint0_linear_5925_41884" x1="0" y1="10.3157" x2="110" y2="10.3157" gradientUnits="userSpaceOnUse">
      <stop stop-color="#9467F7"/>
      <stop offset="1" stop-color="#FF8282"/>
    </linearGradient>
  </defs>
</svg>
