<?xml version="1.0" encoding="utf-8"?><!-- Uploaded to: SVG Repo, www.svgrepo.com, Generator: SVG Repo Mixer Tools -->
<svg width="800px" height="800px" viewBox="0 0 500 500" fill="none" xmlns="http://www.w3.org/2000/svg">
<path fill-rule="evenodd" clip-rule="evenodd" d="M390.154 349.941C389.805 270.081 367.363 217.166 335.854 215.874C290.363 214.005 276.019 231.54 248.308 233.205C226.43 234.519 173.645 217.018 147.923 225.512C122.201 234.006 105.771 280.848 108.615 336.462C110.58 374.876 139.358 371.053 139.628 390.312C139.898 409.571 141.28 477.312 141.28 477.312C214.018 493.684 284.48 494.321 352.569 478.604C352.569 478.604 350.719 405.157 358.845 389.053C366.971 372.949 390.245 370.531 390.151 349.943L390.154 349.941Z" fill="#ED6D70"/>
<path fill-rule="evenodd" clip-rule="evenodd" d="M150.118 189.869C112.404 166.129 79.433 90.669 121.154 64.792C127.137 40.31 164.4 9.62 201.105 10C249.89 10.507 273.098 56.059 299.705 61.1C305.47 93.2 281.919 136.744 265.943 151.075C249.967 165.406 174.263 205.067 150.117 189.867L150.118 189.869Z" fill="#6D4E3B"/>
<path fill-rule="evenodd" clip-rule="evenodd" d="M157.25 168.384C127.282 177.589 148.259 213.714 172.031 192.872L157.25 168.384Z" fill="#FFA775"/>
<path fill-rule="evenodd" clip-rule="evenodd" d="M262.3 123.057C288.4 105.697 303.073 144.809 271.889 150.003L262.3 123.057Z" fill="#FFA775"/>
<path fill-rule="evenodd" clip-rule="evenodd" d="M154.509 93.671C155.252 110.082 150.509 124.794 138.124 137.14C138.124 137.14 164.163 201.125 186.153 212.746C200.7 220.437 218.093 218.639 218.093 218.639C221.265 227.069 216.649 230.945 209.778 231.746C220.749 247.246 233.761 260.255 249.99 269.346C265.87 257.456 277.037 242.289 284.566 224.596C272.331 222.988 264.26 219.306 264.366 199.003C271.847 192.4 276.635 183.273 277.816 173.365C280.555 151.619 250.73 87.959 250.73 87.959C218.721 102.759 186.647 104.465 154.506 93.669L154.509 93.671Z" fill="#FFA775"/>
<path d="M232 193.239C231.923 193.239 231.847 193.231 231.772 193.214C231.638 193.184 231.512 193.129 231.4 193.05C231.288 192.971 231.193 192.872 231.119 192.756C231.046 192.641 230.996 192.512 230.973 192.377C230.949 192.243 230.952 192.104 230.982 191.971C232.611 184.663 236.582 179.257 241.336 177.862C244.525 176.927 247.795 177.907 250.536 180.625C250.723 180.821 250.826 181.083 250.823 181.354C250.821 181.625 250.712 181.885 250.521 182.077C250.33 182.27 250.072 182.38 249.801 182.385C249.529 182.39 249.267 182.289 249.069 182.104C246.858 179.913 244.387 179.139 241.921 179.86C237.891 181.042 234.479 185.86 233.015 192.424C232.963 192.655 232.835 192.861 232.65 193.009C232.466 193.158 232.237 193.239 232 193.239ZM212.99 175.394C211.666 175.454 210.354 175.123 209.216 174.443C204.624 171.38 200.934 150.354 200.629 147.064C200.616 146.928 200.631 146.79 200.671 146.66C200.712 146.529 200.777 146.408 200.865 146.303C200.952 146.197 201.059 146.11 201.18 146.047C201.301 145.983 201.434 145.944 201.57 145.931C201.706 145.918 201.844 145.933 201.974 145.973C202.105 146.014 202.226 146.079 202.331 146.167C202.437 146.254 202.524 146.361 202.587 146.482C202.651 146.603 202.69 146.736 202.703 146.872C203.183 152.047 207.145 170.558 210.371 172.71C213.213 174.605 220.628 171.647 223.246 170.349C223.368 170.288 223.502 170.252 223.638 170.243C223.775 170.233 223.911 170.251 224.041 170.295C224.171 170.338 224.29 170.407 224.393 170.497C224.496 170.587 224.581 170.696 224.642 170.818C224.702 170.941 224.738 171.074 224.748 171.211C224.757 171.347 224.739 171.484 224.696 171.613C224.652 171.743 224.583 171.863 224.494 171.966C224.404 172.069 224.294 172.153 224.172 172.214C223.353 172.622 217.6 175.394 212.989 175.394H212.99Z" fill="#29263B"/>
<path d="M162.146 143.237C161.678 143.238 161.219 143.107 160.821 142.859C160.424 142.612 160.104 142.257 159.898 141.837C156.098 134.069 156.553 126.551 161.059 122.684C164.769 119.497 170.088 119.753 175.283 123.363C175.811 123.748 176.168 124.324 176.277 124.968C176.385 125.612 176.238 126.273 175.865 126.81C175.492 127.347 174.924 127.716 174.283 127.839C173.641 127.962 172.977 127.83 172.432 127.469C169.223 125.238 166.187 124.869 164.314 126.477C162.154 128.33 161.257 133.24 164.389 139.64C164.576 140.021 164.662 140.443 164.641 140.867C164.619 141.291 164.49 141.702 164.266 142.062C164.041 142.422 163.729 142.719 163.358 142.925C162.987 143.131 162.57 143.24 162.146 143.24V143.237ZM231.6 118.765C226.92 118.707 222.436 116.879 219.049 113.649C218.575 113.198 218.297 112.578 218.274 111.924C218.252 111.269 218.487 110.632 218.93 110.15C219.372 109.667 219.986 109.377 220.64 109.342C221.293 109.307 221.935 109.53 222.426 109.963C227.226 114.363 234.992 115.868 241.511 109.316C241.74 109.074 242.016 108.881 242.321 108.747C242.626 108.613 242.956 108.541 243.289 108.537C243.622 108.532 243.953 108.594 244.262 108.719C244.571 108.844 244.852 109.029 245.088 109.264C245.325 109.5 245.512 109.78 245.638 110.088C245.765 110.396 245.828 110.727 245.825 111.06C245.822 111.394 245.752 111.723 245.619 112.029C245.487 112.335 245.295 112.611 245.054 112.842C243.319 114.675 241.235 116.143 238.924 117.16C236.614 118.177 234.124 118.723 231.6 118.765Z" fill="#29263B"/>
<path fill-rule="evenodd" clip-rule="evenodd" d="M234.525 130.9C238.853 127.075 243.897 125.7 245.782 127.833C247.667 129.966 245.682 134.805 241.362 138.633C237.042 142.461 231.99 143.833 230.102 141.699C228.214 139.565 230.202 134.728 234.525 130.899V130.9Z" fill="#29263B"/>
<path fill-rule="evenodd" clip-rule="evenodd" d="M179.85 153.813C185.515 152.689 190.565 154.043 191.12 156.837C191.675 159.631 187.525 162.809 181.859 163.937C176.193 165.065 171.145 163.707 170.59 160.915C170.035 158.123 174.185 154.941 179.85 153.815V153.813Z" fill="#29263B"/>
<path fill-rule="evenodd" clip-rule="evenodd" d="M109.1 337.13C106.885 367.984 116.161 419.782 142.994 427.962C174.913 437.69 239.12 395.382 239.12 395.382C239.12 395.382 309.9 435.623 350.127 430.3C386.408 425.5 390.299 351.5 390.299 351.5C376.217 345.782 361.566 345.327 343.722 351.838C343.722 351.838 334.329 312.469 307.404 311.708C279.982 310.934 226.446 332.693 226.446 332.693C215.646 317.083 178.373 310.579 163.925 328.593C163.925 328.593 128.757 322.214 109.102 337.121L109.1 337.13Z" fill="#FFA775"/>
<path d="M239.853 396.165C239.628 396.165 239.409 396.092 239.229 395.957C239.049 395.822 238.917 395.633 238.854 395.417C238.79 395.201 238.798 394.97 238.877 394.76C238.955 394.549 239.1 394.369 239.289 394.247C241.557 392.791 294.918 358.547 302.412 355.686C309.948 352.811 342.323 350.499 343.698 350.402C343.834 350.392 343.971 350.41 344.101 350.453C344.231 350.496 344.351 350.565 344.454 350.654C344.557 350.744 344.642 350.853 344.703 350.975C344.764 351.097 344.8 351.231 344.81 351.367C344.82 351.503 344.802 351.64 344.759 351.77C344.716 351.9 344.647 352.02 344.558 352.123C344.468 352.226 344.359 352.311 344.237 352.372C344.115 352.433 343.981 352.469 343.845 352.479C343.512 352.503 310.404 354.866 303.154 357.632C295.86 360.413 240.968 395.644 240.414 396C240.247 396.107 240.052 396.165 239.853 396.165ZM171.707 382.865C171.319 382.865 170.932 382.84 170.548 382.791C168.827 382.612 167.217 381.858 165.978 380.651C164.739 379.443 163.944 377.853 163.722 376.137C161.622 375.843 156.6 374.585 154.659 369.237C153.149 365.085 151.495 353.115 153.2 347.655C154.74 342.722 156.886 338.94 159.855 333.704C160.761 332.104 161.748 330.369 162.822 328.412C159.957 309.482 159.322 293.955 159.322 293.799C159.312 293.523 159.411 293.255 159.599 293.052C159.786 292.849 160.046 292.729 160.322 292.718C160.459 292.709 160.597 292.729 160.727 292.775C160.857 292.821 160.976 292.893 161.077 292.987C161.178 293.08 161.259 293.193 161.315 293.319C161.372 293.445 161.402 293.58 161.404 293.718C161.41 293.874 162.045 309.481 164.936 328.447C164.971 328.673 164.929 328.904 164.819 329.104C163.674 331.197 162.627 333.044 161.669 334.732C158.763 339.854 156.669 343.555 155.19 348.276C153.776 352.803 155.05 364.211 156.618 368.526C157.19 369.963 158.129 371.225 159.343 372.184C160.556 373.143 162.001 373.766 163.531 373.99C163.86 360.447 167.463 347.186 174.031 335.338C174.171 335.105 174.397 334.936 174.66 334.867C174.923 334.798 175.203 334.834 175.439 334.969C175.676 335.103 175.85 335.325 175.926 335.586C176.001 335.848 175.971 336.128 175.842 336.368C169.452 347.612 165.542 362.268 165.609 374.715C165.678 374.849 165.716 374.997 165.721 375.147C165.729 376.542 166.254 377.885 167.195 378.915C168.136 379.946 169.425 380.59 170.814 380.724C173.914 381.132 177.695 379.408 179.132 374.661C179.153 374.592 179.181 374.524 179.216 374.461C179.627 361.975 182.91 349.751 188.81 338.739C188.871 338.614 188.957 338.502 189.062 338.41C189.167 338.319 189.29 338.249 189.422 338.206C189.555 338.163 189.695 338.146 189.833 338.158C189.972 338.17 190.108 338.209 190.231 338.274C190.354 338.339 190.464 338.428 190.552 338.536C190.64 338.643 190.706 338.768 190.746 338.902C190.785 339.035 190.797 339.176 190.782 339.314C190.766 339.453 190.722 339.587 190.654 339.708C184.861 350.515 181.656 362.52 181.291 374.776C181.288 374.909 181.259 375.041 181.206 375.163C181.606 377.839 182.982 379.399 185.188 379.683C188.682 380.13 193.038 377.304 194.505 373.619C194.473 367.425 198.178 352.004 204.159 341.678C204.305 341.455 204.531 341.297 204.79 341.236C205.05 341.174 205.323 341.215 205.553 341.348C205.784 341.482 205.954 341.699 206.03 341.954C206.105 342.21 206.08 342.485 205.959 342.722C199.827 353.307 196.409 368.967 196.592 373.967C196.592 373.986 196.592 374.005 196.592 374.023C196.952 375.089 197.66 376.003 198.602 376.618C199.544 377.233 200.665 377.513 201.786 377.413C204.94 377.341 209.14 374.946 210.595 368.428C214.888 349.183 222.759 336.828 225.943 332.416C226.104 332.192 226.348 332.041 226.621 331.997C226.893 331.952 227.172 332.018 227.397 332.18C227.621 332.341 227.771 332.585 227.816 332.857C227.86 333.13 227.794 333.409 227.633 333.633C224.523 337.946 216.833 350.013 212.633 368.881C210.915 376.574 205.744 379.407 201.833 379.495C200.582 379.562 199.334 379.306 198.211 378.751C197.087 378.197 196.126 377.362 195.418 376.328C193.081 379.863 188.706 382.228 184.918 381.749C183.832 381.629 182.796 381.226 181.916 380.579C181.036 379.932 180.341 379.064 179.903 378.063C179.079 379.512 177.887 380.719 176.449 381.562C175.01 382.404 173.374 382.853 171.707 382.862V382.865Z" fill="#29263B"/>
<path d="M213.641 294.479C213.449 294.479 213.26 294.425 213.097 294.325C212.933 294.224 212.8 294.08 212.713 293.909C202.457 273.761 198.447 253.326 200.095 229.601C200.101 229.462 200.134 229.325 200.193 229.199C200.253 229.072 200.337 228.959 200.441 228.866C200.545 228.773 200.666 228.702 200.798 228.657C200.93 228.611 201.07 228.593 201.209 228.603C201.348 228.612 201.484 228.65 201.608 228.713C201.732 228.776 201.843 228.864 201.933 228.97C202.023 229.077 202.09 229.201 202.132 229.334C202.173 229.467 202.187 229.607 202.173 229.746C200.559 252.999 204.228 272.239 214.059 291.952L249.471 269.989C249.607 269.904 249.762 269.851 249.922 269.836C250.082 269.821 250.244 269.844 250.394 269.902L288.941 284.735C295.71 262.211 296.984 243.835 293.214 223.484C293.168 223.214 293.231 222.937 293.387 222.713C293.544 222.489 293.783 222.335 294.052 222.286C294.321 222.236 294.599 222.294 294.825 222.447C295.052 222.6 295.209 222.837 295.263 223.105C299.156 244.126 297.763 263.06 290.608 286.414C290.566 286.551 290.497 286.677 290.404 286.786C290.311 286.894 290.196 286.983 290.068 287.045C289.939 287.108 289.8 287.143 289.657 287.149C289.514 287.156 289.371 287.132 289.238 287.081L250.129 272.032L214.189 294.322C214.025 294.424 213.835 294.479 213.641 294.479Z" fill="#29263B"/>
<path fill-rule="evenodd" clip-rule="evenodd" d="M218.907 225.421C237.051 216.693 255.748 214.021 269.298 218.171C266.114 214.471 264.317 208.609 264.369 199.005C253.075 209.379 234.356 217.566 218.093 218.639C219.021 220.772 219.304 223.129 218.907 225.421Z" fill="#F08855"/>
<path d="M325.17 317.634H325.125C324.988 317.629 324.853 317.596 324.729 317.539C324.604 317.482 324.492 317.4 324.4 317.299C324.307 317.198 324.235 317.08 324.187 316.952C324.14 316.823 324.119 316.686 324.125 316.549C324.574 307.333 324.115 298.094 322.754 288.968C322.732 288.833 322.738 288.695 322.769 288.562C322.801 288.429 322.859 288.304 322.939 288.193C323.019 288.082 323.12 287.988 323.237 287.917C323.353 287.845 323.482 287.797 323.617 287.776C323.752 287.754 323.89 287.759 324.023 287.791C324.156 287.822 324.282 287.88 324.393 287.96C324.503 288.04 324.597 288.142 324.669 288.258C324.74 288.375 324.788 288.504 324.81 288.639C326.194 297.904 326.661 307.283 326.205 316.639C326.193 316.906 326.079 317.158 325.887 317.344C325.694 317.529 325.437 317.633 325.17 317.634Z" fill="#29263B"/>
<path fill-rule="evenodd" clip-rule="evenodd" d="M325.318 54.479C325.25 40.522 336.092 28.405 360.36 27.924C384.628 27.443 400.826 42.644 397.926 54.415C394.143 69.772 367.776 74.084 368.205 90.285C368.27 92.749 352.217 92.527 352.217 90.061C351.848 73.924 383.87 66.127 384.354 54.114C384.777 43.582 376.175 37.872 360.491 37.872C349.591 37.872 340.436 43.486 339.633 54.353C339.496 56.653 325.333 56.779 325.318 54.479Z" fill="#E1B100"/>
<path fill-rule="evenodd" clip-rule="evenodd" d="M360.122 97.94C366.238 97.94 371.203 101.228 371.203 105.28C371.203 109.332 366.238 112.619 360.122 112.619C354.006 112.619 349.042 109.331 349.042 105.28C349.042 101.229 354.008 97.94 360.122 97.94Z" fill="#E1B100"/>
</svg>