<?xml version="1.0" encoding="utf-8"?><!-- Uploaded to: SVG Repo, www.svgrepo.com, Generator: SVG Repo Mixer Tools -->
<svg width="800px" height="800px" viewBox="0 0 500 500" fill="none" xmlns="http://www.w3.org/2000/svg">
<path fill-rule="evenodd" clip-rule="evenodd" d="M336.512 71.725C331.891 80.314 324.222 85.696 313.237 87.595C318.303 92.9946 325.092 96.46 332.437 97.395C293.878 169.309 303.254 214.23 340.128 260.061L325.823 255.399L334.513 271.033C266.713 317.689 162.339 320.823 77.792 292.317L93.612 277.317L65.017 285.15C91.017 248.718 66.176 178.806 94.417 121.168C120.494 67.939 185.99 44.687 245.984 50.155C289.474 54.117 321.029 73.923 336.515 71.725H336.512Z" fill="#494F9B"/>
<path fill-rule="evenodd" clip-rule="evenodd" d="M370.157 324.629C368.4 315.129 347.884 297.704 344.303 287.972C336.889 267.835 343.916 250.623 336.581 245.741C331.475 242.341 318.66 243.783 323.227 280.722C308.075 274.449 304.998 287.322 305.395 291.566C299.017 291.922 294.567 302.444 297.644 308.359C294.425 325.753 301.77 331.504 315.064 327.551C322.915 336.451 331.394 337.425 343.185 334.464C343.365 350.032 336.291 357.54 331.479 368.415L317 356.24L297.9 383.482C297.9 383.482 322.346 409.346 335.105 407.264C365.721 402.275 372.205 335.715 370.155 324.629H370.157Z" fill="#FFA775"/>
<path d="M330.9 376.5C330.573 376.5 330.26 376.37 330.028 376.14C329.796 375.91 329.664 375.597 329.662 375.27L329.618 369.075C329.617 368.912 329.648 368.751 329.709 368.601C329.77 368.45 329.86 368.313 329.974 368.197C330.088 368.082 330.224 367.989 330.374 367.926C330.524 367.863 330.684 367.83 330.847 367.829H330.856C331.183 367.829 331.496 367.959 331.728 368.189C331.96 368.419 332.092 368.732 332.094 369.059L332.138 375.254C332.139 375.416 332.108 375.578 332.047 375.728C331.986 375.879 331.896 376.016 331.782 376.132C331.668 376.247 331.532 376.339 331.382 376.403C331.232 376.466 331.071 376.499 330.909 376.5H330.9Z" fill="#29263B"/>
<path fill-rule="evenodd" clip-rule="evenodd" d="M256.635 314.62C256.635 314.62 274.647 321.353 280.448 324.534C293.339 331.605 331.192 364.934 331.192 364.934C321.057 370.6 308.392 384.993 304.299 398.534L317.69 463.091C300.12 489.77 200.66 498.456 186.044 480.722C178.435 457.186 166.829 444.257 145.668 436.322C145.668 436.322 145.737 383.301 165.292 349.822C174.573 333.933 197.064 316.8 197.064 316.8L256.635 314.618V314.62Z" fill="#8ED8AA"/>
<path d="M303.148 398.19C302.865 398.19 302.59 398.092 302.37 397.914C302.149 397.736 301.997 397.487 301.938 397.21C299.547 386.518 296.392 376.012 292.497 365.772C292.39 365.466 292.407 365.13 292.545 364.837C292.684 364.543 292.931 364.316 293.235 364.203C293.539 364.09 293.875 364.101 294.171 364.233C294.467 364.366 294.699 364.609 294.818 364.911C298.765 375.26 301.954 385.882 304.36 396.694C304.394 396.853 304.396 397.017 304.367 397.177C304.337 397.337 304.276 397.489 304.188 397.626C304.099 397.762 303.985 397.88 303.851 397.972C303.717 398.064 303.566 398.129 303.407 398.163C303.322 398.181 303.235 398.19 303.148 398.19Z" fill="#29263B"/>
<path fill-rule="evenodd" clip-rule="evenodd" d="M257.13 310.973L264.355 315.624C264.355 315.624 282.155 346.524 265.501 353.524C252.075 359.161 236.841 346.859 236.841 346.859C236.841 346.859 227.556 363.459 210.32 361.397C190.308 358.997 186.708 320.256 186.708 320.256L194.96 313.656L257.13 310.973Z" fill="white"/>
<path fill-rule="evenodd" clip-rule="evenodd" d="M187.751 437.845C174.885 442.437 156.168 440.166 145.715 433.669C143.967 452.669 143.973 469.528 145.879 484.069C156.543 490.226 171.629 490.699 189.234 486.006C185.899 469.985 185.795 454.285 187.751 437.848V437.845Z" fill="#FFA775"/>
<path d="M187.831 439.052C187.775 439.052 187.72 439.048 187.665 439.04C187.504 439.018 187.348 438.965 187.208 438.884C187.067 438.802 186.944 438.693 186.845 438.564C186.747 438.435 186.675 438.287 186.633 438.13C186.591 437.973 186.581 437.809 186.603 437.648C187.903 427.932 190.078 419.797 193.052 413.468C193.118 413.317 193.214 413.18 193.334 413.066C193.454 412.953 193.596 412.864 193.751 412.806C193.906 412.748 194.07 412.722 194.235 412.728C194.401 412.735 194.563 412.775 194.712 412.845C194.862 412.915 194.996 413.015 195.106 413.138C195.217 413.261 195.302 413.404 195.356 413.561C195.41 413.717 195.432 413.882 195.421 414.047C195.41 414.212 195.366 414.373 195.292 414.521C192.426 420.621 190.327 428.513 189.056 437.979C189.016 438.276 188.87 438.548 188.645 438.745C188.419 438.942 188.13 439.051 187.831 439.052Z" fill="#29263B"/>
<path fill-rule="evenodd" clip-rule="evenodd" d="M294.1 110.123C294.1 110.123 341.3 180.475 337.043 224.423C332.534 270.988 275.355 282.99 245.46 284.363C240.938 298.324 245.677 311.073 257.397 315.924C253.944 326.912 246.921 336.432 237.442 342.974C224.964 338.829 211.597 330.474 197.116 316.856C209.273 312.311 216.331 293.266 192.694 257.419C149.887 277.56 132.033 214.899 178.794 221.897C166.177 197.914 156.757 175.66 151.182 148.71L171.052 133.227L168.917 108.369L178.249 129.155L217.088 117.255L214.061 94.075L227.339 112.921L266.339 108.713L260.626 89.095L277.249 108.351L294.101 110.124L294.1 110.123Z" fill="#FFA775"/>
<path fill-rule="evenodd" clip-rule="evenodd" d="M223.6 281.931C225.728 288.875 231.891 295.999 243.988 297.831C243.499 293.286 244.002 288.689 245.463 284.357C238.516 284.609 231.767 283.742 223.6 281.931Z" fill="#F08855"/>
<path d="M285.526 190.368C285.348 190.367 285.173 190.329 285.012 190.254C284.85 190.18 284.707 190.072 284.59 189.938C284.474 189.804 284.388 189.646 284.338 189.475C284.288 189.305 284.275 189.126 284.3 188.95C285.513 180.698 284.573 175.234 281.507 172.71C278.441 170.186 272.907 170.3 265.075 173.063C264.921 173.122 264.756 173.15 264.591 173.144C264.426 173.138 264.263 173.1 264.113 173.03C263.963 172.961 263.829 172.862 263.718 172.74C263.606 172.618 263.521 172.475 263.466 172.319C263.411 172.163 263.387 171.998 263.397 171.833C263.407 171.668 263.45 171.506 263.523 171.358C263.596 171.21 263.698 171.078 263.823 170.97C263.948 170.862 264.094 170.78 264.251 170.729C273.081 167.615 279.24 167.637 283.081 170.799C286.922 173.961 288.116 180.012 286.75 189.31C286.706 189.604 286.559 189.872 286.334 190.066C286.11 190.26 285.823 190.367 285.526 190.368Z" fill="#29263B"/>
<path fill-rule="evenodd" clip-rule="evenodd" d="M275.718 218.962C283.298 220.203 284.196 239.811 272.225 239.262C260.254 238.713 264.688 217.153 275.718 218.962Z" fill="#971B1B"/>
<path d="M184.628 149.272C184.382 149.272 184.136 149.241 183.897 149.181C183.133 148.987 182.478 148.498 182.075 147.821C181.672 147.144 181.554 146.335 181.747 145.571C184.924 133.026 192.826 126.324 204.598 126.19C205.382 126.192 206.135 126.5 206.695 127.049C207.255 127.597 207.579 128.343 207.598 129.127C207.605 129.914 207.3 130.672 206.75 131.234C206.199 131.797 205.448 132.118 204.661 132.127C195.502 132.227 190.05 136.965 187.501 147.027C187.34 147.667 186.97 148.236 186.449 148.642C185.929 149.049 185.288 149.27 184.628 149.272Z" fill="#29263B"/>
<path d="M294.587 133.176C293.992 133.176 293.411 132.998 292.919 132.664C292.427 132.33 292.046 131.856 291.826 131.303C291.253 129.725 290.326 128.299 289.118 127.134C287.909 125.97 286.449 125.097 284.851 124.583C283.627 124.241 282.339 124.193 281.092 124.444C279.846 124.694 278.676 125.236 277.679 126.024C277.052 126.501 276.261 126.71 275.48 126.604C274.698 126.498 273.991 126.086 273.514 125.459C273.037 124.832 272.828 124.041 272.934 123.259C273.04 122.478 273.452 121.771 274.079 121.294C275.801 119.943 277.818 119.017 279.966 118.594C282.114 118.171 284.331 118.261 286.437 118.858C288.918 119.617 291.191 120.935 293.082 122.711C294.974 124.486 296.432 126.672 297.346 129.1C297.525 129.551 297.591 130.038 297.538 130.52C297.485 131.002 297.316 131.464 297.044 131.865C296.772 132.267 296.406 132.596 295.977 132.823C295.549 133.051 295.072 133.17 294.587 133.171V133.176Z" fill="#29263B"/>
<path fill-rule="evenodd" clip-rule="evenodd" d="M204.528 149.479C201.152 150.565 200.175 156.936 202.348 163.695C204.521 170.454 209.031 175.062 212.411 173.975C215.791 172.888 216.763 166.517 214.59 159.758C212.417 152.999 207.907 148.392 204.528 149.479Z" fill="#29263B"/>
<path d="M181.042 246C180.874 246 180.707 245.966 180.552 245.9C180.397 245.833 180.258 245.736 180.142 245.613C174.337 239.486 167.264 237.313 158.517 238.974C158.356 239.008 158.19 239.009 158.028 238.978C157.866 238.947 157.712 238.884 157.575 238.793C157.438 238.702 157.321 238.584 157.23 238.447C157.139 238.31 157.076 238.155 157.045 237.994C157.014 237.832 157.016 237.666 157.051 237.505C157.085 237.343 157.151 237.191 157.245 237.056C157.339 236.92 157.459 236.805 157.598 236.717C157.737 236.629 157.893 236.569 158.055 236.542C167.563 234.735 175.598 237.217 181.939 243.91C182.105 244.086 182.216 244.307 182.259 244.545C182.301 244.783 182.272 245.029 182.177 245.251C182.081 245.473 181.922 245.663 181.72 245.796C181.518 245.929 181.281 246 181.039 246H181.042Z" fill="#29263B"/>
<path fill-rule="evenodd" clip-rule="evenodd" d="M286.583 136.065C283.472 136.856 282.272 142.726 283.909 149.165C285.546 155.604 289.402 160.185 292.517 159.391C295.632 158.597 296.825 152.733 295.191 146.296C293.557 139.859 289.698 135.276 286.583 136.066V136.065Z" fill="#29263B"/>
<path d="M297.98 309.682C297.778 309.682 297.578 309.632 297.4 309.537C297.221 309.442 297.069 309.304 296.955 309.136C296.842 308.969 296.772 308.776 296.75 308.575C296.729 308.373 296.757 308.17 296.832 307.982C297.242 306.894 297.871 305.901 298.679 305.065C299.487 304.23 300.458 303.568 301.532 303.122C305.006 301.651 309.777 302.072 315.332 304.344C315.485 304.404 315.625 304.493 315.744 304.607C315.862 304.721 315.956 304.858 316.021 305.009C316.086 305.16 316.121 305.323 316.122 305.487C316.123 305.652 316.092 305.815 316.03 305.967C315.967 306.119 315.875 306.258 315.759 306.374C315.643 306.49 315.504 306.582 315.352 306.644C315.2 306.706 315.037 306.738 314.872 306.736C314.708 306.734 314.545 306.7 314.394 306.635C309.537 304.648 305.311 304.208 302.494 305.402C301.723 305.724 301.026 306.201 300.446 306.803C299.866 307.405 299.416 308.119 299.123 308.902C299.032 309.131 298.874 309.328 298.671 309.467C298.467 309.606 298.227 309.681 297.98 309.682Z" fill="#29263B"/>
<path d="M314.563 328.238C314.395 328.238 314.228 328.204 314.073 328.138C313.918 328.072 313.779 327.974 313.663 327.852C312.324 326.487 311.267 324.871 310.553 323.097C309.84 321.323 309.483 319.425 309.503 317.513C309.52 317.187 309.662 316.88 309.9 316.656C310.138 316.433 310.453 316.31 310.78 316.313C310.943 316.318 311.103 316.355 311.251 316.422C311.399 316.489 311.533 316.584 311.645 316.703C311.756 316.822 311.843 316.961 311.901 317.113C311.958 317.265 311.985 317.427 311.98 317.59C311.961 320.791 313.213 323.868 315.461 326.147C315.628 326.323 315.739 326.544 315.782 326.782C315.824 327.02 315.796 327.266 315.7 327.489C315.604 327.711 315.445 327.901 315.243 328.034C315.04 328.167 314.803 328.237 314.561 328.237L314.563 328.238Z" fill="#29263B"/>
<path d="M316.534 295.528C316.34 295.528 316.15 295.482 315.977 295.395C311.449 293.107 307.677 292.21 305.626 292.94C305.316 293.05 304.976 293.032 304.68 292.891C304.383 292.749 304.155 292.496 304.045 292.186C303.936 291.877 303.954 291.537 304.095 291.24C304.236 290.944 304.489 290.716 304.799 290.606C308.292 289.367 313.413 291.325 317.093 293.186C317.342 293.311 317.541 293.517 317.659 293.77C317.776 294.022 317.805 294.307 317.74 294.578C317.675 294.849 317.521 295.09 317.302 295.263C317.083 295.435 316.813 295.529 316.534 295.528Z" fill="#29263B"/>
<path fill-rule="evenodd" clip-rule="evenodd" d="M348.282 41.577C348.201 24.988 361.087 10.585 389.933 10.013C418.779 9.441 438.033 27.513 434.585 41.501C430.085 59.754 398.748 64.88 399.258 84.136C399.335 87.065 380.258 86.801 380.258 83.87C379.819 64.69 417.882 55.422 418.458 41.143C418.958 28.625 408.736 21.843 390.094 21.843C377.142 21.843 366.256 28.515 365.302 41.432C365.138 44.163 348.302 44.316 348.287 41.582L348.282 41.577Z" fill="#E1B100"/>
<path fill-rule="evenodd" clip-rule="evenodd" d="M389.65 93.236C396.919 93.236 402.821 97.144 402.821 101.961C402.821 106.778 396.921 110.683 389.65 110.683C382.379 110.683 376.481 106.775 376.481 101.961C376.481 97.147 382.381 93.236 389.65 93.236Z" fill="#E1B100"/>
</svg>