<?xml version="1.0" encoding="utf-8"?><!-- Uploaded to: SVG Repo, www.svgrepo.com, Generator: SVG Repo Mixer Tools -->
<svg width="800px" height="800px" viewBox="0 0 500 500" fill="none" xmlns="http://www.w3.org/2000/svg">
<path fill-rule="evenodd" clip-rule="evenodd" d="M363.29 82.823C342.442 52.677 288.669 26.588 255.047 34.665C234.279 39.654 237.811 60.49 229.947 62.728C222.083 64.966 181.078 79.854 177.259 103.62C173.44 127.386 190.038 129.512 189.498 137.72C188.958 145.928 162.382 174.02 173.047 194.237C183.712 214.454 197.409 214.508 198.198 223.186C198.987 231.864 211.161 307.053 236.241 330.708C261.321 354.363 317.007 441.13 331.933 426.151C346.859 411.172 344.322 412.351 355.502 405.54C363.238 400.828 381.288 396.84 390.524 373.191C399.333 350.633 379.952 317.218 381.61 302.983C382.339 296.716 404.333 289.522 398.759 261.627C393.185 233.732 371.501 207.035 371.859 191.353C372.034 183.582 385.33 183.708 389.225 161.839C392.277 144.701 378.702 105.109 363.292 82.825L363.29 82.823Z" fill="#5C00BA"/>
<path fill-rule="evenodd" clip-rule="evenodd" d="M154.093 303.934C145.912 288.122 139.468 271.591 140.177 253.134C149.115 251.361 156.065 245.334 158.377 229.934C157.648 234.79 167.648 237.39 171.952 235.717C181.08 232.164 188.127 216.717 184.606 212.108C187.72 207.339 191.845 198.457 186.637 193.981C186.637 193.981 191.098 180.15 184.837 177.181C179.106 174.465 167.858 174.868 167.858 174.868C173.093 169.279 177.35 165.253 182.166 160.223C185.594 161.049 192.506 162.13 195.166 161.929C208.407 160.929 210.041 146.588 203.95 145.866C181.989 143.273 178.082 140.176 173.475 142.961C169.94 145.096 143.075 170.943 140.475 174.884C128.349 193.208 105.835 226.534 101.72 242.901C95.4969 267.653 110.31 393.969 144.953 393.438C167.272 393.095 185.208 363.738 190.964 348.33C185.336 327.588 170.954 299.192 154.095 303.93L154.093 303.934Z" fill="#FFA775"/>
<path d="M158.791 229.937C158.706 229.937 158.622 229.926 158.54 229.904C158.292 229.837 158.08 229.675 157.951 229.452C157.823 229.23 157.788 228.965 157.854 228.717C158.773 225.201 159.379 221.609 159.663 217.986C159.678 217.811 159.74 217.644 159.843 217.501C159.946 217.359 160.086 217.247 160.247 217.178C160.408 217.109 160.586 217.085 160.76 217.108C160.934 217.132 161.098 217.202 161.235 217.312C163.661 219.312 166.406 220.89 169.356 221.979C169.598 222.065 169.797 222.243 169.908 222.475C170.018 222.707 170.033 222.974 169.947 223.216C169.861 223.458 169.683 223.657 169.451 223.768C169.219 223.879 168.952 223.893 168.71 223.807C166.107 222.86 163.653 221.543 161.426 219.896C161.1 223.042 160.532 226.158 159.726 229.217C159.671 229.423 159.549 229.605 159.38 229.735C159.211 229.865 159.004 229.936 158.791 229.937Z" fill="#29263B"/>
<path fill-rule="evenodd" clip-rule="evenodd" d="M231.518 227.2C222.168 222.969 207.963 213.135 193.536 220.994C173.284 232.023 153.586 303.911 153.586 303.911C162.503 302.682 169.735 316.811 176.029 327.261C188.129 381.746 188.111 427.428 187.181 472.45C233.433 496.071 303.392 495.628 342.407 472.435C342.407 472.435 341.895 419.465 345.087 402.867C348.077 387.32 374.933 366.767 374.933 366.767C374.933 366.767 402.762 269.588 378.933 241.203C364.475 223.982 342.926 224.99 316.633 234.881C281.014 248.275 244.905 233.259 231.525 227.204L231.518 227.2Z" fill="#FFC764"/>
<path fill-rule="evenodd" clip-rule="evenodd" d="M225.111 114.9C225.111 114.9 204.028 174.455 214.527 192.822C225.026 211.189 254.815 215.536 254.815 215.536L252.447 234.436L230.99 227.011C224.79 250.317 230.547 276.929 245.834 299.929C266.029 284.773 289.721 263.47 317.668 234.685C317.668 234.685 298.55 242.816 294.954 234.865C291.358 226.914 306.028 194.541 306.028 194.541C328.868 209.7 346.844 174.824 317.807 171.001C323.216 148.992 311.261 147.363 310.718 136.634C310.025 122.877 323.128 121.663 322.832 106.897C299.532 114.275 293.017 88.156 270.445 95.697C251.528 102.02 252.537 117.121 225.111 114.897V114.9Z" fill="#FFA775"/>
<path fill-rule="evenodd" clip-rule="evenodd" d="M283.455 212.536C278.206 215.536 263.13 216.893 254.815 215.536L253.415 226.684C267.407 227.349 277.015 221.388 283.455 212.536Z" fill="#F08855"/>
<path fill-rule="evenodd" clip-rule="evenodd" d="M316.226 353.55L309.085 377.986C309.085 377.986 214.439 378.223 207.257 379.073C185.512 381.651 158.329 397.539 152.699 401.785C145.699 407.062 144.549 419.856 156.849 422.773C162.092 436.729 169.903 456.059 177.099 457.852C187.107 460.352 189.07 451.546 189.21 445.252C195.565 451.39 220.522 449.78 225.423 432.871C240.596 435.054 332.028 436.704 343.948 428.038C355.868 419.372 374.611 366.393 374.611 366.393C360.042 354.106 338.549 350.446 316.226 353.552V353.55Z" fill="#FFA775"/>
<path d="M317 387.947C316.859 387.947 316.719 387.917 316.591 387.857C316.463 387.798 316.35 387.712 316.259 387.604L307.534 377.273C307.452 377.176 307.39 377.063 307.351 376.942C307.312 376.821 307.298 376.693 307.309 376.566C307.32 376.44 307.355 376.316 307.414 376.203C307.472 376.09 307.552 375.99 307.649 375.907C307.747 375.825 307.859 375.763 307.98 375.725C308.102 375.686 308.229 375.672 308.356 375.682C308.483 375.693 308.606 375.729 308.719 375.787C308.832 375.846 308.933 375.926 309.015 376.023L317.74 386.354C317.859 386.495 317.936 386.667 317.96 386.85C317.985 387.033 317.956 387.219 317.879 387.387C317.801 387.554 317.677 387.696 317.521 387.795C317.365 387.894 317.185 387.947 317 387.947Z" fill="#29263B"/>
<path d="M184.834 213.083C184.578 213.083 184.333 212.982 184.152 212.801C178.156 206.929 171.017 202.352 163.179 199.352C162.94 199.256 162.75 199.068 162.649 198.831C162.548 198.594 162.546 198.327 162.643 198.089C162.739 197.85 162.926 197.659 163.163 197.559C163.4 197.458 163.667 197.456 163.906 197.552C171.984 200.646 179.339 205.367 185.517 211.422C185.653 211.557 185.746 211.73 185.784 211.918C185.822 212.107 185.803 212.302 185.73 212.479C185.657 212.657 185.533 212.809 185.373 212.916C185.214 213.023 185.026 213.08 184.834 213.08V213.083Z" fill="#29263B"/>
<path d="M186.875 194.865C186.744 194.865 186.614 194.838 186.494 194.787C177.977 191.116 168.941 188.795 159.709 187.906C159.582 187.893 159.46 187.855 159.348 187.794C159.236 187.734 159.137 187.652 159.057 187.553C158.976 187.454 158.916 187.341 158.88 187.219C158.844 187.097 158.832 186.969 158.845 186.842C158.858 186.715 158.896 186.593 158.957 186.481C159.017 186.369 159.099 186.27 159.198 186.19C159.297 186.109 159.411 186.049 159.533 186.013C159.654 185.977 159.782 185.965 159.909 185.978C169.336 186.886 178.563 189.256 187.26 193.005C187.465 193.093 187.634 193.249 187.738 193.447C187.841 193.645 187.873 193.872 187.828 194.091C187.783 194.31 187.664 194.506 187.491 194.647C187.318 194.788 187.101 194.865 186.878 194.865H186.875Z" fill="#29263B"/>
<path d="M156.065 175.758C155.813 175.75 155.574 175.644 155.399 175.463C155.224 175.282 155.126 175.04 155.126 174.788C155.126 174.537 155.224 174.295 155.399 174.114C155.574 173.933 155.813 173.827 156.065 173.819L167.993 173.77C168.25 173.769 168.497 173.87 168.679 174.051C168.862 174.232 168.965 174.478 168.966 174.735C168.967 174.992 168.866 175.239 168.685 175.421C168.504 175.604 168.258 175.707 168.001 175.708L156.072 175.758H156.065Z" fill="#29263B"/>
<path d="M175.727 327.529C175.499 327.529 175.279 327.448 175.105 327.302C174.93 327.156 174.813 326.953 174.773 326.729C172.199 311.914 194.963 272.764 195.934 271.105C195.997 270.994 196.082 270.896 196.184 270.818C196.285 270.74 196.401 270.682 196.525 270.649C196.649 270.616 196.778 270.608 196.905 270.625C197.032 270.642 197.154 270.684 197.265 270.749C197.375 270.813 197.472 270.899 197.549 271.001C197.626 271.104 197.683 271.22 197.714 271.344C197.746 271.468 197.753 271.598 197.735 271.724C197.716 271.851 197.673 271.973 197.607 272.083C197.373 272.483 174.229 312.276 176.683 326.397C176.727 326.65 176.668 326.91 176.52 327.121C176.372 327.331 176.147 327.474 175.894 327.518C175.839 327.526 175.783 327.53 175.727 327.529Z" fill="#29263B"/>
<path d="M311.145 355.291C310.995 355.291 310.847 355.257 310.713 355.19C310.579 355.124 310.462 355.027 310.371 354.907C310.281 354.788 310.219 354.649 310.192 354.501C310.164 354.354 310.171 354.202 310.212 354.058C315.712 334.734 318.866 318.313 319.872 303.858C319.879 303.73 319.911 303.605 319.967 303.49C320.023 303.375 320.101 303.272 320.198 303.188C320.294 303.104 320.407 303.041 320.528 303.001C320.65 302.961 320.779 302.947 320.906 302.958C321.033 302.967 321.157 303 321.271 303.057C321.385 303.114 321.487 303.193 321.57 303.289C321.654 303.385 321.718 303.496 321.758 303.617C321.799 303.738 321.815 303.865 321.806 303.992C320.816 318.22 317.767 334.31 312.488 353.135L316.294 352.546C316.42 352.526 316.548 352.532 316.672 352.562C316.796 352.591 316.912 352.646 317.015 352.721C317.118 352.796 317.205 352.89 317.272 352.999C317.338 353.108 317.382 353.228 317.402 353.354C317.422 353.48 317.416 353.608 317.386 353.732C317.357 353.856 317.303 353.972 317.227 354.075C317.152 354.178 317.058 354.265 316.949 354.332C316.841 354.398 316.72 354.442 316.594 354.462L311.294 355.281C311.245 355.288 311.195 355.292 311.145 355.291Z" fill="#29263B"/>
<path d="M242.114 167.345C242.003 167.345 241.892 167.326 241.787 167.289C241.445 167.166 233.428 164.232 233.64 159.058C233.834 154.285 241.888 140.872 246.307 136.971C246.402 136.887 246.513 136.822 246.634 136.781C246.754 136.739 246.882 136.722 247.009 136.73C247.136 136.738 247.26 136.771 247.374 136.827C247.489 136.883 247.591 136.961 247.675 137.056C247.759 137.151 247.824 137.262 247.865 137.383C247.907 137.503 247.924 137.631 247.916 137.758C247.908 137.885 247.875 138.009 247.819 138.123C247.763 138.238 247.685 138.34 247.59 138.424C243.6 141.946 235.749 154.924 235.576 159.137C235.449 162.254 240.489 164.761 242.441 165.464C242.656 165.541 242.836 165.691 242.951 165.889C243.066 166.086 243.107 166.317 243.068 166.542C243.029 166.767 242.912 166.971 242.737 167.117C242.563 167.264 242.342 167.345 242.114 167.345Z" fill="#29263B"/>
<path d="M260.4 185.684C260.218 185.684 260.04 185.633 259.886 185.536C259.731 185.44 259.607 185.302 259.528 185.138C258.951 183.795 258.114 182.58 257.065 181.562C256.017 180.544 254.777 179.743 253.418 179.206C252.569 178.899 251.666 178.766 250.765 178.813C249.863 178.859 248.979 179.086 248.166 179.479C247.936 179.594 247.67 179.613 247.426 179.532C247.182 179.451 246.981 179.276 246.866 179.046C246.75 178.817 246.731 178.551 246.812 178.307C246.894 178.063 247.068 177.861 247.298 177.746C248.34 177.238 249.474 176.943 250.632 176.878C251.79 176.814 252.949 176.981 254.041 177.371C255.644 177.989 257.108 178.919 258.349 180.107C259.591 181.294 260.584 182.717 261.271 184.291C261.343 184.439 261.376 184.602 261.367 184.766C261.358 184.93 261.308 185.089 261.221 185.228C261.134 185.367 261.013 185.482 260.869 185.562C260.726 185.642 260.564 185.684 260.4 185.684Z" fill="#29263B"/>
<path d="M297.474 131.85C296.967 131.85 296.475 131.684 296.071 131.378C295.667 131.072 295.374 130.643 295.236 130.155C293.936 125.542 291.994 122.49 289.471 121.087C287.248 119.852 284.409 119.758 280.79 120.8C280.201 120.958 279.574 120.878 279.044 120.579C278.513 120.279 278.121 119.783 277.952 119.198C277.784 118.613 277.851 117.984 278.141 117.448C278.43 116.912 278.919 116.511 279.501 116.331C284.301 114.946 288.418 115.179 291.731 117.021C295.431 119.077 298.039 122.96 299.714 128.892C299.811 129.238 299.827 129.602 299.76 129.955C299.693 130.308 299.546 130.641 299.329 130.927C299.112 131.214 298.831 131.446 298.51 131.606C298.188 131.766 297.833 131.85 297.474 131.85Z" fill="#29263B"/>
<path d="M229.981 125.021C229.565 125.02 229.156 124.908 228.798 124.696C228.44 124.483 228.146 124.179 227.945 123.814C227.745 123.449 227.646 123.038 227.659 122.622C227.672 122.206 227.796 121.801 228.019 121.449C233.027 113.549 238.886 114.4 242.919 116.503C243.466 116.788 243.877 117.279 244.062 117.868C244.248 118.456 244.191 119.094 243.906 119.641C243.621 120.188 243.13 120.599 242.541 120.784C241.953 120.969 241.315 120.913 240.768 120.628C238.147 119.26 235.268 118.714 231.95 123.94C231.74 124.272 231.449 124.545 231.105 124.734C230.76 124.923 230.374 125.022 229.981 125.021Z" fill="#29263B"/>
<path fill-rule="evenodd" clip-rule="evenodd" d="M284.857 129.365C287.152 129.952 288.063 134.152 286.891 138.739C285.719 143.326 282.901 146.574 280.609 145.987C278.317 145.4 277.403 141.199 278.576 136.613C279.749 132.027 282.563 128.778 284.857 129.365Z" fill="#29263B"/>
<path fill-rule="evenodd" clip-rule="evenodd" d="M235.6 126.052C237.715 126.464 238.761 130.231 237.94 134.458C237.119 138.685 234.731 141.779 232.617 141.367C230.503 140.955 229.456 137.19 230.277 132.967C231.098 128.744 233.486 125.643 235.6 126.055V126.052Z" fill="#29263B"/>
<path d="M314.009 189.839C313.812 189.839 313.618 189.787 313.448 189.688C313.19 189.539 313.001 189.294 312.924 189.006C312.846 188.717 312.886 188.41 313.035 188.152C316.145 182.752 321.078 180.234 327.699 180.661C327.848 180.668 327.995 180.704 328.13 180.768C328.265 180.832 328.386 180.923 328.486 181.034C328.586 181.145 328.662 181.276 328.711 181.417C328.76 181.558 328.78 181.708 328.771 181.857C328.761 182.006 328.722 182.152 328.655 182.286C328.589 182.42 328.496 182.539 328.383 182.636C328.27 182.734 328.138 182.808 327.996 182.855C327.854 182.901 327.704 182.918 327.555 182.906C321.775 182.528 317.668 184.618 314.984 189.275C314.886 189.447 314.744 189.589 314.572 189.688C314.401 189.787 314.207 189.839 314.009 189.839Z" fill="#494645"/>
<path fill-rule="evenodd" clip-rule="evenodd" d="M105.728 34.724C105.665 21.735 115.755 10.458 138.34 10.01C160.925 9.562 176 23.709 173.3 34.665C169.779 48.957 145.24 52.97 145.64 68.047C145.7 70.341 130.76 70.134 130.76 67.839C130.416 52.821 160.219 45.565 160.669 34.384C161.063 24.584 153.057 19.269 138.461 19.269C128.319 19.269 119.796 24.493 119.049 34.607C118.921 36.745 105.737 36.865 105.726 34.724H105.728Z" fill="#E1B100"/>
<path fill-rule="evenodd" clip-rule="evenodd" d="M138.119 75.172C143.811 75.172 148.431 78.232 148.431 82.003C148.431 85.774 143.811 88.833 138.119 88.833C132.427 88.833 127.808 85.773 127.808 82.003C127.808 78.233 132.428 75.172 138.119 75.172Z" fill="#E1B100"/>
</svg>