<?xml version="1.0" encoding="utf-8"?><!-- Uploaded to: SVG Repo, www.svgrepo.com, Generator: SVG Repo Mixer Tools -->
<svg width="800px" height="800px" viewBox="0 0 500 500" fill="none" xmlns="http://www.w3.org/2000/svg">
<path fill-rule="evenodd" clip-rule="evenodd" d="M326.559 83.431C323.753 40.631 298.282 17.165 287.317 39.421C261.36 0.624025 235.279 5.45103 231.923 23.884C191.643 9.88403 170.657 18.801 179.903 44.328C138.246 52.637 129.282 69.528 142.47 88.871C114.159 113.685 117.498 129.321 130.902 139.471C114.178 161.693 124.621 165.791 130.143 170.032C119.966 186.252 121.274 196.764 134.45 200.446C131.55 223.91 140.099 231.746 156.786 228.878C162.372 241.478 171.605 248.085 195.337 237.292C199.237 259.361 213.074 260.528 233.047 248.773C247.1 262.86 258.931 266.746 266.773 252.331C285.532 259.123 293.041 259.093 291.984 241.879C305.242 250.93 315.229 251.662 315.672 230.907C332.782 236.395 343.9 221.296 332.546 187.353C356.217 185.116 358.346 166.673 343.336 132.125C361.759 120.525 350.789 95.738 326.559 83.433V83.431Z" fill="#29263B"/>
<path fill-rule="evenodd" clip-rule="evenodd" d="M295.293 172.841C326.893 173.441 312.993 218.006 281.622 197.472L295.293 172.841Z" fill="#915839"/>
<path fill-rule="evenodd" clip-rule="evenodd" d="M179.662 149.291C151.346 135.24 143.114 181.191 180.42 177.451L179.662 149.291Z" fill="#915839"/>
<path fill-rule="evenodd" clip-rule="evenodd" d="M204.617 268.568C253.082 271.751 291.064 244.34 310.801 258.911C340.906 281.14 319.426 336.511 289.601 380.788C267.335 413.836 262.941 460.818 261.618 478.588C217.233 497.551 169.862 492.167 126.235 467.783C132.315 414.194 110.473 393.456 116.289 355.719C108.675 359.058 87.0279 370.084 79.4889 362.946C79.4889 362.946 78.8759 262.496 115.202 249.771C138.676 241.549 155.602 265.354 204.619 268.571L204.617 268.568Z" fill="#C186EA"/>
<path fill-rule="evenodd" clip-rule="evenodd" d="M309.439 149.945C309.439 149.945 289.564 198.289 269.876 214.906C254.118 228.206 242.146 232.406 233.376 237.417C223.743 242.917 223.994 261.776 226.501 264.446C229.794 267.955 243.507 266.968 254.031 264.026C239.47 294.902 220.531 319.232 195.997 335.182C181.897 319.962 172.282 295.768 162.277 261.436C162.277 261.436 179.271 263.707 186.377 258.471C193.105 253.51 196.512 239.513 192.565 225.265C188.618 211.017 182.289 207.321 178.765 188.718C175.465 171.277 176.654 102.474 176.654 102.474C180.066 111.55 190.603 109.882 214.486 88.09C209.569 102.49 220.144 103.255 245.506 91.013C246.196 104.765 254.681 106.348 272.906 92.708C277.322 120.557 283.771 132.553 293.6 118.189C294.726 136.734 298.756 149.717 309.446 149.945H309.439Z" fill="#915839"/>
<path fill-rule="evenodd" clip-rule="evenodd" d="M192.557 225.265C194.545 232.215 194.755 239.552 193.169 246.604C206.292 239.604 216.832 242.935 225.069 255.488C225.356 248.929 227.554 240.742 233.369 237.417C215.31 244.414 201.935 239.792 192.557 225.265Z" fill="#7B3711"/>
<path fill-rule="evenodd" clip-rule="evenodd" d="M277.2 273.242C279.486 264.342 283.936 230.43 289.848 216.557C295.76 202.684 279 199.607 272.587 215.883C266.347 231.717 265.487 249.316 265.487 249.316C265.487 249.316 255.305 235.574 248 235.33C240.695 235.086 234.764 243.73 234.764 243.73C221.78 241.561 216.511 246.636 217.783 257.859C204.218 259.7 200.444 290.732 217.238 291.746C210.038 300.335 208.899 307.154 215.718 312.229L203.924 364.804C177.607 375.932 147.798 383.082 128.169 382.931C117.143 376.647 115.869 366.475 116.618 354.997C106.118 353.715 91.325 353.706 80.605 362.526C80.605 362.526 76.187 414.561 95.288 430.265C114.389 445.969 201.127 402.341 201.127 402.341C201.127 402.341 205.392 436.133 220.545 438.859C249.977 444.159 289.819 380.107 289.819 380.107C287.205 376.191 283.651 372.994 279.482 370.807C279.482 370.807 280.226 342.989 272.482 337.535C264.738 332.081 242.972 339.225 242.972 339.225C242.972 339.225 244.918 319.146 246.029 314.613C247.14 310.08 275.515 279.802 277.202 273.236L277.2 273.242Z" fill="#915839"/>
<path d="M217.521 258.6C217.282 258.599 217.051 258.513 216.868 258.359C216.685 258.205 216.562 257.992 216.521 257.756C215.708 253.128 216.89 248.836 219.764 245.982C222.087 243.674 226.603 241.24 234.932 242.768C243.632 244.359 251.267 250.779 255.045 254.468C255.232 254.658 255.337 254.915 255.338 255.182C255.338 255.449 255.234 255.706 255.048 255.897C254.861 256.088 254.607 256.199 254.34 256.205C254.073 256.211 253.814 256.112 253.619 255.929C250.008 252.405 242.731 246.273 234.565 244.779C228.66 243.697 224.039 244.616 221.202 247.433C218.809 249.81 217.836 253.445 218.532 257.405C218.579 257.672 218.518 257.946 218.362 258.168C218.207 258.389 217.97 258.54 217.703 258.587C217.643 258.597 217.582 258.601 217.521 258.6Z" fill="#29263B"/>
<path d="M216.708 292.646C216.595 292.646 216.483 292.628 216.376 292.591C211.243 290.828 207.73 288.042 205.935 284.31C202.935 278.07 205.515 270.851 206.755 267.381L206.814 267.216C209.436 259.875 215.132 257.371 217.106 257.025C222.936 256.014 229.229 258.541 236.913 264.989C237.12 265.163 237.25 265.412 237.274 265.682C237.298 265.952 237.213 266.22 237.039 266.428C236.865 266.635 236.616 266.765 236.346 266.789C236.077 266.812 235.808 266.728 235.601 266.554C228.512 260.603 222.575 258.139 217.457 259.037C215.92 259.306 211.019 261.512 208.737 267.902L208.677 268.068C207.53 271.277 205.143 277.954 207.777 283.425C209.327 286.646 212.444 289.081 217.042 290.661C217.27 290.739 217.464 290.896 217.588 291.104C217.711 291.311 217.757 291.556 217.718 291.794C217.678 292.032 217.555 292.248 217.371 292.405C217.186 292.561 216.952 292.646 216.711 292.646H216.708Z" fill="#29263B"/>
<path d="M213.863 321.191C213.709 321.192 213.556 321.157 213.417 321.09C213.278 321.023 213.156 320.926 213.061 320.805C212.965 320.684 212.898 320.543 212.865 320.392C212.831 320.241 212.833 320.085 212.869 319.935C212.878 319.896 213.762 316.168 214.489 312.295C206.529 303.871 214.019 294.195 216.506 290.984C217.911 289.169 219.5 287.353 221.036 285.597C222.59 283.818 224.189 281.989 225.606 280.153L224.79 279.742C219.895 277.278 215.271 274.952 214.621 270.591C214.59 270.327 214.662 270.061 214.823 269.85C214.985 269.639 215.222 269.499 215.485 269.46C215.748 269.421 216.015 269.486 216.231 269.641C216.447 269.796 216.594 270.029 216.64 270.291C217.134 273.605 221.107 275.605 225.708 277.919C226.338 278.236 226.979 278.559 227.62 278.89C227.751 278.957 227.866 279.053 227.957 279.169C228.048 279.285 228.112 279.419 228.146 279.563C228.18 279.706 228.182 279.856 228.153 280C228.124 280.145 228.063 280.281 227.976 280.4C226.343 282.629 224.426 284.821 222.576 286.941C221.06 288.675 219.492 290.468 218.124 292.235C214.215 297.284 209.775 304.746 216.312 311.235C216.43 311.352 216.517 311.496 216.567 311.654C216.616 311.813 216.627 311.981 216.597 312.144C215.844 316.25 214.869 320.365 214.859 320.406C214.806 320.63 214.679 320.83 214.498 320.972C214.317 321.115 214.093 321.192 213.863 321.191Z" fill="#29263B"/>
<path d="M246.81 402.559C246.573 402.559 246.344 402.476 246.161 402.325C245.979 402.174 245.855 401.964 245.81 401.731C241.842 381.087 240.561 360.016 242 339.043C242.02 338.773 242.147 338.522 242.352 338.346C242.557 338.169 242.824 338.081 243.093 338.101C243.363 338.122 243.614 338.248 243.791 338.453C243.967 338.658 244.055 338.925 244.035 339.195C242.609 359.988 243.878 380.878 247.81 401.345C247.836 401.477 247.835 401.612 247.808 401.743C247.781 401.875 247.728 402 247.653 402.111C247.578 402.222 247.481 402.317 247.369 402.39C247.257 402.464 247.132 402.515 247 402.54C246.937 402.552 246.874 402.559 246.81 402.559Z" fill="#29263B"/>
<path d="M255.845 397C251.69 397 246.352 390.857 243.28 384.781C243.159 384.539 243.139 384.26 243.224 384.003C243.308 383.746 243.492 383.534 243.733 383.412C243.974 383.29 244.254 383.269 244.511 383.353C244.768 383.438 244.981 383.62 245.103 383.861C248.617 390.814 253.734 395.299 256.12 394.939C256.996 394.815 257.592 393.939 257.891 392.339C257.923 392.168 257.998 392.008 258.109 391.875C258.219 391.741 258.363 391.638 258.525 391.575C258.687 391.512 258.862 391.491 259.034 391.515C259.206 391.539 259.369 391.606 259.508 391.711C260.037 392.174 260.683 392.482 261.376 392.6C262.069 392.719 262.781 392.643 263.433 392.382C264.224 391.954 264.887 391.322 265.353 390.552C265.819 389.783 266.071 388.903 266.083 388.003C266.105 387.749 266.222 387.512 266.41 387.34C266.598 387.167 266.844 387.072 267.099 387.072H267.121C268.795 387.106 270.662 386.981 271.86 385.793C273.026 384.636 273.596 382.448 273.554 379.293C273.552 379.157 273.578 379.022 273.63 378.896C273.681 378.77 273.757 378.655 273.854 378.559C274.049 378.366 274.313 378.258 274.587 378.259C276.487 378.298 278.212 377.724 278.461 370.79C278.478 370.522 278.597 370.271 278.794 370.088C278.99 369.905 279.25 369.805 279.518 369.807C279.652 369.812 279.784 369.843 279.906 369.899C280.028 369.954 280.138 370.034 280.229 370.132C280.32 370.23 280.392 370.345 280.438 370.471C280.485 370.596 280.507 370.73 280.502 370.864C280.337 375.431 279.602 379.676 275.592 380.237C275.509 383.501 274.756 385.799 273.3 387.244C271.844 388.541 269.937 389.214 267.989 389.116C267.833 390.21 267.412 391.249 266.763 392.144C266.114 393.038 265.257 393.761 264.265 394.249C263.514 394.576 262.699 394.732 261.88 394.707C261.061 394.682 260.258 394.477 259.528 394.105C259.34 394.831 258.946 395.488 258.392 395.994C257.839 396.501 257.15 396.835 256.41 396.958C256.223 396.985 256.034 396.999 255.845 397Z" fill="#29263B"/>
<path d="M274.547 380.32C274.288 380.32 274.039 380.221 273.85 380.045C273.661 379.868 273.546 379.626 273.529 379.368C272.974 369.786 271.131 360.323 268.048 351.234C267.958 350.979 267.974 350.698 268.091 350.454C268.209 350.21 268.418 350.023 268.673 349.934C268.929 349.844 269.209 349.86 269.453 349.977C269.697 350.094 269.884 350.304 269.974 350.559C273.118 359.821 274.999 369.466 275.566 379.231C275.575 379.365 275.558 379.499 275.515 379.626C275.472 379.753 275.405 379.871 275.316 379.971C275.228 380.072 275.121 380.155 275.001 380.215C274.88 380.274 274.75 380.309 274.616 380.318L274.547 380.32Z" fill="#29263B"/>
<path d="M267.084 389.267C266.82 389.267 266.567 389.164 266.377 388.982C266.187 388.799 266.075 388.55 266.064 388.286C265.56 378.809 263.365 369.498 259.583 360.794C259.527 360.67 259.496 360.536 259.492 360.401C259.488 360.265 259.512 360.129 259.561 360.003C259.61 359.876 259.684 359.76 259.779 359.663C259.873 359.565 259.987 359.487 260.112 359.434C260.237 359.381 260.371 359.353 260.507 359.352C260.643 359.352 260.778 359.378 260.903 359.43C261.029 359.483 261.142 359.559 261.238 359.656C261.333 359.753 261.409 359.868 261.459 359.994C265.339 368.927 267.589 378.483 268.104 388.209C268.109 388.343 268.088 388.477 268.042 388.602C267.996 388.728 267.925 388.843 267.834 388.942C267.743 389.04 267.634 389.12 267.512 389.176C267.39 389.232 267.259 389.264 267.125 389.269L267.084 389.267Z" fill="#29263B"/>
<path d="M258.918 393.965C258.693 393.965 258.475 393.89 258.297 393.754C258.118 393.617 257.99 393.425 257.932 393.208C255.747 384.773 252.55 376.632 248.41 368.965C248.281 368.727 248.252 368.449 248.329 368.19C248.405 367.931 248.581 367.712 248.818 367.583C249.055 367.453 249.334 367.423 249.593 367.499C249.853 367.574 250.072 367.749 250.202 367.986C254.418 375.797 257.675 384.089 259.902 392.681C259.972 392.943 259.935 393.221 259.799 393.456C259.664 393.69 259.441 393.861 259.179 393.931C259.094 393.953 259.006 393.965 258.918 393.965Z" fill="#29263B"/>
<path d="M201.048 403.177C200.791 403.177 200.543 403.079 200.354 402.904C200.166 402.729 200.05 402.489 200.031 402.232C199.419 394.069 199.269 383.263 202.795 365.007C202.812 364.868 202.857 364.734 202.928 364.613C203 364.493 203.095 364.388 203.208 364.305C203.321 364.223 203.45 364.165 203.587 364.134C203.723 364.104 203.865 364.102 204.002 364.129C204.14 364.155 204.27 364.21 204.386 364.289C204.501 364.368 204.599 364.47 204.674 364.589C204.748 364.708 204.797 364.84 204.818 364.979C204.839 365.117 204.831 365.259 204.795 365.394C201.315 383.414 201.461 394.051 202.063 402.08C202.073 402.214 202.057 402.348 202.015 402.475C201.973 402.603 201.906 402.721 201.819 402.822C201.731 402.924 201.625 403.007 201.505 403.068C201.385 403.128 201.255 403.164 201.121 403.174C201.1 403.176 201.074 403.177 201.048 403.177Z" fill="#29263B"/>
<path d="M116.507 356.235C116.461 356.235 116.415 356.232 116.369 356.227C116.101 356.19 115.858 356.049 115.694 355.833C115.53 355.618 115.458 355.346 115.494 355.078C118.079 335.957 122.356 323.5 128.871 308.445C128.984 308.205 129.186 308.018 129.434 307.924C129.682 307.83 129.957 307.837 130.201 307.942C130.444 308.048 130.637 308.244 130.739 308.489C130.84 308.734 130.842 309.009 130.744 309.256C124.3 324.147 120.07 336.464 117.518 355.356C117.484 355.6 117.362 355.823 117.177 355.984C116.991 356.146 116.753 356.235 116.507 356.235Z" fill="#29263B"/>
<path d="M227.016 167.409C226.902 167.409 226.789 167.391 226.682 167.354C226.182 167.18 214.47 163.033 215.498 155.781C216.452 149.046 229.698 134.438 230.262 133.818C230.446 133.625 230.698 133.511 230.965 133.502C231.232 133.492 231.492 133.588 231.689 133.768C231.886 133.947 232.005 134.197 232.021 134.464C232.036 134.73 231.946 134.992 231.771 135.193C228.051 139.278 218.238 150.993 217.519 156.068C216.726 161.662 227.245 165.388 227.351 165.425C227.579 165.504 227.772 165.661 227.895 165.869C228.018 166.076 228.064 166.321 228.023 166.559C227.983 166.797 227.86 167.013 227.675 167.169C227.491 167.324 227.257 167.409 227.016 167.409Z" fill="#29263B"/>
<path d="M232.491 202.315C232.249 202.315 232.015 202.229 231.831 202.072C231.646 201.915 231.524 201.698 231.485 201.459C230.491 195.359 227.885 190.803 224.155 188.638C222.802 187.873 221.293 187.428 219.742 187.335C218.191 187.243 216.639 187.506 215.205 188.105C215.079 188.155 214.944 188.179 214.808 188.176C214.673 188.173 214.539 188.144 214.415 188.089C214.291 188.033 214.18 187.954 214.087 187.856C213.994 187.757 213.921 187.641 213.874 187.514C213.826 187.387 213.804 187.251 213.809 187.116C213.815 186.98 213.847 186.847 213.904 186.724C213.962 186.601 214.043 186.491 214.143 186.4C214.244 186.309 214.361 186.238 214.489 186.193C216.205 185.484 218.06 185.176 219.913 185.294C221.766 185.412 223.568 185.952 225.18 186.872C229.451 189.35 232.406 194.413 233.5 201.131C233.525 201.277 233.517 201.427 233.478 201.57C233.439 201.713 233.368 201.846 233.272 201.959C233.176 202.072 233.056 202.162 232.921 202.224C232.786 202.285 232.639 202.316 232.491 202.315Z" fill="#29263B"/>
<path d="M192.86 117.446C192.448 117.445 192.043 117.341 191.683 117.143C191.322 116.945 191.017 116.659 190.796 116.311C190.575 115.964 190.445 115.567 190.418 115.156C190.39 114.745 190.467 114.334 190.641 113.961C193.755 107.28 197.629 103.15 202.155 101.685C205.931 100.461 210.075 101.085 214.471 103.529C214.752 103.686 215 103.896 215.2 104.148C215.399 104.4 215.548 104.689 215.636 104.999C215.724 105.308 215.75 105.632 215.713 105.952C215.676 106.272 215.577 106.581 215.42 106.862C215.263 107.143 215.053 107.391 214.801 107.591C214.549 107.79 214.26 107.939 213.95 108.027C213.641 108.115 213.317 108.141 212.997 108.104C212.677 108.067 212.368 107.968 212.087 107.811C208.887 106.026 206.127 105.548 203.665 106.345C200.486 107.375 197.598 110.634 195.082 116.031C194.885 116.454 194.571 116.812 194.177 117.063C193.784 117.313 193.327 117.446 192.86 117.446Z" fill="#29263B"/>
<path d="M286 143.942C285.904 143.942 285.808 143.937 285.712 143.925C274.563 142.619 266.312 134.861 264.687 124.161C264.602 123.524 264.77 122.879 265.155 122.365C265.541 121.851 266.113 121.509 266.748 121.413C267.384 121.316 268.031 121.474 268.552 121.85C269.072 122.227 269.424 122.793 269.531 123.427C271.088 133.688 279.205 138.227 286.282 139.06C286.903 139.131 287.474 139.438 287.877 139.916C288.279 140.395 288.484 141.01 288.448 141.634C288.411 142.259 288.138 142.846 287.683 143.275C287.228 143.704 286.626 143.943 286 143.942Z" fill="#29263B"/>
<path fill-rule="evenodd" clip-rule="evenodd" d="M205.23 120.886C202.698 120.53 200.04 124.55 199.294 129.859C198.548 135.168 199.994 139.766 202.528 140.121C205.062 140.476 207.717 136.456 208.464 131.148C209.211 125.84 207.759 121.241 205.23 120.886Z" fill="#29263B"/>
<path fill-rule="evenodd" clip-rule="evenodd" d="M272.06 135.591C269.606 134.871 266.394 138.465 264.886 143.611C263.378 148.757 264.147 153.511 266.598 154.233C269.049 154.955 272.264 151.358 273.772 146.213C275.28 141.068 274.511 136.308 272.06 135.591Z" fill="#29263B"/>
<path d="M114.984 388.292C114.763 388.292 114.548 388.22 114.372 388.087C114.195 387.955 114.066 387.768 114.004 387.556C113.943 387.344 113.951 387.118 114.029 386.911C114.107 386.705 114.25 386.529 114.436 386.41C118.261 383.962 122.587 382.406 127.094 381.856C127.229 381.835 127.367 381.842 127.499 381.876C127.632 381.909 127.756 381.969 127.865 382.052C127.974 382.134 128.065 382.238 128.133 382.356C128.201 382.475 128.245 382.606 128.261 382.741C128.278 382.877 128.267 383.014 128.229 383.146C128.192 383.277 128.128 383.4 128.043 383.506C127.957 383.612 127.851 383.7 127.73 383.765C127.61 383.83 127.478 383.869 127.342 383.882C123.136 384.396 119.1 385.849 115.531 388.133C115.368 388.237 115.178 388.292 114.984 388.292Z" fill="#29263B"/>
<path d="M174.6 170.955C174.365 170.955 174.137 170.874 173.955 170.726C173.773 170.577 173.648 170.371 173.6 170.141C172.193 163.331 168.467 159.007 162.208 156.923C161.951 156.837 161.739 156.653 161.617 156.411C161.496 156.169 161.476 155.888 161.562 155.631C161.648 155.374 161.832 155.162 162.074 155.04C162.316 154.919 162.597 154.899 162.854 154.985C169.863 157.32 174.032 162.143 175.599 169.729C175.653 169.994 175.6 170.27 175.452 170.496C175.303 170.722 175.071 170.88 174.806 170.935C174.738 170.948 174.669 170.955 174.6 170.955Z" fill="#29263B"/>
<path d="M287.831 193.274C287.624 193.274 287.423 193.212 287.252 193.095C287.082 192.978 286.951 192.812 286.877 192.62C286.803 192.427 286.789 192.216 286.838 192.015C286.886 191.814 286.994 191.633 287.148 191.495C293.533 185.757 300.042 184.24 307.042 186.864C307.295 186.959 307.501 187.151 307.613 187.398C307.725 187.644 307.734 187.925 307.639 188.179C307.544 188.432 307.352 188.637 307.106 188.75C306.859 188.862 306.578 188.871 306.325 188.776C300.019 186.411 294.358 187.76 288.512 193.013C288.325 193.181 288.082 193.274 287.831 193.274Z" fill="#29263B"/>
<path fill-rule="evenodd" clip-rule="evenodd" d="M352.854 76.656C352.791 63.71 362.848 52.471 385.354 52.024C407.86 51.577 422.893 65.678 420.2 76.6C416.691 90.844 392.234 94.844 392.632 109.871C392.692 112.157 377.802 111.951 377.802 109.664C377.459 94.696 407.162 87.464 407.611 76.32C408.004 66.551 400.024 61.255 385.477 61.255C375.369 61.255 366.877 66.462 366.129 76.542C366.002 78.673 352.862 78.792 352.851 76.659L352.854 76.656Z" fill="#E1B100"/>
<path fill-rule="evenodd" clip-rule="evenodd" d="M385.137 116.969C390.81 116.969 395.415 120.019 395.415 123.778C395.415 127.537 390.81 130.585 385.137 130.585C379.464 130.585 374.86 127.535 374.86 123.778C374.86 120.021 379.466 116.969 385.137 116.969Z" fill="#E1B100"/>
</svg>