<?xml version="1.0" encoding="utf-8"?>
<!-- Uploaded to: SVG Repo, www.svgrepo.com, Generator: SVG Repo Mixer Tools -->
<svg width="800px" height="800px" viewBox="0 0 1024 1024" class="icon"  version="1.1" xmlns="http://www.w3.org/2000/svg"><path d="M348.78 708.45A169 169 0 0 1 236 549v-45a169 169 0 0 1 147.12-167.53l2.54-259.41q66.93-50.54 87-48.26Q664.92 50.6 739 198.58v612.88Q604.71 1004.61 331.52 988.6q-75.59-4.43-98.58-110.81z" fill="#FFFFFF" /><path d="M586.23 434.47q-0.47 1.17-0.92 2.35a112.66 112.66 0 0 1 103.41 112.25v127.49a168.55 168.55 0 0 0 50.89 96.63C727.73 842.9 681.75 905.43 551.5 968a507.24 507.24 0 0 1-127.69 28.17C341.74 986 292.34 934.44 292.34 892.59c0-15.83 9.3-30.65 25.47-43.31l-1-1.46C333 830.3 408.69 778.65 442 722.8q23.08-38.69 30.63-128.68a169 169 0 0 1 113.6-159.65z" fill="#FCDD82" /><path d="M643.66 459a113.27 113.27 0 0 1 10.34 8.77q-0.57 1.41-1.12 2.83 2.21 0.18 4.4 0.44a112.23 112.23 0 0 1 31.41 78v127.52a168.55 168.55 0 0 0 50.89 96.63C727.73 842.9 681.75 905.43 551.5 968c-67.61 24.69-131 30-165.84 30a227.43 227.43 0 0 1-57.47-7.11A126 126 0 0 1 312.41 975q0.6-9 1.7-18.28Q488.69 976.6 588.52 818q46.07-79.26 31.91-357.76l2.28-0.27-0.55-1z" fill="#F9B04A" /><path d="M348 708.15a168.48 168.48 0 0 1-55.63-125.29v-45.05c0-93.3 75.67-168.94 169-168.94a168.79 168.79 0 0 1 57 9.86 169.59 169.59 0 0 1 36.69 47.5C470.66 435.64 405 507.22 405 594.12V718a168.79 168.79 0 0 1-57-9.85z" fill="#FFF8D1" /><path d="M585.32 436.81a140.87 140.87 0 0 1 272.42 50.37v152h-2v180.2a169.06 169.06 0 0 1-167-142.88V549.08a112.65 112.65 0 0 0-103.42-112.27z" fill="#FFF8D2" /><path d="M461.36 76.03l259.16 112.63v354.42L472.63 335.07 461.36 76.03z" fill="#FFF6E0" /><path d="M625.88 75.65c76.59 49.7 117.86 120.67 93 163.69-21.1 36.53-83.49 41.87-151.64 17.27-76.59-49.7-117.86-120.67-93-163.69 21.1-36.53 83.49-41.87 151.64-17.27z" fill="#FFFAEC" /><path d="M377.1 82.36h40.96v256.01H377.1z" fill="" /><path d="M707.02 225.96h40.96v112.65h-40.96V225.96z" fill="" /><path d="M645.41 294.24q-3.4 0-6.88-0.12c-42.15-1.49-90-16.57-134.89-42.46s-81.85-59.83-104.22-95.58C374.34 116 370 77.54 387.13 47.83S439.74 2.69 487 4.36c42.15 1.5 90 16.57 134.89 42.46s81.85 59.83 104.22 95.58c25.08 40.09 29.45 78.53 12.29 108.24-16.3 28.25-49.17 43.6-92.99 43.6zM480.18 49.29c-26.7 0-46.24 7.56-54 21.07-8.3 14.37-4.12 36.9 11.47 61.82 18.53 29.62 50 58.19 88.55 80.46s79 35.21 114 36.45c29.36 1 51-6.6 59.27-21s4.12-36.9-11.47-61.82c-18.53-29.62-50-58.19-88.55-80.46-38.57-22.27-79-35.22-114-36.45-1.81-0.04-3.55-0.07-5.27-0.07zM385.66 1018.38c-49.57 0-95.73-13.91-130-39.16-32.21-23.76-51.45-56.15-51.45-86.63 0-25.53 15.91-44.71 29.77-58.57l0.74-0.75c41.55-45 71.26-82.95 90.79-132.78a21.59 21.59 0 0 1 27.49-12.3 147.47 147.47 0 0 0 31.5 7.94v-102a189.48 189.48 0 0 1 168.32-188.26 62 62 0 0 1 6.74-0.4c3.25-0.07 7.42-0.12 11.44-0.12h0.85c17.45 0 20.83 0.68 22.66 1 31.94 6.39 61.15 24.44 82.24 50.82A147.75 147.75 0 0 1 709.2 549v133.95c5.48 32.61 21.62 53.62 44.13 75a21.46 21.46 0 0 1 6.36 19.23c-14.82 85.61-76.28 150.12-199.29 209.18-0.49 0.24-1.05 0.48-1.65 0.71l-0.29 0.11c-77.05 28.17-146.51 31.2-172.8 31.2z m-29.08-286.14c-21.7 47.68-52.68 86.52-91.78 128.87-0.47 0.51-1.27 1.32-1.82 1.86-12.46 12.46-17.77 21.31-17.77 29.6 0 17.27 13.34 37.84 34.8 53.67 27.24 20.1 64.76 31.17 105.64 31.17 24 0 87.31-2.77 157.88-28.37C603 920.41 645.88 891.18 674.6 859.7c22.22-24.36 36-49.88 42.77-79.63-21.37-21.67-42.25-49.8-48.87-92.27-0.26-1.6-0.26-1.6-0.26-10.32V549.07c0-48.94-34.92-92.87-81.3-102.39-4.67-0.47-23.93-0.39-29.08-0.15l-0.5 0.05A148.24 148.24 0 0 0 425.5 594.12V717a21.5 21.5 0 0 1-21.5 21.5h-0.14a189.48 189.48 0 0 1-47.28-6.26z m186.17 217.2l-0.13 0.07z" fill="" /><path d="M426.09 739H405.5c-104.75 0-190-85.2-190-189.93V504c0-104.46 85-189.45 189.44-189.45a189.05 189.05 0 0 1 168.3 102.18L587 443.27l-29.68 3.3a149.14 149.14 0 0 0-132.05 148zM405 355.55c-81.87 0-148.48 66.61-148.48 148.49v45c0 75.16 56 137.5 128.42 147.56l-0.56-102A190.3 190.3 0 0 1 521.67 412 148.18 148.18 0 0 0 405 355.55z" fill="" /><path d="M875.86 836.38h-20.48c-45.3 0-90.08-16.08-126.11-45.29l25.79-31.82A161.61 161.61 0 0 0 834.9 794V488.21a130.69 130.69 0 0 0-34.58-88.16c-22.36-24-52-37.24-83.42-37.24a120.42 120.42 0 0 0-112.45 77.32l-38.25-14.64a161.38 161.38 0 0 1 150.7-103.63c42.94 0 83.21 17.86 113.4 50.29a169.75 169.75 0 0 1 45.56 116.06z" fill="" /><path d="M284.42 940.5a350.24 350.24 0 0 1-39.66-2.31 15.36 15.36 0 1 1 3.48-30.52c54.9 6.25 104.43-1.54 147.23-23.17s80.71-58.1 112.3-108.19c14.17-24.53 23.91-66.11 29-123.61 5.2-59.23 5.39-136.27 0.57-229a15.36 15.36 0 1 1 30.68-1.6c10 192.53-1 313.51-33.78 369.84l-0.28 0.46C472 890.82 388.16 940.5 284.42 940.5z" fill="" /></svg>