<?xml version="1.0" encoding="utf-8"?>
<!-- Uploaded to: SVG Repo, www.svgrepo.com, Generator: SVG Repo Mixer Tools -->
<svg width="800px" height="800px" viewBox="0 0 1024 1024" class="icon"  version="1.1" xmlns="http://www.w3.org/2000/svg"><path d="M830 240l-48-13 48-13 13-48 13 48 48 13-48 13-13 48-13-48zM878 293l-19-5 19-4 4-19 5 19 18 4-18 5-5 19-4-19z" fill="#FDCD60" /><path d="M173 210m-9 0a9 9 0 1 0 18 0 9 9 0 1 0-18 0Z" fill="#5546CB" /><path d="M833 879a25 25 0 1 1 25-25 25 25 0 0 1-25 25z m0-36a10 10 0 1 0 10 10 10 10 0 0 0-10-10z" fill="#5546CB" /><path d="M183 849l-33-8 33-7 7-33 8 33 32 7-32 8-8 32-7-32zM132 600l-15-3 15-3 3-15 3 15 15 3-15 3-3 15-3-15z" fill="#FDCD60" /><path d="M418 792q7-5 7-15t-7-15-19-5h-22v40h20q14 0 21-5zM512 744q10 0 14-3t5-10-5-12-16-4h-20v29zM414 741q5-3 5-10t-5-12-16-4h-21v29h22q10 0 15-3zM533 778q0-10-7-15t-19-5h-17v40h16q14 0 21-5t6-15zM595 725q-10 12-10 31t10 30a32 32 0 0 0 25 12h10l9-4-9-7-10-3h-5l-6 2-5-10 10-4h10l12 2 13 9a54 54 0 0 0 4-12 58 58 0 0 0 1-13q0-20-9-31t-25-11q-16-3-25 9z" fill="#FDCD60" /><path d="M314 839a227 227 0 0 0 84 53c33 12 70 18 112 18s79-6 112-18a227 227 0 0 0 84-53c45-45 75-114 88-204H227c12 90 42 159 87 204z m265-124q16-16 42-16h3q25 0 41 16t16 40a56 56 0 0 1-13 37l3 2h5q1-1 2-5h9v21l-6 2h-9l-11-2-8-5-13 5-17 2h-3a68 68 0 0 1-21-3 49 49 0 0 1-17-9 54 54 0 0 1-14-19 59 59 0 0 1-5-24q-1-26 16-42z m-120 88l5-2q1-2 1-6v-79q0-4-1-6l-5-2v-7h57q17 0 26 7t9 19a22 22 0 0 1-5 14q-5 6-14 9 12 3 19 11t6 19a29 29 0 0 1-4 15 27 27 0 0 1-11 10l-11 3h-72z m-109 0l5-2q1-2 1-6v-79q0-4-1-6l-5-2v-7h56q17 0 26 7t9 19a22 22 0 0 1-5 14q-5 6-14 9 12 3 19 11t6 19a29 29 0 0 1-4 15 27 27 0 0 1-11 10l-11 3h-71z" fill="#FDCD60" /><path d="M812 619a10 10 0 0 0-7-3H215a10 10 0 0 0-10 11c25 201 128 304 305 304s279-103 305-305a10 10 0 0 0-3-7zM706 839a227 227 0 0 1-84 53c-33 12-70 18-112 18s-79-6-112-18a227 227 0 0 1-84-53c-45-45-75-114-88-204h567c-13 90-42 159-87 204zM216 588h588a10 10 0 0 0 0-20H216a10 10 0 0 0 0 20z" fill="#5546CB" /><path d="M386 810h33l11-3a27 27 0 0 0 11-10 29 29 0 0 0 4-15q0-11-6-19t-19-11 14-9a22 22 0 0 0 5-14q0-13-9-19t-26-7h-54v7l5 2q1 2 1 6v79q0 4-1 6l-5 2v7h36z m-9-95h21q11 0 16 4t5 12-5 10-14 3h-23z m0 42h22q12 0 19 5t7 15-7 15-21 5h-20zM468 710q1 2 1 6v79q0 4-1 6l-5 2v7h69l11-3a27 27 0 0 0 11-10 29 29 0 0 0 4-15q0-11-6-19t-19-11 14-9a22 22 0 0 0 5-14q0-13-9-19t-26-7h-54v7z m39 86h-17v-39h22q12 0 19 5t7 15-7 15-21 5z m4-82h1q11 0 16 4t5 12-5 10-14 3h-24v-28zM582 800a49 49 0 0 0 17 9 68 68 0 0 0 21 3h2l15-2 15-6h1l8 5 11 2h6l6-2v-20h-6q0 3-2 5h-8l-3-2a56 56 0 0 0 13-37q0-24-16-40t-39-16h-2q-25 0-42 16t-16 41a59 59 0 0 0 5 24 54 54 0 0 0 14 20z m64-75q9 11 9 31a58 58 0 0 1-1 13 54 54 0 0 1-4 12l-13-9-12-2h-11l-10 4 5 10 6-2h5l10 3 9 7-9 4h-10a32 32 0 0 1-25-12q-10-12-10-30t10-31q10-12 26-12t25 13z" fill="#FFFFFF" /><path d="M566.723 233.492l96.167-96.167 8.181 8.182-96.166 96.166zM585.18 251.492l96.166-96.167 8.181 8.182-96.166 96.166z" fill="#5546CB" /><path d="M568 288l-3 38c14 1 17-1 17-1l145-146a17 17 0 0 0 0-25l-38-38a17 17 0 0 0-25 0L533 247l32 33a10 10 0 0 1 3 8z m137-109l-96 96-8-8 96-96z m-24-24l8 8-96 96-8-8z m-18-18l8 8-96 96-8-8zM300 502c-7 7-4 14-1 16s8 7 18-2l107-97 74-66 5-5-11-13z" fill="#FFFFFF" /><path d="M479 320L287 487c-15 14-12 34-2 45a30 30 0 0 0 21 10h1c6 0 15-2 24-10l185-168 150 172c5 6 15 10 24 10l11-2c6-2 17-10 17-30 0-4 0-9-39-55-25-29-59-68-100-113 8-1 14-3 18-7l144-145a37 37 0 0 0 0-53l-38-38a37 37 0 0 0-53 0L519 233c-88-87-154-132-200-139a10 10 0 0 0-10 15c22 34 79 105 170 211z m19 33l-74 66-107 97c-10 9-16 4-18 2s-6-10 1-16l192-167 11 13z m166-236a17 17 0 0 1 25 0l38 38a17 17 0 0 1 0 25L582 324s-3 3-17 1l3-38a10 10 0 0 0-3-8l-32-33zM548 291l-4 43a10 10 0 0 0 3 8c101 109 145 163 151 174s-2 8-4 9-11-1-13-2C504 321 391 187 342 121c49 21 118 77 206 170z" fill="#5546CB" /><path d="M694 525c3-1 4-4 4-9s-50-65-151-175a10 10 0 0 1-3-8l4-43c-88-92-157-149-206-169 49 65 162 200 339 401 1 2 8 5 13 3z" fill="#FF8859" /><path d="M601.1 266.785l96.166-96.167 8.181 8.181-96.166 96.167z" fill="#5546CB" /><path d="M721 316c-5 18 8 39 39 62 7 5 18 15 16 24s-32 24-52 29a10 10 0 0 0 2 20h2a186 186 0 0 0 30-9c22-9 35-21 38-34s-5-29-24-44c-32-24-32-37-31-41s26-17 36-19a10 10 0 0 0-3-20c-5-1-46 6-53 32zM233 448h2a180 180 0 0 0 29-9c22-9 34-20 37-34s-5-29-23-43c-31-23-31-35-30-40s25-17 35-18a10 10 0 0 0-3-20 111 111 0 0 0-22 6c-17 6-27 15-30 27s7 38 37 61c7 5 17 15 16 23s-32 24-50 28a10 10 0 0 0 2 20z" fill="#AFBCF3" /></svg>