<?xml version="1.0" encoding="utf-8"?>
<!-- Uploaded to: SVG Repo, www.svgrepo.com, Generator: SVG Repo Mixer Tools -->
<svg width="800px" height="800px" viewBox="0 0 1024 1024" class="icon"  version="1.1" xmlns="http://www.w3.org/2000/svg"><path d="M222.749811 198.548612h487.622407v799.556811H222.749811z" fill="#EBA824" /><path d="M222.749811 903.064563h487.622407v66.4651H222.749811z" fill="#EACC53" /><path d="M312.639978 432.799283h41.134982V923.596775h-41.134982zM447.192999 432.799283h41.134983V923.596775h-41.134983zM578.570936 432.799283h41.134983V923.596775H578.570936z" fill="#EACC53" /><path d="M828.767588 345.731413h-118.324813v38.030456H782.481913c26.10625 0 47.485151 21.378902 47.485151 47.485151v335.6417c0 26.10625-21.378902 47.485151-47.485151 47.485152h-72.039138v38.030455h118.324813c26.10625 0 47.485151-21.378902 47.485151-47.485151V393.216564c0-26.10625-21.378902-47.485151-47.485151-47.485151z" fill="#6E4921" /><path d="M185.848274 101.532144s-58.562668 98.145387 41.981672 129.825673c26.10625 5.574037 79.94157-2.398953 111.621856-15.028733 15.028733-3.175084 52.212499-14.252601 64.912837 25.330118 10.301385 16.651554 52.212499 64.912837 85.515606 7.902432 10.301385-24.553986 18.979949-54.611452 62.513884-49.884104 26.10625 3.951216 103.366637 32.033074 158.048646 13.053125 0.211672 47.979053 0 50.801351 0 50.801351s71.96858-10.019155 49.390202-103.437194c-7.126301-24.553986-38.030455-69.640185-89.466823-68.864053-20.60277-7.126301-37.183766-22.155033-49.884103-30.904155-14.252601-9.525253-96.593123-56.234273-162.282092-7.902433-20.60277-6.773513-37.183766-19.403294-80.717702-25.330117-36.054847-3.104527-124.957211-5.291807-191.633983 74.43809z" fill="#F5ECDA" /><path d="M246.809895 107.811755s0.070557-0.211672 0.282229-0.564459c0.211672-0.352787 0.423345-0.917247 0.846689-1.552264 0.776132-1.340591 1.905051-3.175084 3.527872-5.362365 1.622821-2.257838 3.668986-4.797905 6.279611-7.620202 0.635017-0.705574 1.340591-1.411149 2.046166-2.116723l2.18728-2.187281c1.552263-1.481706 3.175084-2.892855 4.93902-4.445118 0.846689-0.776132 1.834493-1.481706 2.75174-2.18728 0.987804-0.705574 1.905051-1.481706 2.963412-2.257838 0.987804-0.776132 2.046166-1.411149 3.104527-2.18728 1.058361-0.705574 2.18728-1.481706 3.3162-2.187281 2.257838-1.411149 4.586233-2.822297 7.1263-4.092331 2.46951-1.340591 5.080135-2.540068 7.69076-3.739544 1.340591-0.635017 2.681182-1.128919 4.092331-1.693378 1.411149-0.493902 2.75174-1.128919 4.162889-1.622821 2.892855-0.917247 5.785709-1.975608 8.749121-2.681182 1.481706-0.423345 3.03397-0.776132 4.515676-1.128919 1.552263-0.352787 3.03397-0.635017 4.586233-0.917247 3.104527-0.635017 6.209054-0.987804 9.384138-1.411148 3.175084-0.352787 6.350169-0.493902 9.454696-0.635017h8.255219l1.199477 0.070557c6.279611 0.352787 12.418108 1.199476 18.203817 2.540068 1.481706 0.352787 2.892855 0.705574 4.304003 1.058361 0.705574 0.211672 1.411149 0.352787 2.116723 0.56446 0.705574 0.211672 1.411149 0.423345 2.046166 0.705574 1.340591 0.423345 2.681182 0.917247 4.021773 1.340591 0.635017 0.211672 1.340591 0.423345 1.975608 0.705574 0.635017 0.211672 1.270034 0.564459 1.905051 0.776132 1.270034 0.564459 2.46951 1.058361 3.668986 1.622821 1.199476 0.564459 2.398953 0.987804 3.527872 1.622821 2.257838 1.270034 4.374561 2.398953 6.420726 3.598429 0.493902 0.28223 0.987804 0.564459 1.481706 0.917247 0.493902 0.352787 0.987804 0.635017 1.411149 0.987804 0.917247 0.635017 1.834493 1.270034 2.681182 1.90505 0.846689 0.635017 1.693378 1.270034 2.540068 1.834494 0.423345 0.28223 0.776132 0.564459 1.199476 0.917246 0.352787 0.352787 0.776132 0.635017 1.128919 0.987804 1.411149 1.270034 2.822297 2.398953 3.951216 3.598429 0.564459 0.564459 1.199476 1.128919 1.693379 1.622821 0.564459 0.493902 0.987804 1.128919 1.481706 1.622821 0.917247 1.058361 1.763936 1.975608 2.398952 2.822297 0.705574 0.846689 1.270034 1.552263 1.693379 2.116723 0.423345 0.564459 0.776132 1.058361 0.987804 1.340591 0.211672 0.28223 0.352787 0.493902 0.352787 0.493902l-0.987804 1.834494s-2.540068-1.199476-6.985186-3.3162c-1.128919-0.564459-2.398953-1.058361-3.739544-1.622821-1.340591-0.564459-2.892855-1.128919-4.445118-1.763935-1.552263-0.705574-3.316199-1.199476-5.150692-1.834494-0.917247-0.28223-1.834493-0.635017-2.75174-0.987804-0.493902-0.141115-0.987804-0.352787-1.411149-0.493902l-1.481706-0.423344c-2.046166-0.564459-4.092331-1.199476-6.279611-1.763936-2.18728-0.564459-4.515676-0.987804-6.844071-1.552263-4.727348-0.917247-9.736926-1.763936-14.958175-2.257838-5.22125-0.564459-10.654172-0.846689-16.087095-0.846689h-1.058361l-1.058362 0.070557-2.046165 0.070557c-1.411149 0.070557-2.75174 0.070557-4.162889 0.141115-1.411149 0.141115-2.75174 0.211672-4.162888 0.352787-1.411149 0.141115-2.75174 0.211672-4.162889 0.423345-2.75174 0.352787-5.574037 0.635017-8.325776 1.128919-1.340591 0.211672-2.75174 0.423345-4.092332 0.635017-1.340591 0.28223-2.681182 0.564459-4.092331 0.846689-2.681182 0.493902-5.362365 1.199476-7.972989 1.834493-1.340591 0.352787-2.610625 0.705574-3.880659 1.058362-1.270034 0.352787-2.540068 0.705574-3.810101 1.128919-2.540068 0.776132-4.93902 1.552263-7.337973 2.398952-1.199476 0.423345-2.398953 0.776132-3.527872 1.199477-1.128919 0.423345-2.328395 0.846689-3.457314 1.270033-1.128919 0.423345-2.257838 0.846689-3.316199 1.340592-1.058361 0.423345-2.18728 0.846689-3.175084 1.340591-2.046166 0.917247-4.092331 1.763936-5.997382 2.681182-0.917247 0.423345-1.905051 0.917247-2.822297 1.340591-0.917247 0.423345-1.763936 0.917247-2.681183 1.340591-1.763936 0.846689-3.316199 1.693378-4.868463 2.469511-3.03397 1.622821-5.644595 3.104527-7.761317 4.37456-2.116723 1.270034-3.739544 2.328395-4.797905 3.03397-0.564459 0.352787-0.987804 0.635017-1.270034 0.846689-0.28223 0.211672-0.423345 0.28223-0.423345 0.28223l-1.270033-1.763936z" fill="#FFFFFF" /></svg>