<?xml version="1.0" standalone="no"?><!DOCTYPE svg PUBLIC "-//W3C//DTD SVG 1.1//EN" "http://www.w3.org/Graphics/SVG/1.1/DTD/svg11.dtd"><svg t="1698246210747" class="icon" viewBox="0 0 1024 1024" version="1.1" xmlns="http://www.w3.org/2000/svg" p-id="5880" xmlns:xlink="http://www.w3.org/1999/xlink" width="200" height="200"><path d="M265.489067 232.584533v-49.288533c0-63.488 51.473067-115.029333 115.029333-115.029333h262.9632c63.488 0 115.029333 51.473067 115.029333 115.029333v49.288533h87.2448c61.6448 0 109.9776 52.360533 109.9776 115.0976V512c0 42.734933-31.9488 79.121067-74.205866 81.988267l-361.403734 65.1264a49.288533 49.288533 0 0 1-17.476266 0l-360.174934-65.1264C100.215467 591.0528 68.266667 554.734933 68.266667 512V347.682133c0-62.737067 48.3328-115.0976 109.9776-115.0976H265.557333z m98.577066 0h295.867734v-49.288533a16.384 16.384 0 0 0-16.452267-16.384H380.5184a16.384 16.384 0 0 0-16.384 16.384v49.288533z m493.090134 115.0976c0-9.966933-6.075733-16.452267-11.400534-16.452266H178.176c-5.3248 0-11.400533 6.485333-11.400533 16.384v150.596266l344.541866 62.327467 345.770667-62.327467V347.682133z m0.136533 302.762667l97.621333-13.9264c0.546133 3.959467 0.8192 7.9872 0.8192 12.014933v199.338667c0 60.962133-52.701867 107.861333-115.029333 107.861333h-657.408C120.968533 955.733333 68.266667 908.834133 68.266667 847.872V648.533333l98.577066 16.110934v183.296c0 3.754667 6.144 9.284267 16.452267 9.284266h657.408c10.24 0 16.384-5.461333 16.384-9.284266V648.533333a13.653333 13.653333 0 0 0 0.2048 1.911467z" fill="#ACB0C0" p-id="5881"></path></svg>