<?xml version="1.0" encoding="utf-8"?>
<!-- Uploaded to: SVG Repo, www.svgrepo.com, Generator: SVG Repo Mixer Tools -->
<svg width="800px" height="800px" viewBox="0 0 1024 1024" class="icon"  version="1.1" xmlns="http://www.w3.org/2000/svg"><path d="M0.000976 0.999024h1023.000975v1023.000976H0.000976z" fill="#FFFFFF" /><path d="M844.176585 208.796098l-41.959024-11.988293 41.959024-10.989268 11.988293-42.958049 10.989268 42.958049 42.958049 10.989268-42.958049 11.988293-10.989268 41.959024-11.988293-41.959024zM104.898537 717.299512l-31.968781-6.993171 31.968781-7.992195 7.992195-31.96878 6.99317 31.96878 32.967805 7.992195-32.967805 6.993171-6.99317 32.967805-7.992195-32.967805zM883.138537 261.74439l-14.985366-2.997073 14.985366-3.996097 2.997073-13.986342 2.997073 13.986342 14.985366 3.996097-14.985366 2.997073-2.997073 14.985366-2.997073-14.985366zM109.893659 544.468293l-14.985366-2.997073 14.985366-2.997074 2.997073-14.985366 2.997073 14.985366 14.985366 2.997074-14.985366 2.997073-2.997073 14.985366-2.997073-14.985366z" fill="#FDCD60" /><path d="M114.88878 348.659512m-8.991219 0a8.99122 8.99122 0 1 0 17.982439 0 8.99122 8.99122 0 1 0-17.982439 0Z" fill="#5546CB" /><path d="M910.112195 711.305366a24.97561 24.97561 0 1 1 24.97561-24.97561 24.97561 24.97561 0 0 1-24.97561 24.97561z m0-35.964878a9.990244 9.990244 0 1 1 0 0.999024z" fill="#5546CB" /><path d="M626.389268 469.541463h69.931708v204.650147h-69.931708z" fill="#FDCD60" /><path d="M190.814634 734.282927h644.370732v34.965853H190.814634z" fill="#AFBCF3" /><path d="M855.165854 714.302439H170.834146v74.926829h684.331708z m-19.980488 54.946341H190.814634v-34.965853h644.370732z" fill="#5546CB" /><path d="M150.853659 837.182439h722.294634v34.965854H150.853659z" fill="#AFBCF3" /><path d="M127.876098 817.201951v74.926829h767.250731v-74.926829z m745.272195 54.946342H150.853659v-34.965854h722.294634z" fill="#5546CB" /><path d="M487.524878 483.527805h49.95122v182.821463h-49.95122z" fill="#FDCD60" /><path d="M467.54439 686.329756h89.912195V463.547317h-89.912195z m19.980488-202.801951h49.95122v182.821463h-49.95122z" fill="#5546CB" /><path d="M339.669268 483.527805h49.95122v182.821463h-49.95122z" fill="#FDCD60" /><path d="M319.68878 686.329756h89.912196V463.547317h-89.912196z m19.980488-202.801951h49.95122v182.821463h-49.95122z" fill="#5546CB" /><path d="M190.814634 373.635122h49.95122v40.96h-49.95122z" fill="#FF8859" /><path d="M260.746341 353.654634h-89.912195v80.920976h89.912195z m-19.980487 60.940488h-49.95122v-40.96h49.95122z" fill="#5546CB" /><path d="M784.235122 373.635122h49.951219v40.96h-49.951219z" fill="#FF8859" /><path d="M854.166829 353.654634h-89.912195v80.920976h89.912195z m-19.980488 60.940488h-49.951219v-40.96h49.951219z" fill="#5546CB" /><path d="M636.379512 373.635122h49.95122v40.96h-49.95122z" fill="#FF8859" /><path d="M706.31122 353.654634h-89.912196v80.920976h89.912196z m-19.980488 60.940488h-49.95122v-40.96h49.95122z" fill="#5546CB" /><path d="M487.524878 373.635122h49.95122v40.96h-49.95122z" fill="#FF8859" /><path d="M557.456585 353.654634h-89.912195v80.920976h89.912195z m-19.980487 60.940488h-49.95122v-40.96h49.95122z" fill="#5546CB" /><path d="M339.669268 373.635122h49.95122v40.96h-49.95122z" fill="#FF8859" /><path d="M409.600976 353.654634h-89.912196v80.920976h89.912196z m-19.980488 60.940488h-49.95122v-40.96h49.95122z" fill="#5546CB" /><path d="M515.497561 140.862439L241.764878 305.701463h542.470244L515.497561 140.862439z" fill="#FDCD60" /><path d="M515.497561 116.885854L170.834146 325.681951h683.332683z m0 23.976585l268.737561 164.839024H241.764878zM615.4 688.327805h89.912195V465.545366h-89.912195z m19.980488-202.801951h49.951219v182.821463h-49.951219z" fill="#5546CB" /><path d="M783.236098 485.525854h49.951219v182.821463h-49.951219z" fill="#FDCD60" /><path d="M763.25561 688.327805h89.912195V465.545366h-89.912195z m19.980488-202.801951h49.951219v182.821463h-49.951219z" fill="#5546CB" /><path d="M189.81561 666.349268h49.951219V481.529756h-48.952195l-0.999024 184.819512z" fill="#FDCD60" /><path d="M260.746341 461.549268h-89.912195v224.780488h88.913171z m-20.979512 204.8h-49.951219V481.529756h48.952195z" fill="#5546CB" /></svg>