<?xml version="1.0" encoding="utf-8"?>
<!-- Uploaded to: SVG Repo, www.svgrepo.com, Generator: SVG Repo Mixer Tools -->
<svg width="800px" height="800px" viewBox="0 0 1024 1024" class="icon"  version="1.1" xmlns="http://www.w3.org/2000/svg"><path d="M803.8 624.2l132 23v191l-132-42z" fill="#37BBEF" /><path d="M635.9 701l207.3-18.3 58.5 13.9L681.2 731z" fill="#A1BBC6" /><path d="M685.1 698.5l8.8-3.2 2.4 23 44.7 2.4-47.4 8.3z" fill="#678289" /><path d="M714.8 573.2l-21 208-46 19 21-226z" fill="#7C99A3" /><path d="M615.2 576.8l-21 197 53.6 26.4 21-226z" fill="#A1BBC6" /><path d="M901.6 746.2l-32.1 11.6-52.7 24.7-13 13.7v-38.3z" fill="#1772A0" /><path d="M569.3 581.8l67.5 18.4 0.9-35.3z" fill="#2481BA" /><path d="M886.7 348.9c-18.9-88.9-86.6-150-151.5-137.3l-0.1-0.7-494.9 70.2 56.3 369.1L799.6 537l3.3-0.6c65.4-14 102.9-97.9 83.8-187.5z" fill="#37BBEF" /><path d="M86.3 234.6c-5.4 1.1-21.4 11.4-22 35.1-0.6 24 1 41 23.3 76.8s50.6 60.1 50.6 60.1l41.9-29.6 40-77.3s-12.9-16.9-46-37-41.8-25.6-60.9-29.1c-15.1-2.8-21.6-0.2-26.9 1z" fill="#2481BA" /><path d="M210.1 288.4s-54.3 45-59.5 58.8-22 49.8-22 49.8 3.1-34.4 16.3-61.1c17.3-35.3 24.5-48 20.7-69.3-4-22 4.3-21.4 4.3-21.4l40.2 43.2z" fill="#1772A0" /><path d="M377.7 413s22.7 96 11.3 105.3c-11.3 9.3 245.5-24.3 372-53.3 72-16.5 126-26.3 126-26.3s4.3-14.3 4.7-44.4c0.2-14-514 18.7-514 18.7z" fill="#2481BA" /><path d="M128.399182 487.295645a187 136.5 81.494 1 0 269.997103-40.380244 187 136.5 81.494 1 0-269.997103 40.380244Z" fill="#A1BBC6" /><path d="M145.893403 481.183812a148.9 108.7 81.494 1 0 215.008683-32.156282 148.9 108.7 81.494 1 0-215.008683 32.156282Z" fill="#113B42" /><path d="M231.4 317.8c-16.9 2.5-32.1 10.3-44.9 21.9 19.7 54 49.6 117.3 89.3 151.4 32.5 27.9 55.3 48.8 70.8 63.5 14.4-29 20.2-66.3 14.4-105.6-12.2-81.3-70.2-140-129.6-131.2z" fill="#2C5766" /><path d="M192.365325 472.737981a70.6 51.6 81.494 1 0 102.064839-15.26462 70.6 51.6 81.494 1 0-102.064839 15.26462Z" fill="#FFFFFF" /><path d="M209.870632 470.119921a46.4 33.9 81.494 1 0 67.054225-10.0285 46.4 33.9 81.494 1 0-67.054225 10.0285Z" fill="#113B42" /><path d="M267 483c2.3-6.3 3.1-13.8 1.9-21.7-2.9-19.3-16.7-33.2-30.7-31.1-3.1 0.5-5.9 1.6-8.4 3.4 11.2 18.6 23.6 35.7 37.2 49.4z" fill="#2C5766" /><path d="M905.6 260.5c-35.3-60-116.7-74.7-116.7-74.7L87.8 230.5l-7.2 6.7c2.3-1.5 4.3-2.4 5.7-2.6 5.4-1.1 11.9-3.8 26.9-1 19 3.5 27.8 9 60.9 29.1s46 37 46 37l-0.1 0.2c39.9 39.4 76.2 91 137 134.6 66 47.3 137.3 58 293.3 39.3 211.2-25.3 251.3-78.7 268.7-100 17.3-21.3 21.9-53.3-13.4-113.3z" fill="#3ED6FF" /><path d="M759.8 537.2l-123 27v36l123-28z" fill="#37BBEF" /><path d="M647.8 800.2l66-23 187.9-31v-49.6l-248.5 38.2z" fill="#7C99A3" /><path d="M635.9 573.8l89-20.5-88 26z" fill="#2481BA" /><path d="M935.8 838.2l24-13.4v-184l-24 6.4z" fill="#1772A0" /><path d="M803.8 624.2l132 23 24-6.4-127-22.3z" fill="#3ED6FF" /><path d="M915.6 282.9c-3.2-6.7-6.9-13.7-11.3-21.2-24.7 13.1-81.8 44.9-174.1 58.1-123.7 17.7-252.3 31.3-252.3 31.3s225-10 320-29c70-14 104.5-31.2 117.7-39.2z" fill="#D4F7FF" /></svg>