<?xml version="1.0" encoding="utf-8"?>
<!-- Uploaded to: SVG Repo, www.svgrepo.com, Generator: SVG Repo Mixer Tools -->
<svg width="800px" height="800px" viewBox="0 0 1024 1024" class="icon"  version="1.1" xmlns="http://www.w3.org/2000/svg"><path d="M541.35 855a213.87 213.87 0 0 1-175.67 91.65c-118.24 0-214.09-95.81-214.09-214s95.85-214 214.09-214a214.17 214.17 0 0 1 205.56 154A152 152 0 1 1 541.35 855z" fill="#FFFFFF" /><path d="M557.34 828.12a212.52 212.52 0 0 0 21.31-73.47 157.85 157.85 0 0 1 227.48-49.33 152.11 152.11 0 0 1-238.46 185.23A157.24 157.24 0 0 1 557.23 834q0-2.93 0.11-5.88z" fill="#FFCCCC" /><path d="M810.2 712.55A152.19 152.19 0 0 1 637.88 930.7a157.75 157.75 0 0 1 144.71-220.56 158.79 158.79 0 0 1 27.61 2.41z" fill="#FF5252" /><path d="M238.51 904.83a213 213 0 0 1-41.85-127.12c0-118.19 95.85-214 214.09-214a213.19 213.19 0 0 1 127.17 41.83 213 213 0 0 1 41.85 127.12c0 118.19-95.85 214-214.09 214a213.19 213.19 0 0 1-127.17-41.83z" fill="#FFCCCC" /><path d="M219.56 889.07c6.5-112.35 99.7-201.45 213.73-201.45a213.39 213.39 0 0 1 146.12 57.59c-6.5 112.35-99.7 201.45-213.73 201.45a213.39 213.39 0 0 1-146.12-57.59z" fill="#FF5252" /><path d="M591 394.78q87.12 0 157.75-78.84Q678.16 237.1 591 237.1t-157.71 78.84q70.62 78.84 157.71 78.84z" fill="#89D66D" /><path d="M675.55 957.93a174.5 174.5 0 0 1-154.05-92.28l-6.5-12.19 7.92-11.34A191.89 191.89 0 0 0 549.61 679l-3.86-13.25 10-9.46a174 174 0 0 1 119.75-47.5c96.3 0 174.64 78.32 174.64 174.58s-78.29 174.56-174.59 174.56zM567.91 855.52a129.49 129.49 0 0 0 107.63 57.35c71.46 0 129.59-58.1 129.59-129.52S747 653.83 675.55 653.83a129.06 129.06 0 0 0-79 26.83 237.4 237.4 0 0 1 5.74 52 235 235 0 0 1-34.38 122.86z" fill="" /><path d="M675.55 955.88a172.46 172.46 0 0 1-152.25-91.2l36.11-19.34a131.56 131.56 0 0 0 116.14 69.58c72.58 0 131.64-59 131.64-131.57s-59.06-131.57-131.64-131.57a131.15 131.15 0 0 0-90.26 35.8l-28.09-29.81a172 172 0 0 1 118.35-46.94c95.17 0 172.6 77.4 172.6 172.53s-77.43 172.52-172.6 172.52z" fill="" /><path d="M365.68 967.14a234.52 234.52 0 1 1 165.86-68.67 233.08 233.08 0 0 1-165.86 68.67z m0-428c-106.76 0-193.61 86.81-193.61 193.51s86.85 193.51 193.61 193.51 193.61-86.81 193.61-193.51-86.85-193.5-193.61-193.5z" fill="" /><path d="M397.69 663a20.48 20.48 0 0 1-7.8-39.42C503.2 576.9 599 503.44 674.48 405.21c71.69-93.23 125-208.3 158.38-342a20.48 20.48 0 0 1 39.74 9.93C837.82 212.33 782.09 332.46 707 430.18 627 534.2 525.54 612 405.47 661.42a20.42 20.42 0 0 1-7.78 1.58z" fill="" /><path d="M591 415.26c-63.88 0-122.09-28.82-173-85.65l-12.24-13.67L418 302.28c50.92-56.84 109.12-85.66 173-85.66s122.09 28.82 173 85.66l12.24 13.67L764 329.61c-50.87 56.83-109.08 85.65-173 85.65z m-129.44-99.32c17.84 17.55 36.49 31.25 55.63 40.81a164.14 164.14 0 0 0 147.69 0c19.14-9.57 37.79-23.26 55.63-40.81-17.84-17.55-36.49-31.25-55.63-40.81a164.14 164.14 0 0 0-147.69 0c-19.13 9.57-37.79 23.26-55.63 40.81z" fill="" /><path d="M571.41 298.4h143.36a15.36 15.36 0 0 1 15.36 15.36 15.36 15.36 0 0 1-15.36 15.36H571.41A15.36 15.36 0 0 1 556 313.76a15.36 15.36 0 0 1 15.41-15.36z" fill="#015200" /><path d="M703.71 650.5a20.49 20.49 0 0 1-19.07-27.94c28-71.58 45.51-171.32 52.18-296.45a20.48 20.48 0 0 1 40.9 2.18c-6.9 129.5-25.38 233.52-54.93 309.17a20.49 20.49 0 0 1-19.08 13.04z" fill="" /></svg>