<svg xmlns="http://www.w3.org/2000/svg" width="20" height="20" viewBox="0 0 20 20" fill="none">
  <circle cx="10" cy="10" r="10" fill="black" fill-opacity="0.15"/>
  <path fill-rule="evenodd" clip-rule="evenodd" d="M5.5886 13.4937C5.26317 13.8191 5.26317 14.3467 5.5886 14.6722C5.91404 14.9976 6.44168 14.9976 6.76712 14.6722L9.99959 11.4397L13.4937 14.9338C13.8191 15.2592 14.3467 15.2592 14.6722 14.9338C14.9976 14.6083 14.9976 14.0807 14.6722 13.7552L11.1781 10.2612L15.0167 6.42259C15.3421 6.09715 15.3421 5.56951 15.0167 5.24408C14.6913 4.91864 14.1636 4.91864 13.8382 5.24408L9.99959 9.08267L6.42259 5.50567C6.09715 5.18023 5.56951 5.18023 5.24408 5.50567C4.91864 5.8311 4.91864 6.35874 5.24408 6.68418L8.82108 10.2612L5.5886 13.4937Z" fill="white"/>
</svg>
