<?xml version="1.0" standalone="no"?><!DOCTYPE svg PUBLIC "-//W3C//DTD SVG 1.1//EN" "http://www.w3.org/Graphics/SVG/1.1/DTD/svg11.dtd"><svg t="1698246214466" class="icon" viewBox="0 0 1024 1024" version="1.1" xmlns="http://www.w3.org/2000/svg" p-id="6014" xmlns:xlink="http://www.w3.org/1999/xlink" width="200" height="200"><path d="M960 376.32c0 10.2144-4.0704 19.9936-11.3152 27.2128-24.4736 24.3712-39.8848 64.3072-39.8848 108.4672s15.4112 84.096 39.8848 108.4672A38.4 38.4 0 0 1 960 647.68V742.4a140.8 140.8 0 0 1-140.8 140.8H204.8A140.8 140.8 0 0 1 64 742.4v-94.72c0-10.2144 4.0704-19.9936 11.3152-27.2128C99.7888 596.096 115.2 556.16 115.2 512s-15.4112-84.096-39.8848-108.4672A38.4 38.4 0 0 1 64 376.32V281.6A140.8 140.8 0 0 1 204.8 140.8h614.4a140.8 140.8 0 0 1 140.8 140.8v94.72z m-76.8-94.72A64 64 0 0 0 819.2 217.6H204.8A64 64 0 0 0 140.8 281.6v79.8464c32.5376 38.912 51.2 93.0048 51.2 150.5536s-18.6624 111.6672-51.2 150.5536V742.4A64 64 0 0 0 204.8 806.4h614.4a64 64 0 0 0 64-64v-79.8464c-32.5376-38.912-51.2-93.0048-51.2-150.5536s18.6624-111.6672 51.2-150.5536V281.6z" fill="#1C2134" p-id="6015"></path><path d="M396.8 550.4h230.4a38.4 38.4 0 0 0 0-76.8h-230.4a38.4 38.4 0 0 0 0 76.8z" fill="#1C2134" p-id="6016"></path></svg>