<svg t="1697813498531" class="icon" viewBox="0 0 1024 1024" version="1.1" xmlns="http://www.w3.org/2000/svg" p-id="1106" width="200" height="200"><path d="M178.28 399m37.67 0l589.66 0q37.67 0 37.67 37.67l0 276.66q0 37.67-37.67 37.67l-589.66 0q-37.67 0-37.67-37.67l0-276.66q0-37.67 37.67-37.67Z" fill="#FFE3C5" p-id="1107"></path><path d="M228.85 235m37.67 0l488.53 0q37.67 0 37.67 37.67l0 131.66q0 37.67-37.67 37.67l-488.53 0q-37.67 0-37.67-37.67l0-131.66q0-37.67 37.67-37.67Z" fill="#FFE3C5" p-id="1108"></path><path d="M647 636c0 17.67-13.21 31-29.5 31S588 653.67 588 636s13.21-40 29.5-40 29.5 22.33 29.5 40z" fill="#FC6257" p-id="1109"></path><path d="M212 713.33V436.67A37.68 37.68 0 0 1 249.67 399h-35A37.68 37.68 0 0 0 177 436.67v276.66A37.68 37.68 0 0 0 214.67 751h35A37.68 37.68 0 0 1 212 713.33z" fill="#FFD0A1" p-id="1110"></path><path d="M157.28 712m37.67 0l631.66 0q37.67 0 37.67 37.67l0 2.66q0 37.67-37.67 37.67l-631.66 0q-37.67 0-37.67-37.67l0-2.66q0-37.67 37.67-37.67Z" fill="#FFC988" p-id="1111"></path><path d="M192 752.33v-2.66A37.68 37.68 0 0 1 229.67 712h-36A37.68 37.68 0 0 0 156 749.67v2.66A37.68 37.68 0 0 0 193.67 790h36A37.68 37.68 0 0 1 192 752.33z" fill="#FFB56C" p-id="1112"></path><path d="M261.28 407.33V275.67A136.58 136.58 0 0 1 267 237.5a37.67 37.67 0 0 0-37.67 37.67v131.66A37.67 37.67 0 0 0 267 444.5h25.87a37.68 37.68 0 0 1-31.59-37.17z" fill="#FFD0A1" p-id="1113"></path><path d="M273.87 231h473.82a44.86 44.86 0 0 1 44.86 44.86V293H229v-17.14A44.86 44.86 0 0 1 273.87 231z" fill="#FFD0A1" p-id="1114"></path><path d="M305.86 231h-32A44.85 44.85 0 0 0 229 275.86V293h32v-17.14A44.85 44.85 0 0 1 305.86 231z" fill="#FFB56C" p-id="1115"></path><path d="M275.69 495.05l42.08-28.65a47.54 47.54 0 0 1 53.63 0.08l42.07 28.8a47.55 47.55 0 0 0 55-0.89l32.23-23.64 1.54-1.09c22.48-15.26 52.89-6.88 65.65 16.35a40.74 40.74 0 0 1 3.17 7.74l18.55 61c9.24 30.4 52.27 30.39 61.5 0l18.08-59.58a40.47 40.47 0 0 1 3.17-7.71c12.66-23 42.79-31.42 65.14-16.38a53.6 53.6 0 0 1 4.71 3.58l15.16 12.95a47.56 47.56 0 0 0 62.22-0.39L848 462.34a47.55 47.55 0 0 0 16.22-35.77v-7.91a48.06 48.06 0 0 0-48.06-48.06H205.43a48.06 48.06 0 0 0-48.06 48.06v5.86a47.53 47.53 0 0 0 18.8 37.88l41 31.14a50.09 50.09 0 0 0 58.52 1.51z" fill="#FC6257" p-id="1116"></path><path d="M247.83 493.94l-41-31.14A47.57 47.57 0 0 1 188 424.92v-5.86A48.06 48.06 0 0 1 236.06 371h-32A48.06 48.06 0 0 0 156 419.06v5.86a47.57 47.57 0 0 0 18.8 37.88l41 31.14a50.12 50.12 0 0 0 46.3 7.57 50.1 50.1 0 0 1-14.27-7.57z" fill="#F94541" p-id="1117"></path></svg>