<?xml version="1.0" encoding="utf-8"?>
<!-- Uploaded to: SVG Repo, www.svgrepo.com, Generator: SVG Repo Mixer Tools -->
<svg width="800px" height="800px" viewBox="0 0 1024 1024" class="icon"  version="1.1" xmlns="http://www.w3.org/2000/svg"><path d="M621.4 157.3h-231c-27.6 0-50 22.4-50 50V806c0 27.6 22.4 50 50 50h231c27.6 0 50-22.4 50-50V207.3c0-27.6-22.4-50-50-50zM813.7 219.6H671.4v592.5h142.4c29.3 0 53-22.4 53-50V269.6c-0.1-27.6-23.8-50-53.1-50z" fill="#FFFFFF" /><path d="M148.8 478c5.5 0 10-4.5 10-10v-10c0-5.5-4.5-10-10-10s-10 4.5-10 10v10c0 5.5 4.5 10 10 10zM148.8 528c5.5 0 10-4.5 10-10v-10c0-5.5-4.5-10-10-10s-10 4.5-10 10v10c0 5.5 4.5 10 10 10zM148.8 628c5.5 0 10-4.5 10-10v-10c0-5.5-4.5-10-10-10s-10 4.5-10 10v10c0 5.5 4.5 10 10 10zM148.8 578c5.5 0 10-4.5 10-10v-10c0-5.5-4.5-10-10-10s-10 4.5-10 10v10c0 5.5 4.5 10 10 10zM148.8 328c5.5 0 10-4.5 10-10v-10c0-5.5-4.5-10-10-10s-10 4.5-10 10v10c0 5.5 4.5 10 10 10zM148.8 378c5.5 0 10-4.5 10-10v-10c0-5.5-4.5-10-10-10s-10 4.5-10 10v10c0 5.5 4.5 10 10 10zM148.6 278h0.2c5.4 0 9.9-4.4 10-9.8 0-2.6 0.4-5.3 1-7.8 1.3-5.4-2.1-10.8-7.5-12-5.4-1.3-10.8 2.1-12 7.5-0.9 3.9-1.4 7.9-1.5 12-0.1 5.5 4.3 10 9.8 10.1zM148.8 678c5.5 0 10-4.5 10-10v-10c0-5.5-4.5-10-10-10s-10 4.5-10 10v10c0 5.5 4.5 10 10 10zM148.8 428c5.5 0 10-4.5 10-10v-10c0-5.5-4.5-10-10-10s-10 4.5-10 10v10c0 5.5 4.5 10 10 10zM148.8 728c5.5 0 10-4.5 10-10v-10c0-5.5-4.5-10-10-10s-10 4.5-10 10v10c0 5.5 4.5 10 10 10zM231.8 208.9h-10c-5.5 0-10 4.5-10 10s4.5 10 10 10h10c5.5 0 10-4.5 10-10s-4.5-10-10-10zM277.5 801.4h-10c-5.5 0-10 4.5-10 10s4.5 10 10 10h10c5.5 0 10-4.5 10-10s-4.5-10-10-10zM227.5 801.4h-10c-5.5 0-10 4.5-10 10s4.5 10 10 10h10c5.5 0 10-4.5 10-10s-4.5-10-10-10zM178.7 213.1c-3.7 1.4-7.3 3.1-10.6 5.2-4.7 2.9-6.2 9-3.4 13.7 1.9 3.1 5.2 4.8 8.6 4.8 1.8 0 3.6-0.5 5.2-1.4 2.3-1.4 4.8-2.6 7.3-3.6 5.2-1.9 7.8-7.7 5.8-12.9-2-5.1-7.8-7.7-12.9-5.8zM158.8 761.4V758c0-5.5-4.5-10-10-10s-10 4.5-10 10v3.4c0 2.7 0.2 5.4 0.6 8 0.7 5 5 8.6 9.9 8.6 0.5 0 0.9 0 1.4-0.1 5.5-0.8 9.3-5.8 8.5-11.3-0.3-1.7-0.4-3.5-0.4-5.2zM182.5 797.2c-2.5-1.2-4.8-2.5-7-4.1-4.5-3.2-10.7-2.2-14 2.3-3.2 4.5-2.2 10.7 2.3 14 3.2 2.3 6.6 4.3 10.2 6 1.4 0.6 2.8 0.9 4.2 0.9 3.8 0 7.4-2.1 9.1-5.8 2.3-5 0.2-11-4.8-13.3zM813.7 198.9H690.9c-3.9-35-33.6-62.3-69.6-62.3h-231c-38.6 0-70 31.4-70 70v2.4c-4.7 0.6-8.3 4.5-8.6 9.3l-38.3-37.6c-4.5-4.4-12.3-1.3-12.3 4.9l-0.4 66.5c0 6.2 7.7 9.4 12.2 5l38.7-37.2c0.5 4.6 4 8.2 8.5 8.9v572.6h-2.9c-5.5 0-10 4.5-10 10s4.5 10 10 10h4.8c7.3 30.9 35 54 68.1 54h231c29.4 0 54.6-18.2 65-44h127.4c40.2 0 73-31.4 73-70V268.9c0.2-38.6-32.5-70-72.8-70zM651.4 805.4c0 16.5-13.5 30-30 30h-231c-16.5 0-30-13.5-30-30V206.7c0-16.5 13.5-30 30-30h231c16.5 0 30 13.5 30 30v598.7z m195.3-44c0 16.5-14.8 30-33 30H691.4V238.9h122.4c18.2 0 33 13.5 33 30v492.5z" fill="#005BFF" /><path d="M754.2 766.4h-22.9c-5.5 0-10-4.5-10-10s4.5-10 10-10h22.9c23.7 0 43-17.9 43-40V468.2c0-5.5 4.5-10 10-10s10 4.5 10 10v238.2c0 33.1-28.3 60-63 60z" fill="#06F3FF" /><path d="M577.5 295.9H434.2c-5.5 0-10-4.5-10-10s4.5-10 10-10h143.2c5.5 0 10 4.5 10 10s-4.4 10-9.9 10z" fill="#005BFF" /><path d="M577.5 360.4H434.2c-5.5 0-10-4.5-10-10s4.5-10 10-10h143.2c5.5 0 10 4.5 10 10s-4.4 10-9.9 10z" fill="#005BFF" /><path d="M577.5 424.9H434.2c-5.5 0-10-4.5-10-10s4.5-10 10-10h143.2c5.5 0 10 4.5 10 10s-4.4 10-9.9 10z" fill="#005BFF" /><path d="M505.9 575.6c-39.3 0-71.3 32-71.3 71.3s32 71.3 71.3 71.3 71.3-32 71.3-71.3-32-71.3-71.3-71.3z" fill="#E6E6E6" /><path d="M505.9 555.6c-50.4 0-91.3 41-91.3 91.3s41 91.3 91.3 91.3 91.3-41 91.3-91.3-41-91.3-91.3-91.3z m0 162.6c-39.3 0-71.3-32-71.3-71.3s32-71.3 71.3-71.3 71.3 32 71.3 71.3-32 71.3-71.3 71.3z" fill="#005BFF" /></svg>