<?xml version="1.0" encoding="utf-8"?>
<!-- Uploaded to: SVG Repo, www.svgrepo.com, Generator: SVG Repo Mixer Tools -->
<svg width="800px" height="800px" viewBox="0 0 1024 1024" class="icon"  version="1.1" xmlns="http://www.w3.org/2000/svg"><path d="M737 199l-48-13 48-13 13-49 13 49 49 13-49 13-13 48-13-48zM785 252l-19-5 19-4 4-19 5 19 18 4-18 5-5 18-4-18z" fill="#FDCD60" /><path d="M219 252m-9 0a9 9 0 1 0 18 0 9 9 0 1 0-18 0Z" fill="#5546CB" /><path d="M190 858l-33-8 33-7 7-33 8 33 32 7-32 8-8 32-7-32z" fill="#FDCD60" /><path d="M142 588l-3 15-15 3 15 3 3 15 3-15 15-3-15-3-3-15z" fill="#FDCD60" /><path d="M519 561c-9-8-12-8-13-8s-21 19-32 35-17 25-28 37a167 167 0 0 0 30 10c24 5 48 5 68-1a167 167 0 0 0 30-13c-11-11-21-22-30-33s-18-20-25-27z" fill="#AFBCF3" /><path d="M760 535c-8-83-34-94-43-97-26-8-100-10-179-10s-174 3-221 5c-20 1-35 8-45 20s-19 41-19 66a28 28 0 0 1 1 8v30c1 11 2 21 3 30 6 46 54 54 125 51 33-1 55-34 76-63s30-43 48-44 33 18 54 42 54 63 87 65c44 3 76-6 95-25s21-43 18-78z" fill="#FDCD60" /><path d="M213 521l21 0 0 42.95-21 0 0-42.95Z" fill="#FF8859" /><path d="M781 521l21 0 0 42.95-21 0 0-42.95Z" fill="#FF8859" /><path d="M755 628c12-12 20-28 23-46l11 2h5a28 28 0 0 0 28-28v-27a28 28 0 0 0-20-27c7-54-3-99-30-133s-57-49-103-63-102-20-170-19-126 8-171 22-79 36-100 64-31 78-20 131a28 28 0 0 0-15 25v27a28 28 0 0 0 28 28h5l10-2v9c4 30 21 51 53 61 20 7 44 8 68 8h25c19-1 34-9 48-20a188 188 0 0 0 41 14 172 172 0 0 0 37 4 144 144 0 0 0 42-6 195 195 0 0 0 40-18c17 14 35 24 56 25 49 3 86-7 109-31z m39-107a8 8 0 0 1 8 8v27a8 8 0 0 1-8 8h-5a8 8 0 0 1-8-8v-27a8 8 0 0 1 8-8z m-561 35a8 8 0 0 1-8 8h-5a8 8 0 0 1-8-8v-27a8 8 0 0 1 8-8h5a8 8 0 0 1 8 8z m0-54h-6c-5-21-7-41-5-58s9-42 21-58c37-50 123-76 255-78s217 24 257 74c14 17 23 38 26 62s2 38-1 59l-5 2c-6-31-19-72-52-84h-1c-25-8-90-11-193-11-82 0-169 3-215 5-25 1-45 10-59 27s-19 37-22 60z m310 131c-20 6-45 7-68 1a167 167 0 0 1-30-10c11-12 20-25 28-37s24-35 32-35 5 0 13 8 16 16 24 26 19 22 30 33a167 167 0 0 1-29 14z m102 6c-33-2-63-37-87-65s-37-43-54-42-32 21-48 44-43 62-76 63c-71 3-119-5-125-51-1-8-2-19-3-30v-29a28 28 0 0 0-1-8c1-25 6-50 19-66s25-19 45-20c48-3 138-5 221-5s154 3 179 10c9 3 35 14 43 97 3 35-3 61-20 79s-48 26-93 23z" fill="#5546CB" /><path d="M536 705a13 13 0 1 0 13 13 13 13 0 0 0-13-13z" fill="#FFFFFF" /><path d="M536 693a25 25 0 1 0 25 25 25 25 0 0 0-25-25z m0 37a13 13 0 1 1 13-13 13 13 0 0 1-13 13z" fill="#5546CB" /><path d="M442 762a19 19 0 1 0 19 19 19 19 0 0 0-19-19z" fill="#FFFFFF" /><path d="M442 747a34 34 0 1 0 34 34 34 34 0 0 0-34-34z m0 53a19 19 0 1 1 19-19 19 19 0 0 1-19 19z" fill="#5546CB" /><path d="M303 717a33 33 0 1 0 33 33 33 33 0 0 0-33-33z" fill="#FFFFFF" /><path d="M303 697a53 53 0 1 0 53 53 53 53 0 0 0-53-53z m0 86a33 33 0 1 1 33-33 33 33 0 0 1-33 32z" fill="#5546CB" /><path d="M878 827V274c0-2-6-12-14-12s-14 5-14 12v549h-98v-45h9a8 8 0 0 0-1-16h-34a8 8 0 0 0-1 16h9v44h-9a18 18 0 0 0 2 35h140c3 0 7 0 9-2s3-12 3-26z m0-130h-27V592h27z m0-262h-27V330h27z" fill="#AFBCF3" /><path d="M898 830v-4-553c0-17-15-32-34-32s-34 14-34 32v530h-58v-9a28 28 0 0 0-12-53h-34a28 28 0 0 0-12 53v11a38 38 0 0 0 14 72h139c6 0 16-1 23-8s8-20 8-39z m-23 26c-2 2-6 2-9 2H728a18 18 0 0 1-2-35h9v-45h-9a8 8 0 0 1 1-16h33a8 8 0 0 1 1 16h-9v45h98V273c0-6 6-12 14-12s14 5 14 12v557c0 14 0 23-3 26z" fill="#5546CB" /><path d="M851 330h27v104.75h-27z" fill="#FFFFFF" /><path d="M851 592h27v104.75h-27z" fill="#FF8859" /></svg>