<?xml version="1.0" encoding="utf-8"?>
<!-- Uploaded to: SVG Repo, www.svgrepo.com, Generator: SVG Repo Mixer Tools -->
<svg width="800px" height="800px" viewBox="0 0 246 246" fill="none" xmlns="http://www.w3.org/2000/svg">
<g clip-path="url(#clip0_397_3176)">
<g filter="url(#filter0_iii_397_3176)">
<path d="M0 115C0 51.4872 51.4873 0 115 0H127C192.722 0 246 53.2781 246 119V127C246 192.722 192.722 246 127 246H123C55.069 246 0 190.931 0 123V115Z" fill="url(#paint0_radial_397_3176)"/>
</g>
<g filter="url(#filter1_i_397_3176)">
<path d="M102.893 125.902C104.337 127.543 105.059 129.348 105.059 131.317C105.059 133.548 104.173 135.517 102.401 137.224C100.695 138.864 98.7586 139.685 96.5928 139.685C94.2957 139.685 92.294 138.7 90.5875 136.731L76.6987 120.097C75.1085 118.193 72.1861 118.18 70.5797 120.071L56.4265 136.731C54.7201 138.7 52.7511 139.685 50.5197 139.685C48.3538 139.685 46.3849 138.832 44.6128 137.125C42.9064 135.419 42.0532 133.45 42.0532 131.218C42.0532 129.315 42.7424 127.543 44.1206 125.902L60.7635 106.659C62.0611 105.159 62.0631 102.934 60.7681 101.431L44.6128 82.6841C43.169 80.9777 42.447 79.2057 42.447 77.368C42.447 75.1365 43.3002 73.2004 45.0066 71.5596C46.7787 69.8532 48.7804 69 51.0119 69C53.309 69 55.3107 69.9845 57.0171 71.9534L70.5903 88.0163C72.1913 89.911 75.113 89.9067 76.7084 88.0074L90.1938 71.9534C91.7689 69.9845 93.705 69 96.0021 69C98.2336 69 100.203 69.8532 101.909 71.5596C103.681 73.2004 104.567 75.1365 104.567 77.368C104.567 79.2713 103.878 81.0433 102.5 82.6841L86.3384 101.438C85.0461 102.938 85.0452 105.157 86.3364 106.658L102.893 125.902Z" fill="#000000"/>
<path d="M102.893 125.902C104.337 127.543 105.059 129.348 105.059 131.317C105.059 133.548 104.173 135.517 102.401 137.224C100.695 138.864 98.7586 139.685 96.5928 139.685C94.2957 139.685 92.294 138.7 90.5875 136.731L76.6987 120.097C75.1085 118.193 72.1861 118.18 70.5797 120.071L56.4265 136.731C54.7201 138.7 52.7511 139.685 50.5197 139.685C48.3538 139.685 46.3849 138.832 44.6128 137.125C42.9064 135.419 42.0532 133.45 42.0532 131.218C42.0532 129.315 42.7424 127.543 44.1206 125.902L60.7635 106.659C62.0611 105.159 62.0631 102.934 60.7681 101.431L44.6128 82.6841C43.169 80.9777 42.447 79.2057 42.447 77.368C42.447 75.1365 43.3002 73.2004 45.0066 71.5596C46.7787 69.8532 48.7804 69 51.0119 69C53.309 69 55.3107 69.9845 57.0171 71.9534L70.5903 88.0163C72.1913 89.911 75.113 89.9067 76.7084 88.0074L90.1938 71.9534C91.7689 69.9845 93.705 69 96.0021 69C98.2336 69 100.203 69.8532 101.909 71.5596C103.681 73.2004 104.567 75.1365 104.567 77.368C104.567 79.2713 103.878 81.0433 102.5 82.6841L86.3384 101.438C85.0461 102.938 85.0452 105.157 86.3364 106.658L102.893 125.902Z" fill="#221725"/>
</g>
<g filter="url(#filter2_i_397_3176)">
<path d="M199.84 125.902C201.284 127.543 202.006 129.348 202.006 131.317C202.006 133.548 201.12 135.517 199.348 137.224C197.642 138.864 195.705 139.685 193.54 139.685C191.242 139.685 189.241 138.7 187.534 136.731L173.645 120.097C172.055 118.193 169.133 118.18 167.527 120.071L153.373 136.731C151.667 138.7 149.698 139.685 147.466 139.685C145.301 139.685 143.332 138.832 141.56 137.125C139.853 135.419 139 133.45 139 131.218C139 129.315 139.689 127.543 141.067 125.902L157.71 106.659C159.008 105.159 159.01 102.934 157.715 101.431L141.56 82.6841C140.116 80.9777 139.394 79.2057 139.394 77.368C139.394 75.1365 140.247 73.2004 141.953 71.5596C143.725 69.8532 145.727 69 147.959 69C150.256 69 152.258 69.9845 153.964 71.9534L167.537 88.0163C169.138 89.911 172.06 89.9067 173.655 88.0074L187.141 71.9534C188.716 69.9845 190.652 69 192.949 69C195.18 69 197.149 69.8532 198.856 71.5596C200.628 73.2004 201.514 75.1365 201.514 77.368C201.514 79.2713 200.825 81.0433 199.446 82.6841L183.285 101.438C181.993 102.938 181.992 105.157 183.283 106.658L199.84 125.902Z" fill="#000000"/>
<path d="M199.84 125.902C201.284 127.543 202.006 129.348 202.006 131.317C202.006 133.548 201.12 135.517 199.348 137.224C197.642 138.864 195.705 139.685 193.54 139.685C191.242 139.685 189.241 138.7 187.534 136.731L173.645 120.097C172.055 118.193 169.133 118.18 167.527 120.071L153.373 136.731C151.667 138.7 149.698 139.685 147.466 139.685C145.301 139.685 143.332 138.832 141.56 137.125C139.853 135.419 139 133.45 139 131.218C139 129.315 139.689 127.543 141.067 125.902L157.71 106.659C159.008 105.159 159.01 102.934 157.715 101.431L141.56 82.6841C140.116 80.9777 139.394 79.2057 139.394 77.368C139.394 75.1365 140.247 73.2004 141.953 71.5596C143.725 69.8532 145.727 69 147.959 69C150.256 69 152.258 69.9845 153.964 71.9534L167.537 88.0163C169.138 89.911 172.06 89.9067 173.655 88.0074L187.141 71.9534C188.716 69.9845 190.652 69 192.949 69C195.18 69 197.149 69.8532 198.856 71.5596C200.628 73.2004 201.514 75.1365 201.514 77.368C201.514 79.2713 200.825 81.0433 199.446 82.6841L183.285 101.438C181.993 102.938 181.992 105.157 183.283 106.658L199.84 125.902Z" fill="#221725"/>
</g>
<g filter="url(#filter3_diiii_397_3176)">
<path d="M164 190.5C164 179.494 159.628 168.938 151.845 161.155C144.062 153.372 133.506 149 122.5 149C111.494 149 100.938 153.372 93.1551 161.155C85.3723 168.938 81 179.494 81 190.5L122.5 190.5H164Z" fill="url(#paint1_linear_397_3176)"/>
</g>
</g>
<defs>
<filter id="filter0_iii_397_3176" x="-11" y="-24" width="278" height="326" filterUnits="userSpaceOnUse" color-interpolation-filters="sRGB">
<feFlood flood-opacity="0" result="BackgroundImageFix"/>
<feBlend mode="normal" in="SourceGraphic" in2="BackgroundImageFix" result="shape"/>
<feColorMatrix in="SourceAlpha" type="matrix" values="0 0 0 0 0 0 0 0 0 0 0 0 0 0 0 0 0 0 127 0" result="hardAlpha"/>
<feMorphology radius="8" operator="erode" in="SourceAlpha" result="effect1_innerShadow_397_3176"/>
<feOffset dx="21" dy="73"/>
<feGaussianBlur stdDeviation="24"/>
<feComposite in2="hardAlpha" operator="arithmetic" k2="-1" k3="1"/>
<feColorMatrix type="matrix" values="0 0 0 0 0.682806 0 0 0 0 0.0652778 0 0 0 0 0.783333 0 0 0 0.14 0"/>
<feBlend mode="normal" in2="shape" result="effect1_innerShadow_397_3176"/>
<feColorMatrix in="SourceAlpha" type="matrix" values="0 0 0 0 0 0 0 0 0 0 0 0 0 0 0 0 0 0 127 0" result="hardAlpha"/>
<feOffset dy="-24"/>
<feGaussianBlur stdDeviation="15.5"/>
<feComposite in2="hardAlpha" operator="arithmetic" k2="-1" k3="1"/>
<feColorMatrix type="matrix" values="0 0 0 0 0.943639 0 0 0 0 0.223611 0 0 0 0 0.958333 0 0 0 0.44 0"/>
<feBlend mode="normal" in2="effect1_innerShadow_397_3176" result="effect2_innerShadow_397_3176"/>
<feColorMatrix in="SourceAlpha" type="matrix" values="0 0 0 0 0 0 0 0 0 0 0 0 0 0 0 0 0 0 127 0" result="hardAlpha"/>
<feOffset dx="-11" dy="30"/>
<feGaussianBlur stdDeviation="15.5"/>
<feComposite in2="hardAlpha" operator="arithmetic" k2="-1" k3="1"/>
<feColorMatrix type="matrix" values="0 0 0 0 1 0 0 0 0 0.766722 0 0 0 0 0.693056 0 0 0 0.68 0"/>
<feBlend mode="normal" in2="effect2_innerShadow_397_3176" result="effect3_innerShadow_397_3176"/>
</filter>
<filter id="filter1_i_397_3176" x="42.0532" y="69" width="63.006" height="70.6848" filterUnits="userSpaceOnUse" color-interpolation-filters="sRGB">
<feFlood flood-opacity="0" result="BackgroundImageFix"/>
<feBlend mode="normal" in="SourceGraphic" in2="BackgroundImageFix" result="shape"/>
<feColorMatrix in="SourceAlpha" type="matrix" values="0 0 0 0 0 0 0 0 0 0 0 0 0 0 0 0 0 0 127 0" result="hardAlpha"/>
<feMorphology radius="26.45" operator="dilate" in="SourceAlpha" result="effect1_innerShadow_397_3176"/>
<feOffset dx="9.2" dy="-7"/>
<feGaussianBlur stdDeviation="10.35"/>
<feComposite in2="hardAlpha" operator="arithmetic" k2="-1" k3="1"/>
<feColorMatrix type="matrix" values="0 0 0 0 0.462111 0 0 0 0 0.203767 0 0 0 0 0.504167 0 0 0 0.35 0"/>
<feBlend mode="normal" in2="shape" result="effect1_innerShadow_397_3176"/>
</filter>
<filter id="filter2_i_397_3176" x="139" y="69" width="63.006" height="70.6848" filterUnits="userSpaceOnUse" color-interpolation-filters="sRGB">
<feFlood flood-opacity="0" result="BackgroundImageFix"/>
<feBlend mode="normal" in="SourceGraphic" in2="BackgroundImageFix" result="shape"/>
<feColorMatrix in="SourceAlpha" type="matrix" values="0 0 0 0 0 0 0 0 0 0 0 0 0 0 0 0 0 0 127 0" result="hardAlpha"/>
<feMorphology radius="26.45" operator="dilate" in="SourceAlpha" result="effect1_innerShadow_397_3176"/>
<feOffset dx="9.2" dy="-7"/>
<feGaussianBlur stdDeviation="10.35"/>
<feComposite in2="hardAlpha" operator="arithmetic" k2="-1" k3="1"/>
<feColorMatrix type="matrix" values="0 0 0 0 0.462111 0 0 0 0 0.203767 0 0 0 0 0.504167 0 0 0 0.35 0"/>
<feBlend mode="normal" in2="shape" result="effect1_innerShadow_397_3176"/>
</filter>
<filter id="filter3_diiii_397_3176" x="47.6667" y="121.667" width="149.667" height="108.167" filterUnits="userSpaceOnUse" color-interpolation-filters="sRGB">
<feFlood flood-opacity="0" result="BackgroundImageFix"/>
<feColorMatrix in="SourceAlpha" type="matrix" values="0 0 0 0 0 0 0 0 0 0 0 0 0 0 0 0 0 0 127 0" result="hardAlpha"/>
<feOffset dy="6"/>
<feGaussianBlur stdDeviation="16.6667"/>
<feColorMatrix type="matrix" values="0 0 0 0 0.0298758 0 0 0 0 0.0216858 0 0 0 0 0.0308333 0 0 0 0.24 0"/>
<feBlend mode="normal" in2="BackgroundImageFix" result="effect1_dropShadow_397_3176"/>
<feBlend mode="normal" in="SourceGraphic" in2="effect1_dropShadow_397_3176" result="shape"/>
<feColorMatrix in="SourceAlpha" type="matrix" values="0 0 0 0 0 0 0 0 0 0 0 0 0 0 0 0 0 0 127 0" result="hardAlpha"/>
<feOffset dy="-34"/>
<feGaussianBlur stdDeviation="2.59259"/>
<feComposite in2="hardAlpha" operator="arithmetic" k2="-1" k3="1"/>
<feColorMatrix type="matrix" values="0 0 0 0 0.17328 0 0 0 0 0.125777 0 0 0 0 0.178833 0 0 0 1 0"/>
<feBlend mode="normal" in2="shape" result="effect2_innerShadow_397_3176"/>
<feColorMatrix in="SourceAlpha" type="matrix" values="0 0 0 0 0 0 0 0 0 0 0 0 0 0 0 0 0 0 127 0" result="hardAlpha"/>
<feOffset dy="-40"/>
<feGaussianBlur stdDeviation="1.2963"/>
<feComposite in2="hardAlpha" operator="arithmetic" k2="-1" k3="1"/>
<feColorMatrix type="matrix" values="0 0 0 0 0.119503 0 0 0 0 0.086743 0 0 0 0 0.123333 0 0 0 1 0"/>
<feBlend mode="normal" in2="effect2_innerShadow_397_3176" result="effect3_innerShadow_397_3176"/>
<feColorMatrix in="SourceAlpha" type="matrix" values="0 0 0 0 0 0 0 0 0 0 0 0 0 0 0 0 0 0 127 0" result="hardAlpha"/>
<feMorphology radius="26.45" operator="dilate" in="SourceAlpha" result="effect4_innerShadow_397_3176"/>
<feOffset dx="9.2" dy="-13"/>
<feGaussianBlur stdDeviation="10.35"/>
<feComposite in2="hardAlpha" operator="arithmetic" k2="-1" k3="1"/>
<feColorMatrix type="matrix" values="0 0 0 0 0.462111 0 0 0 0 0.203767 0 0 0 0 0.504167 0 0 0 0.35 0"/>
<feBlend mode="normal" in2="effect3_innerShadow_397_3176" result="effect4_innerShadow_397_3176"/>
<feColorMatrix in="SourceAlpha" type="matrix" values="0 0 0 0 0 0 0 0 0 0 0 0 0 0 0 0 0 0 127 0" result="hardAlpha"/>
<feMorphology radius="26.45" operator="dilate" in="SourceAlpha" result="effect5_innerShadow_397_3176"/>
<feOffset dx="9.2" dy="-31"/>
<feGaussianBlur stdDeviation="10.35"/>
<feComposite in2="hardAlpha" operator="arithmetic" k2="-1" k3="1"/>
<feColorMatrix type="matrix" values="0 0 0 0 0.462111 0 0 0 0 0.203767 0 0 0 0 0.504167 0 0 0 0.35 0"/>
<feBlend mode="normal" in2="effect4_innerShadow_397_3176" result="effect5_innerShadow_397_3176"/>
</filter>
<radialGradient id="paint0_radial_397_3176" cx="0" cy="0" r="1" gradientUnits="userSpaceOnUse" gradientTransform="translate(109 16) rotate(86.5167) scale(230.426)">
<stop offset="0.576389" stop-color="#FFBB0C"/>
<stop offset="1" stop-color="#FFC907"/>
</radialGradient>
<linearGradient id="paint1_linear_397_3176" x1="122.5" y1="149" x2="122.5" y2="232" gradientUnits="userSpaceOnUse">
<stop stop-color="#201721"/>
<stop offset="1" stop-color="#2B1F2C"/>
</linearGradient>
<clipPath id="clip0_397_3176">
<rect width="246" height="246" fill="white"/>
</clipPath>
</defs>
</svg>