<?xml version="1.0" standalone="no"?><!DOCTYPE svg PUBLIC "-//W3C//DTD SVG 1.1//EN" "http://www.w3.org/Graphics/SVG/1.1/DTD/svg11.dtd"><svg t="1698246155168" class="icon" viewBox="0 0 1024 1024" version="1.1" xmlns="http://www.w3.org/2000/svg" p-id="4666" xmlns:xlink="http://www.w3.org/1999/xlink" width="200" height="200"><path d="M72.448 632.7808L487.936 205.0048l114.3808 117.76-415.5392 427.776H72.448v-117.76zM598.528 87.2448l114.3808 117.76-64.8192 66.7136-114.3808-117.76 64.8192-66.7136zM34.304 825.088h163.84c7.68 0 19.1488-3.8912 22.9376-11.776L785.3568 232.448c15.3088-15.6672 15.3088-35.328 0-50.9952L625.3056 12.6976c-15.3088-15.7184-34.304-15.7184-49.664 0L11.4688 593.5104c-7.6288 7.8848-11.4176 15.7184-11.4176 23.552v168.8064a43.008 43.008 0 0 0 11.4176 27.4432c3.84 7.8848 15.2576 11.776 22.8864 11.776z m922.624 105.984H38.0928a34.7136 34.7136 0 0 0-34.304 35.328c0 19.6096 15.2576 35.328 34.304 35.328h922.624c19.0464 0 34.304-15.7184 34.304-35.328-3.7888-15.7184-19.0464-35.328-38.144-35.328z" fill="#1C2134" p-id="4667"></path></svg>