<svg xmlns="http://www.w3.org/2000/svg" width="24" height="24" viewBox="0 0 24 24" fill="none">
  <path d="M12.778 20.4324C13.0553 20.4973 13.0805 20.8625 12.8103 20.9528L11.2176 21.4803C7.21564 22.7788 5.10883 21.6933 3.80845 17.666L2.51815 13.6589C1.22785 9.63155 2.29638 7.5012 6.29832 6.20271L6.82654 6.0262C7.23278 5.89127 7.62794 6.30111 7.51201 6.71602C7.45556 6.92094 7.40113 7.136 7.34669 7.35918L6.35881 11.6097C5.24995 16.3878 6.87291 19.0253 11.6208 20.1615L12.778 20.4324Z" fill="#CCCCCC"/>
  <path d="M17.2014 3.21161L15.5314 2.81992C12.1914 2.0265 10.2014 2.67932 9.03143 5.1098C8.73143 5.72245 8.49143 6.46565 8.29143 7.31933L7.31143 11.5275C6.33143 15.7256 7.62143 17.7945 11.7914 18.7888L13.4714 19.1906C14.0514 19.3312 14.5914 19.4215 15.0914 19.4617C18.2114 19.763 19.8714 18.2967 20.7114 14.6711L21.6914 10.4729C22.6714 6.27483 21.3914 4.19586 17.2014 3.21161ZM15.3214 13.3755C15.2314 13.7169 14.9314 13.9379 14.5914 13.9379C14.5314 13.9379 14.4714 13.9278 14.4014 13.9178L11.4914 13.1746C11.311 13.1148 11.1599 12.9885 11.0686 12.8212C10.9773 12.6538 10.9526 12.4579 10.9996 12.273C11.0466 12.0881 11.1617 11.928 11.3216 11.825C11.4816 11.7221 11.6745 11.6839 11.8614 11.7183L14.7714 12.4615C15.1814 12.562 15.4214 12.9737 15.3214 13.3755ZM18.2514 9.98082C18.1614 10.3223 17.8614 10.5432 17.5214 10.5432C17.4614 10.5432 17.4014 10.5332 17.3314 10.5232L12.4814 9.28783C12.301 9.22807 12.1499 9.10175 12.0586 8.9344C11.9673 8.76704 11.9426 8.57113 11.9896 8.38623C12.0366 8.20133 12.1517 8.04123 12.3116 7.93827C12.4716 7.83531 12.6645 7.79717 12.8514 7.83155L17.7014 9.06687C18.1114 9.15726 18.3514 9.56904 18.2514 9.98082Z" fill="#CCCCCC"/>
</svg>
