<?xml version="1.0" encoding="utf-8"?>
<!-- Uploaded to: SVG Repo, www.svgrepo.com, Generator: SVG Repo Mixer Tools -->
<svg width="800px" height="800px" viewBox="0 0 1024 1024" class="icon"  version="1.1" xmlns="http://www.w3.org/2000/svg"><path d="M237 902.8h81.9v114H237zM707.1 902.8H789v114h-81.9z" fill="#EFCE0F" /><path d="M237 318.3h551.9V404H237zM155.2 713.4h715.7v196.2H155.2z" fill="#E02D2D" /><path d="M155.2 403h81.9v506.7h-81.9zM789 403h81.9v506.7H789z" fill="#E02D2D" /><path d="M237 768.7h81.9v85.7H237zM707.1 768.7H789v85.7h-81.9zM472.1 9.7H554v77.2h-81.9zM390.2 86.8h81.9V164h-81.9z" fill="#EFCE0F" /><path d="M553.9 86.8h81.9V164h-81.9zM308.3 164h81.9v77.2h-81.9zM635.8 164h81.9v77.2h-81.9z" fill="#EFCE0F" /><path d="M390.2 241.1h81.9v77.2h-81.9zM553.9 241.1h81.9v77.2h-81.9z" fill="#EFCE0F" /></svg>