<?xml version="1.0" encoding="utf-8"?>
<!-- Uploaded to: SVG Repo, www.svgrepo.com, Generator: SVG Repo Mixer Tools -->
<svg width="800px" height="800px" viewBox="0 0 1024 1024" class="icon"  version="1.1" xmlns="http://www.w3.org/2000/svg"><path d="M321.32 935.84q-94-69.1-98.59-106.46T292 696.93q-88.06-33.32-99.85-62.93t30.58-111q-53.07-120.54-30.58-167.2t149.58-79.64q25.65-62.31 63.17-82.88t129-22.48l92 51.31q151 18.59 172.69 54t-28.42 181.7q36.09 61.55 48.4 95.52t0 80.67q-24.57 69.94-48.4 81.53t-99.1 0l-71.44 113.85L493 851.87q-41.29 69.73-70.39 84t-101.29-0.03z" fill="#FFFFFF" /><path d="M278.39 699.56a128.56 128.56 0 0 0 114.44-1.09v2.33A139.9 139.9 0 0 0 505.63 838a139.91 139.91 0 1 1-227.24-138.44z" fill="#DBBFFF" /><path d="M468 905c-53.49-15.87-110.45-40.72-143.6-81.52-21.23-26.13-47.15-69.79-66.31-102.37a140.69 140.69 0 0 1 20.28-21.5 128.56 128.56 0 0 0 114.44-1.09v2.33A139.9 139.9 0 0 0 505.63 838 139.61 139.61 0 0 1 468 905z" fill="#CE87FF" /><path d="M375.29 291.45A140 140 0 0 1 614 284q0.28 4.46 0.28 9a139.32 139.32 0 0 1-11.46 55.53 151.71 151.71 0 0 0-168.79-12.21 140.32 140.32 0 0 0-58.74-44.87z" fill="#E2CDFF" /><path d="M392.83 698.47A128.41 128.41 0 0 0 460 611a152.55 152.55 0 0 0 87.65 3.38 140 140 0 0 0 123.13 109.09 139.91 139.91 0 0 1-278-22.66q0.03-1.17 0.05-2.34z" fill="#DBBFFF" /><path d="M637.55 793.4c-42.05-18.92-75.36-45.22-83.22-81-17 4.42-12.81 11.47-31.19 11.47-24.09 0-65.31 9.42-86.87 2-12.94 7.48-24.77 14.51-35.66 21.12a139.57 139.57 0 0 1-7.79-46.14v-2.33A128.41 128.41 0 0 0 460 611a152.55 152.55 0 0 0 87.65 3.38 140 140 0 0 0 123.13 109.09 139.3 139.3 0 0 1-33.23 69.93z" fill="#CE87FF" /><path d="M460 611a128.25 128.25 0 1 1-236.28-91.24A140.07 140.07 0 0 0 381 548.34 152 152 0 0 0 460 611z" fill="#DBBFFF" /><path d="M439.63 657.73a169.12 169.12 0 0 1-33.5-38.66 155.55 155.55 0 0 1-174.75-31.74 141.39 141.39 0 0 0-16.49 43.21 128.43 128.43 0 0 1 8.79-110.79A140.07 140.07 0 0 0 381 548.34 152 152 0 0 0 460 611a127.5 127.5 0 0 1-20.37 46.73z" fill="#CE87FF" /><path d="M812.07 340.1q0.43 5.5 0.44 11.12a139.62 139.62 0 0 1-57 112.67 139.29 139.29 0 0 0-71.21-19.45 140.88 140.88 0 0 0-23.65 2 140.18 140.18 0 0 0-4.13-113.49 140 140 0 0 1 155.57 7.16zM296.46 558.48a139.91 139.91 0 0 1 120.41-240.9 140.68 140.68 0 0 1 17.19 18.69 151.52 151.52 0 0 0-53 212.07 140.66 140.66 0 0 1-84.58 10.14z" fill="#E2CDFF" /><path d="M547.62 614.38a151.67 151.67 0 0 0 111.87-167.75 139.84 139.84 0 1 1-111.87 167.75z" fill="#DBBFFF" /><path d="M789.32 491.94a141.45 141.45 0 0 0-51-0.26 151.67 151.67 0 0 1-111.83 167.75 139.4 139.4 0 0 0 31.59 62.24 140 140 0 0 1-110.46-107.29 151.67 151.67 0 0 0 111.87-167.75 140.19 140.19 0 0 1 129.84 45.31z" fill="#CE87FF" /><path d="M514 616.89a152.05 152.05 0 0 1 79.72-281.57h0.85a152.05 152.05 0 0 1-79.72 281.57z" fill="#E2CDFF" /><path d="M369.5 966c-88.43 0-160.38-71.92-160.38-160.32A160.19 160.19 0 0 1 265.05 684l10.21-8.77 12.1 5.9a108.08 108.08 0 0 0 96.15-0.91l30.36-15.52-0.56 34.09v2a119.53 119.53 0 0 0 96.28 117.12l20.9 4.1-4.91 20.72A160.42 160.42 0 0 1 369.5 966z m-86.77-242.32a119.23 119.23 0 0 0-32.65 82c0 65.81 53.57 119.32 119.42 119.32a118.14 118.14 0 0 0 74.59-26.14 120.25 120.25 0 0 0 35.45-46.8 160.81 160.81 0 0 1-105-124.64 149.54 149.54 0 0 1-40 5.48 147.54 147.54 0 0 1-51.81-9.22zM611.09 381l-20.88-16.4a129.77 129.77 0 0 0-80.82-27.86A131.09 131.09 0 0 0 444.25 354l-15.56 9-10.9-14.25a119.62 119.62 0 0 0-84.58-46.49l-20.27-1.73 1.6-20.28a160.37 160.37 0 0 1 159.88-147.61c88.43 0 160.38 71.92 160.38 160.31a159.21 159.21 0 0 1-13.15 63.67z m-101.7-85.19a170.41 170.41 0 0 1 82.12 20.78 119.91 119.91 0 0 0 2.32-23.59c0-65.81-53.57-119.35-119.42-119.35a119.48 119.48 0 0 0-116.07 91.18 160.91 160.91 0 0 1 80.8 46 172.4 172.4 0 0 1 70.25-15.05z" fill="" /><path d="M532.71 861.12c-88.43 0-160.38-71.92-160.38-160.32v-2.67l0.2-12.3 11-5.6a107.27 107.27 0 0 0 56.43-73.49l4.81-22.66 21.9 7.55a132.1 132.1 0 0 0 75.83 2.92l20.59-5.35 4.53 20.8a119.49 119.49 0 0 0 105.11 93.1l21.79 2.08-3.52 21.59a160.39 160.39 0 0 1-158.29 134.35zM413.66 710.18a119.45 119.45 0 0 0 231.91 29.73 160.81 160.81 0 0 1-112.44-101.82 173.69 173.69 0 0 1-59.14-2 147.83 147.83 0 0 1-60.33 74.09z" fill="" /><path d="M334.52 732.94c-82 0-148.72-66.69-148.72-148.66a148.56 148.56 0 0 1 20.2-74.85l13.42-23 18.78 18.87a119.6 119.6 0 0 0 134.32 24.41l16.3-7.46 9.55 15.17a131.74 131.74 0 0 0 68.27 54.21l17.12 5.9-3.76 17.72a148.75 148.75 0 0 1-145.48 117.69z m-103.1-180a107.77 107.77 0 0 0 203.71 70 173.22 173.22 0 0 1-61.58-49.62 160.92 160.92 0 0 1-142.14-20.39zM756.7 488.42l-11.7-6.91a119.29 119.29 0 0 0-60.78-16.59 120.73 120.73 0 0 0-21.18 1.87l-20.94 3.74-2.94-21.07a130.28 130.28 0 0 0-49-84.86l-12.44-9.75 6.29-14.51a119.67 119.67 0 0 0-2.3-99.76l-8.23-16.81 16-9.71a160.18 160.18 0 0 1 83.07-23.16C761 190.9 833 262.82 833 351.22a160.09 160.09 0 0 1-65.37 129.16zM684.26 424A160.5 160.5 0 0 1 753 439.42a119.92 119.92 0 0 0 39-88.2c0-65.81-53.57-119.35-119.42-119.35a119.54 119.54 0 0 0-46.34 9.32 161.21 161.21 0 0 1 0.8 101.09 170.69 170.69 0 0 1 48.8 81.9q4.22-0.18 8.42-0.18z" fill="" /><path d="M322.86 581.45c-88.43 0-160.38-71.92-160.38-160.31s71.95-160.32 160.38-160.32a159.32 159.32 0 0 1 127.46 63l14.21 18.57L444.25 354a131 131 0 0 0-45.88 183.39l12.47 19.8-21.27 9.81a159.16 159.16 0 0 1-66.71 14.45z m0-279.67c-65.85 0-119.42 53.54-119.42 119.35S257 540.49 322.86 540.49a119.56 119.56 0 0 0 29-3.53A172 172 0 0 1 403 332.6a118.5 118.5 0 0 0-80.14-30.82zM684.26 744.59a160.41 160.41 0 0 1-156.65-125.82l-4.23-19.26 19.08-5a131 131 0 0 0 98-126.81 132.84 132.84 0 0 0-1.26-18.29l-2.72-19.52 19.41-3.47a161.88 161.88 0 0 1 28.37-2.42c88.43 0 160.38 71.92 160.38 160.32S772.7 744.59 684.26 744.59zM573 627.6a119.46 119.46 0 0 0 111.3 76c65.85 0 119.42-53.54 119.42-119.35s-53.61-119.33-119.46-119.33h-2.86v2.79A172 172 0 0 1 573 627.6z" fill="" /><path d="M514.83 637.38c-95.17 0-172.6-77.4-172.6-172.53s77.43-172.53 172.6-172.53 172.6 77.4 172.6 172.53S610 637.38 514.83 637.38z m0-304.1c-72.58 0-131.64 59-131.64 131.57s59.05 131.57 131.64 131.57 131.63-59 131.63-131.57-59.04-131.57-131.63-131.57zM610.59 239.56a20.49 20.49 0 0 1-18.08-30.07c21.62-40.83 44.72-72.46 68.67-94 25.75-23.18 53.33-35.67 82-37.12a20.48 20.48 0 1 1 2.07 40.91c-40 2-79.15 38.83-116.52 109.41a20.48 20.48 0 0 1-18.14 10.87z" fill="" /><path d="M373.63 197.53q-35.59-33.6-57.74-88.85 93.33-49.93 175.2-20.13t121.27 128q-8.35 4.47-16.61 8.29a135.28 135.28 0 0 0-222.12-27.36z" fill="#89D66D" /><path d="M586.53 251.75l-9-17.5A114.8 114.8 0 0 0 389 211l-14 16-15.46-14.59c-25.79-24.35-46.88-56.69-62.69-96.11l-6.83-17 16.18-8.65c67.28-36 131.84-43.17 191.87-21.32S603 138.15 631.37 209l6.83 17-16.2 8.65a349.61 349.61 0 0 1-17.65 8.82zM342.46 118.36c9.1 19.11 19.7 35.82 31.68 50a156.11 156.11 0 0 1 171.28-20.89A164.09 164.09 0 0 0 408.69 99c-21.25 2.48-43.46 9-66.23 19.36z" fill="" /></svg>