<?xml version="1.0" encoding="utf-8"?>
<!-- Uploaded to: SVG Repo, www.svgrepo.com, Generator: SVG Repo Mixer Tools -->
<svg width="800px" height="800px" viewBox="0 0 1024 1024" class="icon"  version="1.1" xmlns="http://www.w3.org/2000/svg"><path d="M221.903121 394.909943s3.03397-23.001723 16.580997-33.938125c4.515676-6.279611 3.03397-23.001723-4.515676-26.670709-8.537449-10.4425-22.084476-44.945084 0-64.771722 8.043547-8.325777 19.614966-15.66375 10.019155-33.938124-5.997382-24.060084-0.987804-79.94157 66.253428-67.382347 11.077517 4.727348 23.07228 15.66375 26.600152 27.164611 6.561841 10.936402 11.077517 18.274375 38.17157 12.559223 7.055743 1.058361 41.699442 6.279611 38.171571 50.660236C382.562392 287.87432 301.280232 368.803693 301.280232 368.803693l-21.096672 46.497347-13.053125 5.22125-45.227314-25.612347z" fill="#8EC881" /><path d="M237.072969 381.786261s-15.452077 1.693378-23.07228 11.218631c-4.304003 3.104527-15.452077 1.693378-17.709915-3.880659-6.773513-6.420726-29.563564-17.004341-43.322263-1.411148-5.785709 5.644595-10.936402 13.829257-22.931165 6.491283-15.945979-4.868463-53.411975-2.46951-46.567905 46.497348 2.892855 8.114105 9.948598 17.074898 17.568801 19.897195 7.196858 4.93902 11.994763 8.396334 7.549645 27.940743 0.564459 5.080135 3.245642 30.339695 33.091435 28.716875 20.249983-21.520017 76.202026-78.671536 76.202026-78.671536l31.539172-14.252601 3.810101-9.313581-16.157652-33.23255z" fill="#8EC881" /><path d="M294.224488 330.138221c-1.481706 0.141115-2.892855-0.987804-3.033969-2.540068l-13.335355-127.850065c-0.141115-1.552263 0.917247-2.963412 2.46951-3.175084 1.481706-0.141115 2.892855 0.987804 3.03397 2.540067l13.335354 127.850065c0.141115 1.552263-0.987804 3.03397-2.46951 3.175085zM218.163577 495.665955c-0.846689 1.340591-2.540068 1.693378-3.810101 0.846689l-104.001653-69.49907c-1.270034-0.846689-1.622821-2.610625-0.84669-3.951216 0.846689-1.340591 2.540068-1.693378 3.810102-0.846689L217.316888 491.714739c1.270034 0.846689 1.693378 2.610625 0.846689 3.951216zM157.131399 447.757459c-1.411149 0.564459-3.03397-0.211672-3.527871-1.693379l-14.887618-41.699441c-0.493902-1.481706 0.211672-3.175084 1.622821-3.668987 1.411149-0.564459 3.03397 0.211672 3.527871 1.693379l14.887618 41.699441c0.493902 1.481706-0.211672 3.104527-1.622821 3.668987zM176.675808 476.968235c-0.352787-1.552263-1.834493-2.540068-3.316199-2.18728l-28.29353 6.420726c-1.481706 0.352787-2.398953 1.905051-2.116723 3.386757 0.352787 1.552263 1.834493 2.540068 3.316199 2.18728l28.29353-6.420726c1.481706-0.352787 2.46951-1.834493 2.116723-3.386757z" fill="#FFFFFF" /><path d="M635.793013 387.28974c-7.479088-96.875353-85.303934-173.077379-180.344794-173.077379s-172.865707 76.202026-180.344794 173.077379h360.689588z" fill="#F5AD1A" /><path d="M601.925446 387.28974c-6.067939-78.671536-69.287398-140.620961-146.477227-140.62096-77.18983 0-140.409288 61.878867-146.477227 140.62096h292.954454z" fill="#EACC53" /><path d="M560.437677 387.28974c-4.304003-56.375388-49.672432-100.756012-104.989458-100.756012S354.833322 330.914353 350.458761 387.28974h209.978916z" fill="#F5ECDA" /><path d="M707.056019 638.191966C694.285124 471.746985 560.508234 340.792393 397.238338 340.792393c-163.269896 0-297.046786 130.954592-309.817681 297.399573h619.635362z" fill="#F5AD1A" /><path d="M648.916695 638.191966C638.544753 503.003928 529.886309 396.603321 397.238338 396.603321c-132.577413 0-241.235858 106.330049-251.678357 241.518087h503.356714z" fill="#EACC53" /><path d="M577.583132 638.191966C570.104045 541.316613 492.279198 465.044029 397.238338 465.044029s-172.865707 76.202026-180.344794 173.077379h360.689588z" fill="#F5ECDA" /><path d="M799.486254 102.943292L639.250327 401.824571c-2.540068 4.727348-0.917247 10.72473 3.668987 13.405912 4.515676 2.610625 10.301385 0.917247 12.841452-3.810101l160.235927-298.881279c2.540068-4.727348 0.917247-10.72473-3.668987-13.405912-4.515676-2.610625-10.301385-0.917247-12.841452 3.810101zM844.36078 135.68194l-160.165369 298.881279c-2.540068 4.727348-0.917247 10.72473 3.668986 13.405912 4.515676 2.610625 10.301385 0.917247 12.841453-3.810101l160.235926-298.881279c2.540068-4.727348 0.917247-10.72473-3.668986-13.405912-4.586233-2.610625-10.371942-0.917247-12.91201 3.810101z" fill="#6C4820" /><path d="M83.822228 695.272928l68.440709 179.709777c12.206436 28.434645 20.32054 46.920692 45.086198 46.920692h626.902777c23.283952 0 33.655895-17.357128 44.874526-42.122787 1.270034-2.892855 3.951216-8.537449 5.150693-11.430303l69.428512-173.077379H83.822228z" fill="#FFFFFF" /><path d="M824.32247 932.487012H197.419693c-31.962516 0-42.546131-24.695101-54.823124-53.341418l-0.141115-0.423345-73.944188-194.032936h890.928684l-75.284779 187.61221c-0.987804 2.328395-2.540068 5.856267-3.951216 8.890236-0.493902 1.128919-0.987804 2.18728-1.340591 2.963412-11.571419 25.471233-24.483429 48.33184-54.540894 48.331841z m-662.25205-61.455523c13.053125 30.48081 18.768277 40.288293 35.278715 40.288293h626.902777c16.228209 0 23.989527-11.077517 35.208158-35.913732 0.352787-0.846689 0.917247-1.905051 1.411149-3.104527 1.270034-2.681182 2.822297-6.067939 3.598429-7.97299l63.572245-158.471991H99.203748l62.866672 165.174947z" fill="#704A21" /><path d="M989.567974 716.157927H34.432026c-1.693378 0-3.03397-1.411149-3.033969-3.033969V600.796527c0-1.693378 1.411149-3.03397 3.033969-3.033969h955.135948c1.693378 0 3.03397 1.411149 3.033969 3.033969v112.256873c0.070557 1.693378-1.340591 3.104527-3.033969 3.104527z" fill="#FFFFFF" /><path d="M989.567974 726.741542H34.432026c-7.549645 0-13.617584-6.138497-13.617584-13.617584V600.796527c0-7.549645 6.138497-13.617584 13.617584-13.617584h955.135948c7.549645 0 13.617584 6.138497 13.617584 13.617584v112.256873c0.070557 7.549645-6.067939 13.688142-13.617584 13.688142z m-947.586302-21.167229h940.107214V608.346172H41.981672V705.574313z" fill="#704A21" /><path d="M942.717839 588.025632C929.946944 421.580652 796.170054 290.626059 632.900158 290.626059c-163.269896 0-297.046786 130.954592-309.81768 297.399573h619.635361z" fill="#F5AD1A" /><path d="M884.507958 588.025632C874.136016 452.837594 765.477572 346.436988 632.829601 346.436988 500.252188 346.436988 391.593744 452.837594 381.151244 588.025632h503.356714z" fill="#EACC53" /><path d="M813.174395 588.025632c-7.479088-96.875353-85.303934-173.077379-180.344794-173.077379s-172.865707 76.202026-180.344794 173.077379h360.689588z" fill="#F5ECDA" /><path d="M291.684421 250.619996c-1.340591-0.776132-1.763936-2.610625-0.987804-3.951216l21.802246-38.171571c0.776132-1.340591 2.46951-1.834493 3.810101-0.987804 1.340591 0.776132 1.763936 2.610625 0.987804 3.951217l-21.802246 38.17157c-0.776132 1.340591-2.46951 1.763936-3.810101 0.987804zM296.693998 298.03459c-1.340591-0.776132-1.763936-2.610625-0.987804-3.951216l21.802247-38.171571c0.776132-1.340591 2.46951-1.834493 3.810101-0.987804 1.340591 0.776132 1.763936 2.610625 0.987804 3.951216l-21.872804 38.171571c-0.776132 1.340591-2.46951 1.763936-3.739544 0.987804zM282.159168 284.769793c0.917247-1.199476 0.776132-3.03397-0.423345-4.021774l-22.648935-18.909392c-1.199476-0.987804-2.963412-0.776132-3.880659 0.423345-0.917247 1.199476-0.776132 3.03397 0.423344 4.021774l22.648936 18.909391c1.199476 1.058361 2.963412 0.846689 3.880659-0.423344z" fill="#FFFFFF" /></svg>