<?xml version="1.0" encoding="utf-8"?>
<!-- Uploaded to: SVG Repo, www.svgrepo.com, Generator: SVG Repo Mixer Tools -->
<svg width="800px" height="800px" viewBox="0 0 1024 1024" class="icon"  version="1.1" xmlns="http://www.w3.org/2000/svg"><path d="M817 154l-48-13 48-13 13-49 13 49 48 13-48 13-13 48-13-48zM865 206l-19-4 19-4 4-19 5 19 18 4-18 4-5 19-4-19z" fill="#FDCD60" /><path d="M185 698l-20-5 20-5 5-21 5 21 21 5-21 5-5 21-5-21z" fill="#FDCD60" /><path d="M146 240m-9 0a9 9 0 1 0 18 0 9 9 0 1 0-18 0Z" fill="#5546CB" /><path d="M255 796l-28-6 28-7 6-27 7 27 27 7-27 6-7 27-6-27z" fill="#FDCD60" /><path d="M765 760a25 25 0 1 1 25-25 25 25 0 0 1-25 25z m0-36a10 10 0 1 0 10 10 10 10 0 0 0-10-9z" fill="#5546CB" /><path d="M263 565a25 25 0 0 1-1-5c0-14 12-26 27-26s25 10 27 23l11-3c15 0 27 11 27 26s-6 26-21 26l-67 11c-10 1-13 0-14-3a26 26 0 0 1-15-23c0-14 12-26 27-26z" fill="#FFFFFF" /><path d="M485 115c-23 30-56 137-52 280 2 63 17 183 54 350h1c37-167 55-287 57-350 5-144-35-251-58-280h-2zM517 117c40 6 76 17 107 35a269 269 0 0 0-107-35zM266 502a465 465 0 0 1-25-47 406 406 0 0 0 25 47zM486 746zM373 140c24-11 51-18 81-23a270 270 0 0 0-81 23z" fill="#FFFFFF" /><path d="M493 115h-1c6 2 19 9 45 24 43 25 101 110 95 229-5 85-37 216-142 376l46-43c123-124 171-266 180-309a253 253 0 0 0 5-34c-7 0-14-1-18-7a44 44 0 0 1-23-39c0-19 12-35 29-41-32-77-111-131-216-156zM440 704l46 42h2C381 585 340 457 339 372c-2-129 30-176 78-214s57-40 65-43h-1c-165 41-254 164-229 286 4 21 19 64 47 117a43 43 0 0 1 28 19c24 0 44 19 44 43 0 13-4 24-11 32a816 816 0 0 0 80 92z" fill="#FFFFFF" /><path d="M491 115zM490 744c17-14 32-28 47-43l-46 43zM488 746zM486 115zM484 114zM488 746zM486 746l-46-42q21 21 46 42zM487 746z" fill="#5546CB" /><path d="M720 358a253 253 0 0 1-5 34c-9 43-57 184-179 309-14 15-30 29-47 43 106-160 138-291 143-376 7-119-52-204-95-229-26-15-39-22-45-24h1c105 25 184 79 214 156l7-2a43 43 0 0 1 7-22c-25-41-58-73-98-95s-67-29-107-35l-28-3h-1c23 30 63 137 58 280-2 63-20 182-57 350h-1c-37-168-52-287-54-350-5-144 29-251 52-280h1l-33 3c-30 4-56 12-81 23-53 23-93 61-123 112s-34 107-27 147c3 17 9 36 19 56a465 465 0 0 0 25 47l10 16 13-2h10c-28-53-42-95-47-117-26-122 63-245 228-286h1c-8 3-27 13-65 43s-80 85-78 214c1 85 43 213 149 374h1l2-3c96-81 163-162 189-199 39-54 65-108 73-148 2-12 3-27 2-44l-25 3zM486 746q-25-21-46-42a816 816 0 0 1-80-92l-6 5a1333 1333 0 0 0 132 129z" fill="#FDCD60" /><path d="M430 842h113v63.81H430z" fill="#FF8859" /><path d="M811 274l-11 3-12 5v-13c-1-13-12-22-26-22s-26 11-26 25a24 24 0 0 0 1 5l3 12h-16c-14 0-26 11-26 25a24 24 0 0 0 14 22l4 2v2h9c23-2 49-7 90-14h2c15 0 18-13 18-25s-10-27-24-27z" fill="#FFFFFF" /><path d="M811 254h-7c-7-17-23-29-43-29a47 47 0 0 0-22 6 282 282 0 0 0-47-60c-55-53-127-82-204-82s-150 29-204 82-85 123-85 198c0 47 20 101 59 161a43 43 0 0 0-10 19c-16 6-28 22-28 40a42 42 0 0 0 20 36c5 5 11 7 20 7h7l62-9c39 45 88 93 145 143h-60v20h23l-6 35h-21v105h153V822h-21l-6-35h23v-20h-59c90-80 159-153 204-218s72-127 72-179c0-6 0-13-1-19l44-8c23 0 37-18 37-45s-20-44-45-44zM264 614h-11v-2h-2a23 23 0 0 1-12-20c0-11 8-20 19-23l8-2v-8c1-12 11-22 24-22s19 6 23 15l3 8 8-2h3c13 0 24 10 24 23s-13 23-18 23h-2z m181 190l6 18h-9z m98 38v64H430v-64z m-12-20h-9l6-18z m-8-35l-12 35h-49l-12-35z m228-389c-7 39-33 93-73 148-27 37-93 118-189 199l-2 3h-2a1333 1333 0 0 1-132-131l6-5c7-8 11-19 11-32 0-24-20-43-44-43a43 43 0 0 0-28-19h-9l-13 2-10-16a406 406 0 0 1-25-47c-9-21-16-40-19-56-7-39 2-104 27-147s70-89 123-112a270 270 0 0 1 81-23l33-3h2l28 3a269 269 0 0 1 107 35c40 23 73 55 98 95a43 43 0 0 0-7 22l-7 2c-17 7-29 23-29 41a44 44 0 0 0 23 39c4 6 12 7 18 7h9l25-3c1 14 1 29-2 41z m67-74h-2c-41 7-67 12-90 14h-9v-2l-4-2a24 24 0 0 1-14-22c0-14 12-25 26-25h13l-3-12a24 24 0 0 1-1-5c0-14 12-25 26-25s25 10 26 22v13l12-5 11-3c14 0 26 11 26 25s-2 27-17 27z" fill="#5546CB" /><path d="M332 603h1c5 0 18-3 18-23s-11-23-24-23h-3l-8 2-3-8c-4-9-12-15-23-15s-23 10-24 22v8l-8 2c-11 2-19 12-19 23a23 23 0 0 0 12 20h2v2h11l67-10z" fill="#FFFFFF" /></svg>