<?xml version="1.0" encoding="utf-8"?>
<!-- Uploaded to: SVG Repo, www.svgrepo.com, Generator: SVG Repo Mixer Tools -->
<svg width="800px" height="800px" viewBox="0 0 1024 1024" class="icon"  version="1.1" xmlns="http://www.w3.org/2000/svg"><path d="M505.332323 1001.139392h-15.94598c-26.176807 0-47.555709-21.378902-47.555708-47.555708v-178.651416c0-26.176807 21.378902-47.555709 47.555708-47.555709h15.94598c26.176807 0 47.555709 21.378902 47.555708 47.555709v178.651416c-0.070557 26.176807-21.449459 47.555709-47.555708 47.555708z" fill="#FFFFFF" /><path d="M497.359333 1010.594088c-35.843175 0-64.983394-29.140219-64.983394-64.983394v-162.705437c0-35.843175 29.140219-64.983394 64.983394-64.983394s64.983394 29.140219 64.983394 64.983394v162.705437c0 35.843175-29.140219 64.983394-64.983394 64.983394z m0-273.692276c-25.400675 0-46.003445 20.673327-46.003445 46.003445v162.705437c0 25.400675 20.673327 46.003445 46.003445 46.003445s46.003445-20.673327 46.003445-46.003445v-162.705437c0-25.400675-20.60277-46.003445-46.003445-46.003445z" fill="#7A4721" /><path d="M543.57445 16.863226s-277.008475-45.86233-283.570316 260.639151c-3.245642 249.13829 0 527.769586 0 527.769586s27.870185 65.547854 244.19927 54.11755c83.610556-3.245642 168.843933 4.93902 231.075587-55.740371 1.622821-80.294357 0-611.380142 0-611.380142s-185.1427 40.92331-191.704541-175.405774z" fill="#F4C324" /><path d="M735.208434 192.410115S550.559636 233.262868 543.503893 17.921588c-13.829257 72.039137-38.665472 289.356026 191.775098 188.811686-0.070557-9.243023-0.070557-14.323159-0.070557-14.323159z" fill="#F5AF1A" /><path d="M400.20175 135.96417s-0.141115 0.28223-0.493902 0.846689c-0.28223 0.564459-0.776132 1.340591-1.340591 2.328395-0.564459 0.987804-1.270034 2.116723-2.046166 3.386757-0.846689 1.270034-1.693378 2.681182-2.751739 4.162889-0.987804 1.481706-2.116723 3.104527-3.245642 4.727348-1.128919 1.622821-2.398953 3.316199-3.668987 5.080135-1.270034 1.693378-2.540068 3.457314-3.880658 5.221249-1.270034 1.763936-2.610625 3.527872-3.951217 5.291808-0.635017 0.846689-1.340591 1.763936-1.975608 2.610625-0.352787 0.423345-0.635017 0.846689-0.987804 1.340591-0.28223 0.423345-0.635017 0.846689-0.917246 1.340591-0.635017 0.846689-1.270034 1.693378-1.905051 2.610625-0.635017 0.846689-1.199476 1.693378-1.834493 2.540068-1.199476 1.693378-2.328395 3.316199-3.457314 4.868462-0.564459 0.776132-1.058361 1.552263-1.622821 2.328396-0.28223 0.352787-0.493902 0.776132-0.776132 1.128919-0.211672 0.352787-0.493902 0.776132-0.705574 1.128918-0.987804 1.411149-1.834493 2.822297-2.681183 4.021774-0.776132 1.270034-1.481706 2.328395-2.18728 3.316199-1.128919 1.905051-2.046166 3.03397-2.046165 3.03397s-0.564459-1.270034-1.199477-3.527872c-0.28223-1.128919-0.564459-2.540068-0.776132-4.162888-0.141115-1.622821-0.28223-3.457314-0.141114-5.432922 0-0.493902 0.070557-0.987804 0.070557-1.552264 0.070557-0.493902 0.141115-1.058361 0.211672-1.552263 0.141115-1.058361 0.28223-2.18728 0.56446-3.3162 0.423345-2.257838 1.128919-4.586233 1.975608-6.914628 0.423345-1.128919 0.917247-2.328395 1.481706-3.457314 0.28223-0.564459 0.564459-1.128919 0.846689-1.763936 0.28223-0.564459 0.635017-1.128919 0.917247-1.693378 0.635017-1.128919 1.270034-2.257838 1.975608-3.316199 0.705574-1.128919 1.481706-2.116723 2.257838-3.175085s1.622821-2.046166 2.398952-3.033969c0.423345-0.493902 0.846689-0.987804 1.270034-1.411149 0.423345-0.493902 0.846689-0.987804 1.340591-1.411149 1.763936-1.834493 3.598429-3.457314 5.50348-5.009577 1.905051-1.481706 3.810101-2.822297 5.644594-3.951216 1.905051-1.128919 3.739544-2.116723 5.50348-2.963413 1.763936-0.846689 3.457314-1.411149 4.93902-1.975608 1.481706-0.493902 2.892855-0.846689 4.021774-1.128918 2.257838-0.493902 3.668986-0.564459 3.668986-0.56446zM342.062427 245.822091s-0.070557 0.141115-0.141115 0.352787c-0.141115 0.211672-0.211672 0.564459-0.423345 0.987804-0.141115 0.423345-0.352787 0.987804-0.564459 1.622821-0.211672 0.635017-0.423345 1.411149-0.635017 2.328395-0.141115 0.423345-0.28223 0.917247-0.352787 1.411149-0.070557 0.211672-0.141115 0.493902-0.211672 0.776131-0.070557 0.28223-0.141115 0.493902-0.141115 0.776132-0.211672 1.058361-0.493902 2.257838-0.776132 3.598429-0.564459 2.540068-0.987804 5.574037-1.552264 8.890236l-0.423344 2.540068c-0.141115 0.846689-0.28223 1.763936-0.423345 2.681182-0.211672 1.834493-0.423345 3.810101-0.705574 5.856267-0.28223 2.046166-0.493902 4.092331-0.776132 6.279611-0.211672 2.18728-0.423345 4.445118-0.635017 6.844071-0.211672 2.328395-0.423345 4.797905-0.635017 7.267416-0.211672 2.46951-0.493902 5.009578-0.635016 7.69076-0.352787 5.291807-0.705574 10.795287-1.128919 16.580996-0.211672 2.892855-0.352787 5.856267-0.493902 8.890236-0.141115 3.03397-0.28223 6.067939-0.423345 9.172466-0.28223 6.279611-0.776132 12.700338-0.917247 19.332737-0.423345 13.264797-1.128919 27.305726-1.340591 41.769999-0.141115 7.267415-0.352787 14.605388-0.635017 22.084476-0.141115 3.739544-0.141115 7.479088-0.211672 11.289189l-0.211672 11.359746c-0.141115 7.620203-0.28223 15.310963-0.493902 23.001723-0.070557 1.905051-0.070557 3.880659-0.141115 5.785709 0 1.905051-0.070557 3.880659-0.070558 5.78571-0.070557 3.880659-0.070557 7.761317-0.141114 11.641976-0.141115 7.761317-0.28223 15.522635-0.352788 23.213395l-0.211672 11.571418c-0.070557 3.810101-0.070557 7.69076-0.141115 11.500862s-0.070557 7.620203-0.141115 11.359746c-0.070557 3.810101-0.141115 7.549645-0.211672 11.289189-0.141115 7.479088-0.211672 14.887618-0.423344 22.155034-0.211672 14.534831-0.493902 28.57576-0.705575 41.911114-0.141115 6.632399-0.28223 13.123682-0.423344 19.403293-0.141115 6.279611-0.352787 12.34755-0.493902 18.13326-0.28223 11.641976-0.564459 22.296148-0.84669 31.750844-0.352787 9.454696-0.635017 17.709915-0.987804 24.553986-0.28223 6.773513-0.635017 12.135878-0.846689 15.804865-0.211672 3.668986-0.352787 5.574037-0.352787 5.574037s-0.211672-1.905051-0.564459-5.574037c-0.352787-3.598429-0.917247-8.960794-1.481706-15.734307-0.635017-6.773513-1.340591-15.028733-2.046166-24.483429-0.705574-9.454696-1.481706-20.108868-2.257838-31.750844-0.705574-11.641976-1.270034-24.271756-1.834493-37.607111-0.28223-6.702956-0.564459-13.547027-0.846689-20.532212-0.28223-6.985186-0.493902-14.182044-0.635017-21.449459-0.141115-7.267415-0.28223-14.675946-0.352787-22.225591-0.070557-3.739544-0.141115-7.549645-0.141115-11.289189 0-3.810101-0.070557-7.620203-0.070557-11.430304 0-3.810101-0.070557-7.69076-0.070558-11.500861 0-3.880659 0.070557-7.69076 0.070558-11.571419 0.070557-7.761317 0.141115-15.522635 0.282229-23.283952l0.211673-11.641977c0-1.975608 0.070557-3.880659 0.070557-5.856266 0.070557-1.975608 0.141115-3.880659 0.141115-5.78571 0.211672-7.761317 0.564459-15.452077 0.846689-23.142837 0.28223-7.69076 0.564459-15.240405 0.987804-22.719493 0.423345-7.479088 0.917247-14.887618 1.411149-22.225591 0.846689-14.605388 2.328395-28.646317 3.598429-41.981672 0.352787-3.316199 0.635017-6.632399 1.058361-9.87804s0.776132-6.420726 1.199477-9.525253c0.423345-3.104527 0.776132-6.209054 1.199476-9.243024 0.352787-3.03397 0.705574-5.997382 1.270034-8.890236 0.917247-5.785709 1.834493-11.359746 2.681182-16.580996 0.423345-2.610625 0.917247-5.22125 1.411149-7.69076s0.987804-4.868463 1.481706-7.196858c0.493902-2.328395 0.917247-4.586233 1.411148-6.773514 0.564459-2.18728 1.058361-4.233446 1.552264-6.279611 0.493902-1.975608 0.987804-3.951216 1.411148-5.785709 0.211672-0.917247 0.493902-1.834493 0.776132-2.681183 0.28223-0.846689 0.493902-1.693378 0.776132-2.540067 0.493902-1.622821 0.987804-3.175084 1.411149-4.656791 0.423345-1.481706 0.987804-2.822297 1.411148-4.021773 0.493902-1.270034 0.917247-2.398953 1.270034-3.457315 0.070557-0.28223 0.211672-0.493902 0.28223-0.776131 0.141115-0.211672 0.211672-0.493902 0.352787-0.705575 0.211672-0.493902 0.423345-0.917247 0.635017-1.340591 0.352787-0.846689 0.705574-1.552263 0.987804-2.18728 0.352787-0.635017 0.635017-1.128919 0.917246-1.552264 0.211672-0.423345 0.423345-0.705574 0.56446-0.917246-0.070557-0.28223 0-0.352787 0-0.352787z" fill="#F4F4F4" /><path d="M428.848067 792.571625h-10.230827c-16.792669 0-30.551368-13.758699-30.551368-30.551367V349.823744c0-16.792669 13.758699-30.551368 30.551368-30.551368h10.230827c16.792669 0 30.551368 13.758699 30.551368 30.551368V762.020258c0 16.792669-13.758699 30.551368-30.551368 30.551367zM604.677186 792.571625h-10.230828c-16.792669 0-30.551368-13.758699-30.551367-30.551367V349.823744c0-16.792669 13.758699-30.551368 30.551367-30.551368H604.677186c16.792669 0 30.551368 13.758699 30.551368 30.551368V762.020258c0 16.792669-13.758699 30.551368-30.551368 30.551367z" fill="#F6AF1C" /><path d="M455.659891 701.552539h-4.445118c-7.267415 0-13.19424-5.926824-13.19424-13.19424V455.377661c0-7.267415 5.926824-13.19424 13.19424-13.194239h4.445118c7.267415 0 13.19424 5.926824 13.19424 13.194239v233.051196c0 7.196858-5.926824 13.123682-13.19424 13.123682zM637.415834 636.004685h-4.445118c-7.267415 0-13.19424-5.926824-13.19424-13.194239V389.829808c0-7.267415 5.926824-13.19424 13.19424-13.19424h4.445118c7.267415 0 13.19424 5.926824 13.19424 13.19424v233.051195c-0.070557 7.196858-5.997382 13.123682-13.19424 13.123682zM456.436023 417.629436h-3.810101c-6.209054 0-11.289189-5.080135-11.289189-11.289189V387.360298c0-6.209054 5.080135-11.289189 11.289189-11.289189h3.810101c6.209054 0 11.289189 5.080135 11.289189 11.289189v18.979949c0 6.209054-5.080135 11.289189-11.289189 11.289189zM637.063047 365.981396h-3.810101c-6.209054 0-11.289189-5.080135-11.289189-11.289189v-18.979949c0-6.209054 5.080135-11.289189 11.289189-11.289189h3.810101c6.209054 0 11.289189 5.080135 11.289189 11.289189v18.979949c0.070557 6.209054-5.009578 11.289189-11.289189 11.289189z" fill="#7D4822" /><path d="M912.378144 44.168952l-20.249983 33.303108c-3.386757 5.574037-10.795287 7.40853-16.369324 4.021773l-3.386757-2.046165c-5.574037-3.386757-7.40853-10.795287-4.021773-16.369324l20.249982-33.303108c3.386757-5.574037 10.795287-7.40853 16.369324-4.021774l3.386757 2.046166c5.644595 3.386757 7.479088 10.795287 4.021774 16.369324zM859.883415 140.973748L839.633432 174.276855c-3.386757 5.574037-10.795287 7.40853-16.369324 4.021774l-3.386757-2.046166c-5.574037-3.386757-7.40853-10.795287-4.021773-16.369324l20.249983-33.303107c3.386757-5.574037 10.795287-7.40853 16.369324-4.021774l3.386756 2.046166c5.574037 3.386757 7.40853 10.795287 4.021774 16.369324zM921.056708 153.53297l-33.23255-20.391097c-5.574037-3.457314-7.337973-10.795287-3.951216-16.439882l2.116722-3.386756c3.457314-5.574037 10.795287-7.337973 16.439882-3.951217l33.161993 20.461656c5.574037 3.457314 7.337973 10.795287 3.951216 16.439881l-2.116723 3.386757c-3.457314 5.574037-10.795287 7.337973-16.369324 3.880658zM824.393027 100.685454l-33.23255-20.391097c-5.574037-3.457314-7.337973-10.795287-3.951216-16.439882l2.116723-3.386756c3.457314-5.574037 10.795287-7.337973 16.439881-3.951217l33.23255 20.391098c5.574037 3.457314 7.337973 10.795287 3.951216 16.439882l-2.116723 3.386756c-3.457314 5.644595-10.865844 7.40853-16.439881 3.951216z" fill="#F4C323" /><path d="M108.870116 144.431062m-42.405016 0a42.405016 42.405016 0 1 0 84.810033 0 42.405016 42.405016 0 1 0-84.810033 0Z" fill="#F4C323" /></svg>