<?xml version="1.0" standalone="no"?><!DOCTYPE svg PUBLIC "-//W3C//DTD SVG 1.1//EN" "http://www.w3.org/Graphics/SVG/1.1/DTD/svg11.dtd"><svg t="1698246187117" class="icon" viewBox="0 0 1024 1024" version="1.1" xmlns="http://www.w3.org/2000/svg" p-id="5477" xmlns:xlink="http://www.w3.org/1999/xlink" width="200" height="200"><path d="M228.864 870.4512l-3.2256 6.9632c-1.3568 2.944-2.4576 5.376-3.456 7.7824a79.9744 79.9744 0 0 0-6.0672 20.9408c-4.0704 30.976 18.2528 53.8624 49.5616 53.8624H512c247.424 0 448-200.576 448-448S759.424 64 512 64 64 264.576 64 512c0 138.1376 62.976 265.856 168.5504 350.1824a197.12 197.12 0 0 1-3.6608 8.2688z m59.9296-61.824A370.5088 370.5088 0 0 1 140.8 512c0-205.0048 166.1952-371.2 371.2-371.2S883.2 306.9952 883.2 512 717.0048 883.2 512 883.2h-205.3376c10.1376-29.184 8.2944-54.8608-17.8688-74.5728z" fill="#1C2134" p-id="5478"></path><path d="M351.6416 532.6848C391.168 594.432 445.568 627.2 511.744 627.2c66.048 0 120.6272-32.6656 160.512-94.336a38.4 38.4 0 0 0-64.4864-41.728c-26.3168 40.704-57.2928 59.264-96.0256 59.264-38.7072 0-69.4016-18.4576-95.36-59.0848a38.4 38.4 0 1 0-64.7168 41.3696z" fill="#1C2134" p-id="5479"></path></svg>