<?xml version="1.0" encoding="utf-8"?>
<!-- Uploaded to: SVG Repo, www.svgrepo.com, Generator: SVG Repo Mixer Tools -->
<svg width="800px" height="800px" viewBox="0 0 1024 1024" class="icon"  version="1.1" xmlns="http://www.w3.org/2000/svg"><path d="M308.265417 192.198443L380.304555 68.229036c-39.935506-19.121064-87.773444-20.743885-130.884035-0.28223l58.844897 124.251637zM319.695721 200.100875l147.041687-0.423345c-0.776132-19.967753-5.432922-40.147178-14.534831-59.409357-13.476469-28.364087-34.573141-50.660236-59.621029-65.618411L319.695721 200.100875zM296.693998 200.171433l-59.550472-125.733343C191.210639 101.461586 164.116585 149.722869 162.423207 200.52422l134.270791-0.352787zM318.566802 214.000689l61.173293 129.120099c52.353614-24.765658 83.963343-75.496451 86.926755-129.543444l-148.100048 0.423345zM295.56508 214.000689l-133.000758 0.352787c1.128919 18.979949 5.715152 38.030455 14.323158 56.30483 11.853648 25.047888 29.704679 45.227313 50.942466 59.903259l67.735134-116.560876zM306.995383 221.903121L239.613037 337.970096c37.818783 21.378902 84.245573 26.317922 127.285606 10.4425l-59.90326-126.509475z" fill="#F5B11A" /><path d="M345.025839 128.696755c-20.885-10.230828-45.580101-12.206436-68.722938-3.880659l31.891959 67.311789 36.830979-63.43113zM393.851581 199.818645c-0.917247-10.089713-3.457314-20.179425-8.043547-29.845793-6.702956-14.252601-16.792669-25.753462-28.857989-34.220354L319.625164 200.030318l74.226417-0.211673zM263.743678 130.601805c-26.529594 14.605388-42.828361 41.134982-45.227313 69.710742l78.177633-0.211672-32.95032-69.49907zM351.376008 283.217529c25.400675-15.09929 40.711638-41.48777 42.687246-69.569627l-75.496452 0.211672 32.809206 69.357955zM218.445807 214.141804c0.776132 10.513057 3.386757 21.096672 8.184662 31.186385 6.985186 14.817061 17.639358 26.670709 30.269138 35.208158l38.665473-66.606215-77.119273 0.211672zM268.894371 287.450975c21.449459 10.019155 46.709019 11.289189 70.063529 1.905051l-31.962517-67.452905-38.101012 65.547854z" fill="#F3D351" /><path d="M487.26962 1015.250879c-26.459037 0-50.730793-0.423345-68.299593-1.199477-9.807483-0.423345-17.498243-0.987804-22.860608-1.622821-3.245642-0.352787-5.785709-0.846689-7.69076-1.340591-9.948598-2.610625-10.72473-10.089713-10.724729-12.276993 0-5.22125 1.622821-8.678564 19.403293-27.376283 8.678564-9.172466 20.814442-21.308344 35.98429-36.195963 20.108868-19.756081 40.429408-39.229932 48.472955-46.850134V757.786812H504.485634v130.178461c7.337973 7.126301 28.081858 27.305726 48.61407 47.837938 14.958175 14.958175 26.882381 27.094054 35.490388 36.195962 17.286571 18.274375 19.121064 21.590574 19.121064 26.952939 0 2.328395-0.846689 10.019155-11.500862 12.34755-2.046166 0.423345-4.727348 0.846689-8.325777 1.199477-6.067939 0.635017-14.675946 1.128919-25.612347 1.622821-20.108868 0.635017-47.485151 1.128919-75.00255 1.128919z m-76.9076-24.624544c16.863226 1.058361 45.368428 1.763936 82.552195 1.693378 35.490388-0.070557 64.207262-0.917247 81.493833-1.90505-16.863226-17.992145-49.531317-50.589678-81.282161-81.493833-32.597533 30.974712-65.900641 63.783918-82.763867 81.705505z" fill="#704F23" /><path d="M318.496245 206.803831h344.531937v441.40729s6.914628 158.542548-172.23069 158.401433c-169.267278-0.070557-172.23069-160.729828-172.23069-160.729828V206.803831z" fill="#F4C324" /><path d="M503.145042 410.009233l-21.167229-8.890236L586.332254 152.192379c1.340591-3.598429 12.62978-31.327499 39.653276-42.898918 17.780473-7.620203 37.959898-6.561841 59.903259 3.175084 61.173293 27.164611 150.569558 59.3388 151.486805 59.691587l-7.761317 21.590574c-0.917247-0.352787-91.089644-32.738648-153.039069-60.326603-15.804865-6.985186-29.704679-8.043547-41.417212-3.104527-19.121064 8.043547-27.305726 29.775236-27.376283 30.057465l-0.211672 0.493902-104.424999 249.13829z" fill="#704F23" /><path d="M358.361193 371.273203s22.366706-9.454696 52.283057 10.795287c16.792669 5.785709 40.006064-29.210777 66.112313 0 13.829257 13.053125 58.421553 10.795287 70.769104 6.138497 16.933784-4.586233 31.115827-8.466892 52.283056 2.18728 15.734307 5.150692 24.624544-20.60277 24.624544-29.845793-1.552263 202.99373 0 270.658306 0 270.658306s0 129.190657-118.39537 138.43368C376.84724 775.002825 359.207883 669.66058 357.726177 634.311307c-1.622821-35.41983 0.635017-263.038104 0.635016-263.038104z" fill="#F3AF19" /><path d="M358.149521 660.417557h-2.116723c-7.055743 0-12.770895-5.715152-12.770895-12.770895v-220.139186c0-7.055743 5.715152-12.770895 12.770895-12.770895h2.116723c7.055743 0 12.770895 5.715152 12.770895 12.770895v220.139186c0 6.985186-5.715152 12.770895-12.770895 12.770895zM360.054572 390.464825h-1.834493c-5.997382 0-10.936402-4.93902-10.936402-10.936402v-34.714256c0-5.997382 4.93902-10.936402 10.936402-10.936402h1.834493c5.997382 0 10.936402 4.93902 10.936402 10.936402V379.59898c-0.070557 5.997382-4.93902 10.865844-10.936402 10.865845z" fill="#FFFFFF" /><path d="M899.325019 130.601805c-2.963412 0-6.138497-0.141115-9.525253-0.493902l-0.56446-0.070557-0.564459-0.141115c-31.680287-6.420726-43.604493-27.164611-47.837939-38.947702-6.350169-17.639358-3.880659-37.818783 6.138497-50.166334l0.28223-0.352787c15.804865-17.992145 32.95032-26.247364 50.942465-24.483429 32.315304 3.175084 53.129746 38.4538 54.046992 39.935507l-19.826638 11.571418c-4.374561-7.40853-19.473851-27.023496-36.478192-28.646317-10.16027-0.987804-20.673327 4.586233-31.256942 16.580997-4.233446 5.362365-6.279611 16.580996-2.257838 27.870185 3.175084 8.749121 11.006959 20.03831 30.198581 24.130641 14.675946 1.340591 26.247364-1.763936 31.891959-8.537449l17.639358 14.675946c-5.574037 6.702956-18.203817 17.074898-42.828361 17.074898z" fill="#F4C323" /><path d="M133.141873 475.486529m-45.297871 0a45.297871 45.297871 0 1 0 90.595742 0 45.297871 45.297871 0 1 0-90.595742 0Z" fill="#F4C323" /></svg>