<?xml version="1.0" encoding="utf-8"?>
<!-- Uploaded to: SVG Repo, www.svgrepo.com, Generator: SVG Repo Mixer Tools -->
<svg width="800px" height="800px" viewBox="0 0 1024 1024" class="icon"  version="1.1" xmlns="http://www.w3.org/2000/svg"><path d="M752.64 57.856c44.032 178.176 71.168 360.96 69.632 544.768-0.512 44.544 0.512 91.648-15.36 133.632-12.8 33.28-35.328 62.464-61.952 86.016-57.344 49.664-130.56 73.216-203.776 89.088-87.04 18.944-176.128 31.232-260.096 60.928 4.096-72.704 26.624-142.848 54.784-211.456 90.112-9.216 177.152-35.84 257.536-79.36 14.336-7.68 1.536-30.208-12.8-22.016-72.704 39.424-151.04 64.512-232.96 74.24 20.992-48.128 44.032-95.232 64-141.824 3.072-6.656 5.632-13.312 8.704-19.968 42.496 3.584 82.944-9.216 120.32-29.184 35.84-19.456 74.752-43.008 101.888-74.24 10.752-12.288-7.168-30.72-17.92-17.92-24.064 27.648-57.344 47.616-88.576 65.536-32.768 18.432-67.584 31.232-104.448 30.72 6.656-14.848 13.312-29.696 21.504-44.032 16.384-30.208 39.936-55.296 62.976-80.384 47.616-51.712 95.232-103.936 146.432-152.064 11.776-11.264-6.144-29.696-17.92-17.92-53.248 50.688-103.424 104.96-153.088 159.232-23.552 24.064-45.568 49.152-61.44 77.824-4.608 8.192-8.704 16.384-12.8 24.576-2.56-22.016-1.536-45.056-1.536-66.048-0.512-34.304-0.512-68.608 0-102.912 0-16.384-25.6-16.384-25.6 0-0.512 40.96-0.512 81.408 0.512 122.368 0.512 28.672 0.512 57.344 10.24 83.968-5.12 12.288-10.24 24.064-15.36 35.84-20.48 46.08-42.496 93.184-62.976 140.8-50.688-52.224-85.504-116.736-101.888-187.904-3.584-15.872-28.672-9.216-24.576 6.656 18.432 78.336 57.856 148.992 114.688 205.312 0 1.024 0.512 2.048 0.512 2.56-27.648 67.584-49.664 136.704-54.784 208.384-106.496-133.632-168.96-327.68-118.272-494.592 53.76-178.176 246.784-227.328 400.384-285.696 77.824-29.696 154.624-66.048 214.016-124.928z" fill="#B5D577" /><path d="M835.072 365.568c11.264 98.816 17.92 200.192 11.264 299.52-5.12 77.312-38.4 140.8-100.352 188.416-136.704 104.448-324.096 89.6-479.232 151.04-1.024 0.512-2.56 1.024-4.096 1.024h-1.536c-4.096 0-7.168-2.048-9.216-5.12-67.584-79.36-116.224-173.568-139.776-275.456-20.48-88.064-25.6-185.344 3.072-271.872 26.624-80.896 83.968-142.336 155.648-185.856 153.088-93.696 355.84-104.96 479.232-245.248 8.704-9.728 21.504-1.024 21.504 9.216 29.184 110.08 50.688 221.696 63.488 334.336z m-12.288 237.056c1.024-183.808-25.6-366.592-69.632-544.768-59.392 58.88-136.192 95.232-214.016 124.928-154.624 58.368-347.136 107.52-400.896 285.696-50.688 166.912 12.288 360.96 117.76 495.616 5.12-72.192 27.648-141.312 54.784-208.384-0.512-1.024-0.512-1.536-0.512-2.56-56.832-56.32-96.768-126.976-114.688-205.312-3.584-15.872 20.992-23.04 24.576-6.656 16.896 71.168 51.712 135.68 101.888 187.904 20.48-47.616 43.008-94.72 62.976-140.8 5.12-11.776 10.24-24.064 15.36-35.84-9.728-27.136-9.728-55.296-10.24-83.968-1.024-40.96-1.024-81.408-0.512-122.368 0-16.384 25.6-16.384 25.6 0-0.512 34.304-0.512 68.608 0 102.912 0.512 20.992-1.024 44.032 1.536 66.048 4.096-8.192 8.192-16.896 12.8-24.576 15.872-29.184 37.888-53.76 60.416-78.336 49.664-54.272 99.328-108.544 153.088-159.232 11.776-11.264 30.208 6.656 17.92 17.92-51.2 48.64-98.816 100.352-146.432 152.064-23.04 25.088-46.592 50.176-62.976 80.384-7.68 14.336-14.848 29.184-21.504 44.032 37.376 0.512 71.68-11.776 104.448-30.72 31.232-17.92 65.024-38.4 88.576-65.536 10.752-12.288 28.672 5.632 17.92 17.92-27.136 31.232-66.048 54.784-101.888 74.24-37.376 19.968-77.824 32.768-120.32 29.184-3.072 6.656-5.632 13.312-8.704 19.968-20.48 46.592-43.52 93.696-64 141.824 81.92-9.728 160.256-34.816 232.96-74.24 14.336-7.68 27.136 14.336 12.8 22.016-79.872 43.52-166.912 70.144-257.536 79.36-28.16 68.096-50.688 138.752-54.784 211.456 83.968-30.208 173.056-41.984 260.096-60.928 73.216-15.872 146.432-39.424 203.776-89.088 27.136-23.552 49.664-52.224 61.952-86.016 17.408-43.008 16.896-89.6 17.408-134.144z" fill="#72AA29" /></svg>