<?xml version="1.0" encoding="utf-8"?>
<!-- Uploaded to: SVG Repo, www.svgrepo.com, Generator: SVG Repo Mixer Tools -->
<svg width="800px" height="800px" viewBox="0 0 1024 1024" class="icon"  version="1.1" xmlns="http://www.w3.org/2000/svg"><path d="M972.8 363.008c-5.632 31.744-30.72 60.928-50.688 83.968C899.584 473.088 874.496 496.64 847.36 517.12c-9.216 6.656-3.072 20.48 5.12 20.48 1.024 0.512 2.56 0.512 4.096 0.512 27.648-1.024 55.296 1.024 82.432 3.584-34.816 46.08-76.288 99.328-136.704 104.96-2.56 0-4.608 1.024-6.144 2.56-6.144 3.584-8.704 13.824-0.512 18.432 23.04 12.8 43.52 33.28 63.488 51.2 17.92 15.872 35.328 32.768 52.736 49.664-50.688 30.208-109.056 40.96-167.936 44.032-32.256 1.536-65.024 1.536-97.792 1.536-26.112 0-56.32 1.536-80.384-10.752-1.024-0.512-2.048-0.512-2.56-1.024 0-13.312-0.512-26.112-1.024-38.912-1.024-43.008-2.048-86.016-2.56-129.024 40.448 36.864 84.48 69.12 131.584 96.256 11.776 6.656 22.528-11.264 10.752-18.432-42.496-24.576-81.92-53.248-118.784-85.504 60.928-26.624 118.272-54.784 168.448-99.84 10.24-9.216-5.12-24.064-14.848-14.848-52.224 47.104-113.152 74.752-177.152 102.4-1.024-54.784-2.56-109.568-3.584-164.352-0.512-13.824-21.504-13.824-20.992 0 1.024 53.76 2.56 107.52 3.584 161.792-61.44-26.624-119.808-53.76-170.496-99.328-10.24-9.216-25.088 5.632-14.848 14.848 50.176 45.056 107.52 73.216 168.448 99.84-36.864 32.256-76.288 60.928-118.784 85.504-11.776 6.656-1.024 25.088 10.752 18.432 45.056-26.112 87.04-56.832 125.952-91.136 0.512 32.768 1.536 66.048 2.048 98.816 0.512 20.992 1.536 43.008 2.048 65.024-1.024 0-2.048 0.512-3.072 1.024-19.456 9.728-46.08 8.192-67.584 8.704-35.328 0.512-71.168 0.512-106.496-0.512-62.976-2.56-125.952-12.288-180.224-44.544 17.408-16.896 34.816-33.28 52.736-49.664 19.968-17.92 39.936-38.4 63.488-51.2 8.192-4.608 5.632-14.848-0.512-18.432-1.536-1.536-3.584-2.56-6.144-2.56-60.416-5.632-101.888-58.368-136.704-104.96 27.648-2.56 54.784-4.608 82.432-3.584 1.536 0 3.072 0 4.096-0.512 8.192 0 14.336-13.824 5.12-20.48-27.648-20.48-52.736-43.52-74.752-69.632-19.968-23.552-45.056-52.224-50.688-83.968 39.424 0 78.848 1.536 118.272 4.096 1.536 0 3.072 0 4.096-0.512 4.608-0.512 8.704-3.584 8.192-10.24-2.048-18.944-3.072-37.376 0-56.32 46.08 9.728 88.576 30.72 131.072 50.688 8.704 4.096 16.384-3.584 15.872-10.752 0.512-2.048 0-4.608-1.536-6.656-25.088-38.4-37.888-84.992-35.84-130.56 34.304-1.536 68.096 0 102.4 2.048 6.656 0.512 10.24-4.608 10.24-9.728 0-1.024 0.512-1.536 0.512-2.56-0.512-61.952 25.6-119.808 71.168-161.28 45.568 40.96 71.68 99.328 71.168 161.28 0 1.024 0 2.048 0.512 2.56 0 5.12 3.584 10.24 10.24 9.728 34.304-2.048 68.096-3.584 102.4-2.048 2.048 45.568-10.752 92.16-35.84 130.56-1.536 2.56-2.048 4.608-1.536 6.656 0 7.168 7.68 14.848 16.384 10.752 42.496-19.968 84.992-40.96 131.072-50.688 3.584 18.432 2.56 37.376 0 56.32-0.512 6.144 3.584 9.728 8.192 10.24 1.024 0.512 2.56 0.512 4.096 0.512 37.376-2.56 76.8-4.096 116.224-4.608z" fill="#DAFFA6" /><path d="M401.408 340.48c0 7.168-7.68 14.848-15.872 10.752-42.496-19.968-84.992-40.96-131.072-50.688-3.584 18.432-2.56 37.376 0 56.32 0.512 6.144-3.584 9.728-8.192 10.24-1.024 0.512-2.56 0.512-4.096 0.512-39.424-2.56-78.848-4.096-118.272-4.096 5.632 31.744 30.72 60.928 50.688 83.968C196.608 473.6 221.696 496.64 249.344 517.12c8.704 6.656 3.072 20.48-5.12 20.48-1.024 0.512-2.56 0.512-4.096 0.512-27.648-1.024-55.296 1.024-82.432 3.584 34.816 46.08 76.288 99.328 136.704 104.96 2.56 0 4.608 1.024 6.144 2.56 6.144 3.584 8.704 13.824 0.512 18.432-23.04 12.8-43.52 33.28-63.488 51.2-17.92 15.872-35.328 32.768-52.736 49.664 54.272 32.256 117.248 41.984 180.224 44.544 35.328 1.536 71.168 1.536 106.496 0.512 21.504-0.512 48.128 1.024 67.584-8.704 1.024-0.512 2.048-1.024 3.072-1.024-0.512-22.528-1.536-44.544-2.048-65.024-0.512-32.768-1.536-66.048-2.048-98.816-38.912 34.816-80.896 65.024-125.952 91.136-11.776 6.656-22.528-11.264-10.752-18.432 42.496-24.576 81.92-53.248 118.784-85.504-60.928-26.624-118.272-54.784-168.448-99.84-10.24-9.216 5.12-24.064 14.848-14.848 50.688 45.568 109.056 72.704 170.496 99.328-1.024-53.76-2.56-107.52-3.584-161.792-0.512-13.824 20.992-13.824 20.992 0 1.024 54.784 2.56 109.568 3.584 164.352 64-27.648 124.928-55.296 177.152-102.4 10.24-9.216 25.088 5.632 14.848 14.848-50.176 45.056-107.52 73.216-168.448 99.84 36.864 32.256 76.288 60.928 118.784 85.504 11.776 6.656 1.024 25.088-10.752 18.432-47.104-27.648-91.136-59.904-131.584-96.256 1.024 43.008 2.048 86.016 2.56 129.024 0 12.8 0.512 25.6 1.024 38.912 1.024 0 2.048 0.512 2.56 1.024 24.064 12.288 54.272 10.24 80.384 10.752 32.256 0 65.024 0 97.792-1.536 58.88-3.072 117.248-13.824 167.936-44.032-17.408-16.896-34.816-33.28-52.736-49.664-19.968-17.92-39.936-38.4-63.488-51.2-8.192-4.608-5.632-14.848 0.512-18.432 1.536-1.536 3.584-2.56 6.144-2.56 60.928-5.632 101.888-58.368 136.704-104.96-27.648-2.56-54.784-4.608-82.432-3.584-1.536 0-3.072 0-4.096-0.512-8.192 0-14.336-13.824-5.12-20.48 27.648-20.48 52.736-43.52 74.752-69.632 19.968-23.04 45.056-52.736 50.688-83.968-39.424 0-78.848 1.536-118.272 4.096-1.536 0-3.072 0-4.096-0.512-4.608-0.512-8.704-3.584-8.192-10.24 2.048-18.944 3.072-37.888 0-56.32-46.08 9.728-88.576 30.72-131.072 50.688-8.704 4.096-16.384-3.584-16.384-10.752-0.512-2.048 0-4.608 1.536-6.656 25.088-38.4 37.888-84.992 35.84-130.56-34.304-1.536-68.096 0-102.4 2.048-6.656 0.512-10.24-4.608-10.24-9.728 0-1.024-0.512-1.536-0.512-2.56 0.512-61.952-25.6-119.808-71.168-161.28-45.568 40.96-71.68 99.328-71.168 161.28 0 1.024 0 2.048-0.512 2.56 0 5.12-3.584 10.24-10.24 9.728-34.304-2.048-68.096-3.584-102.4-2.048-2.048 45.568 10.752 92.16 35.84 130.56 3.072 2.048 3.584 4.608 3.584 6.656z m583.168 2.048c5.12 0 10.752 3.584 10.24 10.24-1.536 37.888-26.112 69.632-48.64 98.816-19.456 24.064-40.96 45.568-64.512 65.536 25.6 0.512 51.712 3.072 77.312 5.12 2.56 0 4.608 1.024 6.144 2.56 4.096 2.56 6.656 7.68 3.072 12.8-0.512 1.536-1.536 3.072-3.072 4.096-37.376 49.152-77.824 104.448-138.752 121.344 14.336 11.264 28.16 24.064 40.96 35.328 22.016 19.968 44.032 39.936 65.024 60.928 0 0 0 0.512 0.512 0.512 5.632 3.584 7.68 13.312 0.512 18.432-56.32 38.4-123.904 51.2-190.464 54.784-39.424 2.048-78.848 2.048-118.784 1.024-20.48-0.512-42.496-2.048-61.952-9.728 0 69.12-8.704 140.288-63.488 188.928-10.24 9.216-25.088-6.144-14.848-14.848 49.152-44.032 57.856-108.544 57.856-173.056-18.432 6.656-39.936 7.68-59.392 8.192-39.424 1.536-78.848 1.024-118.272-0.512-71.168-2.56-142.848-14.848-202.752-55.296-7.68-5.12-5.12-14.848 0.512-18.432l0.512-0.512c20.992-20.992 42.496-41.472 65.024-60.928 13.312-11.776 26.624-24.576 40.96-35.328-60.416-16.896-101.376-72.192-138.752-121.344-1.536-1.024-2.56-2.56-3.072-4.096-3.584-5.12-1.024-10.24 3.072-12.8 1.536-1.536 3.584-2.56 6.144-2.56 25.6-2.048 51.712-4.608 77.312-5.12C190.464 496.64 168.96 475.136 149.504 451.072c-23.04-28.672-47.616-60.416-48.64-98.816 0-6.656 5.12-10.24 10.24-10.24 1.024 0 2.048-0.512 3.072-0.512 39.424 0 78.336 1.536 117.76 3.584-1.536-19.968-1.024-39.424 4.096-58.88 1.024-3.584 3.584-6.144 6.144-6.656 2.048-1.536 4.608-2.048 7.68-1.536 41.472 7.168 79.872 23.552 117.248 40.96-18.944-38.912-27.648-83.456-24.064-125.952 0-2.56 1.024-4.608 2.56-6.144 1.536-2.56 4.096-4.096 8.192-4.608 33.792-2.048 68.096-1.024 101.888 1.024 2.048-67.072 32.768-130.56 84.992-173.056 2.56-2.048 5.12-2.56 7.68-2.56s5.12 0.512 7.68 2.56c52.224 43.008 82.944 105.984 84.992 173.056 33.792-2.048 68.096-3.072 101.888-1.024 3.584 0 6.144 2.048 8.192 4.608 1.536 1.536 2.56 3.584 2.56 6.144 4.096 42.496-4.608 87.552-24.064 125.952 37.888-17.408 76.288-33.792 117.248-40.96 3.072-0.512 5.632 0 7.68 1.536 2.56 1.024 5.12 3.072 6.144 6.656 5.12 19.456 5.632 38.912 4.096 58.88 38.912-2.048 78.336-3.584 117.76-3.584 0.512 0.512 1.536 0.512 2.048 1.024z" fill="#66A771" /></svg>