<svg xmlns="http://www.w3.org/2000/svg" width="18" height="18" viewBox="0 0 18 18" fill="none">
  <g clip-path="url(#clip0_8751_30380)">
    <path d="M16.1146 6.99231C15.5659 6.34169 14.6695 6.34169 14.3745 6.34169H10.8474C11.0391 5.33001 11.2026 4.1534 10.8512 2.91263C10.6106 2.05858 10.1691 1.45194 9.49821 1.05973C9.14682 0.854466 8.78227 0.75 8.41209 0.75C7.43871 0.75 6.70962 1.45377 6.60063 2.50393C6.55929 2.89614 6.52171 3.26818 6.42587 3.58708C6.06884 4.7582 5.19694 5.65258 4.3908 6.36918C4.09014 6.63309 3.76881 7.10594 3.76506 7.63743C3.75378 9.05964 3.7519 10.4873 3.7519 11.9462L3.75002 14.5377C3.74626 15.4046 4.2198 16.1029 5.00902 16.4016C5.42619 16.5665 5.86778 16.6582 6.32628 16.671C7.05537 16.6802 7.78823 16.6802 8.4741 16.6802H9.54331C10.2423 16.6802 12.1046 16.6802 12.8073 16.6875H12.8299C13.6473 16.6875 14.29 16.2898 14.5944 15.597L14.6846 15.3936C14.8969 14.9171 15.1149 14.4241 15.2502 13.8761C15.6636 12.2101 16.0939 10.4269 16.4415 8.67476C16.5806 7.98015 16.4716 7.41384 16.1146 6.99231Z" stroke="white" stroke-opacity="0.65" stroke-width="1.3"/>
    <path d="M0.75 7.125V16.5" stroke="white" stroke-opacity="0.4" stroke-width="1.3" stroke-linecap="round"/>
  </g>
  <defs>
    <clipPath id="clip0_8751_30380">
      <rect width="18" height="18" fill="white"/>
    </clipPath>
  </defs>
</svg>
