<svg xmlns="http://www.w3.org/2000/svg" width="18" height="18" viewBox="0 0 18 18" fill="none">
<path d="M16.5108 6.6095C15.9299 5.92061 14.9808 5.92061 14.6684 5.92061H10.9339C11.1368 4.84943 11.3099 3.6036 10.9378 2.28985C10.6832 1.38555 10.2156 0.74323 9.50529 0.327953C9.13323 0.110611 8.74724 0 8.35528 0C7.32464 0 6.55266 0.74517 6.43726 1.8571C6.39349 2.27238 6.35369 2.66631 6.25222 3.00397C5.87419 4.24398 4.95099 5.19096 4.09744 5.94972C3.77909 6.22916 3.43887 6.72982 3.43489 7.29258C3.42295 8.79844 3.42096 10.3101 3.42096 11.8548L3.41897 14.5987C3.41499 15.5166 3.91638 16.256 4.75203 16.5723C5.19373 16.7469 5.6613 16.844 6.14677 16.8575C6.91875 16.8672 7.69471 16.8672 8.42093 16.8672H9.55304C10.2932 16.8672 12.2649 16.8672 13.0091 16.875H13.0329C13.8984 16.875 14.5789 16.4539 14.9012 15.7204L14.9967 15.505C15.2216 15.0004 15.4524 14.4784 15.5956 13.8982C16.0333 12.1342 16.489 10.2461 16.857 8.39093C17.0043 7.65546 16.8889 7.05583 16.5108 6.6095Z" fill="#EE3561"/>
<path fill-rule="evenodd" clip-rule="evenodd" d="M0.750195 6.6377C1.01943 6.6377 1.2377 6.85596 1.2377 7.1252V16.5002C1.2377 16.7694 1.01943 16.9877 0.750195 16.9877C0.480956 16.9877 0.262695 16.7694 0.262695 16.5002V7.1252C0.262695 6.85596 0.480956 6.6377 0.750195 6.6377Z" fill="#EE3561"/>
</svg>
