<?xml version="1.0" encoding="utf-8"?>
<!-- Uploaded to: SVG Repo, www.svgrepo.com, Generator: SVG Repo Mixer Tools -->
<svg width="800px" height="800px" viewBox="0 0 1024 1024" class="icon"  version="1.1" xmlns="http://www.w3.org/2000/svg"><path d="M583.168 489.984c7.168 39.424-7.68 81.408-45.568 98.816-104.448 48.64-160.768-134.656-49.152-155.136 35.84 0.512 73.216 6.656 88.576 37.888 0.512 1.024 1.024 2.56 1.536 3.584 2.56 4.608 4.096 9.728 4.608 14.848zM855.04 179.2c6.656 22.016 9.216 56.832-1.536 77.824-8.704 17.408-25.088 32.256-38.912 45.568C750.592 365.056 669.184 404.48 593.92 450.56c-13.824-19.968-35.84-31.744-60.928-37.376 2.56-41.472 5.12-83.456 7.68-124.928 3.072-41.984 2.048-87.04 12.8-128 9.216-34.816 32.256-69.632 64.512-87.552 39.936-22.528 88.576-2.048 95.232 45.056-1.024 0.512-1.536 1.024-2.048 2.048-23.04 27.136-40.96 56.832-57.344 88.576-15.36 29.696-31.744 58.88-30.72 93.184 0.512 16.384 25.6 16.384 25.088 0-0.512-32.256 16.896-60.416 31.232-88.064 13.312-25.6 28.16-50.176 46.592-72.704 1.024 0 2.048-0.512 3.072-1.024C774.656 122.88 838.656 122.88 855.04 179.2z" fill="#FFC5D8" /><path d="M520.704 219.136c-0.512 3.072-0.512 6.144-0.512 9.216-4.608 60.416-8.704 120.832-12.288 181.248-6.144-0.512-12.288-1.024-18.944-1.024-1.536 0-3.072 0.512-4.096 0.512h-3.072c-28.16 5.12-50.176 22.016-64.512 44.032-31.232-11.264-60.928-25.6-88.576-43.52-25.088-15.872-48.128-36.352-74.752-49.152-17.92-8.704-39.424-15.36-61.952-19.456-14.848-30.72-24.064-64-24.576-98.304-0.512-15.872-1.536-37.376 5.12-52.224 8.704-19.456 30.208-18.944 48.128-18.432 78.336 1.024 109.056 92.16 132.096 153.6 5.632 14.848 30.208 8.704 24.576-6.656-15.872-42.496-31.744-91.648-62.976-124.928-6.656-7.168-13.312-13.824-20.48-19.456 0.512-1.536 1.024-3.584 1.024-5.12-2.56-34.816 8.192-57.344 33.28-80.896 24.064-22.528 66.048-22.016 96.256-12.288 58.88 18.944 76.8 89.088 95.232 140.288 0.512 1.024 0.512 2.048 1.024 2.56zM406.016 543.232c2.048 5.632 4.096 11.264 6.656 16.896-52.224 26.112-99.328 60.416-144.896 96.256-22.528 17.408-45.056 34.816-64.512 54.784-1.536-0.512-3.072-1.024-5.12-1.024-32.768 0-70.144 2.56-98.304-16.384-28.16-18.432-44.544-56.32-39.424-89.6 6.656-40.96 51.712-41.472 84.48-40.96 33.792 0.512 67.584 1.536 100.864 2.048 16.384 0.512 16.384-25.088 0-25.088-47.104-1.024-98.304-7.68-144.896 0-2.048 0.512-4.608 1.024-6.656 1.536-1.536-2.048-4.096-4.096-7.68-4.608-51.712-8.704-61.44-87.04-42.496-125.952 23.04-47.104 76.8-48.128 122.88-44.544 51.2 3.584 86.016 23.04 126.464 51.712 34.816 24.576 73.216 44.032 112.64 58.88-6.144 19.968-7.168 43.52 0 66.048zM497.152 622.08c-1.536 64.512-2.56 129.536-4.096 194.048-0.512 18.432-0.512 37.888 1.024 56.832-1.024 0.512-2.048 1.536-3.072 2.56-24.576 29.696-113.152 102.912-128.512 30.72-10.752-49.664 16.896-95.232 50.176-129.024 11.264-11.776-6.144-29.184-17.92-17.92-26.624 26.624-50.176 62.976-57.856 100.864-1.024 0.512-1.536 1.024-2.56 1.536-30.72 23.04-83.456 23.552-118.784 10.24-58.368-22.016-34.816-96.256-5.632-132.608 28.16-35.328 69.632-62.464 105.472-89.088 34.816-26.112 71.168-50.176 110.08-69.632 17.408 24.064 42.496 39.424 71.68 41.472z" fill="#FFC5D8" /><path d="M1016.832 426.496c4.608 36.864-26.624 64.512-58.88 79.36 16.384 8.704 32.256 19.968 40.448 35.328 10.24 20.48 9.216 53.248 7.168 75.776-5.12 48.64-48.64 75.264-94.72 82.432-30.208 4.608-62.976 2.56-94.72-4.096 50.688 52.736 89.088 125.952 17.408 180.224-21.504 16.384-52.736 14.336-78.336 2.56-3.584 40.96-36.352 90.112-71.68 107.52-22.528 11.264-54.784 9.216-79.36 7.168-23.552-2.048-47.616-8.704-66.56-23.552-21.504-16.896-32.768-39.936-38.4-65.024-37.376 37.888-119.296 94.208-151.552 34.304-8.192-15.36-12.288-31.232-12.8-47.104-37.376 19.456-91.136 17.92-129.024 3.072-45.056-17.92-58.88-67.072-46.592-111.104 5.12-18.432 13.312-34.816 24.064-49.152-36.864-0.512-74.752-2.048-104.448-26.112-30.208-24.576-46.592-64-43.52-102.4 1.536-22.528 12.288-39.424 28.16-51.2C25.6 537.6 8.704 487.936 9.728 449.024c1.024-46.592 29.184-90.112 74.752-103.936 23.552-7.168 51.2-9.216 78.848-7.168-25.088-62.464-48.128-180.736 35.84-189.952 27.136-3.072 49.664 1.024 70.144 10.752 0-35.328 11.776-58.88 38.4-84.992 28.672-29.184 64-30.72 102.912-25.6 65.536 8.704 95.232 62.464 117.248 118.272 5.632-27.136 14.848-52.736 33.792-75.776 25.6-32.256 63.488-58.368 106.496-51.2 37.376 6.656 62.464 35.84 69.632 71.68 44.032-12.8 94.208-9.728 125.44 28.672 25.6 31.232 32.256 94.72 12.8 130.56-14.336 26.112-37.376 49.152-61.952 69.632 78.336-4.096 190.464-10.24 202.752 86.528z m-117.248 66.56c34.816-2.048 101.888-23.552 91.136-70.144-10.24-42.496-50.688-56.832-90.112-58.368-38.912-1.536-77.824 1.024-116.736 1.536-1.536 0-3.072-0.512-4.608-0.512l-19.968 13.824c-49.664 34.304-103.424 62.976-154.624 94.72 2.048 6.144 3.072 12.288 4.096 19.456 2.048 17.408 0.512 34.816-4.096 50.688 34.816 22.016 69.632 43.52 101.888 69.12 38.4 29.696 74.752 50.688 123.392 58.88 23.04 4.096 47.616 6.144 70.656 3.584 25.088-2.56 64-16.896 75.264-41.472 8.192-17.408 4.608-44.544 3.072-62.976-3.072-28.672-30.208-41.472-53.76-52.736-1.024-0.512-2.048-1.024-2.56-1.536-20.48 3.072-41.472 2.56-61.44 3.072-28.672 1.024-57.856 1.536-86.528 2.56-16.384 0.512-16.384-24.576 0-25.088 41.472-2.048 83.456-2.048 124.928-4.608z m-46.08-236.032c10.24-20.992 8.192-55.808 1.536-77.824-16.384-56.32-80.384-56.32-125.44-38.912-1.024 0.512-2.048 0.512-3.072 1.024-18.432 22.016-33.28 47.104-46.592 72.704-14.336 27.648-32.256 55.808-31.232 88.064 0.512 16.384-25.088 16.384-25.088 0-0.512-34.304 15.36-63.488 30.72-93.184 16.384-31.232 34.304-61.44 57.344-88.576 0.512-1.024 1.536-1.536 2.048-2.048-6.144-46.592-54.784-67.584-95.232-45.056-31.744 17.92-54.784 52.736-64.512 87.552-10.752 40.448-9.728 86.016-12.8 128-3.072 41.472-5.632 83.456-7.68 124.928 25.088 5.632 47.104 17.408 60.928 37.376 75.264-46.08 156.672-86.016 220.672-147.968 13.312-13.312 29.696-28.672 38.4-46.08z m-29.696 593.408c62.464-56.832-12.8-129.536-58.88-167.424-1.536-1.536-3.072-3.072-3.584-4.608-6.656-3.072-13.312-6.144-19.456-9.216-26.112-14.336-48.64-35.84-72.704-53.248-24.064-16.896-48.64-32.768-73.728-48.128-12.288 22.528-32.256 39.936-58.88 49.152-4.608 1.536-9.728 3.072-14.336 4.096l-3.072 141.824c-1.024 46.08-8.704 98.816 5.632 143.872 16.896 54.784 67.584 65.536 119.296 62.464 26.112-1.536 39.936-12.288 55.808-31.232 16.384-19.968 31.232-43.008 29.696-70.144 0-1.536 0-2.56 0.512-4.096-1.024-1.024-2.048-1.536-2.56-2.56-30.208-28.672-57.856-64.512-66.56-105.984-3.584-15.872 20.992-22.528 24.576-6.656 6.656 32.256 25.088 57.856 47.104 81.408 21.504 24.064 61.44 47.104 91.136 20.48z m-285.696-261.12c37.888-17.408 52.736-59.392 45.568-98.816-1.024-5.12-2.56-10.24-4.096-14.336-0.512-1.024-1.024-2.56-1.536-3.584-15.36-31.232-52.736-37.376-88.576-37.888-112.128 19.968-56.32 203.264 48.64 154.624z m-17.92-360.96c0.512-3.072 0.512-6.144 0.512-9.216-0.512-0.512-1.024-1.536-1.024-2.56-18.944-51.2-36.352-121.856-95.232-140.288-30.208-9.728-72.192-10.24-96.256 12.288-25.088 23.552-35.84 46.08-33.28 80.896 0 2.048 0 4.096-1.024 5.12 7.168 5.632 13.824 12.288 20.48 19.456 31.232 33.792 47.104 82.944 62.976 124.928 5.632 15.36-18.432 22.016-24.576 6.656-23.04-61.44-53.76-152.064-132.096-153.6-17.92 0-39.424-0.512-48.128 18.432-6.656 14.848-5.632 36.352-5.12 52.224 1.024 34.304 9.728 67.584 24.576 98.304 22.528 4.096 43.52 10.24 61.952 19.456 27.136 12.8 49.664 33.28 74.752 49.152 28.16 17.408 57.856 31.744 88.576 43.52 13.824-22.016 36.352-38.912 64.512-44.032h3.072c1.536-0.512 2.56-0.512 4.096-0.512 6.144 0 12.8 0.512 18.944 1.024 3.584-60.416 7.68-120.832 12.288-181.248z m-27.136 587.776c1.536-64.512 2.56-129.536 4.096-194.048-28.672-2.048-54.272-17.408-71.68-40.96-38.912 19.456-75.264 43.52-110.08 69.632-35.84 26.624-77.312 53.76-105.472 89.088-29.184 36.352-52.736 110.08 5.632 132.608 35.328 13.312 88.064 12.8 118.784-10.24 1.024-0.512 1.536-1.024 2.56-1.536 7.68-37.888 31.744-74.24 57.856-100.864 11.776-11.776 29.184 6.144 17.92 17.92-33.792 33.792-60.928 79.36-50.176 129.024 15.36 72.192 103.936-1.536 128.512-30.72 1.024-1.024 2.048-2.048 3.072-2.56-2.048-19.456-1.536-38.912-1.024-57.344z m-80.896-256.512c-2.56-5.12-4.608-10.752-6.656-16.896-7.168-22.528-6.144-45.568 1.024-67.072-39.936-15.36-77.824-34.816-112.64-58.88-40.448-28.672-75.776-48.128-126.464-51.712-46.08-3.072-99.84-2.56-122.88 44.544-19.456 38.912-9.216 117.248 42.496 125.952 3.584 0.512 6.144 2.56 7.68 4.608 2.048-0.512 4.608-1.024 6.656-1.536 46.592-7.68 97.792-1.024 144.896 0 16.384 0.512 16.384 25.6 0 25.088-33.792-0.512-67.584-1.536-100.864-2.048-32.768-0.512-78.336 0-84.48 40.96-5.12 33.28 11.264 70.656 39.424 89.6 28.16 18.944 65.536 15.872 98.304 16.384 2.048 0 3.584 0.512 5.12 1.024 19.456-19.968 42.496-37.376 64.512-54.784 44.544-34.816 91.648-69.12 143.872-95.232z" fill="#E53861" /><path d="M990.72 422.912c10.752 46.592-56.32 68.096-91.136 70.144-41.472 2.56-82.944 2.048-124.928 3.584-16.384 0.512-16.384 25.6 0 25.088 28.672-1.024 57.856-1.536 86.528-2.56 20.48-0.512 41.472 0.512 61.44-3.072 1.024 0.512 1.536 1.024 2.56 1.536 23.552 11.264 50.688 24.064 53.76 52.736 2.048 18.432 5.12 45.568-3.072 62.976-11.264 24.576-50.688 38.912-75.264 41.472-23.04 2.56-47.616 0.512-70.656-3.584-48.64-8.704-84.992-29.184-123.392-58.88-32.256-25.088-67.072-47.104-101.888-69.12 4.608-15.872 6.144-33.28 4.096-50.688-1.024-7.168-2.56-13.312-4.096-19.456 51.712-31.744 104.96-60.416 154.624-94.72 6.656-4.608 12.8-9.216 19.968-13.824 1.536 0.512 3.072 0.512 4.608 0.512 38.912-0.512 77.824-3.072 116.736-1.536 39.424 2.56 79.872 16.896 90.112 59.392zM764.928 683.008c46.08 37.376 121.856 110.592 58.88 167.424-29.696 26.624-69.632 3.584-91.648-20.48-22.016-23.552-39.936-49.152-47.104-81.408-3.584-15.872-27.648-9.216-24.576 6.656 9.216 41.472 36.352 77.312 66.56 105.984 1.024 1.024 2.048 1.536 2.56 2.56-0.512 1.024-0.512 2.56-0.512 4.096 1.536 27.136-13.312 50.176-29.696 70.144-15.872 19.456-29.696 29.696-55.808 31.232-51.2 3.072-101.888-7.68-119.296-62.464-13.824-45.056-6.144-97.792-5.632-143.872 1.024-47.616 2.048-94.72 3.072-141.824 4.608-1.024 9.728-2.048 14.336-4.096 26.624-9.216 46.592-27.136 58.88-49.152 24.576 15.36 49.664 31.232 73.728 48.128 24.576 17.408 46.592 38.912 72.704 53.248 6.144 3.584 12.8 6.656 19.456 9.216 1.024 1.536 2.048 3.072 4.096 4.608z" fill="#FFC5D8" /></svg>