<?xml version="1.0" standalone="no"?><!DOCTYPE svg PUBLIC "-//W3C//DTD SVG 1.1//EN" "http://www.w3.org/Graphics/SVG/1.1/DTD/svg11.dtd"><svg t="1698246228306" class="icon" viewBox="0 0 1024 1024" version="1.1" xmlns="http://www.w3.org/2000/svg" p-id="6283" xmlns:xlink="http://www.w3.org/1999/xlink" width="200" height="200"><path d="M243.4048 688.384h559.36c65.536 0 118.8352 52.3264 118.8352 116.5824C921.6 869.3248 868.3008 921.6 802.7648 921.6H264.448a37.2224 37.2224 0 0 1 0-74.4448h538.3168c23.6544 0 42.9056-18.944 42.9056-42.1376a42.5984 42.5984 0 0 0-42.9056-42.1376H243.4048C165.6832 762.88 102.4 700.8256 102.4 624.5376s63.2832-138.3424 141.0048-138.3424h307.0976c-47.2576-49.4592-104.448-124.672-104.448-198.912C446.1056 185.344 530.6368 102.4 634.5216 102.4c103.936 0 188.416 82.944 188.416 184.9344 0 79.4112-60.928 171.4176-182.9376 275.8656H256c-35.8912 0-77.7216 26.112-77.7216 61.3376s29.2352 63.8464 65.1264 63.8464z m391.168-225.0752c44.7488-41.472 112.4864-116.8384 112.4864-175.9744 0-60.928-50.4832-110.4896-112.4864-110.4896-62.1056 0-112.64 49.5616-112.64 110.4896 0 59.0848 67.7888 134.5024 112.64 175.9744z m-0.0512-207.7696c20.7872 0 37.632 16.5376 37.632 36.9152a37.2736 37.2736 0 0 1-37.632 36.9152 37.2736 37.2736 0 0 1-37.632-36.9152c0-20.3776 16.8448-36.9152 37.632-36.9152z" fill="#1C2134" p-id="6284"></path></svg>