<?xml version="1.0" encoding="utf-8"?>
<!-- Uploaded to: SVG Repo, www.svgrepo.com, Generator: SVG Repo Mixer Tools -->
<svg width="800px" height="800px" viewBox="0 0 1024 1024" class="icon"  version="1.1" xmlns="http://www.w3.org/2000/svg"><path d="M821 191l-49-13 49-13 13-49 13 49 48 13-48 13-13 48-13-48zM868 244l-19-5 19-4 5-19 4 19 19 4-19 5-4 18-5-18z" fill="#FDCD60" /><path d="M146 719l-21-5 21-5 5-21 4 21 21 5-21 5-4 21-5-21z" fill="#FDCD60" /><path d="M174 165m-9 0a9 9 0 1 0 18 0 9 9 0 1 0-18 0Z" fill="#5546CB" /><path d="M835 835a25 25 0 1 1 25-25 25 25 0 0 1-25 25z m0-36a10 10 0 1 0 10 10 10 10 0 0 0-10-10z" fill="#5546CB" /><path d="M753 403h-4c-51-12-93-44-122-93a257 257 0 0 1-17-35H376a257 257 0 0 1-17 35c-29 49-71 81-122 93h-4l-2 327h157c50-244 82-279 107-279 9 0 15 8 21 16 20 25 55 148 86 263h153V403z" fill="#FDCD60" /><path d="M620 793h134v-43H609l11 43zM231 793h138l12-43H231v43z" fill="#FF8859" /><path d="M753 385v-2l2-108H632a238 238 0 0 0 13 26c26 45 62 73 108 84zM234 381v2c45-11 81-39 107-83a234 234 0 0 0 13-25H232z" fill="#FFFFFF" /><path d="M755 255v-19a8 8 0 0 0-8-8H239a8 8 0 0 0-8 8v19z" fill="#AFBCF3" /><path d="M775 257v-21a28 28 0 0 0-28-28H239a28 28 0 0 0-28 28v40l2 95-3 443h182l2-8c22-113 42-199 60-256 22-68 36-77 40-79l7 8c11 14 37 82 101 327l2 7h171V257z m-543-2v-19a8 8 0 0 1 8-8h507a8 8 0 0 1 8 8v19z m523 20l-2 106v2c-45-11-81-39-107-83a232 232 0 0 1-13-25z m-400 0a234 234 0 0 1-13 25c-26 44-62 72-107 83v-2l-2-106z m15 518H231v-43h150z m385 0H620l-12-44h146z m-153-63c-31-115-66-238-86-263-6-8-12-16-21-16-25 0-56 35-107 279H231l2-327h4c51-12 93-44 122-93a257 257 0 0 0 17-35h234a257 257 0 0 0 17 35c29 49 71 81 122 93h6v327z" fill="#5546CB" /></svg>