<?xml version="1.0" encoding="utf-8"?>
<!-- Uploaded to: SVG Repo, www.svgrepo.com, Generator: SVG Repo Mixer Tools -->
<svg width="800px" height="800px" viewBox="0 0 1024 1024" class="icon"  version="1.1" xmlns="http://www.w3.org/2000/svg"><path d="M873 193l-48-13 48-14 13-48 13 48 48 14-48 13-13 48-13-48zM921 245l-19-4 19-4 4-19 4 19 19 4-19 4-4 19-4-19z" fill="#FDCD60" /><path d="M313 658l-21-5 21-5 4-21 5 21 21 5-21 5-5 21-4-21z" fill="#FDCD60" /><path d="M133 261m-9 0a9 9 0 1 0 18 0 9 9 0 1 0-18 0Z" fill="#5546CB" /><path d="M673 620l-28-6 28-6 5-28 7 28 28 6-28 6-7 28-5-28z" fill="#FDCD60" /><path d="M818 689a25 25 0 1 1 25-25 25 25 0 0 1-25 25z m0-36a10 10 0 1 0 10 10 10 10 0 0 0-10-10z" fill="#5546CB" /><path d="M539 344h5c49-4 102 8 158 34-62-31-116-39-163-34zM354 470a333 333 0 0 0-22 39 448 448 0 0 1 22-39z" fill="#F97744" /><path d="M891 829H624l-11-38h251v-20H607l-10-33h267v-20H592L492 375c59-22 128-14 205 22 4 2 12 4 20-5s7-9 11-16 23-35 45-45c34-14 60-1 80 8l9 4 18 8-5-19c-12-50-33-94-62-131s-63-63-104-84-105-39-164-40a425 425 0 0 0-171 32c-3 1-85 37-152 117-40 47-66 99-78 155-15 70-8 147 20 227l8 24 10-23c19-44 50-69 91-75a135 135 0 0 1 57 4l8 3 4-8 3-6c11-23 42-85 97-125a211 211 0 0 1 31-18l97 335H152v20h425l10 33H152v20h440l11 38H125v20h137v55a10 10 0 0 0 20 0v-56h327l16 56a10 10 0 0 0 10 7h3a10 10 0 0 0 7-12l-15-50h110v55a10 10 0 0 0 20 0v-56h131zM354 470a448 448 0 0 0-22 39l-3 6a157 157 0 0 0-57-3c-29 4-68 19-96 65-21-69-25-133-12-193s36-102 74-147c47-56 103-90 129-104l9-5 7-3a405 405 0 0 1 162-28c56 1 110 15 157 39 74 38 126 101 150 181-21-9-50-18-86-3s-44 36-54 53l-8 12c-57-27-110-38-158-34h-5c-97 10-157 78-187 125z" fill="#5546CB" /><path d="M366 135c-27 14-82 48-129 104-37 44-62 94-74 147s-9 125 12 193c28-46 67-61 96-65a157 157 0 0 1 57 3c-103-238 14-360 38-382z" fill="#FDCD60" /><path d="M703 378l8-12c10-16 26-41 54-53s65-6 86 3c-24-81-76-143-150-181-46-24-101-37-157-39a405 405 0 0 0-163 30l-7 3c211-44 333 224 329 249z" fill="#FF8859" /><path d="M703 378c3-25-119-293-328-248l-9 5c-24 22-141 144-37 381l3-6a333 333 0 0 1 22-39c31-47 91-115 186-126 46-6 100 2 163 33z" fill="#FFFFFF" /></svg>