<?xml version="1.0" encoding="utf-8"?>
<!-- Uploaded to: SVG Repo, www.svgrepo.com, Generator: SVG Repo Mixer Tools -->
<svg width="800px" height="800px" viewBox="0 0 1024 1024" class="icon"  version="1.1" xmlns="http://www.w3.org/2000/svg"><path d="M847 202l-66-17 66-18 17-65 18 65 65 18-65 17-18 65-17-65zM111 842l-41-10 41-10 9-41 10 41 41 10-41 10-10 41-9-41z" fill="#FDCD60" /><path d="M910 273l-25-6 25-6 6-25 6 25 25 6-25 6-6 25-6-25zM100 504l-24-5 24-6 6-24 5 24 24 6-24 5-5 24-6-24z" fill="#FDCD60" /><path d="M101 313m-9 0a9 9 0 1 0 18 0 9 9 0 1 0-18 0Z" fill="#5546CB" /><path d="M841 767a25 25 0 1 1 25-25 25 25 0 0 1-25 25z m0-36a10 10 0 1 0 10 10 10 10 0 0 0-10-10z" fill="#5546CB" /><path d="M551 743c-10 0-12 9-12 15s1 8 2 10a11 11 0 0 0 10 6c5 0 12-3 12-15s-1-16-12-16zM349 745c-2-2-4-2-9-2h-4v13h5c5 0 11 0 11-6a6 6 0 0 0-3-5zM512 745c-2-2-4-2-9-2h-4v13h5c5 0 11 0 11-6a6 6 0 0 0-3-5zM607 749a5 5 0 0 0-2-5h-17v11h15a5 5 0 0 0 4-6z" fill="#FF8859" /><path d="M692 171H285a59 59 0 0 0-58 58v625a59 59 0 0 0 58 58h407a59 59 0 0 0 58-58V230a59 59 0 0 0-58-59zM353 762c-3 1-8 2-12 2h-6v17h-9v-45h27c3 1 7 5 7 12s-4 13-7 14z m39 18l-4-10h-18l-4 10h-9l17-45h10l18 45z m42-1a26 26 0 0 1-11 2c-5 0-17 0-18-15h9c0 2 2 9 10 9s9-3 9-6-3-5-11-7-14-4-14-13 3-12 16-12 17 3 17 14h-9c0-2-1-6-8-6s-8 1-8 4 3 4 10 6 16 4 16 15a13 13 0 0 1-9 9z m42 0a26 26 0 0 1-11 2c-5 0-17 0-18-15h9c0 2 2 9 10 9s9-3 9-6-3-5-11-7-14-4-14-13 3-12 16-12 17 3 17 14h-9c0-2-1-6-8-6s-8 1-8 4 3 4 10 6 16 4 16 15a13 13 0 0 1-9 9zM354 419c0-73 60-133 133-133s133 60 133 133-60 133-133 133-133-60-133-133z m162 343c-3 1-8 2-12 2h-6v17h-9v-45h27c3 1 7 5 7 12s-4 13-7 14z m34 19c-17 0-22-13-22-23s8-23 22-23 22 10 22 23-6 23-21 23z m58-1l-6-10c-5-8-6-9-12-9h-2v19h-9v-44h29c5 2 7 7 7 11s-2 9-7 11h-5c4 2 5 4 10 11l5 9z m47-37h-13v37h-9v-36h-13v-8h35z" fill="#FF8859" /><path d="M373 763h12l-6-17-6 17zM600 419a112 112 0 0 0-10-47 114 114 0 0 1 10 47z" fill="#FF8859" /><path d="M692 151H285a79 79 0 0 0-78 78v625a79 79 0 0 0 78 78h407a79 79 0 0 0 78-78V230a79 79 0 0 0-78-79z m58 703a59 59 0 0 1-58 58H285a59 59 0 0 1-58-58V230a59 59 0 0 1 58-58h407a59 59 0 0 1 58 58z" fill="#5546CB" /><path d="M353 737h-27v45h9v-18h6c4 0 9 0 12-2s7-5 7-13-4-10-7-12z m-13 19h-5v-12h4c5 0 7 0 9 2a6 6 0 0 1 2 5c1 5-5 5-10 5zM374 736l-17 45h10l4-10h18l4 10h10l-18-45z m-1 27l6-17 6 17zM424 753c-7-2-10-3-10-6s5-4 8-4 8 4 8 6h9c0-10-8-14-17-14s-16 8-16 12 10 12 14 13 11 3 11 7-2 6-9 6-9-6-10-9h-9c2 15 14 15 18 15a26 26 0 0 0 11-2 13 13 0 0 0 7-12c1-8-8-10-15-12zM466 753c-7-2-10-3-10-6s5-4 8-4 8 4 8 6h9c0-10-8-14-17-14s-16 8-16 12 10 12 14 13 11 3 11 7-2 6-9 6-9-6-10-9h-9c2 15 14 15 18 15a26 26 0 0 0 11-2 13 13 0 0 0 7-12c1-8-8-10-15-12zM516 737h-27v45h9v-18h6c4 0 9 0 12-2s7-5 7-13-4-10-7-12z m-13 19h-5v-12h4c5 0 7 0 9 2a6 6 0 0 1 2 5c1 5-5 5-10 5zM550 735c-14 0-22 9-22 23s5 23 22 23 21-11 21-23-6-23-21-23z m0 38a11 11 0 0 1-10-6c-1-2-2-5-2-10s2-15 12-15 12 10 12 15-7 17-11 17zM604 761h5c4-2 7-6 7-11s-2-9-7-11h-30v45h9v-22h2c6 0 7 1 12 9l6 10h11l-5-9c-4-7-6-9-10-11z m-9-6h-7v-11h16a5 5 0 0 1 2 5 5 5 0 0 1-3 5zM620 744h13v37h9v-37h13v-8h-35v8z" fill="#5546CB" /><path d="M487 532a113 113 0 0 0 84-37H403a113 113 0 0 0 84 37zM470 454h41l11 20h63a112 112 0 0 0 15-55 114 114 0 0 0-10-47 113 113 0 1 0-202 102h73z m67-93l7 5 9-3-3 9 5 7h-9l-5 7-3-9-9-3 7-5z m-11 44l-3 9 5 7h-9l-5 7-3-9-9-3 7-5v-9l7 5z m-46-51l8-17 8 17 18 3-13 13 3 18-16-9-16 9 3-18-13-13z m-47 25l-3 9-5-7h-9l5-7-3-9 9 3 7-5v9l7 5z m16 43l5-7-3-9 9 3 7-5v9l7 5-9 3-3 9-5-7z" fill="#FDCD60" /><path d="M472 387l16-8 17 8-3-18 13-13-19-2-8-17-8 17-18 2 13 13-3 18zM435 361l-8 6-8-3 3 8-6 8h9l6 7 2-9 9-2-7-6v-9zM466 420l9-3-8-5v-10l-7 6-8-3 2 9-5 7h9l5 7 3-8zM539 378l2 9 6-7h9l-6-8 3-8-8 3-8-6v9l-7 6 9 2zM511 412l-8 5 9 3 3 8 5-7h9l-5-7 2-9-8 3-7-6v10z" fill="#F97744" /><path d="M620 419c0-73-60-133-133-133s-133 59-133 133 60 133 133 133 133-60 133-133z m-232 55a113 113 0 1 1 211-56 112 112 0 0 1-15 55h-62l-11-20h-41l-9 20z m98 57a113 113 0 0 1-84-37h169a113 113 0 0 1-84 38z" fill="#5546CB" /></svg>