<?xml version="1.0" standalone="no"?><!DOCTYPE svg PUBLIC "-//W3C//DTD SVG 1.1//EN" "http://www.w3.org/Graphics/SVG/1.1/DTD/svg11.dtd"><svg t="1698246111080" class="icon" viewBox="0 0 1024 1024" version="1.1" xmlns="http://www.w3.org/2000/svg" p-id="4396" xmlns:xlink="http://www.w3.org/1999/xlink" width="200" height="200"><path d="M687.064 31.008c265.64 96.68 402.616 390.416 305.928 656.056-96.68 265.64-390.416 402.616-656.056 305.928C71.296 896.32-65.68 602.576 31.008 336.936 127.68 71.296 421.424-65.68 687.064 31.008z m-10.296 28.288C426.752-31.704 150.296 97.208 59.296 347.232c-91 250.016 37.912 526.472 287.936 617.472 250.016 91 526.472-37.912 617.472-287.936 91-250.016-37.912-526.472-287.936-617.472zM419.184 908.064a15.056 15.056 0 0 1-18.52 10.52 417.656 417.656 0 0 1-22.384-6.824 15.056 15.056 0 0 1 9.56-28.544c6.88 2.304 13.816 4.416 20.808 6.336a15.056 15.056 0 0 1 10.52 18.512h0.016z m-104.072-57.688c6.272 3.64 12.64 7.104 19.104 10.384a15.056 15.056 0 0 1-13.648 26.84 412.896 412.896 0 0 1-20.56-11.168 15.056 15.056 0 1 1 15.104-26.048v-0.008z m186.384 68.36a15.056 15.056 0 0 1-15.976 14.072 420.752 420.752 0 0 1-23.328-2.136 15.056 15.056 0 1 1 3.576-29.896c7.2 0.864 14.416 1.52 21.648 1.984a15.056 15.056 0 0 1 14.08 15.976z m-250.84-115.2c5.384 4.84 10.92 9.52 16.568 14.056a15.056 15.056 0 1 1-18.816 23.504 418.528 418.528 0 0 1-17.864-15.144 15.056 15.056 0 1 1 20.112-22.408z m333.056 108.92a15.056 15.056 0 0 1-12.8 17.016c-7.728 1.104-15.488 1.984-23.272 2.648a15.056 15.056 0 1 1-2.56-30c7.224-0.616 14.424-1.44 21.6-2.456a15.056 15.056 0 0 1 17.032 12.8zM196.984 744.408c4.296 5.84 8.76 11.56 13.376 17.152a15.056 15.056 0 1 1-23.216 19.16 421.736 421.736 0 0 1-14.4-18.464 15.056 15.056 0 1 1 24.24-17.848z m466.328 145.16a15.056 15.056 0 0 1-9.088 19.256c-7.344 2.64-14.76 5.072-22.24 7.296a15.056 15.056 0 1 1-8.592-28.848c6.944-2.08 13.84-4.336 20.664-6.784a15.056 15.056 0 0 1 19.256 9.08zM156.528 675.856c3.024 6.584 6.24 13.088 9.64 19.488a15.056 15.056 0 1 1-26.608 14.088 424.056 424.056 0 0 1-10.384-20.976 15.056 15.056 0 0 1 27.344-12.608z m580.368 175.104a15.048 15.048 0 0 1-5.008 20.696c-6.656 4.064-13.424 7.944-20.304 11.64a15.056 15.056 0 1 1-14.24-26.52 393.6 393.6 0 0 0 18.864-10.824 15.056 15.056 0 0 1 20.688 5.008z m-606.32-250.864c1.64 7.064 3.472 14.08 5.496 21.04a15.056 15.056 0 0 1-28.904 8.424 422.512 422.512 0 0 1-5.92-22.664 15.056 15.056 0 0 1 29.328-6.8z m670.208 198.512c5.68 6.08 5.352 15.6-0.728 21.28a420.64 420.64 0 0 1-17.552 15.504 15.056 15.056 0 0 1-19.304-23.12c5.568-4.64 11.008-9.44 16.296-14.392a15.056 15.056 0 0 1 21.28 0.72h0.008zM253.928 614.32l390.008 141.952a11.288 11.288 0 0 1-6.688 21.552l-1.04-0.32-390.016-141.96a11.288 11.288 0 0 1 6.688-21.544l1.04 0.32L643.92 756.272 253.928 614.32zM120.592 521.632c0.176 7.24 0.56 14.48 1.144 21.704a15.056 15.056 0 1 1-30.016 2.424 419.056 419.056 0 0 1-1.224-23.392 15.056 15.056 0 0 1 30.096-0.736z m732.248 212.536a15.056 15.056 0 0 1 3.632 20.984 418.328 418.328 0 0 1-14.032 18.76 15.056 15.056 0 1 1-23.6-18.696 385.064 385.064 0 0 0 13.024-17.416 15.056 15.056 0 0 1 20.976-3.632zM126.808 442.04c-1.304 7.136-2.4 14.312-3.304 21.488a15.056 15.056 0 0 1-29.88-3.752c0.968-7.736 2.16-15.464 3.568-23.152a15.056 15.056 0 0 1 29.616 5.416z m763.952 218.248a15.056 15.056 0 0 1 7.816 19.808c-3.104 7.16-6.4 14.24-9.896 21.224a15.056 15.056 0 0 1-26.928-13.488c3.24-6.48 6.32-13.04 9.2-19.712a15.056 15.056 0 0 1 19.808-7.824zM140.816 345.624a15.056 15.056 0 0 1 8.32 19.592 399.6 399.6 0 0 0-7.616 20.456 15.056 15.056 0 0 1-28.496-9.728c2.528-7.408 5.256-14.744 8.192-22a15.056 15.056 0 0 1 19.6-8.32z m783.872 252.584c-1.6 7.624-3.416 15.216-5.448 22.768a15.056 15.056 0 0 1-29.08-7.816c1.88-7 3.568-14.056 5.056-21.152a15.056 15.056 0 0 1 29.472 6.192v0.008zM182.12 273.848a15.056 15.056 0 0 1 4.184 20.88c-4.008 6.024-7.864 12.16-11.544 18.424a15.056 15.056 0 0 1-25.952-15.264 421.728 421.728 0 0 1 12.432-19.856 15.056 15.056 0 0 1 20.88-4.184z m751.52 238.8c0 7.808-0.232 15.616-0.68 23.416a15.064 15.064 0 1 1-30.072-1.736c0.424-7.232 0.64-14.48 0.64-21.72a15.056 15.056 0 0 1 30.112 0.04zM237.224 211.968c5.832 5.92 5.76 15.464-0.168 21.296a389.136 389.136 0 0 0-15.048 15.68 15.056 15.056 0 1 1-22.296-20.24 414.6 414.6 0 0 1 16.216-16.896 15.056 15.056 0 0 1 21.296 0.16z m687.92 216.024c1.56 7.656 2.912 15.344 4.04 23.064a15.056 15.056 0 0 1-29.784 4.384 390.96 390.96 0 0 0-3.76-21.424 15.056 15.056 0 0 1 29.496-6.024zM387.784 246.496l390.016 141.952a11.288 11.288 0 0 1-6.688 21.544l-1.04-0.32L380.08 267.72a11.288 11.288 0 0 1 6.688-21.552l1.04 0.328 390.008 141.952-390.016-141.952zM303.6 162.672a15.056 15.056 0 0 1-4.456 20.816 392.632 392.632 0 0 0-17.936 12.32 15.056 15.056 0 1 1-17.736-24.336 422.744 422.744 0 0 1 19.32-13.28 15.056 15.056 0 0 1 20.816 4.48z m595.736 182.984a420.8 420.8 0 0 1 8.64 21.752 15.056 15.056 0 0 1-28.272 10.344 393.8 393.8 0 0 0-8.032-20.216 15.056 15.056 0 0 1 27.664-11.88zM378.88 127.632a15.056 15.056 0 0 1-8.576 19.488c-6.76 2.624-13.44 5.44-20.048 8.432a15.056 15.056 0 0 1-12.44-27.416 424 424 0 0 1 21.576-9.08 15.056 15.056 0 0 1 19.488 8.576z m478.64 142.84c4.464 6.4 8.76 12.928 12.872 19.576a15.056 15.056 0 1 1-25.616 15.84 392.92 392.92 0 0 0-11.952-18.192 15.056 15.056 0 0 1 24.696-17.224zM459.904 108.504a15.072 15.072 0 0 1-12.368 17.344c-7.144 1.2-14.264 2.6-21.336 4.192a15.056 15.056 0 0 1-6.624-29.368c7.616-1.72 15.28-3.224 22.976-4.512a15.056 15.056 0 0 1 17.336 12.352l0.016-0.008z m341.68 97.04c5.68 5.368 11.2 10.888 16.56 16.56a15.056 15.056 0 1 1-21.872 20.688 389.448 389.448 0 0 0-15.376-15.376 15.056 15.056 0 1 1 20.696-21.872zM542 106.256a15.056 15.056 0 0 1-15.6 14.48 393.928 393.928 0 0 0-21.736-0.192 15.056 15.056 0 0 1-0.576-30.104c7.808-0.152 15.624-0.08 23.432 0.208a15.056 15.056 0 0 1 14.48 15.6z m191.472 46.992a422.816 422.816 0 0 1 19.6 12.824 15.056 15.056 0 1 1-17.216 24.72 388.704 388.704 0 0 0-18.176-11.92 15.056 15.056 0 1 1 15.792-25.624zM623.68 120.856a15.056 15.056 0 0 1-18.224 11.008 390.936 390.936 0 0 0-21.256-4.64 15.056 15.056 0 0 1 5.6-29.576c7.656 1.44 15.288 3.104 22.88 4.984a15.056 15.056 0 0 1 11 18.224z m32.48-4.968c7.352 2.672 14.608 5.544 21.76 8.592a15.056 15.056 0 0 1-11.832 27.696 397.936 397.936 0 0 0-20.224-8 15.056 15.056 0 1 1 10.304-28.288z" fill="#FF8971" p-id="4397"></path><path d="M377.896 389.936l14.44 5.256-7.064 19.392 50.368 18.336-5.04 13.832-50.36-18.336-8.48 23.304 58.336 21.24-5.04 13.832-46.456-16.912c3.52 21.2 14.464 43.064 32.68 65.52l-14.784 9.272c-17.64-26.856-27.352-53.04-29.176-78.896l-0.6-0.224-24.512 67.36-14.432-5.256 24.512-67.36-0.6-0.216c-19.544 20.48-44.464 34.216-74.624 41.288l-3.4-16.384c27.04-4.128 49.328-13.888 66.744-29.008l-46.456-16.904 5.04-13.84 58.328 21.24 8.48-23.304-49.312-17.952 5.04-13.832 49.312 17.952 7.056-19.4z m128.888 62.24l37.736 13.736 5.144-14.136 14.288 5.2-5.144 14.128 40.44 14.72-4.976 13.68-40.448-14.72-4.32 11.88 34.728 12.64-16.248 44.656-35.336-12.856c-5.688 11.888-11.504 20.84-17.528 26.648 11.752 12.624 26.664 22.64 44.672 30.224L551.36 610.4c-19.96-8.8-36.04-20.272-48.36-34.624-10.904 4.712-25.344 5.072-43.36 1.24l-1.456-15.168c14.568 3.936 26.352 4.312 35.144 1.208a133.44 133.44 0 0 1-14.424-29.6l13.712-3.52c3.144 9.144 7.36 17.664 12.72 25.4 4.48-4.832 8.856-11.248 12.88-19.488L485.44 523.92l16.256-44.656 33.52 12.208 4.328-11.88-37.736-13.736 4.976-13.68z m52.472 84.136l7-19.248-21.352-7.76-7 19.24 21.352 7.768z m-35.64-12.968l7.008-19.248-20.144-7.328-7.008 19.24 20.144 7.336z m-62.992-36.04c-5.92 3.632-12.136 7.16-18.456 10.48l0.92-17.04c21.088-12.072 39.296-28.424 54.696-49.216l11.232 11.24a197.144 197.144 0 0 1-25.912 27.688l-36.832 101.184-14.432-5.248 28.784-79.088z m164.352 53.688L616.6 564l34.584 12.584 8.376-23.008-34.584-12.584z m-13.944 35.96c-8.696 18.288-19.952 31.904-33.76 40.84l-7.416-13.768c13.728-9.648 24.352-24.344 31.872-44.08l26.816-73.672 115.32 41.976-41.2 113.216c-4.112 11.28-12.056 14.856-23.48 10.696l-17.288-6.296 1.328-15.352c5.696 2.584 11 4.856 16.112 6.72 4.816 1.752 8.464-0.32 10.6-6.192l8.16-22.4-37.296-13.576-15.6 42.856-14.432-5.256 15.6-42.848-35.336-12.864z m91.872 18.456l8.376-23-37.288-13.576-8.376 23.008 37.288 13.568z m13.136-36.08l8.208-22.56L686.96 523.2l-8.208 22.552 37.28 13.568z m-43.52-41.384l-34.576-12.584-8.208 22.56 34.584 12.576 8.208-22.552z" fill="#FF8971" p-id="4398"></path></svg>