<svg t="1697813562930" class="icon" viewBox="0 0 1024 1024" version="1.1" xmlns="http://www.w3.org/2000/svg" p-id="1261" width="200" height="200"><path d="M875.1 191.85L164.21 269a11.14 11.14 0 0 1-12.27-9.73 11.15 11.15 0 0 1 9.57-12.4l708.56-96.18a20.73 20.73 0 0 1 23.36 18 20.72 20.72 0 0 1-18.33 23.16zM878.71 277.2l-714.44 29.86a11.16 11.16 0 0 1-11.6-10.53A11.15 11.15 0 0 1 163 284.8l713.39-49a20.73 20.73 0 0 1 22.11 19.53 20.74 20.74 0 0 1-19.79 21.87z" fill="#FC6257" p-id="1262"></path><path d="M531.24 481.77L230.83 480a17.65 17.65 0 0 1-17.55-17.65v-218a22.13 22.13 0 0 1 19.16-21.93l296.46-41.6A17.65 17.65 0 0 1 549 198.3v265.82a17.65 17.65 0 0 1-17.76 17.65z" fill="#FFD2A9" p-id="1263"></path><path d="M291 490.44l-37.6-7V220l37.6-5v275.44zM366 479.44l-37.6-7V209l37.6-5v275.44zM440 469.44l-37.6-7V199l37.6-5v275.44zM514 458.44l-37.6-7V188l37.6-5v275.44z" fill="#FFBE83" p-id="1264"></path><path d="M511.81 358h0.67c173.52 0 322 70.48 352.31 167.2 6.44 20.55-13.71 40.35-41.07 40.35H200.57c-27.36 0-47.51-19.8-41.08-40.35C189.78 428.48 338.29 358 511.81 358z" fill="#FFE3C5" p-id="1265"></path><path d="M203.57 522.06c29.05-92.76 166.82-161.37 331.11-166.84q-10.53-0.35-21.2-0.36h-0.67c-173.52 0-322 70.48-352.32 167.2-6.43 20.55 13.72 40.34 41.08 40.34h43.07c-27.36 0-47.5-19.79-41.07-40.34z" fill="#FFD0A1" p-id="1266"></path><path d="M369.27 785m25.49 0l235.99 0q25.49 0 25.49 25.49l0 43.02q0 25.49-25.49 25.49l-235.99 0q-25.49 0-25.49-25.49l0-43.02q0-25.49 25.49-25.49Z" fill="#F24A46" p-id="1267"></path><path d="M607.53 830.2h-190a332 332 0 0 1-326.89-274A56.29 56.29 0 0 1 146 490h733a56.3 56.3 0 0 1 55.44 66.12A332 332 0 0 1 607.53 830.2z" fill="#FC6257" p-id="1268"></path><path d="M141.05 556.22a56.3 56.3 0 0 1 55.44-66.12h-50.84a56.3 56.3 0 0 0-55.44 66.12 332 332 0 0 0 326.9 274H468a332 332 0 0 1-326.95-274z" fill="#F44642" p-id="1269"></path><path d="M696 767a15 15 0 0 1-5-29.14c65.88-23.26 102.72-57.39 122-81.94 20.85-26.51 26.34-47.88 26.4-48.1a15 15 0 1 1 29.16 7c-1 4.11-25.52 101.17-167.6 151.31a14.76 14.76 0 0 1-4.96 0.87z" fill="#FFFFFF" p-id="1270"></path><path d="M866.5 562.5m-15.5 0a15.5 15.5 0 1 0 31 0 15.5 15.5 0 1 0-31 0Z" fill="#FFFFFF" p-id="1271"></path></svg>