<?xml version="1.0" encoding="utf-8"?>
<!-- Uploaded to: SVG Repo, www.svgrepo.com, Generator: SVG Repo Mixer Tools -->
<svg width="800px" height="800px" viewBox="0 0 1024 1024" class="icon"  version="1.1" xmlns="http://www.w3.org/2000/svg"><path d="M113.244677 850.993179s-148.452835-59.973817-82.481637-313.486668c11.994763-25.471233 42.757803-90.736857 82.481637-7.479087 15.028733 46.497347 28.505202 86.997313 28.505202 86.997312s26.247364 67.523462 84.739475-39.723833 158.260318-197.984152 299.939641-174.7002c53.270861 7.479088 150.005099 34.502584 185.213257 83.257769 13.476469 13.476469 21.731689 24.765658 34.502584 21.731689 12.770895 0.776132 33.020878 2.257838 57.010404 38.242127 11.218632 21.026115 39.723834 36.760422 57.715979 32.244746 13.476469-3.03397 27.023496-8.255219 32.244746-5.997381 15.734307-15.734307 27.72907-32.244746 27.72907-32.244746s-5.22125-41.981672 22.507821-43.463378c13.476469 0.776132 20.249983 16.510439 17.216013 34.502584 10.513057 7.479088 33.726452 17.216013 25.471233 31.468614-5.22125 9.736926-21.731689 14.252601-37.465996-3.033969-14.252601 10.513057-35.98429 34.502584-35.98429 34.502584s7.479088 146.194998-57.715979 193.468476c-9.031351 11.218632-59.268242 72.744712-137.234204 75.708124s-549.64239 3.03397-549.642389 3.033969-33.51478-2.398953-54.752567-15.028732z" fill="#F4C323" /><path d="M854.873837 787.279818c57.363192-41.558327 58.492111-159.530352 57.927651-187.471095-83.681113-0.917247-70.557431 113.809137-77.260387 130.460691-15.734307 19.121064-52.847516 49.460759-87.702887 67.523461-93.347482 51.718597-210.331703 20.249983-236.22628 12.347551-86.644526-52.847516-203.628747-37.113209-237.355199-33.726452-89.960725 9.031351-126.015572 1.128919-151.839592-7.902433C12.135878 711.14835 57.151519 500.816647 57.151519 500.816647l-9.736925 6.632399c-7.196858 10.089713-12.91201 22.084476-16.722111 30.128023-65.971198 253.442293 82.481637 313.486667 82.481637 313.486667 21.237787 12.62978 54.752567 15.028733 54.752566 15.028733s471.676428 0 549.64239-3.03397c78.036519-3.03397 128.27341-64.56005 137.304761-75.778681z" fill="#F3AF1A" /><path d="M272.986702 569.39847m-14.252602 0a14.252601 14.252601 0 1 0 28.505203 0 14.252601 14.252601 0 1 0-28.505203 0Z" fill="#774621" /><path d="M440.560601 465.396817m-14.252601 0a14.252601 14.252601 0 1 0 28.505202 0 14.252601 14.252601 0 1 0-28.505202 0Z" fill="#774621" /><path d="M483.318404 507.590161m-14.252601 0a14.252601 14.252601 0 1 0 28.505202 0 14.252601 14.252601 0 1 0-28.505202 0Z" fill="#774621" /><path d="M546.32619 486.211259m-14.252601 0a14.252601 14.252601 0 1 0 28.505202 0 14.252601 14.252601 0 1 0-28.505202 0Z" fill="#774621" /><path d="M695.907945 549.148488m-14.252602 0a14.252601 14.252601 0 1 0 28.505203 0 14.252601 14.252601 0 1 0-28.505203 0Z" fill="#774621" /><path d="M713.547302 487.763522c-0.352787-0.352787-159.742024-30.410253-184.507682 123.687177-5.644595 50.589678 1.128919 141.749879 0 151.839592 13.476469-70.839661 56.163715-275.738441 210.261145-255.488458-5.856267-0.352787-12.559223-6.491284-17.85103-11.994763-3.386757-3.457314-6.491284-6.561841-7.902433-8.043548z" fill="#F3AF1A" /><path d="M400.977882 469.630263s-1.693378 0.987804-4.727348 2.610624c-0.705574 0.423345-1.552263 0.846689-2.398953 1.340592-0.846689 0.493902-1.763936 0.987804-2.751739 1.552263-1.975608 1.128919-4.092331 2.398953-6.350169 3.739544s-4.727348 2.892855-7.196858 4.445118c-2.46951 1.622821-5.080135 3.245642-7.69076 5.080135-1.340591 0.846689-2.610625 1.834493-3.951216 2.681183-0.705574 0.423345-1.340591 0.917247-1.975609 1.411148-0.635017 0.493902-1.340591 0.917247-1.975608 1.411149-1.270034 0.987804-2.610625 1.905051-3.951216 2.963412-0.635017 0.493902-1.270034 0.987804-1.975608 1.481706l-1.90505 1.552264c-2.610625 2.046166-5.080135 4.233446-7.549646 6.350168-0.635017 0.493902-1.199476 1.058361-1.834493 1.622821-0.635017 0.564459-1.199476 1.058361-1.834493 1.622821-1.199476 1.058361-2.328395 2.18728-3.527872 3.245642-2.257838 2.18728-4.515676 4.304003-6.632398 6.420726-0.564459 0.493902-1.058361 1.058361-1.622821 1.552264-0.493902 0.493902-0.987804 1.058361-1.481706 1.552263-0.987804 1.058361-2.046166 1.975608-2.963412 2.963412-1.834493 1.975608-3.668986 3.668986-5.22125 5.362365-1.552263 1.622821-3.104527 3.03397-4.233446 4.233446-1.199476 1.199476-2.18728 2.116723-2.892855 2.75174-0.705574 0.635017-1.128919 0.987804-1.128919 0.987804v-1.411149c0-0.917247 0-2.328395 0.141115-4.021773 0.070557-1.763936 0.423345-3.810101 0.846689-6.209054 0.352787-2.398953 1.128919-5.009578 1.975609-7.831875 0.211672-0.705574 0.493902-1.411149 0.705574-2.116723 0.28223-0.705574 0.564459-1.481706 0.846689-2.18728 0.28223-0.776132 0.564459-1.481706 0.917247-2.257838s0.705574-1.481706 1.058361-2.257838c1.411149-3.104527 3.245642-6.209054 5.291807-9.384138 1.058361-1.552263 2.116723-3.104527 3.3162-4.656791 1.199476-1.481706 2.46951-3.03397 3.810101-4.515675 2.681182-2.892855 5.644595-5.715152 8.749121-8.184663l2.398953-1.834493c0.846689-0.564459 1.622821-1.128919 2.46951-1.763936l1.270034-0.846689c0.423345-0.28223 0.846689-0.564459 1.270034-0.776131 0.846689-0.493902 1.693378-1.058361 2.540067-1.552264 1.693378-0.987804 3.457314-1.905051 5.22125-2.75174 1.763936-0.776132 3.527872-1.622821 5.291808-2.257838 3.527872-1.340591 6.985186-2.328395 10.371942-3.104527 3.386757-0.705574 6.561841-1.128919 9.525253-1.340591 2.963412-0.211672 5.715152-0.211672 8.184662 0 2.398953 0.141115 4.515676 0.493902 6.279612 0.846689 1.693378 0.352787 3.03397 0.705574 3.951216 1.058362 0.423345 0.141115 0.776132 0.28223 1.058361 0.352787 0.211672 0 0.28223 0.070557 0.28223 0.070558z" fill="#FFFFFF" /><path d="M575.325295 363.723558s92.994694-64.489492 172.442362 22.507821c9.384138 7.126301 39.371047 13.476469 59.621029-3.386757 11.641976-10.513057 35.278716-35.631503 35.278716-35.631503s-7.479088-59.621029 16.510439-56.58706c10.865844 0.776132 21.731689 17.992145 19.121063 39.01826 12.770895 0.776132 39.723834 3.386757 33.726453 25.894577-3.03397 6.773513-22.507821 15.028733-35.278716-4.092331-16.157652 13.899814-38.594915 42.193344-38.594915 42.193344s22.860608 83.751671 8.608007 113.738579c-24.412871-5.574037-68.581823-20.60277-148.87618-75.708123-26.176807-16.580996-94.053056-58.562668-122.558258-67.946807z" fill="#F5C324" /><path d="M333.595535 169.408392c1.834493-0.070557 3.598429 0.211672 5.432922 0.635017 0.917247 0.211672 1.763936 0.423345 2.681183 0.705575 0.846689 0.28223 1.763936 0.635017 2.610625 0.917246 0.846689 0.352787 1.693378 0.705574 2.540067 1.128919 0.846689 0.423345 1.693378 0.846689 2.46951 1.340591 0.846689 0.493902 1.622821 0.987804 2.398953 1.552264l2.328395 1.693378c1.481706 1.199476 2.963412 2.46951 4.304003 3.880659 0.635017 0.705574 1.340591 1.411149 1.975608 2.116723 0.635017 0.776132 1.270034 1.481706 1.834494 2.257838l1.693378 2.398952c0.564459 0.846689 1.058361 1.693378 1.552264 2.46951 0.564459 0.846689 0.917247 1.693378 1.411148 2.610625l0.705574 1.340592 0.56446 1.340591c0.352787 0.917247 0.846689 1.763936 1.128919 2.681182l0.987804 2.75174c0.352787 0.917247 0.564459 1.834493 0.846689 2.822297 0.28223 0.917247 0.564459 1.905051 0.705574 2.822297l0.56446 2.822298c0.141115 0.917247 0.28223 1.905051 0.423344 2.822297 0.28223 1.905051 0.423345 3.810101 0.56446 5.715152 0.070557 0.987804 0.070557 1.905051 0.070557 2.822297v2.822297c-0.070557 1.834493-0.141115 3.739544-0.282229 5.574037-0.211672 1.834493-0.352787 3.668986-0.635017 5.50348-0.28223 1.834493-0.564459 3.598429-0.917247 5.432922l-0.141115 0.776132-0.141115 0.493902-2.681182 7.831875-1.270034 3.810101-1.199476 3.810102-1.199476 3.810101c-0.352787 1.270034-0.776132 2.540068-1.058362 3.739544-0.705574 2.540068-1.340591 5.009578-1.834493 7.549645-0.28223 1.270034-0.493902 2.540068-0.705574 3.810101-0.211672 1.270034-0.423345 2.540068-0.56446 3.810101l-0.211672 1.905051c-0.070557 0.635017-0.141115 1.270034-0.141115 1.975608-0.070557 0.635017-0.070557 1.270034-0.141115 1.975608-0.070557 0.635017-0.070557 1.340591-0.070557 1.975608V290.626059l0.070557 0.987804c0 0.705574 0.070557 1.340591 0.141115 2.046166s0.070557 1.411149 0.211672 2.046165c0.141115 1.411149 0.352787 2.822297 0.56446 4.233446l0.423344 2.187281c0.141115 0.705574 0.28223 1.481706 0.423345 2.18728-0.564459-0.423345-1.199476-0.917247-1.763936-1.411149s-1.128919-1.058361-1.693378-1.552263c-0.564459-0.493902-1.058361-1.128919-1.552264-1.693378-0.564459-0.564459-0.987804-1.199476-1.481706-1.834494-0.917247-1.199476-1.834493-2.540068-2.610625-3.880658-0.423345-0.705574-0.776132-1.340591-1.128919-2.046166l-1.058361-2.116723c-0.352787-0.705574-0.635017-1.481706-0.917247-2.18728-0.28223-0.776132-0.564459-1.481706-0.776132-2.257838-0.493902-1.481706-0.917247-3.03397-1.270033-4.586233s-0.635017-3.104527-0.917247-4.65679c-0.211672-1.552263-0.423345-3.175084-0.493902-4.727348-0.211672-3.175084-0.211672-6.279611-0.070557-9.384139 0.070557-1.552263 0.211672-3.104527 0.423344-4.65679 0.141115-1.552263 0.352787-3.03397 0.635017-4.586233 0.211672-1.481706 0.493902-3.03397 0.776132-4.445118 0.28223-1.481706 0.635017-2.963412 0.987804-4.374561 0.352787-1.481706 0.705574-2.892855 1.058361-4.304003s0.776132-2.822297 1.199477-4.162889l-0.28223 1.270034c0.211672-1.552263 0.423345-3.03397 0.705574-4.586233l0.56446-4.515676 0.423344-4.515675c0.070557-1.481706 0.211672-2.963412 0.211673-4.445118 0-1.481706 0.070557-2.963412 0.070557-4.445119l-0.070557-2.18728-0.141115-2.18728c0-0.705574-0.070557-1.481706-0.141115-2.187281s-0.141115-1.411149-0.211672-2.18728c-0.211672-1.411149-0.352787-2.892855-0.635017-4.233446l-0.211673-1.058361-0.211672-1.058362c-0.141115-0.705574-0.28223-1.411149-0.493902-2.116723-0.211672-0.705574-0.352787-1.411149-0.564459-2.116723l-0.635017-2.116723-0.776132-2.046165c-0.28223-0.705574-0.564459-1.340591-0.846689-2.046166-0.28223-0.705574-0.635017-1.340591-0.917247-2.046165-0.352787-0.705574-0.705574-1.340591-1.058361-2.046166l-1.128919-1.975608c-0.423345-0.635017-0.776132-1.340591-1.270034-1.975608-0.846689-1.340591-1.763936-2.610625-2.822297-3.880659-0.493902-0.635017-0.987804-1.270034-1.552264-1.90505l-1.693378-1.905051c-1.481706-1.128919-2.681182-2.328395-4.092331-3.527872zM504.344519 97.157583c-1.199476 1.128919-2.328395 2.18728-3.386757 3.316199s-2.116723 2.257838-3.104527 3.386757l-0.705574 0.846689c-0.211672 0.28223-0.493902 0.564459-0.705575 0.846689-0.493902 0.564459-0.917247 1.128919-1.411148 1.763936-0.423345 0.564459-0.846689 1.199476-1.270034 1.763936l-1.199476 1.763936-1.128919 1.763935-1.058362 1.763936-0.987804 1.834493c-0.28223 0.564459-0.564459 1.199476-0.846689 1.834494-0.564459 1.199476-1.058361 2.398953-1.481706 3.668986-0.141115 0.28223-0.211672 0.635017-0.352787 0.917247l-0.28223 0.917246c-0.211672 0.635017-0.352787 1.199476-0.493902 1.834493-0.141115 0.635017-0.352787 1.199476-0.423344 1.834494-0.070557 0.635017-0.211672 1.199476-0.352788 1.834493-0.070557 0.635017-0.141115 1.199476-0.211672 1.834493-0.070557 0.564459-0.141115 1.199476-0.141115 1.834493-0.141115 1.199476-0.070557 2.46951-0.141115 3.668987l0.070558 1.834493 0.070557 0.917246c0 0.28223 0.070557 0.635017 0.070558 0.917247l0.211672 1.834493 0.28223 1.834493c0.141115 1.199476 0.493902 2.46951 0.705574 3.739544 0.211672 1.270034 0.635017 2.46951 0.917247 3.739544 0.352787 1.270034 0.776132 2.46951 1.128919 3.739544l-0.352788-0.917247c0.635017 1.481706 1.340591 3.03397 1.975608 4.586233 0.635017 1.552263 1.340591 3.104527 1.975609 4.727348 1.270034 3.175084 2.46951 6.491284 3.527871 9.948598 0.564459 1.693378 0.987804 3.457314 1.481706 5.22125 0.423345 1.763936 0.846689 3.527872 1.199476 5.362365 0.141115 0.917247 0.352787 1.834493 0.493902 2.75174 0.141115 0.917247 0.28223 1.834493 0.352788 2.75174 0.211672 1.834493 0.352787 3.739544 0.423344 5.574037 0.070557 1.905051 0.070557 3.739544-0.070557 5.644594-0.070557 1.905051-0.28223 3.739544-0.56446 5.574037-0.28223 1.834493-0.635017 3.668986-1.128919 5.50348-0.493902 1.834493-1.058361 3.598429-1.693378 5.291807l-1.058361 2.540068-1.128919 2.46951c-0.846689 1.622821-1.693378 3.175084-2.75174 4.727348-0.987804 1.481706-2.046166 2.963412-3.175085 4.304003-1.128919 1.411149-2.328395 2.681182-3.598428 3.880659 0.141115-1.763936 0.423345-3.457314 0.564459-5.22125l0.141115-1.270034 0.070557-1.270034c0.070557-0.846689 0.141115-1.622821 0.211673-2.46951 0-0.846689 0.141115-1.622821 0.141114-2.46951l0.070558-2.398953v-2.398952l-0.070558-2.328395c-0.070557-1.552263-0.141115-3.104527-0.352787-4.656791-0.070557-0.776132-0.211672-1.552263-0.282229-2.257838-0.070557-0.776132-0.211672-1.481706-0.352788-2.257838-0.493902-2.963412-1.128919-5.856267-1.90505-8.749121-0.352787-1.411149-0.846689-2.822297-1.270034-4.304003l-1.481706-4.233446-0.776132-2.116723-0.846689-2.116723-0.846689-2.116723-0.917247-2.116723-1.834493-4.304003-1.905051-4.374561-1.975608-4.515676c-0.705574-1.481706-1.340591-3.104527-1.975608-4.65679l-0.211672-0.56446-0.070558-0.352787c-0.493902-1.693378-0.917247-3.386757-1.411148-5.080135-0.211672-0.846689-0.352787-1.763936-0.56446-2.610625-0.141115-0.846689-0.352787-1.763936-0.493902-2.610625-0.211672-1.763936-0.493902-3.527872-0.564459-5.362364-0.070557-0.917247-0.070557-1.834493-0.141115-2.75174l0.070557-2.75174c0-0.493902 0-0.917247 0.070558-1.340591l0.141115-1.411149c0.070557-0.917247 0.141115-1.834493 0.352787-2.75174 0.352787-1.834493 0.635017-3.668986 1.199476-5.432922 0.423345-1.834493 1.128919-3.527872 1.763936-5.291807 0.352787-0.846689 0.776132-1.693378 1.128919-2.540068 0.423345-0.846689 0.846689-1.622821 1.270034-2.46951 0.423345-0.846689 0.917247-1.552263 1.411148-2.328395l0.776132-1.128919c0.28223-0.352787 0.564459-0.705574 0.846689-1.128919 1.058361-1.481706 2.257838-2.822297 3.457314-4.092331 0.635017-0.635017 1.270034-1.270034 1.905051-1.834493 0.635017-0.564459 1.340591-1.199476 1.975608-1.693378 0.705574-0.564459 1.340591-1.058361 2.046166-1.622821l2.116723-1.481706c1.481706-0.917247 2.892855-1.763936 4.445118-2.469511s3.03397-1.411149 4.65679-1.975608c1.552263-0.564459 3.175084-0.987804 4.727348-1.340591 1.693378-0.423345 3.316199-0.705574 5.009578-0.705574zM632.970716 220.2803s-0.352787 0.28223-0.987804 0.84669c-0.635017 0.564459-1.481706 1.411149-2.540068 2.398952-0.987804 1.058361-2.18728 2.328395-3.316199 3.810102-1.128919 1.481706-2.257838 3.175084-3.104527 4.93902-0.917247 1.834493-1.552263 3.739544-1.975608 5.715152-0.423345 1.975608-0.635017 4.021774-0.564459 6.279611 0 2.18728 0.211672 4.586233 0.635016 7.055743 0.141115 0.635017 0.211672 1.270034 0.352788 1.905051 0.070557 0.28223 0.141115 0.635017 0.211672 0.987804l0.211672 0.987804 0.070558 0.493902 0.070557 0.211672V256.123476c0-0.141115 0.070557 0.352787-0.070557-0.352788 0.070557 0.423345 0.211672 0.776132 0.282229 1.199477l0.070558 0.141115v0.070557l0.070557 0.141115 0.070558 0.28223c0 0.141115 0.141115 0.493902 0.282229 0.705574 0.705574 2.18728 1.905051 4.93902 3.104527 7.902432 1.199476 3.03397 2.46951 6.350169 3.3162 9.878041 0.846689 3.527872 1.340591 7.267415 1.199476 10.865844-0.141115 3.527872-0.846689 6.914628-1.905051 9.666368-1.058361 2.822297-2.398953 5.150692-3.810101 6.985186-1.411149 1.834493-2.75174 3.316199-3.951216 4.37456-1.199476 1.058361-2.18728 1.834493-2.963412 2.328396-0.705574 0.493902-1.128919 0.705574-1.128919 0.705574s0-0.493902 0.070557-1.340591c0-0.423345 0.070557-0.917247 0.070558-1.552264 0-0.635017 0.070557-1.270034 0.070557-2.046165 0.070557-1.481706 0.070557-3.245642 0.070558-5.150693-0.070557-1.905051-0.28223-3.951216-0.635017-5.997381-0.352787-2.046166-0.987804-4.092331-1.763936-6.138497-0.776132-2.046166-1.834493-4.092331-3.03397-6.350169-1.340591-2.398953-2.75174-4.93902-4.233446-7.479087-1.552263-2.822297-3.245642-5.997382-4.586233-10.019156-0.141115-0.493902-0.352787-0.917247-0.493902-1.622821l-0.282229-0.917246-0.141115-0.493902-0.070558-0.211672v-0.141115c-0.070557-0.423345-0.141115-0.776132-0.282229-1.199477-0.141115-0.705574-0.070557-0.211672-0.070558-0.423344v-0.352787l-0.070557-0.352788-0.070558-0.705574c-0.28223-1.905051-0.423345-3.880659-0.493902-5.856267-0.141115-3.951216 0.352787-7.97299 1.411149-11.853648s2.822297-7.479088 5.009578-10.4425c2.18728-3.03397 4.868463-5.362365 7.479087-6.985186 2.610625-1.622821 5.22125-2.610625 7.479088-3.175084 2.328395-0.564459 4.304003-0.776132 5.926824-0.776132 1.622821 0 2.892855 0.141115 3.739544 0.352787 0.423345 0.070557 0.776132 0.141115 0.987804 0.211673 0.141115 0.28223 0.28223 0.28223 0.28223 0.282229z" fill="#774621" /></svg>