<?xml version="1.0" standalone="no"?><!DOCTYPE svg PUBLIC "-//W3C//DTD SVG 1.1//EN" "http://www.w3.org/Graphics/SVG/1.1/DTD/svg11.dtd"><svg t="1698246196382" class="icon" viewBox="0 0 1024 1024" version="1.1" xmlns="http://www.w3.org/2000/svg" p-id="5612" xmlns:xlink="http://www.w3.org/1999/xlink" width="200" height="200"><path d="M714.707478 300.254609l273.229913 55.162434a44.521739 44.521739 0 0 1 24.486957 73.238261l-192.690087 216.331131a44.521739 44.521739 0 0 0-10.99687 34.860522l34.726957 291.750956a44.521739 44.521739 0 0 1-63.933218 45.189565l-247.852521-122.256695a44.521739 44.521739 0 0 0-39.357218 0L244.424348 1016.787478a44.521739 44.521739 0 0 1-63.888696-45.189565l34.726957-291.750956a44.521739 44.521739 0 0 0-10.99687-34.860522L11.620174 428.655304a44.521739 44.521739 0 0 1 24.397913-73.238261l273.274435-55.206956a44.521739 44.521739 0 0 0 30.630956-22.928696l132.674783-253.017043a44.521739 44.521739 0 0 1 78.803478 0l132.674783 253.017043a44.521739 44.521739 0 0 0 30.630956 22.973218z m-17.630608 87.262608a133.565217 133.565217 0 0 1-91.848348-68.87513L512 140.822261 418.771478 318.642087a133.565217 133.565217 0 0 1-91.848348 68.87513l-197.231304 39.846957 141.089391 158.408348a133.565217 133.565217 0 0 1 32.857044 104.626087l-24.976696 210.231652 174.258087-85.926957a133.565217 133.565217 0 0 1 118.160696 0l174.258087 85.926957-25.021218-210.276174a133.565217 133.565217 0 0 1 32.946087-104.626087L894.263652 427.408696l-197.231304-39.846957z" fill="#FF8971" p-id="5613"></path></svg>