<svg width="32" height="34" viewBox="0 0 32 34" fill="none" xmlns="http://www.w3.org/2000/svg">
<path d="M4.17404 10.335C5.46791 8.09398 6.11485 6.97346 6.89197 6.19634C9.00084 4.08747 12.0746 3.26386 14.9554 4.03576C16.0169 4.32021 17.1374 4.96714 19.3785 6.26102C21.6196 7.55489 22.7401 8.20183 23.5172 8.97895C25.6261 11.0878 26.4497 14.1616 25.6778 17.0423C25.3933 18.1039 24.7464 19.2244 23.4525 21.4655C22.1586 23.7065 21.5117 24.8271 20.7346 25.6042C18.6257 27.713 15.552 28.5366 12.6712 27.7648C11.6096 27.4803 10.4891 26.8334 8.24806 25.5395C6.00701 24.2456 4.88648 23.5987 4.10936 22.8216C2.00049 20.7127 1.17689 17.639 1.94878 14.7582C2.23323 13.6966 2.88017 12.5761 4.17404 10.335Z" fill="url(#paint0_linear_5925_39471)"/>
<g filter="url(#filter0_b_5925_39471)">
<path d="M8.34814 17.3917C8.34814 13.4956 8.34814 11.5476 9.10636 10.0596C9.77331 8.7506 10.8375 7.68639 12.1465 7.01945C13.6346 6.26123 15.5826 6.26123 19.4786 6.26123C23.3746 6.26123 25.3226 6.26123 26.8107 7.01945C28.1196 7.68639 29.1839 8.7506 29.8508 10.0596C30.609 11.5476 30.609 13.4956 30.609 17.3917C30.609 21.2877 30.609 23.2357 29.8508 24.7238C29.1839 26.0327 28.1196 27.0969 26.8107 27.7639C25.3226 28.5221 23.3746 28.5221 19.4786 28.5221C15.5826 28.5221 13.6346 28.5221 12.1465 27.7639C10.8375 27.0969 9.77331 26.0327 9.10636 24.7238C8.34814 23.2357 8.34814 21.2877 8.34814 17.3917Z" fill="url(#paint1_linear_5925_39471)" fill-opacity="0.3"/>
</g>
<g filter="url(#filter1_b_5925_39471)">
<path fill-rule="evenodd" clip-rule="evenodd" d="M14.9379 28.0807C16.0804 28.174 17.5248 28.1743 19.4786 28.1743C21.4323 28.1743 22.8767 28.174 24.0193 28.0807C25.1578 27.9876 25.9659 27.8039 26.6528 27.454C27.8963 26.8204 28.9073 25.8094 29.5409 24.5659C29.8908 23.879 30.0745 23.0709 30.1676 21.9324C30.2609 20.7898 30.2612 19.3454 30.2612 17.3917C30.2612 15.4379 30.2609 13.9935 30.1676 12.851C30.0745 11.7125 29.8908 10.9043 29.5409 10.2175C28.9073 8.97396 27.8963 7.96296 26.6528 7.32936C25.9659 6.9794 25.1578 6.7957 24.0193 6.70268C22.8767 6.60933 21.4323 6.60906 19.4786 6.60906C17.5248 6.60906 16.0804 6.60933 14.9379 6.70268C13.7994 6.7957 12.9912 6.9794 12.3044 7.32936C11.0609 7.96296 10.0499 8.97396 9.41628 10.2175C9.06632 10.9043 8.88261 11.7125 8.78959 12.851C8.69624 13.9935 8.69597 15.4379 8.69597 17.3917C8.69597 19.3454 8.69624 20.7898 8.78959 21.9324C8.88261 23.0709 9.06632 23.879 9.41628 24.5659C10.0499 25.8094 11.0609 26.8204 12.3044 27.454C12.9912 27.8039 13.7994 27.9876 14.9379 28.0807ZM9.10636 10.0596C8.34814 11.5476 8.34814 13.4956 8.34814 17.3917C8.34814 21.2877 8.34814 23.2357 9.10636 24.7238C9.77331 26.0327 10.8375 27.0969 12.1465 27.7639C13.6346 28.5221 15.5826 28.5221 19.4786 28.5221C23.3746 28.5221 25.3226 28.5221 26.8107 27.7639C28.1196 27.0969 29.1839 26.0327 29.8508 24.7238C30.609 23.2357 30.609 21.2877 30.609 17.3917C30.609 13.4956 30.609 11.5476 29.8508 10.0596C29.1839 8.7506 28.1196 7.68639 26.8107 7.01945C25.3226 6.26123 23.3746 6.26123 19.4786 6.26123C15.5826 6.26123 13.6346 6.26123 12.1465 7.01945C10.8375 7.68639 9.77331 8.7506 9.10636 10.0596Z" fill="url(#paint2_linear_5925_39471)"/>
</g>
<g style="mix-blend-mode:overlay" filter="url(#filter2_di_5925_39471)">
<path d="M15.7222 14.1916C15.7222 12.1169 17.404 10.4351 19.4787 10.4351C21.5534 10.4351 23.2352 12.1169 23.2352 14.1916V16.8017C23.2352 18.8764 21.5534 20.5583 19.4787 20.5583C17.404 20.5583 15.7222 18.8764 15.7222 16.8017V14.1916Z" fill="white"/>
</g>
<g style="mix-blend-mode:overlay" filter="url(#filter3_di_5925_39471)">
<path fill-rule="evenodd" clip-rule="evenodd" d="M14.7438 16.1295C14.7438 15.6324 14.3409 15.2295 13.8438 15.2295C13.3468 15.2295 12.9438 15.6324 12.9438 16.1295V16.8217C12.9438 20.1254 15.3954 22.8565 18.5786 23.295V23.7213C18.5786 24.2184 18.9816 24.6213 19.4786 24.6213C19.9757 24.6213 20.3786 24.2184 20.3786 23.7213V23.295C23.5618 22.8566 26.0134 20.1254 26.0134 16.8217V16.1295C26.0134 15.6324 25.6105 15.2295 25.1134 15.2295C24.6164 15.2295 24.2134 15.6324 24.2134 16.1295V16.8217C24.2134 19.4367 22.0936 21.5565 19.4786 21.5565C16.8637 21.5565 14.7438 19.4367 14.7438 16.8217V16.1295Z" fill="white"/>
</g>
<defs>
<filter id="filter0_b_5925_39471" x="-3.65186" y="-5.73877" width="46.2607" height="46.2607" filterUnits="userSpaceOnUse" color-interpolation-filters="sRGB">
<feFlood flood-opacity="0" result="BackgroundImageFix"/>
<feGaussianBlur in="BackgroundImageFix" stdDeviation="6"/>
<feComposite in2="SourceAlpha" operator="in" result="effect1_backgroundBlur_5925_39471"/>
<feBlend mode="normal" in="SourceGraphic" in2="effect1_backgroundBlur_5925_39471" result="shape"/>
</filter>
<filter id="filter1_b_5925_39471" x="-3.65186" y="-5.73877" width="46.2607" height="46.2607" filterUnits="userSpaceOnUse" color-interpolation-filters="sRGB">
<feFlood flood-opacity="0" result="BackgroundImageFix"/>
<feGaussianBlur in="BackgroundImageFix" stdDeviation="6"/>
<feComposite in2="SourceAlpha" operator="in" result="effect1_backgroundBlur_5925_39471"/>
<feBlend mode="normal" in="SourceGraphic" in2="effect1_backgroundBlur_5925_39471" result="shape"/>
</filter>
<filter id="filter2_di_5925_39471" x="10.3222" y="8.63506" width="18.3132" height="20.923" filterUnits="userSpaceOnUse" color-interpolation-filters="sRGB">
<feFlood flood-opacity="0" result="BackgroundImageFix"/>
<feColorMatrix in="SourceAlpha" type="matrix" values="0 0 0 0 0 0 0 0 0 0 0 0 0 0 0 0 0 0 127 0" result="hardAlpha"/>
<feOffset dy="3.6"/>
<feGaussianBlur stdDeviation="2.7"/>
<feComposite in2="hardAlpha" operator="out"/>
<feColorMatrix type="matrix" values="0 0 0 0 0 0 0 0 0 0 0 0 0 0 0 0 0 0 0.6 0"/>
<feBlend mode="normal" in2="BackgroundImageFix" result="effect1_dropShadow_5925_39471"/>
<feBlend mode="normal" in="SourceGraphic" in2="effect1_dropShadow_5925_39471" result="shape"/>
<feColorMatrix in="SourceAlpha" type="matrix" values="0 0 0 0 0 0 0 0 0 0 0 0 0 0 0 0 0 0 127 0" result="hardAlpha"/>
<feOffset dy="-0.9"/>
<feGaussianBlur stdDeviation="0.9"/>
<feComposite in2="hardAlpha" operator="arithmetic" k2="-1" k3="1"/>
<feColorMatrix type="matrix" values="0 0 0 0 0 0 0 0 0 0 0 0 0 0 0 0 0 0 0.3 0"/>
<feBlend mode="normal" in2="shape" result="effect2_innerShadow_5925_39471"/>
</filter>
<filter id="filter3_di_5925_39471" x="7.54385" y="13.4295" width="23.8693" height="20.1921" filterUnits="userSpaceOnUse" color-interpolation-filters="sRGB">
<feFlood flood-opacity="0" result="BackgroundImageFix"/>
<feColorMatrix in="SourceAlpha" type="matrix" values="0 0 0 0 0 0 0 0 0 0 0 0 0 0 0 0 0 0 127 0" result="hardAlpha"/>
<feOffset dy="3.6"/>
<feGaussianBlur stdDeviation="2.7"/>
<feComposite in2="hardAlpha" operator="out"/>
<feColorMatrix type="matrix" values="0 0 0 0 0 0 0 0 0 0 0 0 0 0 0 0 0 0 0.6 0"/>
<feBlend mode="normal" in2="BackgroundImageFix" result="effect1_dropShadow_5925_39471"/>
<feBlend mode="normal" in="SourceGraphic" in2="effect1_dropShadow_5925_39471" result="shape"/>
<feColorMatrix in="SourceAlpha" type="matrix" values="0 0 0 0 0 0 0 0 0 0 0 0 0 0 0 0 0 0 127 0" result="hardAlpha"/>
<feOffset dy="-0.9"/>
<feGaussianBlur stdDeviation="0.9"/>
<feComposite in2="hardAlpha" operator="arithmetic" k2="-1" k3="1"/>
<feColorMatrix type="matrix" values="0 0 0 0 0 0 0 0 0 0 0 0 0 0 0 0 0 0 0.3 0"/>
<feBlend mode="normal" in2="shape" result="effect2_innerShadow_5925_39471"/>
</filter>
<linearGradient id="paint0_linear_5925_39471" x1="19.3785" y1="6.26102" x2="8.24806" y2="25.5395" gradientUnits="userSpaceOnUse">
<stop stop-color="#FF7677"/>
<stop offset="1" stop-color="#FF5FA2"/>
</linearGradient>
<linearGradient id="paint1_linear_5925_39471" x1="19.4786" y1="6.26123" x2="19.4786" y2="28.5221" gradientUnits="userSpaceOnUse">
<stop stop-color="white"/>
<stop offset="1" stop-color="#FF8CD8"/>
</linearGradient>
<linearGradient id="paint2_linear_5925_39471" x1="19.8761" y1="6.60906" x2="19.8761" y2="28.5221" gradientUnits="userSpaceOnUse">
<stop stop-color="white" stop-opacity="0.6"/>
<stop offset="1" stop-color="white" stop-opacity="0"/>
</linearGradient>
</defs>
</svg>
