<svg width="22" height="21" viewBox="0 0 22 21" fill="none" xmlns="http://www.w3.org/2000/svg">
<g filter="url(#filter0_d_8970_7263)">
<path d="M11.0324 15.8809L12.4471 12.9657L11.0324 11.0158V15.8809Z" fill="url(#paint0_linear_8970_7263)"/>
<path d="M11.0324 11.0158L12.4471 12.9657L15.6195 12.5384L11.0324 11.0158Z" fill="url(#paint1_linear_8970_7263)"/>
<path d="M13.2616 10.1616L11.0324 11.0158L15.6195 12.5384L13.2616 10.1616Z" fill="url(#paint2_linear_8970_7263)"/>
<path d="M11.0324 11.0158L13.2616 10.1616L13.8808 7.11628L11.0324 11.0158Z" fill="url(#paint3_linear_8970_7263)"/>
<path d="M11.0324 8.80734V11.0158L13.8808 7.11628L11.0324 8.80734Z" fill="url(#paint4_linear_8970_7263)"/>
<path d="M11.0324 15.8809L9.36772 12.9657L11.0324 11.0158V15.8809Z" fill="url(#paint5_linear_8970_7263)"/>
<path d="M11.0324 11.0158L9.36772 12.9657L6.44531 12.5384L11.0324 11.0158Z" fill="url(#paint6_linear_8970_7263)"/>
<path d="M8.84602 10.1616L11.0324 11.0158L6.44531 12.5384L8.84602 10.1616Z" fill="url(#paint7_linear_8970_7263)"/>
<path d="M11.0324 11.0158L8.84602 10.1616L8.18396 7.11628L11.0324 11.0158Z" fill="url(#paint8_linear_8970_7263)"/>
<path d="M11.0324 8.80734V11.0158L8.18396 7.11628L11.0324 8.80734Z" fill="url(#paint9_linear_8970_7263)"/>
<path d="M11.1315 4.2002L13.1345 8.32771L11.1315 11.0886V4.2002Z" fill="url(#paint10_linear_8970_7263)"/>
<path d="M11.1315 11.0886L13.1345 8.32771L17.6263 8.93268L11.1315 11.0886Z" fill="url(#paint11_linear_8970_7263)"/>
<path d="M14.2878 12.298L11.1315 11.0886L17.6263 8.93268L14.2878 12.298Z" fill="url(#paint12_linear_8970_7263)"/>
<path d="M11.1315 11.0886L14.2878 12.298L15.1645 16.6098L11.1315 11.0886Z" fill="url(#paint13_linear_8970_7263)"/>
<path d="M11.1315 14.2155V11.0886L15.1645 16.6098L11.1315 14.2155Z" fill="url(#paint14_linear_8970_7263)"/>
<path d="M11.1315 4.2002L8.77451 8.32771L11.1315 11.0886V4.2002Z" fill="url(#paint15_linear_8970_7263)"/>
<path d="M11.1315 11.0886L8.77451 8.32771L4.63672 8.93268L11.1315 11.0886Z" fill="url(#paint16_linear_8970_7263)"/>
<path d="M8.03585 12.298L11.1315 11.0886L4.63672 8.93268L8.03585 12.298Z" fill="url(#paint17_linear_8970_7263)"/>
<path d="M11.1315 11.0886L8.03585 12.298L7.09844 16.6098L11.1315 11.0886Z" fill="url(#paint18_linear_8970_7263)"/>
<path d="M11.1315 14.2155V11.0886L7.09844 16.6098L11.1315 14.2155Z" fill="url(#paint19_linear_8970_7263)"/>
<path d="M11.1892 7.79551L11.1312 4.2002L11.0732 7.79551L11.1312 11.1009L11.1892 7.79551Z" fill="white"/>
<path d="M14.177 10.126L17.6266 8.95525L14.1391 10.0164L11.1319 11.1008L14.177 10.126Z" fill="white"/>
<path d="M8.08656 10.1419L4.63697 8.95554L8.12453 10.0323L11.1317 11.1011L8.08656 10.1419Z" fill="white"/>
<path d="M9.23375 13.5366L7.13061 16.61L9.33419 13.5946L11.1319 11.101L9.23375 13.5366Z" fill="white"/>
<path d="M13.2922 14.1741L11.1311 11.1007L13.3926 14.1161L15.1903 16.6096L13.2922 14.1741Z" fill="white"/>
<g filter="url(#filter1_d_8970_7263)">
<path d="M11.1562 9.21094L12.8568 11.2584L11.1562 13.3058L9.4557 11.2584L11.1562 9.21094Z" fill="#EA0B0B"/>
</g>
<g filter="url(#filter2_d_8970_7263)">
<path fill-rule="evenodd" clip-rule="evenodd" d="M12.516 11.2584L11.1562 9.62121L9.79646 11.2584L11.1562 12.8955L12.516 11.2584ZM11.1562 9.21094L9.4557 11.2584L11.1562 13.3058L12.8568 11.2584L11.1562 9.21094Z" fill="#FFDD87"/>
</g>
<path d="M9.62009 11.2386L11.1934 13.1329L11.125 9.42676L9.62009 11.2386Z" fill="#FF8159" fill-opacity="0.6"/>
<path d="M11.1249 9.42656L9.62002 11.2384L12.6982 11.3208L11.1249 9.42656Z" fill="#FFA183" fill-opacity="0.6"/>
</g>
<defs>
<filter id="filter0_d_8970_7263" x="0.636719" y="0.200195" width="20.9902" height="20.4097" filterUnits="userSpaceOnUse" color-interpolation-filters="sRGB">
<feFlood flood-opacity="0" result="BackgroundImageFix"/>
<feColorMatrix in="SourceAlpha" type="matrix" values="0 0 0 0 0 0 0 0 0 0 0 0 0 0 0 0 0 0 127 0" result="hardAlpha"/>
<feOffset/>
<feGaussianBlur stdDeviation="2"/>
<feComposite in2="hardAlpha" operator="out"/>
<feColorMatrix type="matrix" values="0 0 0 0 0 0 0 0 0 0 0 0 0 0 0 0 0 0 0.3 0"/>
<feBlend mode="normal" in2="BackgroundImageFix" result="effect1_dropShadow_8970_7263"/>
<feBlend mode="normal" in="SourceGraphic" in2="effect1_dropShadow_8970_7263" result="shape"/>
</filter>
<filter id="filter1_d_8970_7263" x="8.45605" y="9.21094" width="5.40039" height="6.09473" filterUnits="userSpaceOnUse" color-interpolation-filters="sRGB">
<feFlood flood-opacity="0" result="BackgroundImageFix"/>
<feColorMatrix in="SourceAlpha" type="matrix" values="0 0 0 0 0 0 0 0 0 0 0 0 0 0 0 0 0 0 127 0" result="hardAlpha"/>
<feOffset dy="1"/>
<feGaussianBlur stdDeviation="0.5"/>
<feComposite in2="hardAlpha" operator="out"/>
<feColorMatrix type="matrix" values="0 0 0 0 0.966667 0 0 0 0 0.473264 0 0 0 0 0.261806 0 0 0 0.6 0"/>
<feBlend mode="normal" in2="BackgroundImageFix" result="effect1_dropShadow_8970_7263"/>
<feBlend mode="normal" in="SourceGraphic" in2="effect1_dropShadow_8970_7263" result="shape"/>
</filter>
<filter id="filter2_d_8970_7263" x="8.45605" y="9.21094" width="5.40039" height="6.09473" filterUnits="userSpaceOnUse" color-interpolation-filters="sRGB">
<feFlood flood-opacity="0" result="BackgroundImageFix"/>
<feColorMatrix in="SourceAlpha" type="matrix" values="0 0 0 0 0 0 0 0 0 0 0 0 0 0 0 0 0 0 127 0" result="hardAlpha"/>
<feOffset dy="1"/>
<feGaussianBlur stdDeviation="0.5"/>
<feComposite in2="hardAlpha" operator="out"/>
<feColorMatrix type="matrix" values="0 0 0 0 0.966667 0 0 0 0 0.473264 0 0 0 0 0.261806 0 0 0 0.6 0"/>
<feBlend mode="normal" in2="BackgroundImageFix" result="effect1_dropShadow_8970_7263"/>
<feBlend mode="normal" in="SourceGraphic" in2="effect1_dropShadow_8970_7263" result="shape"/>
</filter>
<linearGradient id="paint0_linear_8970_7263" x1="11.0753" y1="14.0375" x2="12.0163" y2="13.0923" gradientUnits="userSpaceOnUse">
<stop stop-color="#FDD9A5"/>
<stop offset="1" stop-color="#FCD091"/>
</linearGradient>
<linearGradient id="paint1_linear_8970_7263" x1="12.0613" y1="12.6656" x2="13.2165" y2="11.7625" gradientUnits="userSpaceOnUse">
<stop stop-color="#FDDDB5"/>
<stop offset="1" stop-color="#F7ECCC"/>
</linearGradient>
<linearGradient id="paint2_linear_8970_7263" x1="13.2519" y1="11.7585" x2="13.2519" y2="10.3102" gradientUnits="userSpaceOnUse">
<stop stop-color="#FDC894"/>
<stop offset="1" stop-color="#FDC77F"/>
</linearGradient>
<linearGradient id="paint3_linear_8970_7263" x1="12.5328" y1="10.2649" x2="13.4298" y2="8.16287" gradientUnits="userSpaceOnUse">
<stop stop-color="#FFD6A6"/>
<stop offset="1" stop-color="#FBD195"/>
</linearGradient>
<linearGradient id="paint4_linear_8970_7263" x1="12.9187" y1="7.77846" x2="11.372" y2="9.44727" gradientUnits="userSpaceOnUse">
<stop stop-color="#FFCA82"/>
<stop offset="1" stop-color="#FFBB66"/>
</linearGradient>
<linearGradient id="paint5_linear_8970_7263" x1="11.0324" y1="15.8809" x2="10.436" y2="12.5392" gradientUnits="userSpaceOnUse">
<stop stop-color="#FFF5D8"/>
<stop offset="1" stop-color="#FFE9C7"/>
</linearGradient>
<linearGradient id="paint6_linear_8970_7263" x1="8.97463" y1="11.9797" x2="9.57781" y2="12.749" gradientUnits="userSpaceOnUse">
<stop stop-color="#FFEFE5"/>
<stop offset="1" stop-color="#FEF5E5"/>
</linearGradient>
<linearGradient id="paint7_linear_8970_7263" x1="8.97463" y1="10.6079" x2="9.03828" y2="11.4983" gradientUnits="userSpaceOnUse">
<stop stop-color="#FFD398"/>
<stop offset="1" stop-color="#F7DAAC"/>
</linearGradient>
<linearGradient id="paint8_linear_8970_7263" x1="10.4751" y1="10.1792" x2="8.20737" y2="8.50131" gradientUnits="userSpaceOnUse">
<stop stop-color="#FFD9AE"/>
<stop offset="1" stop-color="#FFCE88"/>
</linearGradient>
<linearGradient id="paint9_linear_8970_7263" x1="10.7734" y1="10.6444" x2="9.05804" y2="7.65119" gradientUnits="userSpaceOnUse">
<stop stop-color="#FEC67F"/>
<stop offset="1" stop-color="#FFCD8A"/>
</linearGradient>
<linearGradient id="paint10_linear_8970_7263" x1="11.1922" y1="6.81024" x2="12.5247" y2="8.14849" gradientUnits="userSpaceOnUse">
<stop stop-color="#FDD9A5"/>
<stop offset="1" stop-color="#FCD091"/>
</linearGradient>
<linearGradient id="paint11_linear_8970_7263" x1="12.5883" y1="8.7526" x2="14.224" y2="10.0313" gradientUnits="userSpaceOnUse">
<stop stop-color="#FDDDB5"/>
<stop offset="1" stop-color="#F7ECCC"/>
</linearGradient>
<linearGradient id="paint12_linear_8970_7263" x1="14.2741" y1="10.0369" x2="14.2741" y2="12.0877" gradientUnits="userSpaceOnUse">
<stop stop-color="#FDC894"/>
<stop offset="1" stop-color="#FDC77F"/>
</linearGradient>
<linearGradient id="paint13_linear_8970_7263" x1="13.2559" y1="12.1517" x2="14.5259" y2="15.128" gradientUnits="userSpaceOnUse">
<stop stop-color="#FFD6A6"/>
<stop offset="1" stop-color="#FBD195"/>
</linearGradient>
<linearGradient id="paint14_linear_8970_7263" x1="13.8022" y1="15.6723" x2="11.6123" y2="13.3094" gradientUnits="userSpaceOnUse">
<stop stop-color="#FFCA82"/>
<stop offset="1" stop-color="#FFBB66"/>
</linearGradient>
<linearGradient id="paint15_linear_8970_7263" x1="11.1315" y1="4.2002" x2="10.287" y2="8.93154" gradientUnits="userSpaceOnUse">
<stop stop-color="#FFF5D8"/>
<stop offset="1" stop-color="#FFE9C7"/>
</linearGradient>
<linearGradient id="paint16_linear_8970_7263" x1="8.21794" y1="9.72378" x2="9.07198" y2="8.63454" gradientUnits="userSpaceOnUse">
<stop stop-color="#FFEFE5"/>
<stop offset="1" stop-color="#FEF5E5"/>
</linearGradient>
<linearGradient id="paint17_linear_8970_7263" x1="8.21794" y1="11.6661" x2="8.30807" y2="10.4054" gradientUnits="userSpaceOnUse">
<stop stop-color="#FFD398"/>
<stop offset="1" stop-color="#F7DAAC"/>
</linearGradient>
<linearGradient id="paint18_linear_8970_7263" x1="10.3424" y1="12.2731" x2="7.13159" y2="14.6488" gradientUnits="userSpaceOnUse">
<stop stop-color="#FFD9AE"/>
<stop offset="1" stop-color="#FFCE88"/>
</linearGradient>
<linearGradient id="paint19_linear_8970_7263" x1="10.7648" y1="11.6144" x2="8.33605" y2="15.8525" gradientUnits="userSpaceOnUse">
<stop stop-color="#FEC67F"/>
<stop offset="1" stop-color="#FFCD8A"/>
</linearGradient>
</defs>
</svg>
