<?xml version="1.0" encoding="utf-8"?>
<!-- Uploaded to: SVG Repo, www.svgrepo.com, Generator: SVG Repo Mixer Tools -->
<svg width="800px" height="800px" viewBox="0 0 1024 1024" class="icon"  version="1.1" xmlns="http://www.w3.org/2000/svg"><path d="M933.827603 710.231103c6.632399-6.138497 10.936402-14.817061 10.936402-24.553986 0-18.486047-14.958175-33.444222-33.444223-33.444222-2.681182 0-5.22125 0.423345-7.69076 0.987804V594.799146L219.856956 294.930063l-39.01826 72.815269c-9.948598-4.868463-21.167229-7.69076-33.020877-7.69076-41.628884 0-75.425894 33.726452-75.425895 75.425894 0 19.473851 7.479088 37.183766 19.544409 50.589678-12.135878 13.405912-19.544408 31.04527-19.544409 50.589678 0 26.882381 14.111486 50.448563 35.278716 63.783918-3.951216 7.902432-6.209054 16.792669-6.209054 26.176807 0 32.668091 26.459037 59.127127 59.127128 59.127127 5.785709 0 11.359746-0.846689 16.651553-2.398952-1.270034 4.868463-2.046166 9.948598-2.046165 15.240405 0 32.668091 26.459037 59.127127 59.127127 59.127127 12.418108 0 23.848412-3.810101 33.373665-10.301385 9.172466 20.743885 29.916351 35.208158 54.046993 35.208159 7.620203 0 14.958175-1.481706 21.661131-4.162889-0.070557 1.340591-0.211672 2.75174-0.211672 4.162889 0 32.668091 26.459037 59.127127 59.127127 59.127127 6.420726 0 12.559223-1.058361 18.344932-2.963412 3.316199 35.772618 33.303108 63.783918 69.922415 63.783918 16.792669 0 32.174189-5.926824 44.239509-15.734307 6.914628 19.121064 25.047888 32.879763 46.567905 32.879763 17.780473 0 33.23255-9.384138 42.052229-23.425068 5.926824 9.384138 16.298767 15.734307 28.222972 15.734308 14.464273 0 26.600152-9.172466 31.3275-22.013919 7.479088 7.761317 17.921588 12.62978 29.563563 12.62978 18.627162 0 34.149797-12.418108 39.229932-29.422449 5.080135 3.104527 10.936402 4.93902 17.357128 4.939021 14.464273 0 26.600152-9.172466 31.3275-22.013919 7.479088 7.761317 17.921588 12.62978 29.563563 12.62978 20.32054 0 37.113209-14.746503 40.429409-34.079239 7.69076 2.892855 16.016537 4.586233 24.695101 4.586233 38.806587 0 70.275202-31.468614 70.275201-70.275202-0.070557-24.695101-12.62978-46.215117-31.609729-58.77434z" fill="#F5ECDA" /><path d="M30.339695 389.75925S-3.316199 191.422311 306.924826 153.674085c80.576587-8.537449 243.35258-47.979053 510.694688 143.93716 47.979053 37.677668 190.222835 159.389237 135.39971 293.025012-17.145456 32.526976-80.576587 119.947633-195.373527 131.942397-65.124509 3.457314-169.690622 18.838834-284.487563-80.576587-44.592297-37.677668-175.688004-131.942396-258.804658-146.547785C162.07042 485.294012 42.546131 460.105009 30.339695 389.75925z" fill="#EACC53" /><path d="M950.902501 458.623303c0.070557 20.391098-3.598429 41.346655-12.34755 62.584442-17.145456 32.526976-80.576587 119.947633-195.373527 131.942396-65.124509 3.457314-169.690622 18.838834-284.487563-80.576586-44.592297-37.677668-175.688004-131.942396-258.804658-146.547785-43.39282-8.537449-133.21243-27.376283-169.337835-73.803073-2.75174 22.437263-0.211672 37.465996-0.211673 37.465996 12.206436 70.345759 131.730724 95.534762 184.013781 105.836147C297.47013 510.130228 428.565838 604.394956 473.087577 642.072625c114.796941 99.415421 219.363054 83.963343 284.487563 80.576586 114.796941-11.994763 178.228071-99.415421 195.373527-131.942396 19.050506-46.497347 14.252601-91.512988-2.046166-132.083512z" fill="#EBA824" /><path d="M792.924413 280.395232s-42.193344-12.841452-108.164543 0S446.557982 348.977055 384.82023 398.649487c-43.67505 32.526976-68.793495 57.645421-77.119272 171.10177-6.702956 90.807414-20.108868 172.654034 35.70206 208.567767-23.142837 7.40853-82.834424 21.731689-113.244677-11.712533-13.476469-19.262179-53.55309-50.095776-23.566182-317.437884 6.844071-34.290912 28.29353-92.359678 101.532143-134.764693 71.263006-41.276097 241.024185-120.794322 342.556329-114.726384 21.237787 6.844071 87.208985 44.098395 142.243782 80.717702z" fill="#6E4921" /><path d="M295.776752 214.424034s0.070557-0.141115 0.28223-0.493902c0.141115-0.352787 0.423345-0.846689 0.776131-1.481706 0.705574-1.270034 1.834493-3.104527 3.386757-5.291808 1.552263-2.18728 3.527872-4.727348 5.997382-7.479088 0.635017-0.705574 1.270034-1.340591 1.975608-2.046165l2.116723-2.116723c1.481706-1.411149 3.104527-2.822297 4.797905-4.304003 1.693378-1.481706 3.527872-2.892855 5.50348-4.374561 0.987804-0.705574 1.975608-1.411149 3.033969-2.116723l3.175085-2.116723c2.18728-1.340591 4.445118-2.75174 6.84407-4.021773 2.398953-1.340591 4.868463-2.46951 7.479088-3.668987 1.270034-0.564459 2.610625-1.128919 3.951216-1.622821 1.340591-0.493902 2.681182-1.058361 4.092331-1.552263 2.75174-0.917247 5.574037-1.905051 8.466892-2.610625 1.481706-0.423345 2.892855-0.776132 4.374561-1.128919 1.481706-0.352787 2.963412-0.635017 4.445118-0.917247 2.963412-0.635017 6.067939-0.987804 9.101909-1.340591 3.03397-0.352787 6.138497-0.493902 9.172466-0.635017H392.722662l1.128919 0.070558c6.067939 0.352787 11.994763 1.199476 17.639358 2.46951s11.006959 3.03397 15.875422 5.009577c1.199476 0.493902 2.398953 1.058361 3.598429 1.552264 1.128919 0.564459 2.328395 1.058361 3.386757 1.622821 2.18728 1.199476 4.233446 2.328395 6.209054 3.527871 0.493902 0.28223 0.987804 0.564459 1.411148 0.917247 0.493902 0.352787 0.917247 0.635017 1.340592 0.917246 0.917247 0.635017 1.763936 1.199476 2.610625 1.834494 0.846689 0.635017 1.622821 1.199476 2.398952 1.834493 0.423345 0.28223 0.776132 0.564459 1.128919 0.846689 0.352787 0.352787 0.705574 0.635017 1.058362 0.917247 1.411149 1.270034 2.681182 2.398953 3.810101 3.527871 0.564459 0.564459 1.128919 1.058361 1.622821 1.622821 0.564459 0.493902 0.987804 1.058361 1.411148 1.552264 0.917247 0.987804 1.693378 1.905051 2.328396 2.751739 0.635017 0.776132 1.199476 1.481706 1.622821 2.116723 0.423345 0.564459 0.776132 1.058361 0.987804 1.340592 0.211672 0.28223 0.352787 0.493902 0.352787 0.493902l-0.987804 1.834493s-0.635017-0.28223-1.763936-0.846689c-1.128919-0.564459-2.822297-1.340591-5.009578-2.328396-1.058361-0.564459-2.257838-0.987804-3.598429-1.552263-1.340591-0.564459-2.75174-1.128919-4.304003-1.763936-1.481706-0.635017-3.245642-1.128919-4.93902-1.763936-0.846689-0.28223-1.763936-0.635017-2.681182-0.917246-0.493902-0.141115-0.917247-0.352787-1.411149-0.493902l-1.481706-0.423345c-1.975608-0.564459-4.021774-1.128919-6.067939-1.693378-2.116723-0.493902-4.374561-0.987804-6.632399-1.481706-4.586233-0.917247-9.384138-1.693378-14.464273-2.187281-5.009578-0.564459-10.301385-0.776132-15.593193-0.776131h-0.987804l-0.987804 0.070557-1.975608 0.070558c-1.340591 0.070557-2.681182 0.070557-4.021773 0.141114-1.340591 0.141115-2.681182 0.211672-4.021774 0.352788-1.340591 0.141115-2.681182 0.211672-4.021773 0.352787-2.681182 0.352787-5.362365 0.564459-8.043548 1.058361-1.340591 0.211672-2.681182 0.423345-3.951216 0.635017-1.340591 0.28223-2.610625 0.564459-3.951216 0.776132-2.610625 0.493902-5.150692 1.199476-7.69076 1.763936-1.270034 0.28223-2.540068 0.705574-3.739544 1.058361-1.270034 0.352787-2.46951 0.635017-3.668986 1.058362-2.398953 0.776132-4.797905 1.481706-7.126301 2.328395-1.128919 0.423345-2.328395 0.776132-3.457314 1.199476-1.128919 0.423345-2.257838 0.846689-3.316199 1.270034-1.128919 0.423345-2.18728 0.846689-3.175085 1.270034-1.058361 0.423345-2.116723 0.846689-3.104527 1.270033-1.975608 0.917247-3.951216 1.693378-5.785709 2.610625-0.917247 0.423345-1.834493 0.846689-2.681182 1.270034l-2.540068 1.270034c-1.693378 0.776132-3.245642 1.622821-4.727348 2.398953-2.892855 1.552263-5.432922 2.963412-7.479087 4.233445-2.046166 1.199476-3.598429 2.18728-4.656791 2.892855-0.564459 0.352787-0.917247 0.635017-1.199476 0.776132-0.28223 0.211672-0.423345 0.28223-0.423345 0.28223l-1.199476-1.622821z" fill="#FFFFFF" /><path d="M613.07352 525.300076m-13.194239 0a13.19424 13.19424 0 1 0 26.388479 0 13.19424 13.19424 0 1 0-26.388479 0Z" fill="#774621" /><path d="M779.730173 575.889754m-13.19424 0a13.19424 13.19424 0 1 0 26.38848 0 13.19424 13.19424 0 1 0-26.38848 0Z" fill="#774621" /><path d="M648.634466 589.083994m-13.19424 0a13.19424 13.19424 0 1 0 26.388479 0 13.19424 13.19424 0 1 0-26.388479 0Z" fill="#774621" /><path d="M708.608282 538.91766m-13.194239 0a13.19424 13.19424 0 1 0 26.388479 0 13.19424 13.19424 0 1 0-26.388479 0Z" fill="#774621" /><path d="M827.568111 442.395094m-13.194239 0a13.19424 13.19424 0 1 0 26.388479 0 13.19424 13.19424 0 1 0-26.388479 0Z" fill="#774621" /><path d="M809.011507 343.685248m-16.087094 0a16.087094 16.087094 0 1 0 32.174188 0 16.087094 16.087094 0 1 0-32.174188 0Z" fill="#774621" /></svg>