<?xml version="1.0" standalone="no"?><!DOCTYPE svg PUBLIC "-//W3C//DTD SVG 1.1//EN" "http://www.w3.org/Graphics/SVG/1.1/DTD/svg11.dtd"><svg t="1698246235637" class="icon" viewBox="0 0 1024 1024" version="1.1" xmlns="http://www.w3.org/2000/svg" p-id="6417" xmlns:xlink="http://www.w3.org/1999/xlink" width="200" height="200"><path d="M724.0704 961.7408c-134.144 23.6544-316.928-72.9088-454.7584-240.3328C90.624 504.4224 49.2544 252.416 175.104 147.7632c27.136-22.5792 60.5696-36.608 98.6624-41.5744 2.7136-0.9216 5.5296-1.7408 8.448-2.304l1.7408-0.3584C345.6 92.672 415.5392 160.256 446.72 260.6592c20.3264 65.536 18.432 128.3072-5.12 167.936-12.4416 21.0944-30.464 34.5088-52.48 38.912 0 0-2.304 1.1264-2.9696 2.2528-0.8704 1.6384-1.3312 6.8096 2.2016 16.4864a813.9776 813.9776 0 0 0 141.0048 168.8576c4.6592 3.7376 7.2704 3.2768 8.4992 3.072a27.2384 27.2384 0 0 0 11.9296-7.0656c11.2128-22.8352 33.6896-38.2464 63.8464-43.52 40.5504-7.168 92.416 4.096 142.2336 30.7712 91.392 49.152 139.3152 128.3072 119.4496 187.1872l-3.6864 10.9568c-14.1824 33.28-32.5632 63.1808-58.9824 85.1968a187.0848 187.0848 0 0 1-88.576 40.0384zM323.4304 195.6352c-13.0048-12.544-22.2208-16.64-25.6512-16.4864a76.8 76.8 0 0 1-14.0288 3.1744c-24.1152 3.1744-43.8784 11.4688-59.5456 24.4736-84.8384 70.656-50.944 277.1456 104.3968 465.7664 122.0096 148.1728 279.8592 231.5776 382.1568 213.5552a110.4896 110.4896 0 0 0 52.736-23.4496c13.5168-11.264 25.4464-28.672 36.4544-53.9136l0.7168-2.2016 1.8944-5.5296c5.888-17.5104-22.3232-62.3616-83.0464-94.976-35.6864-19.1488-70.6048-26.7264-92.5696-22.8352-7.1168 1.2288-8.3968 2.0992-8.192 1.7408a76.8 76.8 0 0 1-16.384 22.1184c-13.6704 12.9024-29.3376 22.8352-51.2 26.7264a83.0976 83.0976 0 0 1-66.2016-16.0256c-2.2528-1.6384-2.2528-1.6384-8.2432-6.656a890.7264 890.7264 0 0 1-153.4976-184.1664 76.8 76.8 0 0 1-7.0144-14.336c-9.9328-27.136-12.032-53.4528 2.8672-80.2304 12.5952-22.6304 27.904-32.256 54.9376-40.1408l1.536-2.816c11.008-18.5344 12.288-59.4944-2.2016-105.984-11.52-37.2224-29.8496-68.4032-49.92-87.808z m374.3744 318.0032a35.0208 35.0208 0 0 1-6.9632 0.512c-21.0944-0.512-38.4-19.6608-38.6048-42.752a66.4576 66.4576 0 0 0-16.896-44.032 55.7056 55.7056 0 0 0-40.1408-19.0976c-21.0944-0.512-38.4-19.6608-38.6048-42.752-0.2048-23.0912 16.6912-41.3696 37.8368-40.9088 35.4816 0.8704 68.9664 16.8448 94.3616 44.9024a156.672 156.672 0 0 1 39.8848 103.7824c0.2048 20.48-13.1072 37.2224-30.8736 40.3456z m171.3664-56.1664a33.4336 33.4336 0 0 1-6.8096 0.4608c-20.6336-0.5632-37.632-19.7632-37.888-42.8032-1.28-94.5664-71.168-173.4656-155.8016-175.9232-20.6336-0.5632-37.632-19.7632-37.888-42.752-0.3584-23.04 16.2304-41.2672 36.8128-40.704 125.9008 3.584 229.7856 120.9344 231.6288 261.5296 0.256 20.48-12.6976 37.12-30.0544 40.192z" fill="#1C2134" p-id="6418"></path></svg>