<?xml version="1.0" encoding="utf-8"?>
<!-- Uploaded to: SVG Repo, www.svgrepo.com, Generator: SVG Repo Mixer Tools -->
<svg width="800px" height="800px" viewBox="0 0 1024 1024" class="icon"  version="1.1" xmlns="http://www.w3.org/2000/svg"><path d="M445.4 152.9H812v111.8H445.4zM457.4 832.8H800v111.8H457.4zM343.5 264.7h101.8v111.8H343.5zM488.1 411.3h189.5v70.4H488.1zM488.1 615.9h270.6v70.4H488.1z" fill="#EFCE0F" /><path d="M598.4 452.1h79.2v163.8h-79.2zM241.7 376.6h101.8V721H241.7zM913.8 376.6h101.8V721H913.8zM812 264.7h101.8v111.8H812zM343.5 721h101.8v111.8H343.5zM812 721h101.8v111.8H812zM211.1 85.8h366.6v111.8H211.1z" fill="#EFCE0F" /><path d="M223.2 765.7h120.4v111.8H223.2zM109.3 197.6h101.8v111.8H109.3zM7.5 309.5h101.8v344.4H7.5zM109.3 653.9h101.8v111.8H109.3z" fill="#EFCE0F" /></svg>