<svg xmlns="http://www.w3.org/2000/svg" width="88" height="88" viewBox="0 0 88 88" fill="none">
  <path d="M75.7163 40.113L69.1897 33.5863V24.3097C69.1897 22.851 68.6102 21.452 67.5788 20.4206C66.5473 19.3891 65.1484 18.8097 63.6897 18.8097H54.413L47.8863 12.283C47.3782 11.7686 46.773 11.3602 46.1058 11.0815C45.4386 10.8027 44.7227 10.6592 43.9997 10.6592C43.2766 10.6592 42.5607 10.8027 41.8935 11.0815C41.2264 11.3602 40.6212 11.7686 40.113 12.283L33.5863 18.8097H24.3097C22.851 18.8097 21.452 19.3891 20.4206 20.4206C19.3891 21.452 18.8097 22.851 18.8097 24.3097V33.5863L12.283 40.113C11.7686 40.6212 11.3602 41.2264 11.0815 41.8935C10.8027 42.5607 10.6592 43.2766 10.6592 43.9997C10.6592 44.7227 10.8027 45.4386 11.0815 46.1058C11.3602 46.773 11.7686 47.3782 12.283 47.8863L18.8097 54.413V63.6897C18.8097 65.1484 19.3891 66.5473 20.4206 67.5788C21.452 68.6102 22.851 69.1897 24.3097 69.1897H33.5863L40.113 75.7163C40.6212 76.2307 41.2264 76.6391 41.8935 76.9179C42.5607 77.1966 43.2766 77.3402 43.9997 77.3402C44.7227 77.3402 45.4386 77.1966 46.1058 76.9179C46.773 76.6391 47.3782 76.2307 47.8863 75.7163L54.413 69.1897H63.6897C65.1484 69.1897 66.5473 68.6102 67.5788 67.5788C68.6102 66.5473 69.1897 65.1484 69.1897 63.6897V54.413L75.7163 47.8863C76.2307 47.3782 76.6391 46.773 76.9179 46.1058C77.1966 45.4386 77.3402 44.7227 77.3402 43.9997C77.3402 43.2766 77.1966 42.5607 76.9179 41.8935C76.6391 41.2264 76.2307 40.6212 75.7163 40.113Z" fill="#1FC98C"/>
  <path d="M59.1073 36.8872L41.0306 55.0005C40.7767 55.2576 40.4741 55.4614 40.1403 55.5999C39.8066 55.7384 39.4486 55.8089 39.0873 55.8072C38.7251 55.8154 38.3651 55.7479 38.0305 55.6089C37.6959 55.47 37.3939 55.2628 37.144 55.0005L28.894 46.7505C28.6345 46.4977 28.4283 46.1955 28.2875 45.8618C28.1468 45.528 28.0742 45.1694 28.0742 44.8072C28.0742 44.445 28.1468 44.0864 28.2875 43.7526C28.4283 43.4189 28.6345 43.1167 28.894 42.8639C29.4096 42.3489 30.1086 42.0596 30.8373 42.0596C31.5661 42.0596 32.265 42.3489 32.7806 42.8639L39.0873 49.1705L55.2206 33.0005C55.7363 32.4856 56.4352 32.1963 57.164 32.1963C57.8927 32.1963 58.5917 32.4856 59.1073 33.0005C59.3668 33.2533 59.573 33.5555 59.7137 33.8893C59.8545 34.2231 59.9271 34.5816 59.9271 34.9439C59.9271 35.3061 59.8545 35.6647 59.7137 35.9984C59.573 36.3322 59.3668 36.6344 59.1073 36.8872Z" fill="white"/>
</svg>
