<svg t="1653733295707" class="icon" viewBox="0 0 1024 1024" version="1.1" xmlns="http://www.w3.org/2000/svg" p-id="4679" width="200" height="200"><path d="M683.52 679.68m-288 0a288 288 0 1 0 576 0 288 288 0 1 0-576 0Z" fill="#FFD84A" p-id="4680"></path><path d="M692.48 913.92h-448c-120.32 0-217.6-97.28-217.6-217.6v-448c0-120.32 97.28-217.6 217.6-217.6h448c120.32 0 217.6 97.28 217.6 217.6v448c0 119.04-97.28 217.6-217.6 217.6z m-448-832c-92.16 0-166.4 74.24-166.4 166.4v448c0 92.16 74.24 166.4 166.4 166.4h448c92.16 0 166.4-74.24 166.4-166.4v-448c0-92.16-74.24-166.4-166.4-166.4h-448z" p-id="4681"></path><path d="M270.08 472.32c0 26.88 21.76 48.64 48.64 48.64s48.64-21.76 48.64-48.64c0-25.6-21.76-48.64-48.64-48.64s-48.64 19.2-48.64 48.64z" p-id="4682"></path><path d="M472.32 472.32m-48.64 0a48.64 48.64 0 1 0 97.28 0 48.64 48.64 0 1 0-97.28 0Z" p-id="4683"></path><path d="M620.8 472.32m-48.64 0a48.64 48.64 0 1 0 97.28 0 48.64 48.64 0 1 0-97.28 0Z" p-id="4684"></path></svg>