<svg width="38" height="35" viewBox="0 0 38 35" fill="none" xmlns="http://www.w3.org/2000/svg">
	<g id="78263478fbhyt28673456r2938h">
		<ellipse id="Ellipse 65" cx="19" cy="27.069" rx="19" ry="6.99017" fill="url(#paint0_radial_304_299)"
		fill-opacity="0.3" />
		<ellipse id="Ellipse 66" cx="19.0003" cy="25.944" rx="10.2804" ry="3.78218"
		fill="url(#paint1_radial_304_299)" fill-opacity="0.6" />
		<g id="Subtract">
			<path fill-rule="evenodd" clip-rule="evenodd" d="M19 24.8159C19 24.8159 29.0756 17.7257 29.0756 10.0756C29.0756 4.51102 24.5646 0 19 0C13.4353 0 8.92431 4.51102 8.92432 10.0756C8.92432 18.3255 19 24.8159 19 24.8159ZM18.9997 15.0828C21.9365 15.0828 24.3173 12.702 24.3173 9.76518C24.3173 6.82832 21.9365 4.44753 18.9997 4.44753C16.0628 4.44753 13.682 6.82832 13.682 9.76518C13.682 12.702 16.0628 15.0828 18.9997 15.0828Z"
			fill="#082743" />
			<path fill-rule="evenodd" clip-rule="evenodd" d="M19 24.8159C19 24.8159 29.0756 17.7257 29.0756 10.0756C29.0756 4.51102 24.5646 0 19 0C13.4353 0 8.92431 4.51102 8.92432 10.0756C8.92432 18.3255 19 24.8159 19 24.8159ZM18.9997 15.0828C21.9365 15.0828 24.3173 12.702 24.3173 9.76518C24.3173 6.82832 21.9365 4.44753 18.9997 4.44753C16.0628 4.44753 13.682 6.82832 13.682 9.76518C13.682 12.702 16.0628 15.0828 18.9997 15.0828Z"
			fill="url(#paint2_linear_304_299)" />
		</g>
		<g id="Subtract_2">
			<path fill-rule="evenodd" clip-rule="evenodd" d="M19 26.448C19 26.448 29.0756 19.3577 29.0756 11.7077C29.0756 6.14304 24.5646 1.63202 19 1.63202C13.4353 1.63202 8.92431 6.14304 8.92432 11.7077C8.92432 19.9575 19 26.448 19 26.448ZM18.9997 17.0253C21.9365 17.0253 24.3173 14.6445 24.3173 11.7076C24.3173 8.77076 21.9365 6.38997 18.9997 6.38997C16.0628 6.38997 13.682 8.77076 13.682 11.7076C13.682 14.6445 16.0628 17.0253 18.9997 17.0253Z"
			fill="white" />
			<path fill-rule="evenodd" clip-rule="evenodd" d="M19 26.448C19 26.448 29.0756 19.3577 29.0756 11.7077C29.0756 6.14304 24.5646 1.63202 19 1.63202C13.4353 1.63202 8.92431 6.14304 8.92432 11.7077C8.92432 19.9575 19 26.448 19 26.448ZM18.9997 17.0253C21.9365 17.0253 24.3173 14.6445 24.3173 11.7076C24.3173 8.77076 21.9365 6.38997 18.9997 6.38997C16.0628 6.38997 13.682 8.77076 13.682 11.7076C13.682 14.6445 16.0628 17.0253 18.9997 17.0253Z"
			fill="url(#paint3_linear_304_299)" />
		</g>
	</g>
	<defs>
		<radialGradient id="paint0_radial_304_299" cx="0" cy="0" r="1" gradientUnits="userSpaceOnUse"
		gradientTransform="translate(19 27.069) rotate(90) scale(6.99017 19)">
			<stop stop-color="#00D1FF" stop-opacity="0" />
			<stop offset="0.317708" stop-color="#00D1FF" stop-opacity="0.5625" />
			<stop offset="0.713542" stop-color="#00D1FF" stop-opacity="0.1" />
			<stop offset="1" stop-color="#00D1FF" />
		</radialGradient>
		<radialGradient id="paint1_radial_304_299" cx="0" cy="0" r="1" gradientUnits="userSpaceOnUse"
		gradientTransform="translate(19.0003 25.944) rotate(90) scale(3.78218 10.2804)">
			<stop stop-color="#00D1FF" />
			<stop offset="0.53125" stop-color="#00D1FF" stop-opacity="0" />
			<stop offset="1" stop-color="#00D1FF" />
		</radialGradient>
		<linearGradient id="paint2_linear_304_299" x1="19" y1="-0.310491" x2="19"
		y2="24.5054" gradientUnits="userSpaceOnUse">
			<stop stop-color="#00B2FF" />
			<stop offset="0.0001" stop-color="#00EAFF" />
			<stop offset="0.432292" stop-color="#00C0FD" />
			<stop offset="1" stop-color="#00EAFF" />
		</linearGradient>
		<linearGradient id="paint3_linear_304_299" x1="19" y1="1.63202" x2="19"
		y2="26.448" gradientUnits="userSpaceOnUse">
			<stop stop-color="#00F0FF" />
			<stop offset="1" stop-color="#00B2FF" />
		</linearGradient>
	</defs>
</svg>