<svg t="1647495860538" class="icon" viewBox="0 0 1024 1024" version="1.1" xmlns="http://www.w3.org/2000/svg" p-id="6244" width="200" height="200"><path d="M179.2 25.6m51.2 0l665.6 0q51.2 0 51.2 51.2l0 870.4q0 51.2-51.2 51.2l-665.6 0q-51.2 0-51.2-51.2l0-870.4q0-51.2 51.2-51.2Z" fill="#20CACE" p-id="6245"></path><path d="M128 25.6m51.2 0l665.6 0q51.2 0 51.2 51.2l0 870.4q0 51.2-51.2 51.2l-665.6 0q-51.2 0-51.2-51.2l0-870.4q0-51.2 51.2-51.2Z" fill="#44DCDF" p-id="6246"></path><path d="M896 76.8a51.2 51.2 0 0 0-51.2-51.2H179.2a51.2 51.2 0 0 0-51.2 51.2v870.4a51.2 51.2 0 0 0 51.2 51.2h204.8a820.736 820.736 0 0 0 281.6-118.784 819.2 819.2 0 0 0 231.936-230.4z" fill="#7AEDE5" p-id="6247"></path><path d="M793.6 230.4l-50.944-51.2L691.2 230.4V25.6h102.4v204.8z" fill="#44DCDF" p-id="6248"></path><path d="M641.536 356.608a122.368 122.368 0 0 0-103.936 58.88 122.368 122.368 0 0 0-103.936-58.88 100.352 100.352 0 0 0-102.4 104.192 176.64 176.64 0 0 0 72.192 135.68A467.712 467.712 0 0 0 537.6 667.392a467.712 467.712 0 0 0 134.912-70.912 176.64 176.64 0 0 0 72.192-135.68 100.352 100.352 0 0 0-103.168-104.192z" fill="#F0A0F2" p-id="6249"></path><path d="M739.072 425.216a97.792 97.792 0 0 0-97.536-68.608 122.368 122.368 0 0 0-103.936 58.88 122.368 122.368 0 0 0-103.936-58.88 100.352 100.352 0 0 0-102.4 104.192 176.64 176.64 0 0 0 72.192 135.68c7.936 6.4 16.384 12.544 25.6 18.176H435.2c150.272-0.256 275.968-81.408 303.872-189.44z" fill="#F5AEF4" p-id="6250"></path><path d="M377.6 425.216m-12.032 0a12.032 12.032 0 1 0 24.064 0 12.032 12.032 0 1 0-24.064 0Z" fill="#FFFFFF" p-id="6251"></path><path d="M358.4 463.616c2.56-14.592 12.8-17.664 17.664-11.776s-3.328 15.36 3.328 46.848a515.84 515.84 0 0 0 18.432 52.992c0 5.632-21.76-18.944-32-44.032a87.04 87.04 0 0 1-7.424-44.032z" fill="#FFFFFF" p-id="6252"></path><path d="M128 334.336A104.192 104.192 0 0 1 25.6 204.8a104.192 104.192 0 0 1 200.96-4.864A23.04 23.04 0 0 1 204.8 230.4h-3.584A25.6 25.6 0 0 1 179.2 212.992 54.272 54.272 0 0 0 113.408 179.2 54.016 54.016 0 0 0 128 284.416zM128 615.936a104.192 104.192 0 0 1-102.4-128 104.192 104.192 0 0 1 200.96-4.864A23.04 23.04 0 0 1 204.8 512h-3.584a25.6 25.6 0 0 1-22.016-17.408A54.272 54.272 0 0 0 113.408 460.8 54.016 54.016 0 0 0 128 566.016zM128 897.536a104.192 104.192 0 0 1-102.4-128 104.192 104.192 0 0 1 200.96-4.864A23.04 23.04 0 0 1 204.8 793.6h-3.584a25.6 25.6 0 0 1-22.016-17.408A54.272 54.272 0 0 0 113.408 742.4 54.016 54.016 0 0 0 128 847.616z" fill="#F5AEF4" p-id="6253"></path></svg>